<svg xmlns="http://www.w3.org/2000/svg" xmlns:xlink="http://www.w3.org/1999/xlink" width="63" height="136" viewBox="0 0 63 136">
  <defs>
    <filter id="Path_32" x="0" y="0" width="63" height="136" filterUnits="userSpaceOnUse">
      <feOffset dy="3" input="SourceAlpha"/>
      <feGaussianBlur stdDeviation="3" result="blur"/>
      <feFlood flood-color="#0019ff" flood-opacity="0.137"/>
      <feComposite operator="in" in2="blur"/>
      <feComposite in="SourceGraphic"/>
    </filter>
  </defs>
  <g transform="matrix(1, 0, 0, 1, 0, 0)" filter="url(#Path_32)">
    <g id="Path_32-2" data-name="Path 32" transform="translate(9 6)" fill="#057efe">
      <path d="M 36 117 L 9 117 C 4.588784694671631 117 1 113.4112167358398 1 109 L 1 9 C 1 4.588784694671631 4.588784694671631 1 9 1 L 36 1 C 38.06433868408203 1 39.95464706420898 1.775246143341064 41.61843109130859 3.304199934005737 C 43.11092376708984 4.663569450378418 44 6.791707515716553 44 9 L 44 109 C 44 113.4112167358398 40.41121673583984 117 36 117 Z" stroke="none"/>
      <path d="M 9 2 C 5.140182495117188 2 2 5.140182495117188 2 9 L 2 109 C 2 112.8598175048828 5.140182495117188 116 9 116 L 36 116 C 39.85981750488281 116 43 112.8598175048828 43 109 L 43 9 C 43 7.097183227539063 42.21385192871094 5.199119567871094 40.94834899902344 4.046501159667969 L 40.945068359375 4.04351806640625 L 40.94179916381836 4.040496826171875 C 39.46841812133789 2.686531066894531 37.80576705932617 2 36 2 L 9 2 M 9 0 L 36 0 C 38.34111785888672 0 40.47346496582031 0.8938827514648438 42.29508209228516 2.567886352539063 C 43.87238311767578 4.004486083984375 45 6.370552062988281 45 9 L 45 109 C 45 113.9705657958984 40.97056579589844 118 36 118 L 9 118 C 4.029434204101563 118 0 113.9705657958984 0 109 L 0 9 C 0 4.029434204101563 4.029434204101563 0 9 0 Z" stroke="none" fill="#fff"/>
    </g>
  </g>
</svg>
