<svg xmlns="http://www.w3.org/2000/svg" xmlns:xlink="http://www.w3.org/1999/xlink" width="462" height="237.31" viewBox="0 0 462 237.31">
  <defs>
    <linearGradient id="linear-gradient" x1="-0.04" y1="-0.083" x2="1.04" y2="1" gradientUnits="objectBoundingBox">
      <stop offset="0" stop-color="#eee6d9"/>
      <stop offset="1" stop-color="#5a88b4"/>
      <stop offset="1" stop-color="#a09587"/>
    </linearGradient>
    <filter id="NoPath_копия_16_" x="0" y="0" width="462" height="237.31" filterUnits="userSpaceOnUse">
      <feOffset dy="6" input="SourceAlpha"/>
      <feGaussianBlur stdDeviation="9" result="blur"/>
      <feFlood flood-color="#123585" flood-opacity="0.161"/>
      <feComposite operator="in" in2="blur"/>
      <feComposite in="SourceGraphic"/>
    </filter>
  </defs>
  <g id="Сгруппировать_3141" data-name="Сгруппировать 3141" transform="translate(-729 -5545)">
    <g id="Компонент_9_7" data-name="Компонент 9 – 7" transform="translate(756 5566)">
      <g transform="matrix(1, 0, 0, 1, -27, -21)" filter="url(#NoPath_копия_16_)">
        <g id="NoPath_копия_16_2" data-name="NoPath — копия (16)" transform="translate(27 21)" fill="url(#linear-gradient)">
          <path d="M 396.1738891601563 181.8095703125 L 11.82610511779785 181.8095703125 C 6.13226318359375 181.8095703125 1.5 177.4606323242188 1.5 172.1150970458984 L 1.5 11.1944694519043 C 1.5 5.84894323348999 6.13226318359375 1.499995708465576 11.82610511779785 1.499995708465576 L 396.1738891601563 1.499995708465576 C 401.8677368164063 1.499995708465576 406.5 5.84894323348999 406.5 11.1944694519043 L 406.5 172.1150970458984 C 406.5 177.4606323242188 401.8677368164063 181.8095703125 396.1738891601563 181.8095703125 Z" stroke="none"/>
          <path d="M 11.8260498046875 3 C 6.959381103515625 3 3 6.675994873046875 3 11.19447326660156 L 3 172.1150970458984 C 3 176.6335754394531 6.959381103515625 180.3095703125 11.8260498046875 180.3095703125 L 396.1738891601563 180.3095703125 C 401.0406188964844 180.3095703125 405 176.6335754394531 405 172.1150970458984 L 405 11.19447326660156 C 405 6.675994873046875 401.0406188964844 3 396.1738891601563 3 L 11.8260498046875 3 M 11.8260498046875 0 L 396.1738891601563 0 C 402.7052612304688 0 408 5.011947631835938 408 11.19447326660156 L 408 172.1150970458984 C 408 178.2976226806641 402.7052612304688 183.3095703125 396.1738891601563 183.3095703125 L 11.8260498046875 183.3095703125 C 5.294677734375 183.3095703125 0 178.2976226806641 0 172.1150970458984 L 0 11.19447326660156 C 0 5.011947631835938 5.294677734375 0 11.8260498046875 0 Z" stroke="none" fill="#fff"/>
        </g>
      </g>
    </g>
    <g id="lineage-case" transform="translate(822.561 5597.29)">
      <path id="Контур_840" data-name="Контур 840" d="M113.42,47.82a7.274,7.274,0,0,0-.76.668q-.345.35-.683.652a3.761,3.761,0,0,1-.691.5,1.6,1.6,0,0,1-.786.2h-.45a1.593,1.593,0,0,1-.777-.179,1.528,1.528,0,0,1-.537-.472,1.564,1.564,0,0,1-.242-.945V44.342h2.281a2.306,2.306,0,0,1,.985.187,4.937,4.937,0,0,1,.735.423q.337.237.673.448a1.861,1.861,0,0,0,.8.261,4.374,4.374,0,0,1-.182-.766,5.553,5.553,0,0,1,0-1.637,4.051,4.051,0,0,1,.182-.741,1.859,1.859,0,0,0-.8.261q-.337.212-.673.448a4.9,4.9,0,0,1-.735.423,2.3,2.3,0,0,1-.985.187h-2.281v-3a1.527,1.527,0,0,1,.242-.937,1.558,1.558,0,0,1,.537-.464,1.725,1.725,0,0,1,.777-.2h.536a1.533,1.533,0,0,1,.735.163,2.4,2.4,0,0,1,.562.423q.26.26.527.57a5.551,5.551,0,0,0,.614.6,3.809,3.809,0,0,0,.82.521,3.993,3.993,0,0,0,1.167.326v-.1a3.873,3.873,0,0,1-.4-.758,4.85,4.85,0,0,1-.311-1.555q-.018-.464-.017-.928h-.069a1.929,1.929,0,0,1-.493.228,2.474,2.474,0,0,1-.752.1h-8.624v.114a2.653,2.653,0,0,1,.865.228,1.8,1.8,0,0,1,.6.5,1.487,1.487,0,0,1,.268.953v7.818a1.487,1.487,0,0,1-.268.953,1.79,1.79,0,0,1-.6.5,2.626,2.626,0,0,1-.865.228v.114h8.538a2.492,2.492,0,0,1,.752.1,1.9,1.9,0,0,1,.492.228h.07a13.047,13.047,0,0,1,.475-1.857,6.371,6.371,0,0,1,.855-1.628v-.1a3.792,3.792,0,0,0-1.184.293A4.551,4.551,0,0,0,113.42,47.82Zm12.167,2.549a5.2,5.2,0,0,0,1.14.114,4.932,4.932,0,0,0,1.642-.261,3.96,3.96,0,0,0,1.271-.709,3.048,3.048,0,0,0,.812-1.075,3.251,3.251,0,0,0,.285-1.36,3.186,3.186,0,0,0-.717-2.06,5.318,5.318,0,0,0-2.066-1.474l-3.094-1.352a3.8,3.8,0,0,1-1.193-.766,1.373,1.373,0,0,1-.414-.993,1.243,1.243,0,0,1,.457-1A1.952,1.952,0,0,1,125,39.048a2.33,2.33,0,0,1,1.046.212,3.218,3.218,0,0,1,.769.538,7.225,7.225,0,0,1,.657.709,7.542,7.542,0,0,0,.692.741,4.346,4.346,0,0,0,.881.636,3.51,3.51,0,0,0,1.245.374v-.1a7.005,7.005,0,0,1-.744-1.661,6.49,6.49,0,0,1-.242-1.824h-.069a1.259,1.259,0,0,1-.951.342,3.11,3.11,0,0,1-.6-.065q-.356-.07-.709-.146-.38-.082-.812-.146a6.1,6.1,0,0,0-.9-.065,4.461,4.461,0,0,0-1.443.22,3.328,3.328,0,0,0-1.106.611,2.729,2.729,0,0,0-.709.928,2.789,2.789,0,0,0-.25,1.189,2.979,2.979,0,0,0,.648,1.865,4.533,4.533,0,0,0,1.893,1.36l2.455,1.042a5.6,5.6,0,0,1,1.754,1.075,1.835,1.835,0,0,1,.545,1.336,1.718,1.718,0,0,1-.536,1.295,2.243,2.243,0,0,1-1.607.513,2.886,2.886,0,0,1-1.287-.261,3.832,3.832,0,0,1-.942-.651,7.042,7.042,0,0,1-.77-.855,9.486,9.486,0,0,0-.76-.879,4.094,4.094,0,0,0-.925-.709,2.894,2.894,0,0,0-1.244-.342v.1a7.131,7.131,0,0,1,.691,3.974h.069a2.191,2.191,0,0,1,.657-.481,1.835,1.835,0,0,1,.795-.171,2.323,2.323,0,0,1,.717.114l.77.252Q125.087,50.255,125.587,50.369Zm17.69-6.825-3.093-1.352a3.8,3.8,0,0,1-1.193-.766,1.373,1.373,0,0,1-.415-.994,1.242,1.242,0,0,1,.458-1,1.95,1.95,0,0,1,1.287-.383,2.328,2.328,0,0,1,1.046.212,3.2,3.2,0,0,1,.769.538,7.128,7.128,0,0,1,.657.709,7.629,7.629,0,0,0,.692.741,4.351,4.351,0,0,0,.882.636,3.507,3.507,0,0,0,1.244.374v-.1a6.974,6.974,0,0,1-.743-1.661,6.491,6.491,0,0,1-.242-1.824h-.069a1.26,1.26,0,0,1-.951.342,3.123,3.123,0,0,1-.605-.065q-.356-.07-.709-.146-.38-.082-.812-.146a6.1,6.1,0,0,0-.9-.065,4.466,4.466,0,0,0-1.444.22,3.319,3.319,0,0,0-1.106.611,2.721,2.721,0,0,0-.709.928,2.778,2.778,0,0,0-.25,1.189,2.978,2.978,0,0,0,.648,1.865,4.533,4.533,0,0,0,1.893,1.36l2.454,1.042a5.6,5.6,0,0,1,1.755,1.075,1.838,1.838,0,0,1,.545,1.336,1.718,1.718,0,0,1-.536,1.295,2.246,2.246,0,0,1-1.607.513,2.886,2.886,0,0,1-1.288-.261,3.856,3.856,0,0,1-.942-.651,7.04,7.04,0,0,1-.769-.855,9.593,9.593,0,0,0-.76-.879,4.109,4.109,0,0,0-.925-.709,2.9,2.9,0,0,0-1.245-.342v.1a7.125,7.125,0,0,1,.691,3.974h.07a2.2,2.2,0,0,1,.657-.481,1.839,1.839,0,0,1,.8-.171,2.324,2.324,0,0,1,.717.114q.354.114.769.252t.916.253a5.187,5.187,0,0,0,1.14.114,4.94,4.94,0,0,0,1.642-.261,3.966,3.966,0,0,0,1.27-.709,3.05,3.05,0,0,0,.813-1.075,3.261,3.261,0,0,0,.285-1.36,3.185,3.185,0,0,0-.717-2.06A5.306,5.306,0,0,0,143.278,43.544Zm17.384,6.792a1.914,1.914,0,0,1,.492.228h.069a13.045,13.045,0,0,1,.476-1.857,6.35,6.35,0,0,1,.855-1.628v-.1a3.791,3.791,0,0,0-1.184.293,4.622,4.622,0,0,0-.925.545,7.277,7.277,0,0,0-.76.668q-.345.35-.683.652a3.761,3.761,0,0,1-.691.5,1.606,1.606,0,0,1-.786.2h-.45a1.6,1.6,0,0,1-.778-.179,1.532,1.532,0,0,1-.536-.472,1.564,1.564,0,0,1-.242-.945V44.342H157.8a2.308,2.308,0,0,1,.985.187,4.928,4.928,0,0,1,.735.423c.225.158.45.307.674.448a1.858,1.858,0,0,0,.8.261,4.374,4.374,0,0,1-.182-.766,5.554,5.554,0,0,1,0-1.637,4,4,0,0,1,.182-.741,1.856,1.856,0,0,0-.8.261c-.225.141-.45.291-.674.448a4.886,4.886,0,0,1-.735.423,2.3,2.3,0,0,1-.985.187h-2.281v-3a1.527,1.527,0,0,1,.242-.937,1.563,1.563,0,0,1,.536-.464,1.73,1.73,0,0,1,.778-.2h.536a1.533,1.533,0,0,1,.735.163,2.4,2.4,0,0,1,.562.423q.259.26.527.57a5.6,5.6,0,0,0,.614.6,3.831,3.831,0,0,0,.821.521,3.987,3.987,0,0,0,1.167.326v-.1a3.874,3.874,0,0,1-.4-.758,4.814,4.814,0,0,1-.311-1.555q-.018-.464-.017-.928h-.069a1.933,1.933,0,0,1-.493.228,2.465,2.465,0,0,1-.751.1h-8.624v.114a2.657,2.657,0,0,1,.865.228,1.8,1.8,0,0,1,.6.5,1.487,1.487,0,0,1,.268.953v7.818a1.487,1.487,0,0,1-.268.953,1.8,1.8,0,0,1-.6.5,2.631,2.631,0,0,1-.865.228v.114h8.538A2.406,2.406,0,0,1,160.662,50.336Zm16.793-4.382-6.24-7.118h-3.8v.114a2.86,2.86,0,0,1,1.037.374,2.465,2.465,0,0,1,.717.7,2.156,2.156,0,0,1,.32,1.254v5.049a5.475,5.475,0,0,1-.32,2.076,3.316,3.316,0,0,1-.717,1.132,2.241,2.241,0,0,1-1.037.587v.114h4.753v-.114a2.227,2.227,0,0,1-1.053-.587,3.3,3.3,0,0,1-.717-1.132,5.446,5.446,0,0,1-.321-2.076V41.214h.07l8.192,9.35h.086q-.142-.948-.2-1.905-.061-1.005-.086-2.012t-.026-2v-1.9a5.492,5.492,0,0,1,.319-2.069,3.306,3.306,0,0,1,.717-1.14,2.233,2.233,0,0,1,1.055-.587v-.114h-4.753v.114a2.234,2.234,0,0,1,1.037.587,3.588,3.588,0,0,1,.38.472,3.112,3.112,0,0,1,.337.668,5.291,5.291,0,0,1,.242.9,6.421,6.421,0,0,1,.095,1.165v3.209Zm17.167.636a3.458,3.458,0,0,1-.743,1.01,4.244,4.244,0,0,1-1.046.692,3.613,3.613,0,0,1-1.6.317,4.117,4.117,0,0,1-1.824-.4A4.19,4.19,0,0,1,188,47.1a5.191,5.191,0,0,1-.916-1.7,6.881,6.881,0,0,1-.328-2.166,6.639,6.639,0,0,1,.207-1.719,4.213,4.213,0,0,1,.587-1.319,2.793,2.793,0,0,1,.907-.847,2.313,2.313,0,0,1,1.167-.3,2,2,0,0,1,.951.212,3.109,3.109,0,0,1,.726.538,7.942,7.942,0,0,1,.63.709,6.405,6.405,0,0,0,.692.741,4.5,4.5,0,0,0,.9.636,3.6,3.6,0,0,0,1.253.374v-.1a6.752,6.752,0,0,1-.743-1.645,6.554,6.554,0,0,1-.242-1.841h-.068a1.259,1.259,0,0,1-.951.342,2.627,2.627,0,0,1-.571-.065q-.316-.07-.63-.146c-.225-.054-.473-.1-.743-.146a5.7,5.7,0,0,0-.89-.065,5.239,5.239,0,0,0-2.264.481,5.383,5.383,0,0,0-1.755,1.311,5.973,5.973,0,0,0-1.14,1.954,7.069,7.069,0,0,0-.406,2.427,6.533,6.533,0,0,0,.4,2.337,5.243,5.243,0,0,0,1.114,1.8,5,5,0,0,0,1.72,1.165,6.243,6.243,0,0,0,3.655.253,5.038,5.038,0,0,0,1.132-.432,4.219,4.219,0,0,0,.873-.611,5.633,5.633,0,0,0,.648-.7,5.369,5.369,0,0,0,.916-1.922Zm14.187,3.746a1.925,1.925,0,0,1,.492.228h.069a13.139,13.139,0,0,1,.475-1.857,6.352,6.352,0,0,1,.856-1.628v-.1a3.792,3.792,0,0,0-1.184.293,4.621,4.621,0,0,0-.925.545,7.274,7.274,0,0,0-.76.668q-.346.35-.683.652a3.76,3.76,0,0,1-.691.5,1.606,1.606,0,0,1-.786.2h-.45a1.6,1.6,0,0,1-.778-.179,1.532,1.532,0,0,1-.536-.472,1.564,1.564,0,0,1-.242-.945V44.342h2.281a2.308,2.308,0,0,1,.985.187,4.93,4.93,0,0,1,.735.423c.225.158.45.307.674.448a1.858,1.858,0,0,0,.8.261,4.377,4.377,0,0,1-.182-.766,5.556,5.556,0,0,1,0-1.637,4,4,0,0,1,.182-.741,1.856,1.856,0,0,0-.8.261c-.225.141-.45.291-.674.448a4.888,4.888,0,0,1-.735.423,2.3,2.3,0,0,1-.985.187h-2.281v-3a1.527,1.527,0,0,1,.242-.937,1.562,1.562,0,0,1,.536-.464,1.73,1.73,0,0,1,.778-.2h.536a1.533,1.533,0,0,1,.735.163,2.379,2.379,0,0,1,.561.423q.26.26.528.57a5.6,5.6,0,0,0,.614.6,3.814,3.814,0,0,0,.821.521,3.987,3.987,0,0,0,1.167.326v-.1a3.872,3.872,0,0,1-.4-.758,4.813,4.813,0,0,1-.311-1.555q-.018-.464-.017-.928h-.07a1.918,1.918,0,0,1-.493.228,2.466,2.466,0,0,1-.751.1h-8.624v.114a2.657,2.657,0,0,1,.865.228,1.8,1.8,0,0,1,.6.5,1.487,1.487,0,0,1,.268.953v7.818a1.487,1.487,0,0,1-.268.953,1.794,1.794,0,0,1-.6.5,2.631,2.631,0,0,1-.865.228v.114h8.538A2.407,2.407,0,0,1,208.808,50.336ZM75.16,26.489l1.165,4.032-1.077,2.213A64.815,64.815,0,0,0,90.99,42.708C85.563,36.885,73.785,22.349,78.382,3.365,78.01,3.7,70.839,14.27,73.374,25.5,73.394,25.585,75.16,26.489,75.16,26.489Z" transform="translate(-20.085)"/>
      <path id="Контур_841" data-name="Контур 841" d="M57.906,39.8l2.9,3.159.046,2.434a68.047,68.047,0,0,0,18.773,2.566C72.06,44.924,54.764,36.628,50.185,17.641c-.18.457-1.788,12.908,5.659,22C55.9,39.705,57.906,39.8,57.906,39.8Zm21.722,9.873C72.285,53.161,54.4,60.257,36.052,51.3c.253.425,9.309,9.618,21.484,10.124.089,0,1.459-1.382,1.459-1.382l4.434-.051,2,1.537A63.229,63.229,0,0,0,79.628,49.672Z" transform="translate(-8.722 -4.41)"/>
      <path id="Контур_842" data-name="Контур 842" d="M55.807,46.362c.08.037,1.938-.68,1.938-.68l4.05,1.7,1.137,2.186a67.252,67.252,0,0,0,18.156-5.178c-8.218.277-27.616-.324-40.307-15.69C40.824,29.186,44.971,41.1,55.807,46.362ZM229.9,32.734l-1.077-2.213,1.165-4.032s1.766-.9,1.786-.984c2.536-11.233-4.636-21.8-5.008-22.139,4.6,18.984-7.181,33.52-12.608,39.343A64.816,64.816,0,0,0,229.9,32.734Z" transform="translate(-10.183)"/>
      <path id="Контур_843" data-name="Контур 843" d="M310.428,45.392l.046-2.434,2.9-3.159s2.006-.093,2.061-.158c7.448-9.091,5.84-21.543,5.66-22-4.579,18.987-21.876,27.284-29.443,30.317A68.1,68.1,0,0,0,310.428,45.392Zm-2.574,14.6,4.434.051s1.371,1.384,1.46,1.382c12.175-.506,21.23-9.7,21.484-10.124-18.346,8.959-36.233,1.862-43.576-1.627a63.252,63.252,0,0,0,14.2,11.857Z" transform="translate(-87.683 -4.41)"/>
      <path id="Контур_844" data-name="Контур 844" d="M223.266,53.424l4.05-1.7s1.86.717,1.938.68c10.835-5.257,14.983-17.176,15.025-17.661-12.691,15.366-32.088,15.967-40.307,15.69a67.29,67.29,0,0,0,18.156,5.178ZM131.986,32.448l1.334.554c-.006-.025.274.677.274.677l3.325,1.124c.085-2.168.514-6.957.52-7.012,0,.056.433,4.844.52,7.012l3.324-1.124s.279-.7.274-.677l1.334-.554s.6.253.628.241a9.038,9.038,0,0,0,4.978-6.216,30.148,30.148,0,0,1-8.341,6.187l-.023-.178.734-.8s.484-.1.5-.115a7.059,7.059,0,0,0,1.232-5.35,10.068,10.068,0,0,1-3.243,5.229l-.195-.051c-.487-3.493-.985-5.108-1.719-8.472h0c-.734,3.364-1.234,4.979-1.72,8.472l-.194.051a10.07,10.07,0,0,1-3.243-5.229,7.057,7.057,0,0,0,1.231,5.35c.014.018.5.115.5.115l.734.8-.023.178a30.156,30.156,0,0,1-8.341-6.187,9.041,9.041,0,0,0,4.978,6.216C131.385,32.7,131.986,32.448,131.986,32.448ZM246.2,66.118s4.206,1.43,4.206,3.915-.008,26.052-.008,28.4c0,3-4.256,3.959-4.256,3.959s7.925-.985,7.925-3.955V70.029C254.068,67.61,246.2,66.118,246.2,66.118ZM262.81,98.435c0-2.35-.009-30.642-.009-33.125s4.208-3.918,4.208-3.918-7.868,1.494-7.868,3.912V98.439c0,2.97,7.922,3.955,7.922,3.955S262.81,101.439,262.81,98.435ZM45.741,75.729a1.051,1.051,0,0,1,.866-.879,4.078,4.078,0,0,0,1.1-.448l-.763-.61q-1.083.1-2.172.1h-1.3c-.384.025-.787.044-1.219.053s-.764.033-.991.055a.713.713,0,0,0,.454.613,3.057,3.057,0,0,1,.643.324q.491,4.128.622,6.839t.191,6.625q.052,3.915.055,8.689a.71.71,0,0,1-.518.864q-.55.167-1.109.3c-.347.085-.531.224-.558.413l5.645.737c.155-.14.306-.276.461-.4a.557.557,0,0,0,.229-.4,1.343,1.343,0,0,0-.152-.529c-.45.035-.886.07-1.314.1-.224,0-.335-.08-.335-.249q0-1.295.082-9.177T45.741,75.729Zm44.083-1.783H87.235L86.17,75.314a.489.489,0,0,1,.323-.133h.433a5.646,5.646,0,0,1,1,.108c.392.074.674.946.849,2.628s.323,3.837.435,6.489.17,5.739.17,9.261V95.5q-3.341-3.342-6.871-6.932-3.4-3.453-6.721-6.967-2.927-3.093-5.731-6.289l.6-1.156a11.066,11.066,0,0,0-1.578-.264q-.92-.056-1.842-.05a10.533,10.533,0,0,1-1.465.1h-1.5v1.132c.2,0,.412.009.624.019a2.627,2.627,0,0,1,.7.143,1.262,1.262,0,0,1,.665.625,2.923,2.923,0,0,1,.358,1.072q0,2.181-.284,6.127t-.543,7.684q-.265,3.733-.266,6.733c-.026.215-.3.487-.826.824a3.257,3.257,0,0,0-1.138,1.1h7.1a11.253,11.253,0,0,0-1.59-1c-.625-.337-.948-.65-.975-.938V77.62Q72.534,82.051,75,84.537q2.55,2.575,6.775,6.871t7.88,8h.818q0-6.66.247-12.531t.814-11.811c0-.122.163-.243.5-.362a.627.627,0,0,0,.415-.758Zm28.728,23.647a50.634,50.634,0,0,1-7.531.531l-.108-.179.7-10.792a7.427,7.427,0,0,0,3.628.43c2.346-.379,4.994-2.592,4.994-2.592A36.966,36.966,0,0,1,115.449,86c-1.529.2-2.486-.426-3.8-.694l-.14-9.661.117-.105q2.044.083,5.129.169t6.015.087v-.752q-.4-.344-.818-.678a1.2,1.2,0,0,0-.63-.321c-1.064,0-2.69.044-4.869.129s-3.82.128-4.91.128c-1.423,0-2.677-.039-3.768-.125l-1.181.655a2.359,2.359,0,0,1,2.051,2.048q.188,1.582.3,4.418c.052,1.323.078,2.7.093,4.106a16,16,0,0,0-4.489,2.382,25.9,25.9,0,0,1,4.5-.946c0,.131,0,.255,0,.387v9.843a1.667,1.667,0,0,1-.923,1.384c-.618.395-.9.712-.849.95.509,0,1.838-.034,4-.1s3.857-.1,5.1-.1c.153,0,.788.012,1.9.039s2.045.068,2.781.14c0,0-.111,1.417-.246,2.078l5.12-5.108-.73-.65A27.041,27.041,0,0,1,118.552,97.593Zm44.711-2.423q-1.141-2.159-3.351-5.84t-4.489-7.312q-2.289-3.627-3.008-5.029a11.86,11.86,0,0,1-1.068-3.558,18.047,18.047,0,0,0-2.856,3.616q-1.4,2.384-2.739,4.8-1.759,3.171-3.468,6.366a54.663,54.663,0,0,1-3.8,6.189,23.423,23.423,0,0,1-4.683,4.821c.379.023.932.07,1.668.143h4.36c.2-.12.3-.25.3-.4,0-.095-.144-.265-.435-.5a.977.977,0,0,1-.437-.721,12.083,12.083,0,0,1,.574-1.58,33.125,33.125,0,0,1,1.544-3.27q.973-1.832,3.567-6.545h9.806q2.062,3.225,3.568,5.917a50.072,50.072,0,0,1,2.615,5.376c0,.285-.239.533-.714.735a.849.849,0,0,0-.6.985h6.278a2.247,2.247,0,0,0-.783-1.38A12.1,12.1,0,0,1,163.263,95.17ZM145.706,84.814q.986-1.771,2.075-3.489a19.932,19.932,0,0,1,2.111-2.8q.952,1.4,1.885,2.82a38.315,38.315,0,0,1,2.074,3.466Zm50.045.27-.952.54a5.91,5.91,0,0,0,1.643.467,5.27,5.27,0,0,1,1.412.357,1.727,1.727,0,0,1,.88.916,4.008,4.008,0,0,1,.3,1.669c-.023.384-.048.759-.072,1.131s-.035.737-.035,1.093a4.149,4.149,0,0,1-1.583,3.105A11.088,11.088,0,0,1,193.9,96.5a14.215,14.215,0,0,1-4.535.754,13.783,13.783,0,0,1-8.955-2.994,9.385,9.385,0,0,1-3.7-7.62,14.409,14.409,0,0,1,.663-3.982,10.94,10.94,0,0,1,2.323-4.142,8.113,8.113,0,0,1,4-2.532,16.948,16.948,0,0,1,4.512-.642,13.13,13.13,0,0,1,4.126.642,8.925,8.925,0,0,1,3.37,1.973l2.665-1.4a15.925,15.925,0,0,0-4.223-2.071,15.29,15.29,0,0,0-4.489-.639q-.994,0-6.11.516a8.607,8.607,0,0,0-7.344,5.462q-2.229,4.945-2.226,7.487a11.165,11.165,0,0,0,.457,3.17,14.268,14.268,0,0,0,1.939,3.76,10.909,10.909,0,0,0,4.531,3.637,15.687,15.687,0,0,0,6.742,1.431,11.5,11.5,0,0,0,4.589-.878,21.1,21.1,0,0,0,4.874-2.672,15.882,15.882,0,0,0,1.427-1.323c.334-.3.495,4.231-.17,6.2,1.908-1.091,2.4-7.8,2.708-7.927a3.651,3.651,0,0,0,.055-1.64,15.392,15.392,0,0,1-.3-2.471,3.487,3.487,0,0,1,.383-1.7,2.432,2.432,0,0,1,1.3-1.059l-.151-.678Zm29.634,13.177a49.859,49.859,0,0,1-7.534.533l-.109-.182.7-10.788a7.435,7.435,0,0,0,3.63.43c2.347-.379,4.992-2.589,4.992-2.589a36.893,36.893,0,0,1-4.784,1.01c-1.529.2-2.484-.429-3.8-.7l-.14-9.659.118-.108q2.045.086,5.129.173t6.017.086l.5-1.555c-1.628-1.05-1.291-5.477.586-7.324-.257.264-2.651,2.684-2.738,2.789-1.6,2.052-1.023,4.344-3.2,4.429s-5.28.169-6.368.169c-1.426,0-2.679-.039-3.77-.126l-1.179.655a2.362,2.362,0,0,1,2.051,2.047c.122,1.058.221,2.525.294,4.419.053,1.324.08,2.7.1,4.107a16.02,16.02,0,0,0-4.493,2.382,25.787,25.787,0,0,1,4.506-.947c0,.13,0,.254,0,.385v9.845a1.675,1.675,0,0,1-.927,1.384c-.614.4-.9.712-.849.952.509,0,1.838-.036,4-.1s3.86-.105,5.1-.105c.157,0,.789.012,1.9.038s2.043.071,2.781.142c0,0-.115,1.421-.246,2.079l5.117-5.11-.731-.648A26.789,26.789,0,0,1,225.385,98.261Zm5.32-30.688-.015.017ZM30.493,95.924a18.437,18.437,0,0,1-6.159,1.759q-3.224.336-8.6.339s-.254-.021-.612-.042c.214-1.218.626-3.771.821-6.387a46.8,46.8,0,0,0-.686-9.985,8.928,8.928,0,0,1,.773-2.727c-.572-.027-.966.484-1.118.189-.206-.4.717-2.863,1.032-3.267-.4-.052-1.57,1.012-1.6.838-.121-.635,2.748-3.616,3.179-4.21-.576-.243-2.8,1.162-2.893.648-.081-.467,1.773-1.537,5.212-3.078-.945-.053-6.673-.919-6.987-1.241-.252-.258-3.379-3.914-4.64-4.291,1.346,1.592,2.749,6.4,2.693,8.285a33.86,33.86,0,0,0,1.031,9.124c.592,2.026,2.3,6.008,2.3,9.84s-.527,5.058-.527,5.058a3.658,3.658,0,0,0-1.377-2.509c.516,1.294.744,1.975.087,2.346s-1.2.3-1.448.484-.236.31-.236.31-.429.241-.672.4c-.7.451-1.676.484-1.9.694-.715.69-.144.768,0,.974a2.076,2.076,0,0,0,.545.457s-.208-.4.316-.755a2.239,2.239,0,0,1,2.2.258c.644.56-1.251.715-1.635.756s-.712-.608-.712-.608a5.035,5.035,0,0,1,.017,1.055,24.15,24.15,0,0,1,3.126-.049.336.336,0,0,1,.207-.379,6.759,6.759,0,0,1,.918-.126c.241-.04.487-.648.517-.725q4.448,0,7.581.088,3.2.09,6.165.376l.064,2.572q2.288-3.4,4.58-6.755a2.473,2.473,0,0,0-.457-.035A1.6,1.6,0,0,0,30.493,95.924Z" transform="translate(0 -6.041)"/>
    </g>
  </g>
</svg>
