<svg xmlns="http://www.w3.org/2000/svg" width="14" height="16"><path id="instagram" d="M6.927 35.724c-1.87-.137-3.474 1.7-3.589 4.1.114 2.4 1.719 4.237 3.589 4.1 1.87.137 3.474-1.7 3.589-4.1-.116-2.404-1.716-4.237-3.589-4.1zm0 6.77a1.97 1.97 0 01-2.008-1.236 3.348 3.348 0 010-2.863 1.97 1.97 0 012.008-1.236 1.97 1.97 0 012.008 1.236 3.348 3.348 0 010 2.863 1.97 1.97 0 01-2.008 1.236zm4.573-6.938a1.186 1.186 0 01-.446 1.09.7.7 0 01-.951-.15 1.3 1.3 0 01-.228-1.2.879.879 0 01.788-.7c.436-.032.81.395.837.955zm2.377.971a5.127 5.127 0 00-1.131-3.353 3.891 3.891 0 00-2.933-1.292c-1.156-.075-4.619-.075-5.775 0A3.885 3.885 0 001.1 33.17a5.144 5.144 0 00-1.126 3.354c-.065 1.321-.065 5.281 0 6.6A5.127 5.127 0 001.1 46.477a3.9 3.9 0 002.933 1.292c1.156.075 4.619.075 5.775 0a3.867 3.867 0 002.933-1.292 5.162 5.162 0 001.131-3.353c.069-1.324.069-5.276.004-6.597zm-1.493 8.016a2.55 2.55 0 01-1.331 1.521c-.922.418-3.111.321-4.122.321s-3.208.093-4.122-.321a2.55 2.55 0 01-1.331-1.521 20.1 20.1 0 01-.278-4.717 20.467 20.467 0 01.281-4.717 2.55 2.55 0 011.331-1.521c.922-.418 3.111-.321 4.122-.321s3.208-.093 4.122.321a2.55 2.55 0 011.331 1.521 20.1 20.1 0 01.281 4.717 20.085 20.085 0 01-.282 4.717z" transform="translate(.075 -31.826)" fill="#ffce00"/></svg>