<svg xmlns="http://www.w3.org/2000/svg" width="14" height="14"><path id="mail" d="M13.735 68.623c.107-.113.265-.007.265.171v7.456c0 .966-.588 1.75-1.312 1.75H1.313C.588 78 0 77.216 0 76.25V68.8c0-.182.156-.284.265-.171.612.634 1.425 1.44 4.214 4.142.577.559 1.55 1.74 2.521 1.729.976.011 1.969-1.2 2.524-1.735 2.789-2.698 3.598-3.508 4.211-4.142zM7 73.333c.634.015 1.548-1.065 2.007-1.509 3.629-3.511 3.9-3.817 4.741-4.692a1 1 0 00.252-.689v-.693c0-.966-.588-1.75-1.312-1.75H1.313C.588 64 0 64.784 0 65.75v.693a1.008 1.008 0 00.252.689c.837.871 1.113 1.181 4.741 4.692.459.445 1.373 1.524 2.007 1.509z" transform="translate(0 -64)" fill="#ffce00"/></svg>