<svg xmlns="http://www.w3.org/2000/svg" xmlns:xlink="http://www.w3.org/1999/xlink" width="462" height="237.31" viewBox="0 0 462 237.31">
  <defs>
    <linearGradient id="linear-gradient" x1="-0.04" y1="-0.083" x2="1.04" y2="1" gradientUnits="objectBoundingBox">
      <stop offset="0" stop-color="#1b42b9"/>
      <stop offset="1" stop-color="#d6a0ab"/>
    </linearGradient>
    <filter id="NoPath_копия_16_" x="0" y="0" width="462" height="237.31" filterUnits="userSpaceOnUse">
      <feOffset dy="6" input="SourceAlpha"/>
      <feGaussianBlur stdDeviation="9" result="blur"/>
      <feFlood flood-color="#123585" flood-opacity="0.161"/>
      <feComposite operator="in" in2="blur"/>
      <feComposite in="SourceGraphic"/>
    </filter>
  </defs>
  <g id="Компонент_9_7" data-name="Компонент 9 – 7" transform="translate(27 21)">
    <g transform="matrix(1, 0, 0, 1, -27, -21)" filter="url(#NoPath_копия_16_)">
      <g id="NoPath_копия_16_2" data-name="NoPath — копия (16)" transform="translate(27 21)" fill="url(#linear-gradient)">
        <path d="M 396.1738891601563 181.8095703125 L 11.82610511779785 181.8095703125 C 6.13226318359375 181.8095703125 1.5 177.4606323242188 1.5 172.1150970458984 L 1.5 11.1944694519043 C 1.5 5.84894323348999 6.13226318359375 1.499995708465576 11.82610511779785 1.499995708465576 L 396.1738891601563 1.499995708465576 C 401.8677368164063 1.499995708465576 406.5 5.84894323348999 406.5 11.1944694519043 L 406.5 172.1150970458984 C 406.5 177.4606323242188 401.8677368164063 181.8095703125 396.1738891601563 181.8095703125 Z" stroke="none"/>
        <path d="M 11.8260498046875 3 C 6.959381103515625 3 3 6.675994873046875 3 11.19447326660156 L 3 172.1150970458984 C 3 176.6335754394531 6.959381103515625 180.3095703125 11.8260498046875 180.3095703125 L 396.1738891601563 180.3095703125 C 401.0406188964844 180.3095703125 405 176.6335754394531 405 172.1150970458984 L 405 11.19447326660156 C 405 6.675994873046875 401.0406188964844 3 396.1738891601563 3 L 11.8260498046875 3 M 11.8260498046875 0 L 396.1738891601563 0 C 402.7052612304688 0 408 5.011947631835938 408 11.19447326660156 L 408 172.1150970458984 C 408 178.2976226806641 402.7052612304688 183.3095703125 396.1738891601563 183.3095703125 L 11.8260498046875 183.3095703125 C 5.294677734375 183.3095703125 0 178.2976226806641 0 172.1150970458984 L 0 11.19447326660156 C 0 5.011947631835938 5.294677734375 0 11.8260498046875 0 Z" stroke="none" fill="#fff"/>
      </g>
    </g>
    <g id="crunchyroll-case" transform="translate(105.536 78.204)">
      <path id="Path_32" data-name="Path 32" d="M199.077,29.962V7.185h4.006V30h-4.006Z" transform="translate(-6.62 -5.007)" fill="#f47521"/>
      <path id="Path_33" data-name="Path 33" d="M190.436,29.962V7.185h4.006V30h-4.006Z" transform="translate(-6.62 -5.007)" fill="#f47521"/>
      <path id="Path_34" data-name="Path 34" d="M187.059,21.752c0,5.5-2.748,8.442-7.813,8.442s-7.813-2.946-7.813-8.442,2.748-8.442,7.813-8.442S187.059,16.256,187.059,21.752Zm-3.808,0c0-4.436-1.49-5.264-3.808-5.264s-3.807.828-3.807,5.264,1.49,5.264,3.808,5.264C181.563,27.016,183.251,26.188,183.251,21.752Z" transform="translate(-6.62 -6.853)" fill="#f47521"/>
      <path id="Path_35" data-name="Path 35" d="M169.743,13.309v3.377c-2.119,0-4.635,0-4.635,1.059V30H161.1V15.428C161.3,12.879,169.743,13.309,169.743,13.309Z" transform="translate(-5.482 -6.783)" fill="#f47521"/>
      <path id="Path_36" data-name="Path 36" d="M145.674,36.518c2.98-7.383,2.748-6.754,2.98-7.383l-5.927-15.627h4.238L150.773,24.9l3.576-11.389h4.238l-6.323,16.885-2.317,6.125Z" transform="translate(-5.042 -11.211)" fill="#f47521"/>
      <path id="Path_37" data-name="Path 37" d="M140.41,20.063V30H136.4V19.831c0-1.49-.431-2.946-4.006-2.946a11.06,11.06,0,0,0-2.748.431V30h-4.006V7.185h4.006V13.74a7.862,7.862,0,0,1,3.377-.629C137.861,13.309,140.41,15.826,140.41,20.063Z" transform="translate(-4.411 -5.007)" fill="#f47521"/>
      <path id="Path_38" data-name="Path 38" d="M118.261,26.817a13.239,13.239,0,0,0,4.238-.861v3.377a11.613,11.613,0,0,1-4.867.828c-5.065,0-7.813-2.946-7.813-8.442s2.748-8.641,7.813-8.641a17.488,17.488,0,0,1,4.867.861v3.377a12.366,12.366,0,0,0-4.238-.828c-2.748,0-4.436.828-4.436,5.065C113.825,25.957,115.513,26.817,118.261,26.817Z" transform="translate(-3.811 -6.797)" fill="#f47521"/>
      <path id="Path_39" data-name="Path 39" d="M107.269,19.633v10.33h-3.807V19.633c0-1.49,0-2.946-3.377-2.946-1.059,0-3.178.2-3.178.828V29.962H93.1V16.256c0-2.748,3.377-3.178,7.582-3.178C104.952,13.309,107.269,15,107.269,19.633Z" transform="translate(-3.254 -6.73)" fill="#f47521"/>
      <path id="Path_40" data-name="Path 40" d="M89.325,13.508V22.58c0,4.867-1.688,7.813-7.383,7.813s-7.185-2.946-7.185-7.813V13.508h3.808v9.5c0,2.748,1.059,3.576,3.377,3.576s3.377-.828,3.377-3.576v-9.5Z" transform="translate(-2.615 -6.958)" fill="#f47521"/>
      <path id="Path_41" data-name="Path 41" d="M71.612,13.309v3.377c-2.119,0-4.635,0-4.635,1.059V30H62.971V15.428C63.17,12.879,71.612,13.309,71.612,13.309Z" transform="translate(-2.133 -6.783)" fill="#f47521"/>
      <path id="Path_42" data-name="Path 42" d="M55.124,26.817a11,11,0,0,0,4.006-.861v3.377a11.613,11.613,0,0,1-4.867.828c-5.065,0-7.813-2.946-7.813-8.442s2.748-8.641,7.813-8.641a17.487,17.487,0,0,1,4.867.861v3.377a12.023,12.023,0,0,0-4.006-.828c-2.748,0-4.436.828-4.436,5.065C50.489,25.957,52.409,26.817,55.124,26.817Z" transform="translate(-1.603 -6.797)" fill="#f47521"/>
      <path id="Path_43" data-name="Path 43" d="M5.132,15.453c0-6.512,7.482-11.765,16.719-11.765,8.708.023,15.925,4.738,16.62,10.854V13.8c0-7.4-8.509-13.4-19-13.4s-19,6.021-19,13.421,8.509,13.375,19,13.375h1.258C11.985,26.774,5.165,21.639,5.132,15.453Z" fill="#f47521"/>
      <path id="Path_44" data-name="Path 44" d="M30.857,22.58A6.093,6.093,0,0,1,28.737,10.76a12.7,12.7,0,0,0-6.126-1.49A13.309,13.309,0,1,0,35.922,22.58h0a11.042,11.042,0,0,0-.2-2.549A5.374,5.374,0,0,1,30.857,22.58Z" transform="translate(0 -8.872)" fill="#f47521"/>
    </g>
  </g>
</svg>
