<svg xmlns="http://www.w3.org/2000/svg" xmlns:xlink="http://www.w3.org/1999/xlink" width="462" height="237.31" viewBox="0 0 462 237.31">
  <defs>
    <filter id="NoPath_копия_16_" x="0" y="0" width="462" height="237.31" filterUnits="userSpaceOnUse">
      <feOffset dy="6" input="SourceAlpha"/>
      <feGaussianBlur stdDeviation="9" result="blur"/>
      <feFlood flood-color="#123585" flood-opacity="0.161"/>
      <feComposite operator="in" in2="blur"/>
      <feComposite in="SourceGraphic"/>
    </filter>
  </defs>
  <g id="Сгруппировать_3142" data-name="Сгруппировать 3142" transform="translate(-1161 -5545)">
    <g id="Компонент_9_8" data-name="Компонент 9 – 8" transform="translate(1188 5566)">
      <g transform="matrix(1, 0, 0, 1, -27, -21)" filter="url(#NoPath_копия_16_)">
        <g id="NoPath_копия_16_2" data-name="NoPath — копия (16)" transform="translate(27 21)">
          <path d="M 396.1738891601563 181.8095703125 L 11.82610511779785 181.8095703125 C 6.13226318359375 181.8095703125 1.5 177.4606323242188 1.5 172.1150970458984 L 1.5 11.1944694519043 C 1.5 5.84894323348999 6.13226318359375 1.499995708465576 11.82610511779785 1.499995708465576 L 396.1738891601563 1.499995708465576 C 401.8677368164063 1.499995708465576 406.5 5.84894323348999 406.5 11.1944694519043 L 406.5 172.1150970458984 C 406.5 177.4606323242188 401.8677368164063 181.8095703125 396.1738891601563 181.8095703125 Z" stroke="none"/>
          <path d="M 11.8260498046875 3 C 6.959381103515625 3 3 6.675994873046875 3 11.19447326660156 L 3 172.1150970458984 C 3 176.6335754394531 6.959381103515625 180.3095703125 11.8260498046875 180.3095703125 L 396.1738891601563 180.3095703125 C 401.0406188964844 180.3095703125 405 176.6335754394531 405 172.1150970458984 L 405 11.19447326660156 C 405 6.675994873046875 401.0406188964844 3 396.1738891601563 3 L 11.8260498046875 3 M 11.8260498046875 0 L 396.1738891601563 0 C 402.7052612304688 0 408 5.011947631835938 408 11.19447326660156 L 408 172.1150970458984 C 408 178.2976226806641 402.7052612304688 183.3095703125 396.1738891601563 183.3095703125 L 11.8260498046875 183.3095703125 C 5.294677734375 183.3095703125 0 178.2976226806641 0 172.1150970458984 L 0 11.19447326660156 C 0 5.011947631835938 5.294677734375 0 11.8260498046875 0 Z" stroke="none" fill="#fff"/>
        </g>
      </g>
    </g>
    <path id="skillbox-case" d="M28.445,28.51c0,6.282-5.492,10.838-14.217,10.838A19.886,19.886,0,0,1,.909,33.9l2.918-2.939c2.731,2.368,5.944,4.67,10.344,4.67,4.888,0,10.158-2.5,10.158-6.98,0-3.724-3.249-6.152-10.076-8.067-7.78-2.166-11.732-5.1-11.732-10.63C2.521,4.488,7.6,0,14.842,0c5.407,0,8.791,2.1,12.083,4.781l-2.868,2.9c-2.887-2.33-5.638-3.909-9.015-3.909-4.188,0-8.322,2.46-8.322,6,0,3.208,2.024,5.252,9.171,7.244,6.545,1.836,12.554,4.681,12.554,11.49Zm35.3-24.893a3.282,3.282,0,0,0,3.424,3.119,3.6,3.6,0,0,0,2.422-.913,2.984,2.984,0,0,0,1-2.206,3.439,3.439,0,0,0-6.847,0Zm42.768,33.863s2.541,1.88,11,1.88l0,0c8.355,0,15.137-5.566,15.137-13.17s-6.776-13.149-15.132-13.149a16.808,16.808,0,0,0-6.878,1.281V1.142h-4.127Zm30.97-11.256C137.48,33.831,144.251,40,152.6,40s15.126-6.167,15.127-13.775-6.771-13.775-15.125-13.776S137.481,18.615,137.481,26.223Zm55.28,12.514h5.387l-11.91-12.921L197.345,13.7h-5.358l-8.435,9.2-8.477-9.2h-5.387l11.187,12.135-11.828,12.9H174.4l9.155-9.99ZM152.644,16.17a11.075,11.075,0,0,0-10.176,6.192A9.389,9.389,0,0,0,144.855,33.3a11.812,11.812,0,0,0,12,2.174,10.069,10.069,0,0,0,6.8-9.269C163.655,20.661,158.726,16.171,152.644,16.17Zm-35.1.634a13.092,13.092,0,0,0-6.878,2.03V34.348a15.076,15.076,0,0,0,6.878,1.253c6.076,0,11.005-3.868,11.005-9.4s-4.934-9.4-11.01-9.4ZM96.9,1.143H92.773V38.731H96.9Zm-17.872,0h4.127V38.731H79.029ZM39.117,25.6l-.015-.014.015-.013Zm0,13.129V25.6L53.538,38.737h5.835L44.937,25.588,58.006,13.677H52.171l-13.054,11.9V1.143H34.99V38.731Zm26.14.007h4.127V13.677H65.257Z" transform="translate(1293.852 5637)" fill="#fff" fill-rule="evenodd"/>
  </g>
</svg>
