<svg xmlns="http://www.w3.org/2000/svg" width="855.402" height="279.521" viewBox="0 0 855.402 279.521">
  <path id="Bubble" d="M820.652,179.48a10.6,10.6,0,0,0,1.244,1.066c15.3,11.236,32.759,10.973,32.759,10.973.872.031,1-.354.289-.839,0,0-10.56-6.444-12.335-17.812-1.553-9.945-1.109-29.55-.974-34.3q.06-1.3.061-2.616v-168.4A55.584,55.584,0,0,0,786.1-88H55.592A55.569,55.569,0,0,0,0-32.444v168.4a55.584,55.584,0,0,0,55.592,55.556H786.1A55.383,55.383,0,0,0,820.652,179.48Z" transform="translate(0 88)" fill="#057efe" fill-rule="evenodd"/>
</svg>
