<svg xmlns="http://www.w3.org/2000/svg" width="121.187" height="43.518" viewBox="0 0 121.187 43.518">
  <g id="Group_30" data-name="Group 30" transform="translate(-464.932 -754)">
    <path id="Path_4" data-name="Path 4" d="M74.9,11.273c-6.434-3.922-3.417-9.458-3.287-9.688A1.058,1.058,0,0,0,70.7,0c-3.312,0-5.905.943-7.708,2.8-3.081,3.177-2.938,8.123-2.877,10.235.007.234.311,3.042.532,4.32a17.626,17.626,0,0,1,.288,2.093c.023.6-.206.776-.586.828a1.183,1.183,0,0,1-.955-.424c-1.019-1.145-1.137-3.712-.942-5.413A1.057,1.057,0,0,0,57.4,13.26c-2.742,0-4.79,4.493-4.79,8.509a13.99,13.99,0,0,0,1.127,5.5A14.593,14.593,0,0,0,56.8,31.831,14.29,14.29,0,0,0,81.249,21.77C81.249,16.908,77.452,12.829,74.9,11.273Z" transform="translate(504.87 754)" fill="#fc3b3b"/>
    <path id="Path_12" data-name="Path 12" d="M44.7-119.02l-.044-18.31-8.981,15.084H32.5l-8.937-14.692v17.918H16.932v-30.517h5.842L34.2-130.573l11.248-18.964h5.8l.087,30.517Zm22.844-23.8q5.45,0,8.371,2.594t2.921,7.826v13.384H72.474v-2.921q-1.918,3.27-7.15,3.27a11.1,11.1,0,0,1-4.687-.916,6.988,6.988,0,0,1-3.03-2.529,6.581,6.581,0,0,1-1.046-3.662,6.111,6.111,0,0,1,2.463-5.144q2.463-1.875,7.608-1.875h5.406a4.334,4.334,0,0,0-1.351-3.422,5.953,5.953,0,0,0-4.054-1.2,11.838,11.838,0,0,0-3.684.589,9.746,9.746,0,0,0-3.074,1.591l-2.441-4.752a14.731,14.731,0,0,1,4.6-2.093A20.6,20.6,0,0,1,67.547-142.823Zm-.523,19.575a5.923,5.923,0,0,0,3.1-.807,4.413,4.413,0,0,0,1.918-2.376v-2.4H67.373q-4.185,0-4.185,2.747a2.446,2.446,0,0,0,1.025,2.071A4.615,4.615,0,0,0,67.024-123.248Zm42.114-28.12v32.349h-6.5v-2.7q-2.529,3.052-7.324,3.052a12.18,12.18,0,0,1-5.995-1.482,10.613,10.613,0,0,1-4.207-4.229,12.891,12.891,0,0,1-1.526-6.365,12.891,12.891,0,0,1,1.526-6.365,10.613,10.613,0,0,1,4.207-4.229,12.18,12.18,0,0,1,5.995-1.482,8.922,8.922,0,0,1,7.019,2.834v-11.379ZM96.5-124.251a5.683,5.683,0,0,0,4.272-1.766,6.532,6.532,0,0,0,1.7-4.73,6.532,6.532,0,0,0-1.7-4.73,5.683,5.683,0,0,0-4.272-1.766,5.735,5.735,0,0,0-4.316,1.766,6.532,6.532,0,0,0-1.7,4.73,6.532,6.532,0,0,0,1.7,4.73A5.735,5.735,0,0,0,96.5-124.251Zm26.812,5.58a22.784,22.784,0,0,1-5.711-.719,14.921,14.921,0,0,1-4.447-1.809l2.267-4.883a14.268,14.268,0,0,0,3.793,1.635,15.9,15.9,0,0,0,4.36.632q4.316,0,4.316-2.136a1.512,1.512,0,0,0-1.177-1.439,17.435,17.435,0,0,0-3.618-.741,34.906,34.906,0,0,1-4.752-1,7.372,7.372,0,0,1-3.248-2.005,5.7,5.7,0,0,1-1.373-4.1A6.42,6.42,0,0,1,115-139.183a8.277,8.277,0,0,1,3.749-2.681,16.013,16.013,0,0,1,5.82-.959,22.841,22.841,0,0,1,4.948.545,13.831,13.831,0,0,1,4.076,1.5l-2.267,4.839a13.534,13.534,0,0,0-6.757-1.744,6.875,6.875,0,0,0-3.27.61,1.794,1.794,0,0,0-1.09,1.569,1.558,1.558,0,0,0,1.177,1.526,20.838,20.838,0,0,0,3.749.828,40.136,40.136,0,0,1,4.708,1.025,7.073,7.073,0,0,1,3.183,1.984,5.629,5.629,0,0,1,1.352,4.011,6.194,6.194,0,0,1-1.308,3.88,8.349,8.349,0,0,1-3.815,2.638A17,17,0,0,1,123.307-118.671Z" transform="translate(448 916.188)"/>
    <path id="Intersection_1" data-name="Intersection 1" d="M12.992,15.433a17.434,17.434,0,0,0-3.618-.741,34.9,34.9,0,0,1-4.752-1,7.373,7.373,0,0,1-3.248-2.005A5.7,5.7,0,0,1,0,7.586,6.42,6.42,0,0,1,1.286,3.64,8.278,8.278,0,0,1,5.035.959,16.012,16.012,0,0,1,10.856,0,22.839,22.839,0,0,1,15.8.545a13.832,13.832,0,0,1,4.076,1.5L17.613,6.888a13.534,13.534,0,0,0-6.757-1.744,6.875,6.875,0,0,0-3.27.61A1.794,1.794,0,0,0,6.5,7.324,1.558,1.558,0,0,0,7.673,8.85a20.841,20.841,0,0,0,3.749.828A40.146,40.146,0,0,1,16.131,10.7a7.074,7.074,0,0,1,3.183,1.984,4.407,4.407,0,0,1,.323.386,14.222,14.222,0,0,1-5.63,3.133A1.811,1.811,0,0,0,12.992,15.433Z" transform="translate(561.716 773.365)" fill="#fff"/>
  </g>
</svg>
