<?xml version="1.0" encoding="utf-8"?>
<!-- Generator: Adobe Illustrator 21.0.0, SVG Export Plug-In . SVG Version: 6.00 Build 0)  -->
<svg version="1.1" id="Layer_1" xmlns="http://www.w3.org/2000/svg" xmlns:xlink="http://www.w3.org/1999/xlink" x="0px" y="0px"
	 viewBox="0 0 336.1 35.9" style="enable-background:new 0 0 336.1 35.9;" xml:space="preserve">
<style type="text/css">
	.st0{fill:#308CFB;}
</style>
<path class="st0" d="M9.2,19.7l0.2,8.9C9.3,28.8,9.2,29,9,29H3.3C3.2,29,3,28.8,3,28.6l0.2-8.9v-7.4H0.3c-0.2,0-0.3-0.2-0.3-0.3V8.3
	C0,8.1,0.2,8,0.3,8h2.9V6.6C3.2,1.8,6.5,0,10,0c1.3,0,2.8,0.2,3.8,0.4c0.2,0,0.3,0.2,0.3,0.4v3.6c0,0.2-0.2,0.3-0.3,0.2
	c-0.6-0.2-1.4-0.2-2.4-0.2c-1.3,0-2.3,0.7-2.3,2.8V8h4.7c0.2,0,0.3,0.2,0.3,0.3v3.7c0,0.2-0.2,0.3-0.3,0.3H9.2V19.7z"/>
<path class="st0" d="M17,5.9c-0.2,0-0.3-0.2-0.3-0.3V0.7c0-0.2,0.2-0.3,0.3-0.3h5.5c0.2,0,0.3,0.2,0.3,0.3v4.9
	c0,0.2-0.2,0.3-0.3,0.3H17z M17,29c-0.2,0-0.3-0.2-0.3-0.3l0.1-10.2L16.7,8.3C16.7,8.1,16.9,8,17,8h5.5c0.2,0,0.3,0.2,0.3,0.3
	l-0.1,10.2l0.1,10.2c0,0.2-0.2,0.3-0.3,0.3H17z"/>
<path class="st0" d="M26.4,29c-0.2,0-0.3-0.2-0.3-0.3l0.1-9.7V8.3c0-0.2,0.2-0.3,0.3-0.3h5.3C31.9,8,32,8.1,32,8.3l-0.1,2.3
	c1.4-1.8,3.8-3.1,6.8-3.1c4.4,0,7.3,3,7.3,8.2V20l0.1,8.6c0,0.2-0.2,0.3-0.3,0.3h-5.5c-0.2,0-0.3-0.2-0.3-0.3L40,20v-4.3
	c0-2.3-1.3-3.8-3.2-3.8c-2.2,0-4.6,2-4.6,6.5V20l0.1,8.6c0,0.2-0.2,0.3-0.3,0.3H26.4z"/>
<path class="st0" d="M64,29c-0.2,0-0.3-0.2-0.3-0.3l0.1-2.1c-1.5,1.8-3.5,2.9-6.2,2.9c-6,0-9.1-4.7-9.1-10.8c0-6.1,3.5-11,9.2-11
	c2.6,0,4.6,0.9,6,2.6V0.7c0-0.2,0.2-0.3,0.3-0.3h5.5c0.2,0,0.3,0.2,0.3,0.3l0,13.9l0,13.9c0,0.2-0.2,0.3-0.3,0.3H64z M59.3,25.3
	c3,0,4.6-2.2,4.6-6.7c0-4.5-1.5-7-4.5-7.1c-3.1-0.1-4.7,2.3-4.7,6.6C54.8,23,56.4,25.4,59.3,25.3"/>
<path class="st0" d="M88.1,29c-0.1,0-0.2-0.1-0.2-0.2l0.1-4c-1.3,2.8-3.7,4.6-7.1,4.6c-5.5,0-8.4-4.7-8.4-10.8c0-6,3-10.9,8.4-10.9
	c3.3,0,5.7,1.6,7.1,4.6l-0.1-4C87.9,8,88,8,88.1,8h1.6C89.9,8,90,8,90,8.2l-0.1,9.9L90,28.7c0,0.1-0.1,0.2-0.2,0.2H88.1z M81.3,27.7
	c4.1,0,6.7-3.1,6.8-9.1c0-6-2.4-9.5-6.7-9.5c-4.7,0-6.8,4-6.8,9.1C74.6,23.5,76.7,27.7,81.3,27.7"/>
<path class="st0" d="M94,29c-0.1,0-0.2-0.1-0.2-0.2l0.1-9l0-11.6C93.8,8,93.9,8,94,8h1.6c0.1,0,0.2,0.1,0.2,0.2l-0.1,4.1
	c1.2-2.4,3.5-4.8,7.2-4.8c4.2,0,6.8,2.7,6.8,8.5v4l0,8.8c0,0.1-0.1,0.2-0.2,0.2h-1.7c-0.1,0-0.2-0.1-0.2-0.2l0-8.8v-3.8
	c0-5.1-2.1-7-5.3-7c-3.1,0-5.3,2.4-6.6,6.2v4.6l0,8.8c0,0.1-0.1,0.2-0.2,0.2H94z"/>
<path class="st0" d="M119.1,35.7c0,0.1-0.2,0.2-0.3,0.2h-1.5c-0.1,0-0.2-0.1-0.1-0.2l2.4-6.7l-8.2-20.8c0-0.1,0-0.2,0.1-0.2h1.9
	c0.1,0,0.2,0.1,0.3,0.2l7,17.9l6-17.9c0-0.1,0.2-0.2,0.3-0.2h1.8c0.1,0,0.2,0.1,0.1,0.2L119.1,35.7z"/>
<path class="st0" d="M148.2,29c-0.2,0-0.4-0.1-0.4-0.3l-3.3-15.3l-2.9,15.3c0,0.2-0.2,0.3-0.4,0.3h-6.5c-0.2,0-0.4-0.1-0.4-0.3
	l-4.5-20.3c0-0.2,0.1-0.3,0.2-0.3h5.5c0.2,0,0.4,0.2,0.4,0.3l2.4,15.4l2.9-15.4c0-0.2,0.2-0.3,0.4-0.3h6.7c0.2,0,0.4,0.1,0.4,0.3
	l2.8,15.1L154,8.3c0-0.2,0.2-0.3,0.4-0.3h5c0.2,0,0.3,0.2,0.2,0.3l-4.4,20.3c0,0.2-0.2,0.3-0.4,0.3H148.2z"/>
<path class="st0" d="M185.1,29c-0.2,0-0.3-0.2-0.3-0.3l0.1-10.2l-0.1-10.2c0-0.2,0.2-0.3,0.3-0.3h5.4c0.2,0,0.3,0.2,0.3,0.3
	l-0.2,3.2c1.6-2.5,4.4-3.7,7.5-3.7c0.3,0,0.7,0,1,0.1c0.2,0,0.3,0.2,0.3,0.4v3.9c0,0.2-0.2,0.3-0.3,0.3c-0.2,0-0.6,0-0.8,0
	c-4.3,0-7.5,2.4-7.5,7.2v9c0,0.2-0.2,0.3-0.3,0.3H185.1z"/>
<path class="st0" d="M212.4,24.5l-2.6-4.6l-2,2.5l0,6.2c0,0.2-0.2,0.3-0.3,0.3h-5.4c-0.2,0-0.3-0.2-0.3-0.3l0.1-13.9l-0.1-13.9
	c0-0.2,0.2-0.3,0.3-0.3h5.4c0.2,0,0.3,0.2,0.3,0.3l-0.1,13.8v1.2l6.1-7.5c0.1-0.1,0.3-0.2,0.5-0.2h6.1c0.1,0,0.2,0.2,0.1,0.2
	l-6.5,7.3l7.6,13.2c0.1,0.1,0,0.3-0.2,0.3H215c-0.2,0-0.4-0.1-0.5-0.3L212.4,24.5z"/>
<path class="st0" d="M241.9,21.9c0.2,0,0.3,0.2,0.3,0.3c-0.5,3.9-4.2,7.3-10.1,7.3c-7,0-10.8-4.6-10.8-11c0-6.7,4-11.1,10.7-11.1
	c6.9,0,10.7,4.6,10.8,11.9c0,0.2-0.2,0.3-0.3,0.3h-15c0.2,4,1.8,5.7,4.7,5.7c2.1,0,3.5-0.9,4.1-3.2c0-0.2,0.2-0.3,0.4-0.3H241.9z
	 M232,11.5c-2.4,0-3.9,1.5-4.4,4.4h8.6C235.9,13.6,234.7,11.5,232,11.5"/>
<path class="st0" d="M245.7,29c-0.2,0-0.3-0.2-0.3-0.3l0.1-10.2l-0.1-10.2c0-0.2,0.2-0.3,0.3-0.3h5.4c0.2,0,0.3,0.2,0.3,0.3
	l-0.2,3.2c1.6-2.5,4.4-3.7,7.5-3.7c0.3,0,0.7,0,1,0.1c0.2,0,0.3,0.2,0.3,0.4v3.9c0,0.2-0.2,0.3-0.3,0.3c-0.2,0-0.6,0-0.8,0
	c-4.3,0-7.5,2.4-7.5,7.2v9c0,0.2-0.2,0.3-0.3,0.3H245.7z"/>
<path class="st0" d="M259.4,29c-0.2,0-0.3-0.1-0.3-0.3v-4.3c0-0.2,0.1-0.3,0.3-0.3h3.6c0.2,0,0.3,0.1,0.3,0.3v4.3
	c0,0.2-0.1,0.3-0.3,0.3H259.4z"/>
<path class="st0" d="M274.3,29.4c-6,0-9.2-4.3-9.2-10.9c0-6.6,3.2-11,9.3-11c5.1,0,8.1,3,8.5,7.4c0,0.1-0.1,0.2-0.2,0.2h-1.5
	c-0.1,0-0.2-0.1-0.2-0.2c-0.5-3.6-2.7-5.7-6.5-5.7c-4.9,0-7.2,3.7-7.2,9.4c0,5.7,2.3,9.3,7.2,9.3c4.2,0,6.5-2.5,6.9-6.4
	c0-0.1,0.1-0.2,0.2-0.2h1.5c0.1,0,0.2,0.1,0.2,0.2C282.8,26,279.7,29.4,274.3,29.4"/>
<path class="st0" d="M295.5,29.4c-6.1,0-9.4-4.4-9.4-10.9c0-6.6,3.3-11,9.4-11c6,0,9.4,4.4,9.4,11C304.9,25,301.6,29.4,295.5,29.4
	 M295.5,27.8c4.9,0,7.3-3.6,7.3-9.3c0-5.7-2.4-9.4-7.3-9.4c-4.9,0-7.3,3.7-7.3,9.4C288.2,24.2,290.7,27.8,295.5,27.8"/>
<path class="st0" d="M310,20.2l0,8.6c0,0.1-0.1,0.2-0.2,0.2h-1.7c-0.1,0-0.2-0.1-0.2-0.2l0.1-8.6l0-12c0-0.1,0.1-0.2,0.2-0.2h1.6
	C310,8,310,8,310,8.2l-0.1,4.1c1.2-2.4,3.3-4.8,6.8-4.8c3.1,0,5.2,1.5,6.1,4.8c1.3-2.6,3.4-4.8,6.8-4.8c4,0,6.5,2.7,6.5,8.5v4.2
	l0,8.6c0,0.1-0.1,0.2-0.2,0.2h-1.7c-0.1,0-0.2-0.1-0.2-0.2l0-8.6v-4c0-5.1-2-7-4.9-7c-2.7,0-4.6,2.1-6,5.4c0,0.4,0,0.9,0,1.4v4.2
	l0,8.6c0,0.1-0.1,0.2-0.2,0.2h-1.7c-0.1,0-0.2-0.1-0.2-0.2l0-8.6v-4c0-5.1-2-7-4.9-7c-3,0-4.9,2.4-6.3,6.2V20.2z"/>
<path class="st0" d="M170.8,23.8c3.5,0.4,6.4-2.6,6.1-6.1c-0.3-2.6-2.4-4.7-5-5c-3.5-0.3-6.4,2.6-6.1,6.1
	C166.1,21.5,168.2,23.6,170.8,23.8"/>
<path class="st0" d="M182.3,18.5c0-6.1-4.9-11.1-10.9-11.2c-6.1,0.2-10.9,5.1-10.9,11.2c0,3.1,1.2,5.8,3.2,7.9h0l7.1,7.1
	c0.3,0.3,0.9,0.3,1.2,0l7.1-7.1h0C181.1,24.3,182.3,21.5,182.3,18.5 M172,26.6c-5.2,0.4-9.4-3.9-9-9c0.3-4.1,3.6-7.3,7.7-7.7
	c5.2-0.4,9.4,3.9,9,9C179.4,23,176.1,26.3,172,26.6"/>
</svg>
