<svg xmlns="http://www.w3.org/2000/svg" width="406.776" height="512" viewBox="0 0 406.776 512">
  <path id="Path_4" data-name="Path 4" d="M369.214,159.814c-91.389-55.6-48.533-134.078-46.693-137.34A15,15,0,0,0,309.515,0c-47.043,0-83.881,13.366-109.49,39.729C156.266,84.773,158.3,154.88,159.163,184.817c.1,3.317,4.414,43.131,7.561,61.237,2.028,11.668,3.779,21.744,4.091,29.664.333,8.482-2.932,11-8.317,11.744a16.823,16.823,0,0,1-13.563-6.009c-14.476-16.233-16.146-52.626-13.378-76.739a15,15,0,0,0-14.9-16.732c-38.945,0-68.047,63.688-68.047,120.632a197.991,197.991,0,0,0,16,77.94,206.852,206.852,0,0,0,43.512,64.7C150.877,490.425,201.97,512,255.993,512A203.921,203.921,0,0,0,459.388,308.612C459.388,239.691,405.461,181.866,369.214,159.814Z" transform="translate(-52.612)" fill="#fc3b3b"/>
</svg>
