<svg xmlns="http://www.w3.org/2000/svg" xmlns:xlink="http://www.w3.org/1999/xlink" width="84" height="84" viewBox="0 0 84 84">
  <defs>
    <filter id="Ellipse_12" x="0" y="0" width="84" height="84" filterUnits="userSpaceOnUse">
      <feOffset dy="4" input="SourceAlpha"/>
      <feGaussianBlur stdDeviation="6" result="blur"/>
      <feFlood flood-color="#0019ff" flood-opacity="0.141"/>
      <feComposite operator="in" in2="blur"/>
      <feComposite in="SourceGraphic"/>
    </filter>
  </defs>
  <g id="Group_51" data-name="Group 51" transform="translate(-558 -3767)">
    <g transform="matrix(1, 0, 0, 1, 558, 3767)" filter="url(#Ellipse_12)">
      <g id="Ellipse_12-2" data-name="Ellipse 12" transform="translate(18 14)" stroke="#fff" stroke-width="3">
        <circle cx="24" cy="24" r="24" stroke="none"/>
        <circle cx="24" cy="24" r="22.5" fill="none"/>
      </g>
    </g>
    <path id="Shape" d="M4.143.041A.566.566,0,0,1,4.729.3c.3.489.606.977.894,1.478.333.578.639,1.172.965,1.757.084.157.2.3.3.45s.176.289.259.432a.725.725,0,0,1-.092.908C6.69,5.7,6.29,6.039,5.9,6.391c-.322.3-.657.578-.971.879a.662.662,0,0,0-.143.843c.255.476.508.953.788,1.419a13.532,13.532,0,0,0,4.035,4.319c.645.438,1.316.839,1.994,1.221.639.36.888.3,1.384-.252.461-.511.906-1.03,1.365-1.545a3.266,3.266,0,0,1,.371-.34.72.72,0,0,1,.847-.094,1.672,1.672,0,0,1,.247.13c.8.568,1.686.969,2.527,1.451.451.258.89.535,1.333.8a.622.622,0,0,1,.318.629,4.26,4.26,0,0,1-.641,2.249,3.1,3.1,0,0,1-.747.721,7.046,7.046,0,0,1-2.543,1.073,4.716,4.716,0,0,1-2.455-.13A20.555,20.555,0,0,1,9.167,17.93a19.525,19.525,0,0,1-3.482-2.656,21.081,21.081,0,0,1-3.527-4.266,17.6,17.6,0,0,1-1.5-3.277,10.9,10.9,0,0,1-.6-2.086A4.962,4.962,0,0,1,.282,3.257a6.977,6.977,0,0,1,.98-1.974A2.491,2.491,0,0,1,2.618.322C3.073.2,3.533.106,3.99,0A.181.181,0,0,0,4.143.041Z" transform="translate(590 3795)" fill="#fff"/>
  </g>
</svg>
