<svg xmlns="http://www.w3.org/2000/svg" width="188.494" height="457.332" viewBox="0 0 188.494 457.332">
  <g id="Group_3138" data-name="Group 3138" transform="translate(-287.104 -19.026)">
    <path id="Path_386" data-name="Path 386" d="M377.3,451.412c-.1.571-.2,1.131-.267,1.706a58.2,58.2,0,0,0-13.456-2.542c-.5-.025-1-.047-1.5-.058a41.5,41.5,0,0,0-5.381.228,37.342,37.342,0,0,0-4.191.714.615.615,0,0,0-.106-.487.693.693,0,0,0-.552-.286.788.788,0,0,0-.456.135c-.914.59-1.825,1.187-2.726,1.8-.747.407-1.5.8-2.26,1.2l-.277.143c-.414.218-.823.435-1.234.656-1.972,1.044-3.56,1.936-5,2.81-1.3.788-2.449,1.544-3.469,2.29.417.251.834.533,1.24.836a15.68,15.68,0,0,1,1.684,1.434,15.877,15.877,0,0,1,1.186,1.326,12.765,12.765,0,0,1,.979,1.438,12.159,12.159,0,0,1,.553,1.093,8.586,8.586,0,0,1,.44,1.225,10.58,10.58,0,0,1,.229,1.045,8.652,8.652,0,0,1,.087,1.017,9.535,9.535,0,0,1-.039.955,7.392,7.392,0,0,1-.144.869.127.127,0,0,0-.034.087c-.018.109.057.2.2.256l.1-.008c.4.015.8.028,1.192.036a81.781,81.781,0,0,0,12.678-.712c2.4-.317,4.841-.766,7.263-1.333a62.042,62.042,0,0,0,6.915-2.067,48.694,48.694,0,0,0,6.509-2.955c.025-.071.049-.144.072-.218a20.6,20.6,0,0,0,.727-5.83l.015-.884c.014-.737.026-1.473.06-2.206.023-.526.06-1.046.108-1.568.058-.636.17-1.281.29-1.942a.668.668,0,0,0-.123-.514.747.747,0,0,0-.486-.3l-.08-.006a.747.747,0,0,0-.736.619M360,458.338a7.449,7.449,0,1,1,7.282,7.61,7.459,7.459,0,0,1-7.282-7.61" fill="#4a477c"/>
    <path id="Path_387" data-name="Path 387" d="M346.042,474.221h0Z" fill="#4a477c"/>
    <path id="Path_388" data-name="Path 388" d="M368.376,471.023h0" fill="#4a477c"/>
    <path id="Path_389" data-name="Path 389" d="M374.761,465.426c-.051.094-.1.184-.16.275q.576-.266,1.138-.545l-.026-.015a.671.671,0,0,0-.309-.08.723.723,0,0,0-.643.365" fill="#4a477c"/>
    <path id="Path_390" data-name="Path 390" d="M346.042,474.221h0Z" fill="#4a477c"/>
    <path id="Path_391" data-name="Path 391" d="M368.376,471.023h0" fill="#4a477c"/>
    <path id="Path_392" data-name="Path 392" d="M341.226,455.911a.7.7,0,0,0-.2,1.273,4.868,4.868,0,0,1,.862.538,5.912,5.912,0,0,1,.748.786,8.42,8.42,0,0,1,.921,1.7c.071.189.138.38.2.573a.711.711,0,0,0,.849.507.7.7,0,0,0,.508-.849,9.732,9.732,0,0,0-1.224-2.575,5.657,5.657,0,0,0-2.134-1.876.854.854,0,0,0-.36-.1.673.673,0,0,0-.179.022m2.3,4.208a.446.446,0,0,0,.018.047.446.446,0,0,1-.018-.047" fill="#38365e"/>
    <path id="Path_393" data-name="Path 393" d="M343.963,454.312a.705.705,0,0,0-.274.954.754.754,0,0,0,.413.33l.021.009a5.038,5.038,0,0,1,.909.553,5.776,5.776,0,0,1,.812.857,6.962,6.962,0,0,1,.711,1.295c.064.165.124.333.177.5a.7.7,0,0,0,1.358-.342,9.612,9.612,0,0,0-.522-1.308,7.219,7.219,0,0,0-.752-1.17,5.5,5.5,0,0,0-.979-.974,5.891,5.891,0,0,0-1.333-.763.481.481,0,0,0-.17-.034.789.789,0,0,0-.371.091" fill="#38365e"/>
    <path id="Path_394" data-name="Path 394" d="M346.41,452.837a.7.7,0,0,0-.426.312.7.7,0,0,0-.081.538.667.667,0,0,0,.311.427,6.729,6.729,0,0,1,1.352.812,7.248,7.248,0,0,1,1.017,1.047,7.782,7.782,0,0,1,.8,1.386.7.7,0,0,0,1.28-.14.728.728,0,0,0-.057-.541,7.391,7.391,0,0,0-3.654-3.76.969.969,0,0,0-.369-.1.607.607,0,0,0-.17.02" fill="#38365e"/>
    <path id="Path_395" data-name="Path 395" d="M405.258,451.463a.747.747,0,0,0-.5.281.674.674,0,0,0-.147.507c.092.667.176,1.315.206,1.954.025.523.038,1.044.038,1.571,0,.733-.017,1.47-.037,2.207l-.024.882a20.638,20.638,0,0,0,.469,5.858c.017.059.032.116.049.174a44.279,44.279,0,0,0,6.387,3.285,62.021,62.021,0,0,0,6.817,2.37c2.394.673,4.815,1.23,7.2,1.652a82.445,82.445,0,0,0,12.634,1.267l.459.01c.252.005.518.011.806.029l.1-.027a.241.241,0,0,0,.132-.227.176.176,0,0,0-.038-.107,6.939,6.939,0,0,1-.1-.856,9.151,9.151,0,0,1,0-.952,8.377,8.377,0,0,1,.132-1.016,10.118,10.118,0,0,1,.275-1.034,8.4,8.4,0,0,1,.493-1.2c.179-.362.377-.715.57-1.025a12.826,12.826,0,0,1,1.072-1.436,16.2,16.2,0,0,1,1.27-1.3,15.8,15.8,0,0,1,1.719-1.331c.419-.285.849-.549,1.274-.782-.987-.789-2.1-1.6-3.364-2.439-1.4-.937-2.951-1.9-4.875-3.028-.4-.239-.8-.473-1.2-.709l-.27-.156c-.739-.428-1.477-.857-2.205-1.3-.873-.653-1.757-1.291-2.644-1.919a.789.789,0,0,0-.449-.156.692.692,0,0,0-.564.261.612.612,0,0,0-.127.483,37.449,37.449,0,0,0-4.156-.9,41.389,41.389,0,0,0-5.366-.465c-.5-.011-1-.011-1.5-.008a58.184,58.184,0,0,0-13.555,1.946c-.039-.578-.114-1.142-.192-1.716a.749.749,0,0,0-.709-.651Zm2.867,8a7.449,7.449,0,1,1,7.286,7.614,7.459,7.459,0,0,1-7.286-7.614" fill="#4a477c"/>
    <path id="Path_396" data-name="Path 396" d="M407.024,465.9l-.014.007q.54.3,1.1.591c-.05-.089-.1-.179-.143-.271a.715.715,0,0,0-.623-.393.682.682,0,0,0-.315.066" fill="#4a477c"/>
    <path id="Path_397" data-name="Path 397" d="M441.886,458.194a.707.707,0,0,1,.412.331.7.7,0,0,1-.273.95,4.79,4.79,0,0,0-.886.5,5.846,5.846,0,0,0-.782.751,8.347,8.347,0,0,0-.995,1.661c-.078.187-.154.374-.228.563a.712.712,0,0,1-.871.47.7.7,0,0,1-.471-.871,9.808,9.808,0,0,1,1.337-2.519,5.665,5.665,0,0,1,2.214-1.78.84.84,0,0,1,.365-.086.68.68,0,0,1,.178.029m-2.486,4.1-.019.048a.4.4,0,0,0,.019-.048" fill="#38365e"/>
    <path id="Path_398" data-name="Path 398" d="M439.222,456.477a.7.7,0,0,1,.231.964.747.747,0,0,1-.427.312l-.021.009a5.032,5.032,0,0,0-.933.512,5.821,5.821,0,0,0-.848.82,7.009,7.009,0,0,0-.768,1.262c-.071.163-.139.327-.2.493a.7.7,0,0,1-1.342-.4,9.679,9.679,0,0,1,.58-1.283,7.1,7.1,0,0,1,.8-1.137,5.528,5.528,0,0,1,1.021-.929,5.849,5.849,0,0,1,1.366-.7.461.461,0,0,1,.171-.026.78.78,0,0,1,.367.107" fill="#38365e"/>
    <path id="Path_399" data-name="Path 399" d="M436.842,454.9a.7.7,0,0,1,.412.33.69.69,0,0,1,.057.541.661.661,0,0,1-.329.413,6.718,6.718,0,0,0-1.387.751,7.286,7.286,0,0,0-1.062,1,7.789,7.789,0,0,0-.857,1.351.7.7,0,0,1-1.273-.2.733.733,0,0,1,.081-.539,7.394,7.394,0,0,1,3.816-3.6.967.967,0,0,1,.372-.084.614.614,0,0,1,.17.027" fill="#38365e"/>
    <path id="Path_400" data-name="Path 400" d="M367.614,451.054a7.448,7.448,0,1,0,7.283,7.612,7.458,7.458,0,0,0-7.283-7.612" fill="#f5dcbd"/>
    <path id="Path_401" data-name="Path 401" d="M415.737,452.181a7.448,7.448,0,1,0,7.281,7.608,7.458,7.458,0,0,0-7.281-7.608" fill="#f5dcbd"/>
    <path id="Path_402" data-name="Path 402" d="M336.388,459.7l-.01.005q-.655.474-1.251.955a17.577,17.577,0,0,0-3.591,3.719,8.7,8.7,0,0,0-1.072,2.025l-.047.142-.046.138c-.064.233-.12.465-.172.709l.013.207c-.016.079-.025.169-.036.26a3.092,3.092,0,0,0,.22,1.364,1.791,1.791,0,0,0,.076.184,2.76,2.76,0,0,0,.2.4,3.914,3.914,0,0,0,.408.557c.046.073.094.151.148.228,0,0,.011.021.1.149.14.147.284.284.426.423.178.115.345.217.514.316a17.473,17.473,0,0,0,4.235,1.708,28.968,28.968,0,0,0,4.614.827c1.187.119,2.4.193,3.621.219.43.01.865.013,1.3.015.538,0,1.067-.009,1.586-.024a84.9,84.9,0,0,0,11.2-1.148c1.81-.3,3.378-.6,4.791-.9,1.787-.371,3.329-.736,4.715-1.116.989-.269,1.825-.521,2.631-.792a5.76,5.76,0,0,0,.868-.269,6.955,6.955,0,0,0,.993-.482,6.131,6.131,0,0,0,2.277-1.507l.3-.216c.148-.168.286-.337.422-.51.169-.2.327-.42.478-.632a9.1,9.1,0,0,0,1.207-2.41,48.375,48.375,0,0,1-6.556,2.98,61.685,61.685,0,0,1-6.914,2.065c-2.423.57-4.867,1.02-7.266,1.336a81.989,81.989,0,0,1-12.675.714q-.6-.014-1.193-.038l-.1.009c-.143-.057-.217-.148-.2-.257a.148.148,0,0,1,.036-.089,7.52,7.52,0,0,0,.142-.867,9.272,9.272,0,0,0,.039-.957,8.658,8.658,0,0,0-.087-1.017c-.058-.356-.134-.7-.225-1.043a9.177,9.177,0,0,0-.441-1.227c-.168-.371-.349-.738-.553-1.093a12.351,12.351,0,0,0-.98-1.435,14.832,14.832,0,0,0-1.187-1.326,15.779,15.779,0,0,0-1.681-1.436c-.416-.309-.841-.594-1.263-.85l-.009-.005" fill="#f5dcbd"/>
    <path id="Path_403" data-name="Path 403" d="M446.548,462.2h0l0,0c-.431.235-.868.5-1.3.792a15.971,15.971,0,0,0-1.717,1.332,15.266,15.266,0,0,0-1.27,1.3,12.892,12.892,0,0,0-1.073,1.433c-.193.31-.39.665-.57,1.025a9.21,9.21,0,0,0-.495,1.206c-.1.337-.2.679-.271,1.032a8.819,8.819,0,0,0-.132,1.016,9.2,9.2,0,0,0,0,.954,6.466,6.466,0,0,0,.1.857.214.214,0,0,1,.038.105.243.243,0,0,1-.135.226l-.1.026c-.289-.013-.555-.019-.807-.025l-.46-.01a82.439,82.439,0,0,1-12.632-1.268c-2.382-.422-4.8-.979-7.2-1.655a61.213,61.213,0,0,1-6.815-2.368,43.975,43.975,0,0,1-6.394-3.291,8.214,8.214,0,0,0,1.076,2.486c.141.219.289.445.449.654.128.176.258.352.4.526l.29.231a6.127,6.127,0,0,0,2.207,1.605,7.036,7.036,0,0,0,.97.525,5.8,5.8,0,0,0,.857.307c.791.306,1.616.594,2.592.908,1.368.439,2.892.872,4.662,1.321,1.383.363,2.934.728,4.746,1.116a84.935,84.935,0,0,0,11.141,1.64c.517.037,1.046.07,1.582.093.43.017.864.034,1.3.044,1.215.026,2.435.007,3.627-.059a29,29,0,0,0,4.647-.624,17.453,17.453,0,0,0,4.305-1.52c.173-.09.344-.185.521-.291.155-.133.3-.264.449-.4.1-.135.107-.149.107-.149.055-.072.109-.147.159-.223a3.592,3.592,0,0,0,.431-.534,2.591,2.591,0,0,0,.22-.387,1.743,1.743,0,0,0,.085-.181,3.1,3.1,0,0,0,.278-1.351c-.005-.093-.011-.184-.023-.265l.022-.2c-.042-.249-.091-.484-.141-.718l-.041-.141-.039-.143a8.705,8.705,0,0,0-.982-2.071,17.557,17.557,0,0,0-3.424-3.874q-.574-.506-1.2-1.008l-.018,0" fill="#f5dcbd"/>
    <path id="Path_404" data-name="Path 404" d="M419.3,276.123a23.942,23.942,0,0,0-2.495.077,26.266,26.266,0,0,0-2.948.42A36.982,36.982,0,0,0,404,280.163a38.9,38.9,0,0,0-8.79,6.238,29.711,29.711,0,0,0-3.385,3.8,23.637,23.637,0,0,0-2.41,3.966c-1.465-.13-3.107-.24-5.315-.363a15.537,15.537,0,0,0-.727-1.545,22.887,22.887,0,0,0-2.774-4.037,29.423,29.423,0,0,0-3.613-3.578,38.711,38.711,0,0,0-9.155-5.681,36.789,36.789,0,0,0-10.065-2.928,25.728,25.728,0,0,0-2.964-.236,22.915,22.915,0,0,0-4.282.3,14.77,14.77,0,0,0-5.85,2.274,3.53,3.53,0,0,0,.132-.659.7.7,0,0,0-.2-.528.732.732,0,0,0-1.027-.023.818.818,0,0,0-.229.512c-3.147,23.985-2.816,47.943-2.178,66.136.41,11.535,1.072,23.195,1.712,34.471l.015.307.014.193.046.8c.568,10.023,1.156,20.388,1.55,30.582.115,2.893.208,5.782.3,8.672l.013.4c.131,3.986.265,8.111.452,12.136.377,8.086.956,14.758,1.822,21a.691.691,0,0,0,.327.441.721.721,0,0,0,.368.112,23.5,23.5,0,0,0,5.417,2.44,34.239,34.239,0,0,0,6.39,1.313c1.431.162,2.862.26,4.254.29a46.632,46.632,0,0,0,9.277-.73,31.516,31.516,0,0,0,5.638-1.54.822.822,0,0,0,.417-.312.711.711,0,0,0,.619-.7q.076-3.742.193-7.481.1-2.838.217-5.674l.075-1.9q.3-7.6.627-15.2.646-15.206,1.346-30.414c.853-18.826,1.819-40.164,2.549-60.84.377-10.676.667-20.464.887-29.929l.341.072.149.037c.164.04.329.082.494.118a9.094,9.094,0,0,0,1.132.166v.147a.705.705,0,0,0-.288.629c.839,9.852,1.765,19.963,2.833,30.911,2.023,20.734,4.338,42.244,6.2,59.528l.108,1.038q1.628,15.137,3.227,30.274.8,7.567,1.568,15.134l.192,1.887.042.417c.178,1.748.356,3.489.524,5.235q.35,3.725.657,7.452a.737.737,0,0,0,.676.667.719.719,0,0,0,.415.274,31.12,31.12,0,0,0,5.727,1.19c1.451.169,2.936.272,4.415.3a46.8,46.8,0,0,0,4.891-.148c1.411-.12,2.834-.307,4.229-.554a34.345,34.345,0,0,0,6.295-1.707,23.787,23.787,0,0,0,5.265-2.772.774.774,0,0,0,.353-.131.7.7,0,0,0,.294-.461c.478-6.262.644-12.956.52-21.067-.062-4.175-.188-8.408-.309-12.5l-.031-1.071-.028-.915c-.066-2.246-.132-4.492-.179-6.735-.243-10.494-.3-21.054-.348-31.265v-.354c-.059-11.4-.119-23.184-.43-34.815-.489-18.2-1.643-42.143-6.27-65.881a.749.749,0,0,0-.255-.489.73.73,0,0,0-.452-.172.787.787,0,0,0-.574.257.672.672,0,0,0-.163.537c.042.227.088.456.142.672a14.3,14.3,0,0,0-5.952-1.932c-.569-.058-1.174-.1-1.8-.109" fill="#e4895a"/>
    <path id="Path_405" data-name="Path 405" d="M416.806,276.177a26.966,26.966,0,0,0-2.954.424,36.871,36.871,0,0,0-9.86,3.546,38.819,38.819,0,0,0-8.8,6.241,29.681,29.681,0,0,0-3.387,3.8,23.552,23.552,0,0,0-2.412,3.966c-1.45-.139-3.09-.251-5.3-.377a12.273,12.273,0,0,0-.711-1.53,23.116,23.116,0,0,0-2.776-4.043A29.494,29.494,0,0,0,377,284.628a38.543,38.543,0,0,0-9.161-5.683,36.845,36.845,0,0,0-10.07-2.934,25.965,25.965,0,0,0-2.966-.237,23.188,23.188,0,0,0-4.284.3,14.854,14.854,0,0,0-5.857,2.279,1.8,1.8,0,0,0,.159-.628.733.733,0,0,0-.206-.555.77.77,0,0,0-.525-.231.748.748,0,0,0-.53.208.821.821,0,0,0-.237.524q-.377,2.892-.694,5.78a70.3,70.3,0,0,0,13.215,7.818h0a96.025,96.025,0,0,0,24.2,7.242l-.062-.013a103.111,103.111,0,0,0,13.045,1.31,92.088,92.088,0,0,0,12.568-.391h0q3.282-.338,6.525-.947c1.389-.266,2.782-.542,4.155-.891a36.1,36.1,0,0,0,3.844-1.178q.943-.357,1.867-.78a.247.247,0,0,1,.2-.007.115.115,0,0,1,.018-.031.261.261,0,0,1,.148-.1.161.161,0,0,1,.044,0,.224.224,0,0,1,.133.043.23.23,0,0,1,.1.145,87.871,87.871,0,0,1,2.455,10.836c.6,3.692,1.03,7.406,1.346,11.132s.536,7.454.734,11.188c.016.318.034.64.053.958a.332.332,0,0,1,0,.055l.086,1.589c.015.315.034.633.049.95a8.989,8.989,0,0,1,.03.567c.011.211.021.423.034.632.016.314.034.628.052.946.033.657.07,1.312.107,1.97q.119,2.061.226,4.122t.219,4.121a.191.191,0,0,1,.006.067c.073,1.373.145,2.743.216,4.118q.437,8.594.8,17.186c.477,11.464.831,22.928.969,34.4.071,5.71.079,11.423.067,17.134s-.051,11.409-.148,17.111c-.114,6.89-.3,13.78-.609,20.666.07-.025.141-.053.21-.079a23.845,23.845,0,0,0,5.27-2.771.776.776,0,0,0,.353-.131.715.715,0,0,0,.3-.475c.477-6.241.642-12.935.519-21.07-.059-4.144-.184-8.351-.307-12.416l-.032-1.154-.028-.913c-.067-2.246-.134-4.492-.18-6.738-.244-10.47-.3-20.87-.347-30.929v-.689c-.059-11.386-.117-23.155-.429-34.815-.486-18.194-1.645-42.126-6.275-65.887a.749.749,0,0,0-.722-.677.856.856,0,0,0-.59.265.728.728,0,0,0-.165.559c.042.227.089.454.142.671a13.8,13.8,0,0,0-5.931-1.959c-.583-.057-1.188-.1-1.8-.11-.8-.018-1.639.011-2.495.076" fill="#d58054"/>
    <path id="Path_406" data-name="Path 406" d="M377.933,300.078c.117.328.241.651.391.968.118.255.245.5.381.746l-.007-.007a11.734,11.734,0,0,0,.887,1.348,12.828,12.828,0,0,0,.943,1.1s.011.007.014.014a15.9,15.9,0,0,0,1.495,1.347.235.235,0,0,1,.042.322c.1,10.919-.205,21.84-.709,32.746-.481,10.409-1.134,20.812-1.775,31.214-.319,5.187-.638,10.377-.927,15.568s-.543,10.393-.771,15.6c-.8,18.236-1.351,36.485-2.424,54.708a29.513,29.513,0,0,0,3.291-1.037.832.832,0,0,0,.427-.318.7.7,0,0,0,.621-.7q.076-3.744.194-7.481c.064-1.894.138-3.782.217-5.675l.074-1.9q.3-7.6.628-15.2.646-15.2,1.345-30.413c.853-18.841,1.82-40.178,2.55-60.845.379-10.745.667-20.479.883-29.76a32.552,32.552,0,0,1-3.814-.85c-.761-.225-1.515-.472-2.253-.769-.594-.236-1.168-.5-1.738-.786a.226.226,0,0,1,.035.062" fill="#d58054"/>
    <path id="Path_407" data-name="Path 407" d="M380.529,304.236l0,0,0,0,.005,0" fill="#d58054"/>
    <path id="Path_408" data-name="Path 408" d="M380.542,304.25v0l-.012-.012.013.014" fill="#d58054"/>
    <path id="Path_409" data-name="Path 409" d="M355.839,291.269a.4.4,0,0,0-.051-.023.4.4,0,0,1,.051.023" fill="#d58054"/>
    <path id="Path_410" data-name="Path 410" d="M377.594,298.6a.718.718,0,0,0-.462.26.7.7,0,0,0-.147.523.674.674,0,0,0,.256.461,22.321,22.321,0,0,0,6.367,2.729,21.028,21.028,0,0,0,3.545.643,13.546,13.546,0,0,0,3.466-.084.7.7,0,0,0-.17-1.39,12.155,12.155,0,0,1-2.052.147,20.216,20.216,0,0,1-4.839-.771,21.79,21.79,0,0,1-5.079-2.142c-.122-.074-.242-.149-.363-.225a.8.8,0,0,0-.427-.156.777.777,0,0,0-.1.005m.951.417.09.055-.09-.055m10.032,2.877-.171,0Z" fill="#e4895a"/>
    <path id="Path_411" data-name="Path 411" d="M376.5,299.474a.707.707,0,0,0,.366.92,36.808,36.808,0,0,0,7,2.458,17.96,17.96,0,0,0,7.372.323.7.7,0,0,0-.173-1.392,14.236,14.236,0,0,1-2.608.243h.034a.252.252,0,0,0-.039,0h-.141c.033,0,.066,0,.1,0a22.362,22.362,0,0,1-5.562-.871h0l-.046-.013.045.012a38.476,38.476,0,0,1-5.43-2.047.627.627,0,0,0-.255-.058.713.713,0,0,0-.665.425m11.915,2.552h0m-5.564-.871h0" fill="#e4895a"/>
    <path id="Path_412" data-name="Path 412" d="M416.927,299.988a.561.561,0,0,0-.239.742,30.894,30.894,0,0,0,2.226,4.137A22.73,22.73,0,0,0,422,308.724a15.251,15.251,0,0,0,3.945,2.846,11.978,11.978,0,0,0,2.32.883,9.569,9.569,0,0,0,2.726.348,1.466,1.466,0,0,0,.986-.35,1.367,1.367,0,0,0-.845-2.383c-.523,0-1.044.013-1.57-.013a11.168,11.168,0,0,1-1.3-.158,11.86,11.86,0,0,1-2.582-.851,15.824,15.824,0,0,1-3.061-2.03,19.642,19.642,0,0,1-3.13-3.552,21.6,21.6,0,0,1-1.814-3.241.557.557,0,0,0-.743-.235m2.559,3.479c.026.038.055.078.081.119l-.081-.119m3.138,3.557c.037.032.075.064.114.1l-.114-.1" fill="#c9784f"/>
    <path id="Path_413" data-name="Path 413" d="M355.409,296.006a18.056,18.056,0,0,1-.756,1.854,20.651,20.651,0,0,1-2.785,4.162,19.536,19.536,0,0,1-3.252,2.957,14.347,14.347,0,0,1-2.915,1.506,16.056,16.056,0,0,1-2.384.591,1.382,1.382,0,0,0-.463,2.5c.108.052.216.1.324.156a1.4,1.4,0,0,0,.734.038,8.724,8.724,0,0,0,2.264-.588,10.584,10.584,0,0,0,2.053-1.073,18.277,18.277,0,0,0,3.752-3.3,23.845,23.845,0,0,0,2.876-4.113,25.912,25.912,0,0,0,1.925-4.239.732.732,0,0,0-.458-.914.684.684,0,0,0-.208-.036.736.736,0,0,0-.707.493m-3.4,5.853c-.046.054-.093.106-.14.159l.14-.159" fill="#c9784f"/>
    <path id="Path_414" data-name="Path 414" d="M416.274,125.883a27.712,27.712,0,0,0-5.14.46c-1.72.289-3.443.694-5.061,1.082l-.125.03a61.3,61.3,0,0,1-6.809,1.324,18.161,18.161,0,0,1-2.245.068c-.986-.022-2.024-.1-2.817-.158l-.11-.009c-1.642-.124-3.286-.269-4.929-.418l-1.307-.117-1.307-.117c-2.833-.241-6.2-.5-9.705-.575a75.77,75.77,0,0,0-8.024.213c-1.651.145-3.02.32-4.31.556a27.9,27.9,0,0,0-3.679.985,13.645,13.645,0,0,0-5.736,3.357,8.59,8.59,0,0,0-2.071,3.791c-.045.157-.078.322-.109.483a1.535,1.535,0,0,0-.513.5,1.467,1.467,0,0,0-.172,1.073c.166.843.388,1.656.564,2.272.085.305.176.611.272.915.153.479.294.886.442,1.291a32.419,32.419,0,0,0,1.973,4.421,35.149,35.149,0,0,0,5.633,7.66,47.575,47.575,0,0,0,16.545,10.882,55.933,55.933,0,0,0,19.6,4.079l.109,0a43.071,43.071,0,0,0,19.023-3.789,31.326,31.326,0,0,0,7.792-5.173,30.157,30.157,0,0,0,3.295-3.572c.454-.578.917-1.221,1.375-1.912a20.583,20.583,0,0,0-.263-22.649,16.446,16.446,0,0,0-5.281-5.145,14.253,14.253,0,0,0-5.922-1.763c-.331-.025-.663-.043-.992-.051" fill="#6b82a0"/>
    <path id="Path_415" data-name="Path 415" d="M411.137,126.34c-1.722.287-3.443.694-5.061,1.082l-.124.03a60.964,60.964,0,0,1-6.811,1.325,18.384,18.384,0,0,1-2.247.067c-.984-.021-2.023-.1-2.817-.157l-.109-.01c-1.644-.123-3.287-.27-4.929-.419l-1.308-.117-1.308-.115c-2.83-.242-6.2-.5-9.7-.576a75.773,75.773,0,0,0-8.024.214c-1.648.142-3.017.32-4.307.554a27.653,27.653,0,0,0-3.683.985,13.676,13.676,0,0,0-5.735,3.359,8.584,8.584,0,0,0-2.069,3.791,4.264,4.264,0,0,0-.109.482,1.513,1.513,0,0,0-.515.5,1.471,1.471,0,0,0-.17,1.073c.165.843.387,1.658.564,2.271.084.306.176.61.271.915.154.478.3.887.443,1.291.072.2.144.4.22.6.2-.072.4-.148.6-.228l-.019.011c.166-.065.332-.135.495-.205a8.991,8.991,0,0,1-.54-1.708,6.213,6.213,0,0,1-.136-1.777,4.684,4.684,0,0,1,.354-1.489,4.507,4.507,0,0,1,.332-.635,4.979,4.979,0,0,1,.425-.571,5.676,5.676,0,0,1,.834-.776,9.79,9.79,0,0,1,2.137-1.878,10.886,10.886,0,0,1,3.052-1.348,15.9,15.9,0,0,1,4.492-.5c.333.007.668.022,1,.047a33.494,33.494,0,0,1,5.868.981c1.946.491,3.86,1.1,5.751,1.758.464.16.931.327,1.394.494a.3.3,0,0,1,.058.019l1.4.511a56.389,56.389,0,0,0,7.728.305c.224-.054.445-.111.664-.169,1.656-.431,3.288-.935,4.9-1.483s3.247-1.114,4.884-1.637c2.8-.9,5.64-1.708,8.518-2.327,1.5-.324,3-.6,4.517-.784a29.638,29.638,0,0,1,4.251-.253,18.149,18.149,0,0,1,1.946.139,12.989,12.989,0,0,1,1.759.345,7.683,7.683,0,0,1,2.863,1.417,5.556,5.556,0,0,1,1.031,1.118,5.669,5.669,0,0,1,.7,1.417,8.935,8.935,0,0,1,.31,3.842.255.255,0,0,1-.07.167.217.217,0,0,1-.089.049c.115.43.212.866.293,1.3a23.737,23.737,0,0,1,.347,2.967,27.513,27.513,0,0,1,.014,3.012,30.921,30.921,0,0,1-.868,5.8,34.59,34.59,0,0,1-1.959,5.708,35.743,35.743,0,0,1-2.894,5.288,36.277,36.277,0,0,1-2.257,3.029,31.367,31.367,0,0,0,6.361-4.461,30.146,30.146,0,0,0,3.3-3.571c.454-.577.918-1.22,1.375-1.911a20.068,20.068,0,0,0,1.6-2.939,20.669,20.669,0,0,0-1.868-19.717,16.42,16.42,0,0,0-5.277-5.146,14.228,14.228,0,0,0-5.925-1.762c-.332-.026-.663-.044-.992-.051a27.529,27.529,0,0,0-5.138.459" fill="#9bbce7"/>
    <path id="Path_416" data-name="Path 416" d="M398.989,123.295l-.053,0a.762.762,0,0,0-.721.788c.008.529.023,1.053.042,1.582a10.916,10.916,0,0,0-6.088-1.738,19.176,19.176,0,0,0-2.819.159,22.828,22.828,0,0,0-5.382,1.387,18.11,18.11,0,0,0-3.173,1.575,18.007,18.007,0,0,0-.442-1.82.763.763,0,0,0-.714-.52.706.706,0,0,0-.241.034.768.768,0,0,0-.486.954c.229.787.409,1.538.552,2.3l0-.02c0,.026.01.053.015.079a1.505,1.505,0,0,0-.074.227.751.751,0,0,0,.1.565.737.737,0,0,0,.111.134,22.9,22.9,0,0,1,.116,4.5,21.244,21.244,0,0,1-1.129,5.149,19.758,19.758,0,0,1-2.158,4.187l-.057.083c-.113.159-.213.3-.312.429a.869.869,0,0,0-.194.425.759.759,0,0,0-.041.3.837.837,0,0,0,.243.517,22.523,22.523,0,0,0,5.764,4.9,16.482,16.482,0,0,0,6.286,2.126c.477.057.963.091,1.447.1a16.022,16.022,0,0,0,5.01-.7,18.5,18.5,0,0,0,6.069-3.262,25.183,25.183,0,0,0,4.065-4.09,1.182,1.182,0,0,0,.077-.117.678.678,0,0,0,.189-.145.771.771,0,0,0,.2-.543.823.823,0,0,0-.248-.525,19.771,19.771,0,0,1-2.645-4.084,25.728,25.728,0,0,1-1.9-6.153,50.675,50.675,0,0,1-.665-8.055.757.757,0,0,0-.737-.722" fill="#77453e"/>
    <path id="Path_417" data-name="Path 417" d="M398.987,123.273l-.052,0a.784.784,0,0,0-.74.808c.007.529.024,1.054.043,1.584a10.594,10.594,0,0,0-6.067-1.759,20.254,20.254,0,0,0-2.823.159,22.882,22.882,0,0,0-5.386,1.393,17.7,17.7,0,0,0-3.176,1.575,12.821,12.821,0,0,0-.414-1.814.788.788,0,0,0-.732-.533.662.662,0,0,0-.249.042.776.776,0,0,0-.5.976,23.442,23.442,0,0,1,.548,2.3,1.155,1.155,0,0,1-.044.2.807.807,0,0,0,.092.655.537.537,0,0,0,.109.139,23.053,23.053,0,0,1,.173,2.828,25.129,25.129,0,0,0,6.182,1.265,27.684,27.684,0,0,0,7.167-.383l-.006,0a21.389,21.389,0,0,0,5.08-1.641c-.02.012-.038.019-.059.031a16.035,16.035,0,0,0,1.771-.988c.067-.043.131-.086.2-.131a58.01,58.01,0,0,1-.357-5.964.78.78,0,0,0-.758-.744Z" fill="#663a35"/>
    <path id="Path_418" data-name="Path 418" d="M349.541,89.508h-.062a8.6,8.6,0,0,0-5.669,2.206,8.782,8.782,0,0,0-1.973,2.509,9.188,9.188,0,0,0-1,3.215,9.576,9.576,0,0,0,.17,3.2,10.867,10.867,0,0,0,1.145,3,12.04,12.04,0,0,0,2.684,3.3,11.489,11.489,0,0,0,3.7,2.155,9.275,9.275,0,0,0,2.934.54,10.24,10.24,0,0,0,1.332-.064,8.3,8.3,0,0,0,2.251-.574,9.232,9.232,0,0,0,2.4-1.468.77.77,0,0,0,.125-.963.738.738,0,0,0,.038-.438c-.25-1.522-.484-3.046-.719-4.571-.437-2.849-.928-6.063-1.537-9.118a.769.769,0,0,0-.684-.58,6.874,6.874,0,0,0-2.218-1.673,7.127,7.127,0,0,0-2.924-.679" fill="#77453e"/>
    <path id="Path_419" data-name="Path 419" d="M424.841,84.835a7.551,7.551,0,0,0-1.368.09,7.192,7.192,0,0,0-2.854,1.117,6.94,6.94,0,0,0-1.959,1.992.739.739,0,0,0-.581.665c-.145,3.094-.159,6.321-.171,9.169l0,.72c0,1.326-.007,2.655-.033,3.981a.823.823,0,0,0,.1.446.74.74,0,0,0,.268.911,9.031,9.031,0,0,0,2.59,1.1,8.222,8.222,0,0,0,1.812.239c.164,0,.327,0,.5,0a10.615,10.615,0,0,0,1.329-.135,9.5,9.5,0,0,0,2.824-.965,11.62,11.62,0,0,0,3.346-2.68A12.031,12.031,0,0,0,432.8,97.82a10.927,10.927,0,0,0,.7-3.139,9.514,9.514,0,0,0-.31-3.191,9.33,9.33,0,0,0-1.463-3.036,8.756,8.756,0,0,0-2.33-2.183,8.883,8.883,0,0,0-4.556-1.436" fill="#77453e"/>
    <path id="Path_420" data-name="Path 420" d="M431.378,91.217a11.411,11.411,0,0,1-.282,2.715,10.222,10.222,0,0,1-.472,1.506,9.863,9.863,0,0,1-.618,1.265,10.634,10.634,0,0,1-1.809,2.312,12.174,12.174,0,0,1-2.351,1.778,14.045,14.045,0,0,1-2.8,1.253,15.549,15.549,0,0,1-2.957.65,15.793,15.793,0,0,1-2.218.11.625.625,0,0,0,.085.22.75.75,0,0,0,.275.919,9.067,9.067,0,0,0,2.6,1.1,8.28,8.28,0,0,0,1.814.239c.164,0,.327,0,.495,0a11.832,11.832,0,0,0,1.335-.134,9.577,9.577,0,0,0,2.824-.968,11.712,11.712,0,0,0,3.356-2.686,11.893,11.893,0,0,0,2.164-3.672,10.78,10.78,0,0,0,.707-3.148,9.419,9.419,0,0,0-.318-3.19,9.272,9.272,0,0,0-1.464-3.046,9.052,9.052,0,0,0-1.06-1.195,11.233,11.233,0,0,1,.695,3.97" fill="#6c3e38"/>
    <path id="Path_421" data-name="Path 421" d="M349.482,89.488A8.291,8.291,0,0,0,345,90.8a7.392,7.392,0,0,1,2.3,1.622,9.969,9.969,0,0,1,1.753,2.456,10.3,10.3,0,0,1,.592,1.389c.157.473.29.955.4,1.439a25.843,25.843,0,0,1,.486,3.179c.1,1.064.158,2.134.224,3.2s.132,2.114.261,3.162a22.085,22.085,0,0,0,.433,2.408h.023a10.682,10.682,0,0,0,1.331-.065,8.408,8.408,0,0,0,2.26-.576,9.152,9.152,0,0,0,2.407-1.474.792.792,0,0,0,.13-.984.677.677,0,0,0,.041-.431c-.25-1.521-.484-3.046-.719-4.572-.418-2.737-.924-6.049-1.541-9.121a.785.785,0,0,0-.7-.595,6.709,6.709,0,0,0-2.211-1.67,7.136,7.136,0,0,0-2.931-.682Z" fill="#6c3e38"/>
    <path id="Path_422" data-name="Path 422" d="M423.6,89.9a.26.26,0,0,0-.133.332c.031.085.057.173.081.262a7.748,7.748,0,0,1,.235,1.844,10.1,10.1,0,0,1-.079,1.413,12.083,12.083,0,0,1-.278,1.413,13.648,13.648,0,0,1-.43,1.3,9.44,9.44,0,0,1-.6,1.254h0a8.7,8.7,0,0,1-1.192,1.649c-.163.159-.332.31-.511.455a.722.722,0,1,0,.892,1.135,5.916,5.916,0,0,0,.993-.93,7.216,7.216,0,0,0,.852-1.28,7.028,7.028,0,0,0,.527-1.318,12.116,12.116,0,0,0,.376-1.573,13.83,13.83,0,0,0,.145-3.021,10.534,10.534,0,0,0-.545-2.8.244.244,0,0,0-.228-.152.249.249,0,0,0-.1.02m-2.3,9.368-.078.078c.026-.027.053-.053.078-.078" fill="#5a342f"/>
    <path id="Path_423" data-name="Path 423" d="M428.366,90.073a6.723,6.723,0,0,0-2.542.655,4.666,4.666,0,0,0-1.081.75,4.234,4.234,0,0,0-.4.427,3.568,3.568,0,0,0-.4.612.483.483,0,0,0-.033.269.49.49,0,0,0,.194.326.509.509,0,0,0,.71-.1c.182-.226.372-.445.573-.656a6.547,6.547,0,0,1,1.106-.873,5.857,5.857,0,0,1,1.207-.506l-.105.032a4.783,4.783,0,0,1,.885-.139.408.408,0,0,0,.337-.46.4.4,0,0,0-.41-.341h-.045m-1.783,1.36-.084.052c.027-.018.055-.035.084-.052m-1.245.977c-.009.01-.02.019-.029.029.009-.01.02-.019.029-.029" fill="#5a342f"/>
    <path id="Path_424" data-name="Path 424" d="M348.149,95.6a.31.31,0,0,0-.291.321,16.989,16.989,0,0,0,.272,2.975,16.6,16.6,0,0,0,.926,3.317,11.647,11.647,0,0,0,.756,1.532,8.029,8.029,0,0,0,.981,1.324,5.956,5.956,0,0,0,1.222,1.014,4.761,4.761,0,0,0,1.448.6.523.523,0,1,0,.228-1.021c-.127-.034-.252-.074-.379-.118a5.709,5.709,0,0,1-1.007-.528,6.7,6.7,0,0,1-1.162-1.074,10.324,10.324,0,0,1-1.27-1.993l0,0a15.039,15.039,0,0,1-1.2-3.759c0,.028.01.059.014.087a13.617,13.617,0,0,1-.221-2.38.313.313,0,0,0-.3-.295h-.014" fill="#5a342f"/>
    <path id="Path_425" data-name="Path 425" d="M345,96.564a6,6,0,0,0-1.194.192.337.337,0,0,0,.211.641c.1-.024.208-.049.313-.07-.031,0-.058.011-.089.014a5.606,5.606,0,0,1,.635-.072,3.9,3.9,0,0,1,.572.013,5.374,5.374,0,0,1,.953.219l-.022-.009.022.009.075.024a.477.477,0,0,1-.07-.022,5.48,5.48,0,0,1,.542.247,4.211,4.211,0,0,1,.538.33l-.014-.009c.1.075.207.152.312.23a.441.441,0,0,0,.3.112.45.45,0,0,0,.3-.138.431.431,0,0,0-.029-.6A4.082,4.082,0,0,0,347.346,97a4.934,4.934,0,0,0-1.147-.36,4.778,4.778,0,0,0-.775-.077c-.14,0-.281,0-.42,0m.456.719.049,0a.421.421,0,0,1-.049,0m.95.22-.005,0h0l.005,0" fill="#5a342f"/>
    <path id="Path_426" data-name="Path 426" d="M390.964,42.2l-.081,0a44.534,44.534,0,0,0-7.445.5,38.868,38.868,0,0,0-13.912,4.841A30,30,0,0,0,359.179,57.4a47.521,47.521,0,0,0-4.486,10.908c-.369,1.188-.711,2.269-1.073,3.338a.842.842,0,0,0-.234.526c-.139,2.3-.319,4.6-.5,6.908a142.427,142.427,0,0,0-.656,18.478,46.191,46.191,0,0,0,2.107,12.195,30.093,30.093,0,0,0,2.445,5.521,26.63,26.63,0,0,0,3.635,4.945,30.087,30.087,0,0,0,11.63,7.547,35.671,35.671,0,0,0,7.429,1.835,38.808,38.808,0,0,0,4.762.393c.93.021,1.917.009,2.937-.036a47.488,47.488,0,0,0,15.179-3.223,45.741,45.741,0,0,0,6.838-3.321,25.165,25.165,0,0,0,5.27-4.08,22.97,22.97,0,0,0,3.632-4.975,27.62,27.62,0,0,0,2.3-5.716,38.335,38.335,0,0,0,1.2-6.256,55.7,55.7,0,0,0,.354-6.5,119.7,119.7,0,0,0-.862-13.154q-.227-2.081-.475-4.166l-.249-2.132-.041-.381-.039-.335-.046-.413-.04-.332-.1-.981-.107-.978a65.474,65.474,0,0,0-2-10.467,1.791,1.791,0,0,0-.006-.435,19.833,19.833,0,0,0-1.059-4.234,20.249,20.249,0,0,0-1.529-3.3,21.373,21.373,0,0,0-4.5-5.412,28.334,28.334,0,0,0-12.758-6.191,38.126,38.126,0,0,0-7.172-.78" fill="#77453e"/>
    <path id="Path_427" data-name="Path 427" d="M390.887,42.171a45.543,45.543,0,0,0-7.448.5,39.083,39.083,0,0,0-13.921,4.85,29.974,29.974,0,0,0-10.356,9.874,47.2,47.2,0,0,0-4.484,10.91c-.368,1.189-.711,2.27-1.072,3.339a.85.85,0,0,0-.242.535c-.14,2.3-.319,4.6-.5,6.908l-.01.17c-.363,4.633-.736,9.383-.739,14.121a6.4,6.4,0,0,0,1.031.816h0a.117.117,0,0,1,.02.012l.007,0-.007,0-.016-.012a.2.2,0,0,0,.034.02.011.011,0,0,1-.011,0s.007,0,.011.009v0a3.685,3.685,0,0,0,.8.352,2.619,2.619,0,0,0,.545.082,2.162,2.162,0,0,0,.527-.066,3.665,3.665,0,0,0,.368-.147l.012-.008s.008,0,.012,0,.012-.007.016-.011l-.012.007a.078.078,0,0,0,.027-.014l-.011,0,0,0,0,0a3.018,3.018,0,0,0,.522-.39,5,5,0,0,0,.655-.84,7.666,7.666,0,0,0,.719-1.578v0a.046.046,0,0,0,.009-.027,3.932,3.932,0,0,0,.086-.55c.01-.132.017-.267.02-.4,0-.311-.017-.623-.041-.934-.018-.257-.04-.513-.049-.77a6.346,6.346,0,0,1,0-.661,3.28,3.28,0,0,1,.04-.423c.015-.09.032-.178.054-.267a1.908,1.908,0,0,1,.55-.983,2.506,2.506,0,0,1,.3-.237l.2-.262c.116-.148.233-.3.348-.447.089-.114.181-.229.265-.351a7.531,7.531,0,0,0,.424-.714l.007-.014v0l0-.011,0,0,0-.008,0-.009,0,.009,0,0a.148.148,0,0,0,.013-.025l-.007.011a6.733,6.733,0,0,0,.266-.651,6.009,6.009,0,0,0,.2-.723,4.61,4.61,0,0,0,.089-.694,4.975,4.975,0,0,0,0-.6,3.919,3.919,0,0,0-.069-.523c-.047-.195-.1-.382-.162-.57l.021.058c-.033-.09-.07-.184-.111-.274a.289.289,0,0,1-.018-.175.227.227,0,0,1,.022-.12.238.238,0,0,1,.134-.13c1.3-.7,2.607-1.357,3.89-2.075l0,0a19.744,19.744,0,0,0,4.043-2.837,10.136,10.136,0,0,0,.916-1,10.4,10.4,0,0,0,.718-1.026,9.292,9.292,0,0,0,.574-1.13,9.69,9.69,0,0,0,.414-1.184v.011a11.886,11.886,0,0,0,.311-1.544,14.8,14.8,0,0,0,.116-1.6c0-.047,0-.093,0-.144a.267.267,0,0,1,.054-.186.246.246,0,0,1,.161-.088c.012,0,.028,0,.039,0a.262.262,0,0,1,.151.054.239.239,0,0,1,.089.165v0a.228.228,0,0,1,.2.055,3.682,3.682,0,0,0,.371.319c.083.061.168.12.257.173l-.059-.036a2.829,2.829,0,0,0,.392.2c.07.029.139.054.212.079a.011.011,0,0,0-.011-.005.011.011,0,0,1,.011.005,3.792,3.792,0,0,0,.391.086,3.712,3.712,0,0,0,.408.028c.113,0,.234-.014.347-.027s.249-.045.374-.07a4.262,4.262,0,0,0,.65-.214c.212-.093.416-.189.617-.3a8.16,8.16,0,0,0,.982-.658q.405-.318.773-.671c-.016.015-.027.03-.044.046.068-.065.136-.13.2-.2a.251.251,0,0,1,.232-.088.245.245,0,0,1,.194.152c.075.153.157.3.239.453l0-.005a10.587,10.587,0,0,0,1.449,1.953,11.759,11.759,0,0,0,2.276,1.807.55.55,0,0,1-.053-.037,13.675,13.675,0,0,0,3.211,1.4c-.019,0-.043-.012-.066-.016a15.177,15.177,0,0,0,3.928.584l-.065,0a14.276,14.276,0,0,0,3.7-.438.52.52,0,0,0-.063.018,12.452,12.452,0,0,0,2.769-1.1h0A10.561,10.561,0,0,0,397.3,69.51a10.087,10.087,0,0,0,1.462-1.834.418.418,0,0,0-.032.058A10.692,10.692,0,0,0,399.4,66.4l0,0a.256.256,0,0,1,.136-.324c.024-.061.046-.123.07-.184a.26.26,0,0,1,.326-.129.255.255,0,0,1,.128.329c-.016.046-.037.1-.053.143a4.306,4.306,0,0,0,.535.256c.188.075.389.145.59.205h0a5.054,5.054,0,0,0,.8.161c.193.02.391.032.59.037a6.114,6.114,0,0,0,.786-.052c.266-.042.526-.094.789-.162a.591.591,0,0,0-.062.018,7.556,7.556,0,0,0,1.077-.377c.3-.134.592-.279.884-.438a13.782,13.782,0,0,0,1.5-1.01.251.251,0,0,1,.4.235,26.336,26.336,0,0,0-.51,4.1.386.386,0,0,0,0-.069,7.178,7.178,0,0,0,.183,1.729l-.007-.015a4.173,4.173,0,0,0,.316.811,2.871,2.871,0,0,0,.449.605,3.3,3.3,0,0,0,.519.4,3.784,3.784,0,0,0,.761.316,4.052,4.052,0,0,0,.626.122c.244.029.485.047.734.052a.036.036,0,0,0-.02,0c.047,0,.094,0,.14,0a.254.254,0,0,1,.132.019.236.236,0,0,1,.1.079.265.265,0,0,1,.045.183,25.165,25.165,0,0,1-.633,3.524,17.839,17.839,0,0,0-.531,3.413,6.252,6.252,0,0,0,.037.855,6.868,6.868,0,0,0,.162.879c0-.019-.011-.043-.014-.062a5.086,5.086,0,0,0,.2.614c.077.193.165.377.263.566a.091.091,0,0,0,0-.016,5.42,5.42,0,0,0,.383.6,7.323,7.323,0,0,0,.489.583.372.372,0,0,0-.046-.044,9.2,9.2,0,0,0,1.811,1.447c-.02-.012-.038-.025-.055-.036a5.929,5.929,0,0,0,1.395.625c-.024-.008-.043-.012-.066-.021a3.851,3.851,0,0,0,1.007.155.1.1,0,0,0-.039,0,3.651,3.651,0,0,0,.872-.1.5.5,0,0,0-.062.018,4,4,0,0,0,.906-.365c-.02.011-.039.018-.059.029a4.9,4.9,0,0,0,.969-.725,8.591,8.591,0,0,0,1.343-1.727c.066-.115.134-.23.2-.346.117-1.043.269-2.084.47-3.118.092-.48.192-.956.3-1.432l-.018-.175-.249-2.131-.043-.382-.039-.336-.045-.413-.039-.33-.1-.983-.106-.978a65.877,65.877,0,0,0-2.005-10.481,1.932,1.932,0,0,0,0-.423,21.286,21.286,0,0,0-2.593-7.54,21.411,21.411,0,0,0-4.507-5.421,28.5,28.5,0,0,0-12.768-6.2,38.861,38.861,0,0,0-7.174-.779ZM411,73.155h0Zm4.782,13.36h0Z" fill="#6c3e38"/>
    <path id="Path_428" data-name="Path 428" d="M360.146,81.926a.109.109,0,0,0,0-.031c0,.011,0,.019,0,.031" fill="#6c3e38"/>
    <path id="Path_429" data-name="Path 429" d="M359.575,84.545l0,.01v0l0-.014v0" fill="#6c3e38"/>
    <path id="Path_430" data-name="Path 430" d="M359.57,84.558l-.007.014.008-.015h0" fill="#6c3e38"/>
    <line id="Line_1" data-name="Line 1" transform="translate(359.563 84.572)" fill="#6c3e38"/>
    <path id="Path_431" data-name="Path 431" d="M401.123,66.689h0Z" fill="#6c3e38"/>
    <path id="Path_432" data-name="Path 432" d="M420.8,80.482l.013-.061c-.094.507-.176,1.015-.251,1.526.114-.256.224-.512.327-.77a1.037,1.037,0,0,1,.041-.105l-.092-.792c-.013.067-.025.135-.038.2" fill="#6c3e38"/>
    <path id="Path_433" data-name="Path 433" d="M420.452,83.295c-.027.051-.056.1-.084.153-.164,1.457-.265,2.92-.331,4.386-.116,2.488-.152,4.983-.269,7.473a54.642,54.642,0,0,1-.759,7.263,27.667,27.667,0,0,1-2.137,6.829,23.231,23.231,0,0,1-2.036,3.511,28.188,28.188,0,0,1-2.533,3.082,34.579,34.579,0,0,1-6.035,5.052,42.76,42.76,0,0,1-7.057,3.763,45.128,45.128,0,0,1-14.386,3.534,43.523,43.523,0,0,1-7.675-.044,34.554,34.554,0,0,1-7.8-1.643q1.31.614,2.691,1.126a35.83,35.83,0,0,0,7.434,1.847,39.274,39.274,0,0,0,4.764.392c.9.02,1.886.007,2.936-.036a47.467,47.467,0,0,0,15.188-3.233,44.794,44.794,0,0,0,6.836-3.321,25.087,25.087,0,0,0,5.276-4.078,22.951,22.951,0,0,0,3.636-4.984,27.632,27.632,0,0,0,2.307-5.714,38.611,38.611,0,0,0,1.206-6.266,56.568,56.568,0,0,0,.353-6.5,119.736,119.736,0,0,0-.861-13.153c-.022-.214-.048-.428-.071-.647-.183.412-.374.816-.59,1.208" fill="#6c3e38"/>
    <path id="Path_434" data-name="Path 434" d="M406,65.874l.007,0-.007,0" fill="#6c3e38"/>
    <path id="Path_435" data-name="Path 435" d="M407.548,70.829l-.009-.031.009.031" fill="#6c3e38"/>
    <path id="Path_436" data-name="Path 436" d="M353.179,94.212h0" fill="#6c3e38"/>
    <path id="Path_437" data-name="Path 437" d="M355.428,94.423l-.008,0,.013-.005h-.005" fill="#6c3e38"/>
    <path id="Path_438" data-name="Path 438" d="M355.419,94.428h0" fill="#6c3e38"/>
    <path id="Path_439" data-name="Path 439" d="M354.994,94.59a.094.094,0,0,0,.028-.007c-.012,0-.02,0-.028.007" fill="#6c3e38"/>
    <path id="Path_440" data-name="Path 440" d="M350.294,69.37c-.133,0-.269,0-.41.01a5.458,5.458,0,0,0-2.47.8A8.543,8.543,0,0,0,345.19,72.2a5.473,5.473,0,0,0-1.422.624,6.177,6.177,0,0,0-1.6,1.5,7.085,7.085,0,0,0-.987,1.875,8.1,8.1,0,0,0-.44,2.118,7.356,7.356,0,0,0,.8,4.074,5.063,5.063,0,0,0,3.182,2.516,5.652,5.652,0,0,0,1.265.167,6.779,6.779,0,0,0,.74-.025,14.861,14.861,0,0,0-.17,4.088,8.434,8.434,0,0,0,1.974,5.029,5.538,5.538,0,0,0,2.325,1.449,6.379,6.379,0,0,0,1.535.279c.087.007.175.012.263.014a4.162,4.162,0,0,0,1.331-.182,3,3,0,0,0,1.919-1.794,6.987,6.987,0,0,0,.471-2.683c.014-.616-.022-1.237-.057-1.838l-.036-.633a11.281,11.281,0,0,1,.035-2.1,10.515,10.515,0,0,1,.654-1.98l.151-.375.079-.195c.176-.436.353-.871.487-1.321a9.212,9.212,0,0,0,.294-1.453,10.77,10.77,0,0,0-.04-2.833,12.363,12.363,0,0,0-.678-2.73,11.87,11.87,0,0,0-2.96-4.629,6.223,6.223,0,0,0-4.009-1.8" fill="#212226"/>
    <path id="Path_441" data-name="Path 441" d="M386.143,19.032a24.175,24.175,0,0,0-3.355.163,19.881,19.881,0,0,0-8.329,2.905,14.992,14.992,0,0,0-4.119,3.876,12.548,12.548,0,0,0-1.872,3.919,8.184,8.184,0,0,0-.917-1.016,10.775,10.775,0,0,0-2.049-1.508,11.647,11.647,0,0,0-4.734-1.4c-.284-.026-.564-.04-.844-.046a14.756,14.756,0,0,0-4.04.5,15.585,15.585,0,0,0-4.446,1.936,10.7,10.7,0,0,0-4.825,6.065,7.45,7.45,0,0,0,.032,3.842,8.543,8.543,0,0,0,.873,2.043,13.042,13.042,0,0,0-4.83-1.1c-.117,0-.237,0-.354,0a11.08,11.08,0,0,0-6.211,2.022,16.222,16.222,0,0,0-4.569,5.057,23.7,23.7,0,0,0-2.667,6.684,24.261,24.261,0,0,0-.655,7.11,16.37,16.37,0,0,0,1.6,6.39,9.423,9.423,0,0,0,4.079,4.222,9.328,9.328,0,0,0,3.142.922,9.74,9.74,0,0,0,.981.07,14,14,0,0,0,2.688-.227,17.515,17.515,0,0,0,2.111-.521,15.325,15.325,0,0,0,1.557-.565,8.5,8.5,0,0,0,.143,2.049,7.037,7.037,0,0,0,1.7,3.378,8.2,8.2,0,0,0,3.114,2.053,12.142,12.142,0,0,0,3.909.755l.265.009a17.169,17.169,0,0,0,4.053-.427,18.106,18.106,0,0,0,4.238-1.536,14.04,14.04,0,0,0,6.341-6.146,11.985,11.985,0,0,0,.956-2.8,12.146,12.146,0,0,0,.276-2.842c-.006-.23-.024-.46-.051-.686a8.387,8.387,0,0,0,3.6.941,7.315,7.315,0,0,0,1.028-.05,5.714,5.714,0,0,0,1.481-.388,5.463,5.463,0,0,0,2.567-2.167,5.862,5.862,0,0,0,.34-.592,7.552,7.552,0,0,0,1.124,2.891,8.739,8.739,0,0,0,3.109,2.824,12.38,12.38,0,0,0,5.674,1.45,14.808,14.808,0,0,0,2.947-.234,11.03,11.03,0,0,0,5.755-2.834,7.97,7.97,0,0,0,1.785-2.676,6.84,6.84,0,0,0,.387-1.277,1.642,1.642,0,0,0,.216.236A6.517,6.517,0,0,0,401.3,63.57a6.193,6.193,0,0,0,2.1.455l.157.006a7.285,7.285,0,0,0,2-.254,8.738,8.738,0,0,0,3.879-2.269,8.958,8.958,0,0,0,1.82-2.587,2.656,2.656,0,0,0,.624.524,2.574,2.574,0,0,0,1.259.379,5.2,5.2,0,0,0-.269.551,15.225,15.225,0,0,0-.735,2.1,19.634,19.634,0,0,0-.746,5.078,9.828,9.828,0,0,0,.939,4.682,5.025,5.025,0,0,0,1.421,1.671,4.24,4.24,0,0,0,.93.516,4.378,4.378,0,0,0,.922.258,15.14,15.14,0,0,0-1.261,5.517,8.078,8.078,0,0,0,.453,2.987,6.13,6.13,0,0,0,1.684,2.522,6.8,6.8,0,0,0,1.357.925,7.848,7.848,0,0,0,1.8.7,4.818,4.818,0,0,0,1,.135,3.808,3.808,0,0,0,.427-.014,3.668,3.668,0,0,0,1.373-.4,4.345,4.345,0,0,0,1.722-1.914,10.474,10.474,0,0,0,.891-2.813c.042-.2.079-.41.109-.616a2.538,2.538,0,0,0,.5.053,3.541,3.541,0,0,0,1.356-.229,5.441,5.441,0,0,0,2.221-1.645,10.39,10.39,0,0,0,1.545-2.515,12.3,12.3,0,0,0,.868-2.621,10.247,10.247,0,0,0,.148-3.087,7.521,7.521,0,0,0-.843-2.844,6.682,6.682,0,0,0-1.834-2.1,8.309,8.309,0,0,0-2.1-1.163,2.9,2.9,0,0,0,.41-.219,7.829,7.829,0,0,0,2.034-1.85,11.168,11.168,0,0,0,2.118-5.023,16.127,16.127,0,0,0-.035-5.733,14.737,14.737,0,0,0-2.422-5.563,12.654,12.654,0,0,0-7.847-5.424,29.951,29.951,0,0,0-4.842-.709c-.868-.07-1.743-.12-2.615-.17l-.361-.02-.319-.018c.123-.405.286-.816.408-1.211a7.193,7.193,0,0,0,.264-1.361,5.784,5.784,0,0,0-.034-1.27,4.916,4.916,0,0,0-.8-2.113,6.541,6.541,0,0,0-1.686-1.7,8.835,8.835,0,0,0-2.237-1.112,11.891,11.891,0,0,0-2.636-.564c-.338-.039-.677-.057-1.015-.065a13.82,13.82,0,0,0-3.943.5,12.9,12.9,0,0,0-.637-3.712,12.137,12.137,0,0,0-2.092-3.788,14.65,14.65,0,0,0-7.022-4.516,20.131,20.131,0,0,0-5.576-.885" fill="#212226"/>
    <path id="Path_442" data-name="Path 442" d="M415.526,73.954a11.934,11.934,0,0,0-1.747,5.55,13.875,13.875,0,0,0,.106,3.155,9.81,9.81,0,0,0,.874,2.872,6.509,6.509,0,0,0,1.8,2.256,7.312,7.312,0,0,0,1.319.825,5.786,5.786,0,0,0,1.488.527,4.361,4.361,0,0,0,1.368.05,3.8,3.8,0,0,0,1.2-.367,4.8,4.8,0,0,0,1.8-1.659,8.214,8.214,0,0,0,.792-1.509,11.322,11.322,0,0,0,.522-1.64,14.142,14.142,0,0,0,.4-3.572.746.746,0,1,0-1.492-.033,14.1,14.1,0,0,1-.143,2.22c0-.039.012-.078.019-.116-.008.05-.015.1-.024.148,0,.016-.005.033-.007.05l.006-.044a11.746,11.746,0,0,1-.787,2.738,6.807,6.807,0,0,1-.75,1.242,4.469,4.469,0,0,1-.639.621,3.617,3.617,0,0,1-.578.32,3.4,3.4,0,0,1-.559.137,3.917,3.917,0,0,1-.718-.022,5.238,5.238,0,0,1-.99-.3,7.291,7.291,0,0,1-1.347-.811,5.862,5.862,0,0,1-.815-.851,7.372,7.372,0,0,1-.728-1.308,10.057,10.057,0,0,1-.6-2.421,13.521,13.521,0,0,1,.084-3.363,12.142,12.142,0,0,1,.79-2.769,8.261,8.261,0,0,1,.628-1.141.752.752,0,0,0-.246-1.028.715.715,0,0,0-.362-.108.777.777,0,0,0-.662.354m.306,10.334.026.063-.026-.063m7.259.953c-.021.045-.042.091-.063.135.021-.046.041-.091.063-.135m-2.664,2.493-.062.009c.02,0,.041-.007.062-.009m3.375-5.067v-.006l.005-.032c0,.013-.005.025-.006.038" fill="#212226"/>
    <path id="Path_443" data-name="Path 443" d="M416.05,84.108a3.9,3.9,0,0,0-.11.912,2.716,2.716,0,0,0,.223.987,2.947,2.947,0,0,0,1.185,1.309,4.709,4.709,0,0,0,1.836.624,5.7,5.7,0,0,0,.863.057,4.5,4.5,0,0,0,.733.02,3.93,3.93,0,0,0,1.674-.491.747.747,0,0,0-.725-1.306c-.091.049-.184.1-.278.142a3.2,3.2,0,0,1-.342.1,7.163,7.163,0,0,1-1.559-.451,13.825,13.825,0,0,1-2.108-1.261c0-.031.005-.062.009-.094s.017-.08.028-.119a.763.763,0,0,0-.5-.933.72.72,0,0,0-.186-.027.734.734,0,0,0-.743.528m1.391.6c0,.013,0,.026-.007.039,0-.013,0-.026.007-.039" fill="#212226"/>
    <path id="Path_444" data-name="Path 444" d="M462.25,280.3a.712.712,0,0,0-.186.022.724.724,0,0,0-.443.339.671.671,0,0,0-.074.524c.351,1.263.7,2.528,1.021,3.8a14.87,14.87,0,0,0-6.856-2.017c-.211-.012-.423-.02-.634-.025a13.42,13.42,0,0,0-3.276.312,9.461,9.461,0,0,0-2.474.906.548.548,0,0,0-.12-.188.716.716,0,0,0-1.005-.022.8.8,0,0,0-.219.5,11.227,11.227,0,0,1-.779,2.573,31.5,31.5,0,0,1-2.089,3.685c-.453.721-.921,1.468-1.344,2.224a10.325,10.325,0,0,0-1.633,6.167,4.218,4.218,0,0,0,.24,1.037,4,4,0,0,0,.588,1.037,3.113,3.113,0,0,0,1.617,1.021,3.6,3.6,0,0,0,.853.119,5.273,5.273,0,0,0,3.2-1.152,6.171,6.171,0,0,0,.778-.7c-.292,1.359-.636,3.164-.844,4.992a13.872,13.872,0,0,0,.1,4.706,4.349,4.349,0,0,0,.825,1.73,3.328,3.328,0,0,0,1.61,1.013,3.254,3.254,0,0,0,.961.167,3.1,3.1,0,0,0,.875-.1,3.219,3.219,0,0,0,1.1-.569,1.986,1.986,0,0,0,.172.683,1.7,1.7,0,0,0,.607.717,1.748,1.748,0,0,0,.893.267h.017a2.784,2.784,0,0,0,.894-.131,4.68,4.68,0,0,0,.961-.417,6.333,6.333,0,0,0,1.671-1.367c.142-.165.274-.333.4-.511a2.629,2.629,0,0,0,.645.249,2.516,2.516,0,0,0,.537.07,3.726,3.726,0,0,0,.48-.025,2.416,2.416,0,0,0,.758-.258,3.064,3.064,0,0,0,.721-.537,5.519,5.519,0,0,0,1.08-1.552,13.805,13.805,0,0,0,.821-2.085,30.428,30.428,0,0,0,.953-4.486,33.178,33.178,0,0,0,.35-3.788,42.966,42.966,0,0,0-.875-9.325c-.582-3.112-1.4-6.2-2.2-9.068a.734.734,0,0,0-.676-.537" fill="#77453e"/>
    <path id="Path_445" data-name="Path 445" d="M301.8,34.971a1.883,1.883,0,0,0-1.045.274,2.379,2.379,0,0,0-.9,1.2,5.963,5.963,0,0,0-.331,1.576,13.187,13.187,0,0,0-.037,1.843c.01.26.025.523.042.783a15.321,15.321,0,0,0-1.731-3.184c-1.063-1.462-2.211-2.217-3.411-2.243-.04,0-.081,0-.121,0a3.307,3.307,0,0,0-1.968.762,3.168,3.168,0,0,0-.989,1.563,4.864,4.864,0,0,0-.178,1.586,9.668,9.668,0,0,0,.248,1.818,21.557,21.557,0,0,0,1.317,3.893l.036.085.037.087a4.8,4.8,0,0,0-.532-.421,7.428,7.428,0,0,0-1.712-.911,3.5,3.5,0,0,0-.7-.18,3.676,3.676,0,0,0-.456-.039,2.763,2.763,0,0,0-.492.047,1.831,1.831,0,0,0-.659.257,2.187,2.187,0,0,0-.637.635,2.534,2.534,0,0,0-.332.761,4.5,4.5,0,0,0-.144,1.1,7.379,7.379,0,0,0,.067,1.21,15.709,15.709,0,0,0,.314,1.716,25.689,25.689,0,0,0,4.33,8.739c.937,1.308,1.95,2.591,2.932,3.832.6.767,1.211,1.533,1.8,2.309a.605.605,0,0,0,.028.162,7.554,7.554,0,0,0,1.068,2.223,7.111,7.111,0,0,0,1.765,1.716,7.353,7.353,0,0,0,2.047.959,8.612,8.612,0,0,0,2.378.36,9.972,9.972,0,0,0,4.7-1.113A8.93,8.93,0,0,0,311.2,66.3a.708.708,0,0,0,.531.264.764.764,0,0,0,.552-.253.6.6,0,0,0,.163-.465,9.26,9.26,0,0,1,0-1.706,7.194,7.194,0,0,1,.419-1.6,10.358,10.358,0,0,1,1.287-2.163c.3-.394.618-.78.934-1.166a19.446,19.446,0,0,0,2.307-3.261c.592-1.142,1.446-3.359.52-5.372a4.245,4.245,0,0,0-.584-.909,3.989,3.989,0,0,0-.843-.754,4.418,4.418,0,0,0-2.076-.726c-.131-.014-.259-.02-.39-.023a5.379,5.379,0,0,0-3.913,1.668,6.038,6.038,0,0,0-.995,1.378,48.663,48.663,0,0,0-1.276-8.578,20.5,20.5,0,0,0-.907-2.733,11.242,11.242,0,0,0-1.268-2.322,7.633,7.633,0,0,0-.776-.912,8.912,8.912,0,0,0-1.016-.837,4.3,4.3,0,0,0-1.642-.808,2.327,2.327,0,0,0-.424-.05" fill="#77453e"/>
    <path id="Path_446" data-name="Path 446" d="M303.124,35.818a11.928,11.928,0,0,1,1.3,2.295,16.253,16.253,0,0,1,.826,2.471,22.933,22.933,0,0,1,.5,2.69c.238,1.83.321,3.675.39,5.519.067,1.787.114,3.581.312,5.362l-.009-.063c.021.2.049.4.074.608a9.991,9.991,0,0,1,1.391-1.005,8.544,8.544,0,0,1,1.052-.528,5.09,5.09,0,0,1,.938-.3,3.657,3.657,0,0,1,1.009-.087,2.618,2.618,0,0,1,.85.182,2.482,2.482,0,0,1,.454.237,2.594,2.594,0,0,1,.341.277,3.028,3.028,0,0,1,.6.816,4.507,4.507,0,0,1,.267.642,3,3,0,0,1,.1.36c.013.083.025.167.035.248A3.853,3.853,0,0,1,313.5,56.7a9.859,9.859,0,0,1-.983,2.673c-.217.429-.449.847-.673,1.273s-.462.873-.686,1.314c-.53,1.032-1.043,2.071-1.518,3.127l.022-.054a34.987,34.987,0,0,0-1.333,3.412l-.019.058c.076-.037.153-.073.227-.112a8.875,8.875,0,0,0,2.678-2.08.634.634,0,0,0,.515.271.778.778,0,0,0,.569-.261.656.656,0,0,0,.171-.478,8.52,8.52,0,0,1,0-1.705,7.157,7.157,0,0,1,.411-1.6,10.553,10.553,0,0,1,1.285-2.158c.3-.391.62-.778.935-1.161a19.394,19.394,0,0,0,2.306-3.267c.6-1.145,1.457-3.362.519-5.39a3.971,3.971,0,0,0-.581-.915,4.2,4.2,0,0,0-.849-.755,4.4,4.4,0,0,0-2.086-.733c-.131-.013-.258-.02-.39-.023a5.4,5.4,0,0,0-3.928,1.676A6.112,6.112,0,0,0,309.1,51.2a45.5,45.5,0,0,0-1.246-8.575,18.976,18.976,0,0,0-.91-2.735,11,11,0,0,0-1.267-2.328,8.209,8.209,0,0,0-.775-.911,9.266,9.266,0,0,0-1.022-.84,4.779,4.779,0,0,0-1.329-.723c.2.234.394.476.573.728" fill="#6c3e38"/>
    <path id="Path_447" data-name="Path 447" d="M462.059,280.3a.713.713,0,0,0-.453.348.67.67,0,0,0-.077.538c.351,1.26.7,2.526,1.022,3.8a12.193,12.193,0,0,0-2.162-1.071c.172,1.086.38,2.166.606,3.241.371,1.76.778,3.507,1.166,5.264.451,2.05.88,4.111,1.17,6.19a30.077,30.077,0,0,1,.323,5.865,17.408,17.408,0,0,1-.351,2.7,13.3,13.3,0,0,1-.816,2.541,10.678,10.678,0,0,1-1.321,2.248l.155-.014a2.635,2.635,0,0,0,.766-.261,3.069,3.069,0,0,0,.726-.538,5.426,5.426,0,0,0,1.082-1.56,13.537,13.537,0,0,0,.82-2.088,30.348,30.348,0,0,0,.956-4.487,32.44,32.44,0,0,0,.35-3.792,43.029,43.029,0,0,0-.874-9.33c-.581-3.1-1.4-6.191-2.205-9.067a.753.753,0,0,0-.693-.552.656.656,0,0,0-.19.025" fill="#6c3e38"/>
    <path id="Path_448" data-name="Path 448" d="M455.509,299.059a.276.276,0,0,0-.2.331c.1.5.186,1.017.25,1.531a20.983,20.983,0,0,1,.107,2.769,23.6,23.6,0,0,1-.284,2.976l.012-.066a26.98,26.98,0,0,1-1.214,4.754.232.232,0,0,0,.154.289.236.236,0,0,0,.292-.155,29.711,29.711,0,0,0,.893-2.954,25.639,25.639,0,0,0,.549-3.01,21.578,21.578,0,0,0,.149-3.143,16.876,16.876,0,0,0-.377-3.125.27.27,0,0,0-.261-.206.223.223,0,0,0-.073.009" fill="#6c3e38"/>
    <path id="Path_449" data-name="Path 449" d="M460.822,299.5a.366.366,0,0,0-.262.436c.1.472.182.948.243,1.426a17.264,17.264,0,0,1,.084,2.562,21.663,21.663,0,0,1-.264,2.579l.012-.088a37.661,37.661,0,0,1-.927,4.2.3.3,0,0,0,.572.173c.246-.878.481-1.76.687-2.65.213-.929.384-1.87.507-2.817a15.2,15.2,0,0,0-.217-5.556.365.365,0,0,0-.345-.272.278.278,0,0,0-.09.011m-.018,1.866,0,.027,0-.027" fill="#6c3e38"/>
    <path id="Path_450" data-name="Path 450" d="M292.986,45.612a.282.282,0,0,0-.008.386c.1.131.2.264.3.4l-.008-.013a23.727,23.727,0,0,1,1.979,3.188c.584,1.133,1.032,2.333,1.514,3.515a.528.528,0,0,0,.192.2.546.546,0,0,0,.749-.177.52.52,0,0,0,.063-.422,11.959,11.959,0,0,0-.789-1.8c-.339-.631-.731-1.239-1.127-1.839-.777-1.178-1.617-2.313-2.479-3.427a.224.224,0,0,0-.179-.084.3.3,0,0,0-.208.076" fill="#6c3e38"/>
    <path id="Path_451" data-name="Path 451" d="M299.779,41.186a.335.335,0,0,0-.247.411c.266.689.521,1.38.772,2.072s.5,1.4.71,2.107a39.351,39.351,0,0,1,1.054,4.479.554.554,0,0,0,.527.421.537.537,0,0,0,.394-.156.5.5,0,0,0,.169-.386,12.747,12.747,0,0,0-.39-2.159,20.688,20.688,0,0,0-.786-2.269c-.553-1.41-1.2-2.786-1.762-4.2.011.026.021.052.032.081l-.063-.158a.375.375,0,0,0-.152-.208.357.357,0,0,0-.169-.049.38.38,0,0,0-.089.01" fill="#6c3e38"/>
    <path id="Path_452" data-name="Path 452" d="M301.42,52.545a.337.337,0,0,0-.01.474,6.62,6.62,0,0,1,.641.729.848.848,0,0,1-.05-.07,8.167,8.167,0,0,1,.924,1.675,11.775,11.775,0,0,1,.671,2.772,12.452,12.452,0,0,1,.058,1.364.624.624,0,0,0,1.248.027,10.941,10.941,0,0,0-.212-1.822,10.268,10.268,0,0,0-.611-1.908,9.993,9.993,0,0,0-2.184-3.231.362.362,0,0,0-.24-.1.328.328,0,0,0-.235.091" fill="#6c3e38"/>
    <path id="Path_453" data-name="Path 453" d="M340.047,265.675a.71.71,0,0,0-.719.566,18.442,18.442,0,0,0-.052,5.024,16,16,0,0,0,1.278,4.443,20.482,20.482,0,0,0,5.788,7.266,38.48,38.48,0,0,0,8.762,5.271,72.98,72.98,0,0,0,10.244,3.658c3.083.873,6.386,1.641,10.1,2.35,2.926.557,5.622,1,8.241,1.346,2.083.278,4.314.48,7.02.637,1.407.079,2.834.137,4.243.168,1.6.035,3.227.039,4.831.01a94.074,94.074,0,0,0,9.94-.679,57.394,57.394,0,0,0,9.589-1.942,27.564,27.564,0,0,0,7.868-3.617,13.922,13.922,0,0,0,4.951-5.767,12.542,12.542,0,0,0,.973-4.373,13.671,13.671,0,0,0-.178-2.881,13.937,13.937,0,0,0-1.624-4.54.668.668,0,0,0-.578-.322.74.74,0,0,0-.4.107.729.729,0,0,0-.214.983c.144.255.28.517.413.783.17.372.322.751.457,1.133h-.015a.211.211,0,0,0-.1.024,109.112,109.112,0,0,1-10.511,3.989c-1.736.56-3.553,1.088-5.4,1.571-1.945.514-3.677.917-5.289,1.229v0a62.921,62.921,0,0,1-13,1.033c-1.114-.024-2.25-.077-3.378-.156l.025,0c-8.113-.61-16.748-2.6-27.16-6.255-5.9-2.084-11.773-4.474-17.451-6.786-2.624-1.068-5.247-2.136-7.882-3.178l-.126-.038h.01l.026-.207a.709.709,0,0,0-.551-.836.737.737,0,0,0-.122-.014" fill="#637894"/>
    <path id="Path_454" data-name="Path 454" d="M465.935,277.473a.7.7,0,0,0-.645.4.734.734,0,0,0-.027.542c.056.224.11.443.16.667.072.356.133.721.18,1.087-1.414.006-2.9,0-4.4-.036q-1.312-.03-2.622-.082c-.035,0-.076-.005-.113-.006-3.672-.158-7.447-.449-11.254-.866a.682.682,0,0,0-.654-.5.675.675,0,0,0-.664.4.789.789,0,0,0-.472.575.731.731,0,0,0,.135.551,5.578,5.578,0,0,0-.149.9,6.544,6.544,0,0,0-.018.957,6.131,6.131,0,0,0,.154.968,5.843,5.843,0,0,0,1.8,2.909,8.263,8.263,0,0,0,1.5,1.079,10.932,10.932,0,0,0,1.689.79,16.488,16.488,0,0,0,4.044.914c.524.054,1.057.089,1.586.1a19.473,19.473,0,0,0,2.68-.126,14.823,14.823,0,0,0,3.87-.963,8.224,8.224,0,0,0,2.964-1.962,5.135,5.135,0,0,0,.9-1.352,7.372,7.372,0,0,0,.511-3.577,14.337,14.337,0,0,0-.5-2.908.685.685,0,0,0-.663-.467" fill="#637894"/>
    <path id="Path_455" data-name="Path 455" d="M305.765,62.325l-.241-.005a33.979,33.979,0,0,0-5.672.262,9.147,9.147,0,0,0-3,.943,5.529,5.529,0,0,0-2.058,1.962,8.009,8.009,0,0,0-1.011,2.933,24.346,24.346,0,0,0-.257,4.354.714.714,0,0,0,.694.725.73.73,0,0,0,.524-.214.669.669,0,0,0,.2-.48c-.007-.354-.01-.708-.006-1.062.248.02.507.029.765.034,2.257.05,4.55-.1,6.768-.252l.094-.007c2.263-.153,4.6-.31,6.907-.26.685.016,1.327.048,1.957.1h0c.48.043.961.1,1.437.166a.923.923,0,0,0,.145.014,5.879,5.879,0,0,1-.287,1.071l-.136.408a.665.665,0,0,0,.048.522.728.728,0,0,0,.428.362.71.71,0,0,0,.188.03.73.73,0,0,0,.7-.506l.068-.2a14.376,14.376,0,0,0,.9-3.751,9.088,9.088,0,0,0-.092-1.647,6.265,6.265,0,0,0-.355-1.411,5.389,5.389,0,0,0-1.421-2.108,6.568,6.568,0,0,0-2.172-1.25,11.726,11.726,0,0,0-2.588-.569,24.919,24.919,0,0,0-2.527-.162" fill="#637894"/>
    <path id="Path_456" data-name="Path 456" d="M430.312,272.384a.745.745,0,0,0-.223,1.01c.144.251.281.513.414.779.17.373.322.752.457,1.134l-.107.005,0-.008c-2.216.974-4.47,1.878-6.74,2.7a43,43,0,0,1-3.863,4.555,46.051,46.051,0,0,1-5.482,4.81,45.392,45.392,0,0,1-6.074,3.827,40.821,40.821,0,0,1-6.561,2.764c-1.085.344-2.183.641-3.29.9q-1.711.411-3.443.727-2.264.408-4.549.674c1.451.08,2.827.134,4.1.162,1.522.034,3.145.037,4.829.009a94.992,94.992,0,0,0,9.942-.679,58.067,58.067,0,0,0,9.594-1.946,27.575,27.575,0,0,0,7.873-3.618,13.908,13.908,0,0,0,4.956-5.774,12.6,12.6,0,0,0,.979-4.38,13.748,13.748,0,0,0-1.81-7.431.67.67,0,0,0-.592-.331.746.746,0,0,0-.411.108" fill="#5a6d87"/>
    <path id="Path_457" data-name="Path 457" d="M465.685,277.5a.736.736,0,0,0-.414.374.767.767,0,0,0-.026.558c.057.22.111.441.16.664.069.352.131.715.177,1.081-1.393-.016-2.875-.027-4.378-.061-.8-.017-1.612-.043-2.419-.072.01.1.019.205.027.309a13.855,13.855,0,0,1,.008,2.146,9.19,9.19,0,0,1-1.089,3.8,6.312,6.312,0,0,1-1.141,1.476,5.93,5.93,0,0,1-1.47,1.026c.345.026.7.044,1.048.052a20.246,20.246,0,0,0,2.682-.127,14.827,14.827,0,0,0,3.879-.969,8.126,8.126,0,0,0,2.967-1.964,5.183,5.183,0,0,0,.906-1.357,7.439,7.439,0,0,0,.513-3.583,14.008,14.008,0,0,0-.5-2.917.7.7,0,0,0-.679-.482.684.684,0,0,0-.25.046" fill="#5a6d87"/>
    <path id="Path_458" data-name="Path 458" d="M308.853,64.743a16.283,16.283,0,0,1,.208,3.136,19.876,19.876,0,0,1-.373,3.182c-.014.07-.029.141-.044.212.278,0,.554,0,.831.009.686.015,1.328.044,1.958.1.477.047.957.105,1.434.17a1.089,1.089,0,0,0,.146.014,7.651,7.651,0,0,1-.292,1.005l-.148.442a.68.68,0,0,0,.049.537.707.707,0,0,0,.438.368.6.6,0,0,0,.193.041.747.747,0,0,0,.712-.521l.066-.2a14.292,14.292,0,0,0,.908-3.758,9.277,9.277,0,0,0-.092-1.644,6.074,6.074,0,0,0-.359-1.421,5.4,5.4,0,0,0-1.42-2.115,6.662,6.662,0,0,0-2.181-1.249,12.033,12.033,0,0,0-2.593-.579l-.035-.005a13.427,13.427,0,0,1,.594,2.284" fill="#5a6d87"/>
    <path id="Path_459" data-name="Path 459" d="M415.742,135.386h-.058a.708.708,0,0,0-.44,1.284.616.616,0,0,0-.2.345.76.76,0,0,0,.1.541c.453.839.886,1.687,1.309,2.539a133.766,133.766,0,0,1,8.1,22.762c.855,3.107,1.679,6.276,2.473,9.34l.633,2.431q.751,2.868,1.526,5.73l.557,2.013c.393,1.422.788,2.846,1.166,4.274,2.633,9.893,4.981,20.412,7.385,33.083h0c.767,4.047,1.559,8.439,2.42,13.426q.578,3.353,1.133,6.707l.053.317c.355,2.11.72,4.292,1.028,6.445a206.155,206.155,0,0,1,1.654,27.3q.009,2.475,0,4.959a.682.682,0,0,0,.412.611.606.606,0,0,0,.262.359,22.206,22.206,0,0,0,4.886,2.247,28.756,28.756,0,0,0,5.749,1.237c.8.091,1.608.145,2.4.163a25.45,25.45,0,0,0,3.469-.158,17.045,17.045,0,0,0,5.273-1.451.73.73,0,0,0,.356-.38l.068-.121a60.762,60.762,0,0,0,4.017-10.312A91.283,91.283,0,0,0,474,259.736a133.943,133.943,0,0,0,1.567-23.071,141.444,141.444,0,0,0-2.29-23.966,129.756,129.756,0,0,0-6.671-23.574,125.261,125.261,0,0,0-11.184-21.99c-1.7-2.667-3.619-5.364-5.692-8.013a99.849,99.849,0,0,0-7.157-8.184,66.924,66.924,0,0,0-12.61-10.335,33.853,33.853,0,0,0-14.218-5.217Z" fill="#9bbce7"/>
    <path id="Path_460" data-name="Path 460" d="M438.337,147.9a111.483,111.483,0,0,1,7.407,10.343A122.811,122.811,0,0,1,456,178.411a142.156,142.156,0,0,1,6.68,21.667,160.85,160.85,0,0,1,3.375,22.575A173.174,173.174,0,0,1,463.614,268c-.4,2.141-.847,4.278-1.357,6.394-.522,2.153-1.1,4.293-1.784,6.4q-.445,1.369-.941,2.722,1.12-.03,2.232-.157a17.015,17.015,0,0,0,5.277-1.453.746.746,0,0,0,.366-.386l.065-.123a60.261,60.261,0,0,0,4.019-10.313,91.069,91.069,0,0,0,2.528-11.347,134,134,0,0,0,1.567-23.068,142.084,142.084,0,0,0-2.289-23.976,130.245,130.245,0,0,0-6.674-23.572,125.089,125.089,0,0,0-11.187-21.995c-1.7-2.659-3.612-5.355-5.692-8.017a101.324,101.324,0,0,0-7.16-8.184,76.226,76.226,0,0,0-7.2-6.533q1.515,1.72,2.955,3.5" fill="#93b2db"/>
    <path id="Path_461" data-name="Path 461" d="M303.8,68.242a29.208,29.208,0,0,0-5.972,1.036,22.446,22.446,0,0,0-2.567.915,12.237,12.237,0,0,0-2.1,1.132.74.74,0,0,0-.334.416.717.717,0,0,0-.027.251,63.4,63.4,0,0,0-4.571,26.2,89.071,89.071,0,0,0,1.49,14.186A99.968,99.968,0,0,0,293.4,126.4a96.728,96.728,0,0,0,12.948,25.385c6.133,8.512,13.116,14.944,20.759,19.124a57.7,57.7,0,0,0,16.725,5.865l-.894,3.933c-1.464,6.5-2.978,13.223-4.3,19.873-1.823,9.154-3.065,17.214-3.809,24.636l-.161,1.632q-.162,1.666-.333,3.326c-.175,1.7-.347,3.328-.5,4.956-.373,4.058-.556,7.334-.566,10.313-.037,8.123,1.229,14.239,3.977,19.246a35.995,35.995,0,0,0,9.774,11.117,54.6,54.6,0,0,0,13.712,7.46,83.388,83.388,0,0,0,15.9,4.237,105.873,105.873,0,0,0,15.494,1.456l.774.017a99.96,99.96,0,0,0,14.9-.851,47.843,47.843,0,0,0,15.151-4.276,27.35,27.35,0,0,0,6.023-4.039,23.641,23.641,0,0,0,4.522-5.47,27.974,27.974,0,0,0,2.981-7.037,38.071,38.071,0,0,0,.894-4.169c.233-1.444.368-2.927.5-4.359l.048-.506a385.913,385.913,0,0,0,1.926-45.172c-.4-17-2.335-31.619-5.92-44.691-.534-1.932-1.126-3.9-1.761-5.853a.652.652,0,0,0-.25-.291c-.719-2.308-1.312-4.7-1.885-7.015-.63-2.551-1.283-5.186-2.111-7.726-.373-1.151-.827-2.377-1.388-3.743a30.583,30.583,0,0,0-1.389-2.928,16.043,16.043,0,0,0-1.763-2.616,11.226,11.226,0,0,0-1.229-1.259c-1.045-.214-2.1-.383-3.159-.495.021,0,.04,0,.061,0a25.442,25.442,0,0,0-3.3-.121,27.436,27.436,0,0,0-3.493.347.434.434,0,0,0,.062-.013,22.857,22.857,0,0,0-2.935.665,21.459,21.459,0,0,0-2.566.987c.019-.006.037-.017.06-.024q-.424.2-.841.409c-.319.292-.639.588-.954.88a46.259,46.259,0,0,1-3.613,3.107,23.255,23.255,0,0,1-3.979,2.339c-.18.441-.381.875-.6,1.3a13.552,13.552,0,0,1-1.66,2.584,8.184,8.184,0,0,1-1.6,1.5,5.777,5.777,0,0,1-1.873.889,5.506,5.506,0,0,1-2.12.11,7.482,7.482,0,0,1-2.41-.808,17.5,17.5,0,0,1-2.533-1.622,15.2,15.2,0,0,1-2.445-2.3,9.069,9.069,0,0,1-1.593-2.609c-.018-.04-.031-.081-.045-.121a32.091,32.091,0,0,1-4.354-2.943c-.28-.225-.557-.458-.829-.69-.616-.192-1.232-.378-1.849-.562l.059.015-1.419-.414c-.478.033-.957.055-1.436.07-.858.028-1.737.035-2.617.016l-.645-.018a43.142,43.142,0,0,1-21.168-6.387l-.1-.05,0,.008a55.149,55.149,0,0,1-10.566-8.646l.114.144a66.592,66.592,0,0,1-10.029-13.93l.031.092.042.082a89.929,89.929,0,0,1-8.171-21.9c-.014-.066-.023-.11-.033-.154A114.855,114.855,0,0,1,315,71.131a.708.708,0,0,0-.6-.633,1.313,1.313,0,0,0-.126-.116,10.317,10.317,0,0,0-4.521-1.856,21.119,21.119,0,0,0-3.441-.349c-.792-.018-1.635,0-2.506.065m30.931,180.225.009-.094c0,.163,0,.328.011.492-.009-.132-.013-.266-.02-.4m63.873,39.02c.142-.005.281-.005.423-.01l-.332.015Z" fill="#9bbce7"/>
    <path id="Path_462" data-name="Path 462" d="M430.652,160.295c.325,2.314.632,4.631.938,6.945s.6,4.637.862,6.961a261.472,261.472,0,0,1,1.835,28.023,160.08,160.08,0,0,1-2.1,27.933,121.486,121.486,0,0,1-3.1,13.6,88.09,88.09,0,0,1-3.481,9.876,61.889,61.889,0,0,1-4.5,8.741,46.286,46.286,0,0,1-5.778,7.49,39.2,39.2,0,0,1-7.246,5.968,38.426,38.426,0,0,1-4.3,2.358,40.9,40.9,0,0,1-4.614,1.822,44.555,44.555,0,0,1-5.22,1.355q-2.622.507-5.28.782a63.524,63.524,0,0,1-11.212.132,67.3,67.3,0,0,1-11.089-1.774c-1.847-.46-3.679-.993-5.483-1.609s-3.562-1.313-5.3-2.085q-2.51-1.117-4.909-2.462a55.6,55.6,0,0,1-4.752-2.988,52.573,52.573,0,0,1-4.255-3.335c-.72-.633-1.429-1.284-2.114-1.959-.668-.661-1.325-1.336-1.937-2.046-.632-.737-1.232-1.5-1.792-2.3a27.512,27.512,0,0,0,1.4,2.975A36.045,36.045,0,0,0,347,275.822a54.51,54.51,0,0,0,13.72,7.46,83.385,83.385,0,0,0,15.907,4.241,105.786,105.786,0,0,0,15.5,1.455l.773.017a99.529,99.529,0,0,0,14.9-.85,47.872,47.872,0,0,0,15.158-4.28,27.3,27.3,0,0,0,6.027-4.038,23.667,23.667,0,0,0,4.526-5.477,27.933,27.933,0,0,0,2.98-7.041,37.392,37.392,0,0,0,.9-4.174c.232-1.447.367-2.926.5-4.358l.047-.506a385.483,385.483,0,0,0,1.927-45.171c-.4-17.007-2.336-31.626-5.923-44.7-.524-1.9-1.115-3.872-1.762-5.854a.634.634,0,0,0-.256-.3c-.7-2.271-1.285-4.616-1.848-6.885l-.031-.12c-.152-.624-.316-1.29-.491-1.98.41,2.338.767,4.686,1.1,7.037" fill="#93b2db"/>
    <path id="Path_463" data-name="Path 463" d="M343.364,268.847h0Z" fill="#93b2db"/>
    <path id="Path_464" data-name="Path 464" d="M297.819,69.261a21.741,21.741,0,0,0-2.568.914,12.116,12.116,0,0,0-2.105,1.137.745.745,0,0,0-.342.423.681.681,0,0,0-.031.258,63.386,63.386,0,0,0-4.57,26.2,89.1,89.1,0,0,0,1.489,14.191,101.044,101.044,0,0,0,3.684,14.024A96.817,96.817,0,0,0,306.328,151.8c6.137,8.515,13.124,14.95,20.762,19.126a56.982,56.982,0,0,0,15.279,5.57,12.31,12.31,0,0,0-1.176-1.072c-.452-.357-.92-.692-1.4-1.009l.032.022c-.791-.514-1.606-.984-2.417-1.459-.764-.45-1.52-.913-2.261-1.392a68.446,68.446,0,0,1-5.74-4.182,69.7,69.7,0,0,1-5.323-4.8,78.288,78.288,0,0,1-9.144-10.987,98.555,98.555,0,0,1-12.688-26.335,118.415,118.415,0,0,1-3.569-14.394A122.87,122.87,0,0,1,296.9,96.159a114.85,114.85,0,0,1,1.472-27.049c-.184.049-.368.1-.55.151" fill="#93b2db"/>
    <path id="Path_465" data-name="Path 465" d="M432.53,166.8a.236.236,0,0,0-.169.284q.691,3.843,1.318,7.7c.436,2.627.851,5.253,1.214,7.888s.731,5.247,1.067,7.875q.492,3.819.924,7.65v0c.38,3.428.651,6.869.918,10.312s.425,6.923.542,10.385c.116,3.5.133,7.007.082,10.51-.042,2.882-.171,5.759-.268,8.637a152.506,152.506,0,0,1-1.331,17.777,55.44,55.44,0,0,1-3.847,13.761,28.062,28.062,0,0,1-1.386,2.68,22.037,22.037,0,0,1-1.647,2.383c-.217.268-.438.535-.675.785a1.2,1.2,0,0,0-.362.82,1.171,1.171,0,0,0,1.978.873c.4-.378.79-.754,1.164-1.154.449-.482.865-.992,1.278-1.505a25.375,25.375,0,0,0,1.98-2.876,28.617,28.617,0,0,0,1.7-3.448,32.345,32.345,0,0,0,1.227-3.484,55.09,55.09,0,0,0,1.575-7.754c.367-2.558.588-5.134.748-7.71.286-4.727.325-9.464.51-14.194a163.049,163.049,0,0,0-.591-21.047c-.318-3.474-.687-6.95-1.172-10.4-.48-3.42-.981-6.839-1.556-10.243-.291-1.707-.582-3.415-.891-5.115s-.64-3.412-.964-5.116-.676-3.417-1.007-5.128-.655-3.438-.985-5.157q-.555-2.9-1.087-5.814a.235.235,0,0,0-.224-.177.189.189,0,0,0-.058.008m4.291,89.048c-.02.121-.037.242-.057.363.02-.121.037-.242.057-.363m-6.928,18.856-.105.132c.034-.044.07-.088.105-.132" fill="#93b2db"/>
    <path id="Path_466" data-name="Path 466" d="M435.887,267.685c-.255.475-.492.96-.733,1.443s-.488.942-.743,1.407c-.5.909-1.017,1.8-1.58,2.67a54.492,54.492,0,0,1-3.587,4.908,20.25,20.25,0,0,1-1.468,1.547,17.055,17.055,0,0,1-1.811,1.5.26.26,0,0,0-.015.371.269.269,0,0,0,.372.016c.6-.428,1.208-.856,1.8-1.3.575-.426,1.133-.873,1.694-1.32a18.324,18.324,0,0,0,1.559-1.386,17.943,17.943,0,0,0,1.494-1.7,21.157,21.157,0,0,0,2.2-3.546c.329-.649.628-1.314.9-1.988a19.8,19.8,0,0,0,.786-2.223.488.488,0,0,0-.2-.556.5.5,0,0,0-.25-.071.459.459,0,0,0-.421.225m-6.647,10.433-.074.091c.023-.033.05-.062.074-.091" fill="#93b2db"/>
    <path id="Path_467" data-name="Path 467" d="M435.854,267.593a24.078,24.078,0,0,1-1.227,3.49l0-.013a15.9,15.9,0,0,1-.755,1.439,10.71,10.71,0,0,1-.908,1.29c.012-.018.026-.032.038-.05a8.179,8.179,0,0,1-.669.712.236.236,0,0,0-.011.332.232.232,0,0,0,.331.014,9.734,9.734,0,0,0,1.24-1.429,12.892,12.892,0,0,0,1.04-1.769,20.545,20.545,0,0,0,1.413-3.859.265.265,0,0,0-.172-.326.232.232,0,0,0-.07-.011.26.26,0,0,0-.255.18m-1.231,3.5-.019.041c.005-.015.013-.027.019-.041" fill="#93b2db"/>
    <path id="Path_468" data-name="Path 468" d="M436.724,265.781a.3.3,0,0,0-.139.165c-.8,1.76-1.415,3.6-2.224,5.368.011-.022.019-.04.031-.062-.231.487-.471.968-.733,1.437a13.938,13.938,0,0,1-.874,1.371.241.241,0,1,0,.407.257,16.371,16.371,0,0,0,1.2-1.926c.339-.635.638-1.293.926-1.95.619-1.436,1.162-2.9,1.8-4.326a.3.3,0,0,0-.017-.216.3.3,0,0,0-.246-.15.27.27,0,0,0-.131.032" fill="#93b2db"/>
    <path id="Path_469" data-name="Path 469" d="M354.5,136.527a.234.234,0,0,0-.1.315.227.227,0,0,0,.133.116c1.46.3,2.933.543,4.41.743,1.576.218,3.16.384,4.748.532a.249.249,0,0,0,.258-.235.241.241,0,0,0-.033-.134c-1.515-.149-3.03-.313-4.529-.576l-.244-.043c-1.151-.149-2.3-.322-3.441-.531.008,0,.015,0,.022.008-.349-.07-.7-.136-1.043-.21-.029,0-.054-.008-.077-.008a.194.194,0,0,0-.1.023" fill="#9bbce7"/>
    <path id="Path_470" data-name="Path 470" d="M354.95,136.3a.234.234,0,0,0,0,.467c1.443.183,2.889.329,4.332.5-.755-.134-1.5-.285-2.245-.476-.481-.125-.96-.262-1.434-.415-.211-.024-.422-.05-.632-.076Z" fill="#9bbce7"/>
    <path id="Path_471" data-name="Path 471" d="M362.929,137.8l-.062-.013c.479.091.959.19,1.436.295a.235.235,0,0,0,.178-.014.227.227,0,0,0,.116-.133h0l-.467-.046c-.566-.055-1.132-.112-1.7-.175q.248.042.495.087" fill="#9bbce7"/>
    <path id="Path_472" data-name="Path 472" d="M350.336,135.6a.231.231,0,0,0-.084.173.263.263,0,0,0,.061.18.3.3,0,0,0,.178.085c2.749.444,5.51.833,8.279,1.143-.582-.11-1.162-.234-1.734-.382-.65-.168-1.3-.362-1.934-.58-1.533-.213-3.061-.445-4.59-.684a.034.034,0,0,0-.017-.005.26.26,0,0,0-.159.07" fill="#9bbce7"/>
    <path id="Path_473" data-name="Path 473" d="M363.634,137.279c-.055-.009-.113-.022-.168-.033-.239-.032-.483-.062-.724-.093l-.339-.018c.411.053.823.1,1.231.144" fill="#9bbce7"/>
    <path id="Path_474" data-name="Path 474" d="M347.026,134.683a.3.3,0,0,0-.154.175.3.3,0,0,0,.02.23.329.329,0,0,0,.177.151c.6.287,1.229.531,1.851.77.158.061.315.119.474.179l.018.022a.525.525,0,0,0,.339.161l.272.043q.483.169.969.327c1.351.443,2.723.812,4.11,1.134,1.362.319,2.739.575,4.121.8s2.784.371,4.179.53a.442.442,0,0,0,.157-.862c-.281-.069-.563-.13-.846-.19a.243.243,0,0,0-.222-.194c-.295-.05-.593-.1-.887-.159l.061.013c-2.424-.448-4.819-1.037-7.219-1.612-1.166-.281-2.335-.555-3.509-.811-1.19-.26-2.385-.486-3.583-.7-.033-.008-.065-.013-.1-.018a.651.651,0,0,0-.1-.014.241.241,0,0,0-.127.031m.33,0,.023,0-.023,0" fill="#9bbce7"/>
    <path id="Path_475" data-name="Path 475" d="M352.238,135.966a.237.237,0,0,0-.228.221.243.243,0,0,0,.225.246q3.207.321,6.408.719c-.539-.1-1.076-.22-1.606-.358-.575-.148-1.148-.317-1.713-.5q-1.533-.171-3.068-.324Z" fill="#9bbce7"/>
    <path id="Path_476" data-name="Path 476" d="M364.337,137.945a.2.2,0,0,0,.121-.028c-.109-.01-.218-.02-.328-.032l-.53-.052.737.112" fill="#9bbce7"/>
    <path id="Path_477" data-name="Path 477" d="M346.956,134.622a.329.329,0,0,0-.153.182.3.3,0,0,0,.02.234.29.29,0,0,0,.179.158c1.356.271,2.715.523,4.074.776,1.323.244,2.65.482,3.978.693,1.213.194,2.43.363,3.65.5-.56-.108-1.116-.228-1.667-.37-.7-.18-1.389-.388-2.071-.626a.2.2,0,0,1-.122-.135q-.643-.112-1.286-.23h0c-2.148-.4-4.288-.849-6.445-1.213a.351.351,0,0,0-.158.033" fill="#9bbce7"/>
    <path id="Path_478" data-name="Path 478" d="M353.547,135.8l-.057-.012.057.012" fill="#9bbce7"/>
    <path id="Path_479" data-name="Path 479" d="M353.557,135.8h0" fill="#9bbce7"/>
    <path id="Path_480" data-name="Path 480" d="M357.857,136.505h0" fill="#9bbce7"/>
    <path id="Path_481" data-name="Path 481" d="M363.544,137.269v-.007l-.079-.016-.724-.093-.339-.019c.382.05.763.1,1.141.135" fill="#9bbce7"/>
    <path id="Path_482" data-name="Path 482" d="M345.3,133.608a.313.313,0,0,0-.158.183.319.319,0,0,0,.2.4c2.166.559,4.309,1.179,6.457,1.8,2.205.644,4.414,1.269,6.65,1.8a.239.239,0,0,0,.295-.15.233.233,0,0,0-.151-.292c-2.171-.533-4.309-1.19-6.444-1.847-2.193-.672-4.383-1.362-6.612-1.908a.492.492,0,0,0-.1-.014.288.288,0,0,0-.138.03" fill="#9bbce7"/>
    <path id="Path_483" data-name="Path 483" d="M344.619,133.474a.28.28,0,0,0,.178.347q1.31.5,2.624.993t2.632.974a42.812,42.812,0,0,0,5.556,1.611.271.271,0,0,0,.18-.014.237.237,0,0,0,.116-.136.234.234,0,0,0-.151-.295,41.986,41.986,0,0,1-5.373-1.593c-1.818-.657-3.6-1.4-5.412-2.065a.269.269,0,0,0-.078-.015.288.288,0,0,0-.272.193" fill="#9bbce7"/>
    <path id="Path_484" data-name="Path 484" d="M343.246,132.507a.228.228,0,0,0,.015.179.236.236,0,0,0,.135.116c2.881,1.258,5.728,2.6,8.613,3.858a.234.234,0,0,0,.281-.329.231.231,0,0,0-.136-.116c-2.885-1.25-5.731-2.6-8.613-3.855a.183.183,0,0,0-.071-.016.242.242,0,0,0-.224.163" fill="#9bbce7"/>
    <path id="Path_485" data-name="Path 485" d="M360.9,137.554a.745.745,0,0,0-.6.688.774.774,0,0,0,.076.37.714.714,0,0,0,.437.379c.167.037.33.073.5.1l.032.034c-.259,0-.519.007-.778.012a.233.233,0,1,0-.029.466,39.24,39.24,0,0,1,5.67.312c1.94.233,3.874.553,5.8.9l-.073-.012c.124.024.251.049.378.077.051.009.1.021.156.03a.3.3,0,0,0,.261-.542c.058,0,.113,0,.171,0a.63.63,0,0,0,.652-.585v-.015q-2.55-.755-5.122-1.433c-1.434-.185-2.869-.319-4.308-.46-1.038-.1-2.075-.21-3.106-.35Zm2.532.542c.018,0,.036,0,.055.008a.251.251,0,0,1-.055-.008" fill="#9bbce7"/>
    <path id="Path_486" data-name="Path 486" d="M359.191,137.885a.261.261,0,0,0-.2.3.288.288,0,0,0,.109.164.3.3,0,0,0,.193.036c.23-.02.457-.041.684-.057h-.015c.015,0,.029,0,.044,0a36.808,36.808,0,0,1,5.575.105c.906.074,1.81.174,2.709.282.927.112,1.851.243,2.779.346q-1.309-.367-2.627-.714c-1.436-.186-2.873-.32-4.313-.461q-.885-.085-1.77-.182c-1.059.017-2.115.074-3.168.182" fill="#9bbce7"/>
    <path id="Path_487" data-name="Path 487" d="M360.008,138.327l-.027,0,.027,0" fill="#9bbce7"/>
    <path id="Path_488" data-name="Path 488" d="M361.383,137.983a.5.5,0,0,0,.471.525,24.359,24.359,0,0,1,6,.4c-.044,0-.084-.013-.128-.022a55.894,55.894,0,0,1,8.352,2.473.487.487,0,0,0,.27.013c.072.053.14.106.211.162.776.59,1.555,1.173,2.342,1.741,1.117.806,2.257,1.59,3.423,2.328-.753-.291-1.5-.606-2.231-.951l-.025-.012a.925.925,0,0,0-.626-.119.826.826,0,0,0-.525.357.839.839,0,0,0,.233,1.151c.453.314.933.587,1.408.863-.03.036-.06.076-.09.119a1,1,0,0,0-.164.5,1.053,1.053,0,0,0,.243.71,7.448,7.448,0,0,0,1.163,1.2,10.924,10.924,0,0,0,1.419,1.038,15.508,15.508,0,0,0,3.481,1.566,15.125,15.125,0,0,0,3.744.674,9.455,9.455,0,0,0,3.4-.4,1.017,1.017,0,0,0,.49-.242.024.024,0,0,1,.015-.013.908.908,0,0,0,.791-.633.922.922,0,0,0-.486-1.12.787.787,0,0,0,.572-.441,19.54,19.54,0,0,0,2.974-.963,1.2,1.2,0,0,0,.642-1.314,1.154,1.154,0,0,0-.358-.636,45.731,45.731,0,0,0,4.058-2.477,1.041,1.041,0,0,0,.31-.471,1.066,1.066,0,0,0-.055-.8,1.288,1.288,0,0,0-.106-.178c1.132-.676,2.281-1.336,3.4-2.031a.987.987,0,0,0,.472-.54.926.926,0,0,0-.6-1.167.9.9,0,0,0-.694.051c-1.167.729-2.365,1.4-3.548,2.1-.737.507-1.467,1.023-2.2,1.537-.63.442-1.264.884-1.9,1.315-.291.194-.584.391-.876.582l-.05.035c-.191.167-.381.334-.569.5a.938.938,0,0,0-.229.3c-.862.415-1.742.8-2.634,1.145l-.189.077q-.651.261-1.317.472a.218.218,0,0,1-.1.007l-.092.029c-.291.077-.576.155-.863.236a1.233,1.233,0,0,0-.454.209l-.643-.145c-.9-.326-1.78-.7-2.643-1.113a.121.121,0,0,0,.033.018.307.307,0,0,1-.055-.026l-.007,0h0l-.007,0c-.007,0-.011,0-.018-.008a.048.048,0,0,1-.025-.015,49.425,49.425,0,0,1-6.02-3.571c-.058-.041-.115-.083-.173-.12-1.382-.717-2.764-1.434-4.162-2.11-.3-.131-.607-.262-.907-.389-.652-.2-1.3-.4-1.955-.6.019,0,.04.012.059.016q-2.589-.77-5.206-1.458c-1.434-.185-2.869-.319-4.307-.46-.849-.08-1.693-.168-2.538-.271a.451.451,0,0,0-.213.371" fill="#9bbce7"/>
    <path id="Path_489" data-name="Path 489" d="M386.8,146.575l0,0,0,0" fill="#9bbce7"/>
    <path id="Path_490" data-name="Path 490" d="M386.827,146.588l-.026-.013a.071.071,0,0,0,.026.013" fill="#9bbce7"/>
    <path id="Path_491" data-name="Path 491" d="M386.828,146.589l.016.008Z" fill="#9bbce7"/>
    <path id="Path_492" data-name="Path 492" d="M386.86,146.6l.019.008-.02-.008Z" fill="#9bbce7"/>
    <path id="Path_493" data-name="Path 493" d="M375.11,140.62a.749.749,0,0,0-.107.56.768.768,0,0,0,.318.474c.682.533,1.375,1.052,2.068,1.564a.56.56,0,0,0,.206.292c.642.493,1.3.963,1.964,1.424.69.478,1.373.949,2.011,1.489.151.134.3.273.44.415a7.351,7.351,0,0,1-.86-.358.022.022,0,0,1-.015-.008h0a.064.064,0,0,1-.028-.016.424.424,0,0,1-.087-.045.274.274,0,0,0-.374.079.267.267,0,0,0,.075.371c.318.16.636.313.965.448a5.59,5.59,0,0,0,1.08.312.347.347,0,0,0,.309-.063.312.312,0,0,0,.074-.378,5.075,5.075,0,0,0-.485-.656.641.641,0,0,0,.081-.065.686.686,0,0,0,.237-.479.676.676,0,0,0-.171-.49,15.7,15.7,0,0,0-1.532-1.238q-.852-.642-1.713-1.275c-.89-.659-1.777-1.313-2.657-1.982l-.474-.229q-.45-.2-.9-.388l-.092-.029a.749.749,0,0,0-.328.271" fill="#9bbce7"/>
    <path id="Path_494" data-name="Path 494" d="M381.574,146.426l0,0,0,0" fill="#9bbce7"/>
    <path id="Path_495" data-name="Path 495" d="M381.135,146.471l.015.008-.015-.008" fill="#9bbce7"/>
    <path id="Path_496" data-name="Path 496" d="M381.129,146.47l0,0a.139.139,0,0,0-.028-.013l.024.011" fill="#9bbce7"/>
    <path id="Path_497" data-name="Path 497" d="M362.707,138.175a.44.44,0,0,0,.267.839q1.045-.285,2.123-.476a21.262,21.262,0,0,1,2.743-.267c-1.236-.147-2.472-.264-3.71-.386l-.162-.016c-.423.091-.844.194-1.261.306" fill="#9bbce7"/>
    <path id="Path_498" data-name="Path 498" d="M362.707,137.173c.31.038.619.074.927.1-.055-.008-.113-.02-.168-.032l-.723-.093-.038,0a.179.179,0,0,0,0,.022" fill="#9bbce7"/>
    <path id="Path_499" data-name="Path 499" d="M362.845,137.893a4.318,4.318,0,0,0,.259.645,5.445,5.445,0,0,0,.732,1.125c.035.045.07.09.106.131a.686.686,0,0,0,.3.16.66.66,0,0,0,.7-1c-.118-.207-.234-.414-.343-.627-.06-.136-.116-.273-.166-.412-.1-.009-.205-.02-.306-.03-.441-.043-.882-.086-1.323-.133.012.047.024.094.038.141" fill="#9bbce7"/>
    <path id="Path_500" data-name="Path 500" d="M362.925,137.2q.355.042.708.08c-.054-.009-.112-.022-.166-.033-.179-.024-.36-.046-.54-.069l0,.022" fill="#9bbce7"/>
    <path id="Path_501" data-name="Path 501" d="M363.759,138.33a6.646,6.646,0,0,0,2.114.3,4.554,4.554,0,0,0,1.546-.407c-1.1-.125-2.192-.229-3.289-.336-.361-.036-.722-.071-1.082-.109a1.148,1.148,0,0,0,.711.553" fill="#9bbce7"/>
    <path id="Path_502" data-name="Path 502" d="M362.611,137.161c.315.04.63.077.943.109v-.006c-.029-.005-.058-.012-.087-.019l-.724-.092-.133-.007a.079.079,0,0,1,0,.015" fill="#9bbce7"/>
    <path id="Path_503" data-name="Path 503" d="M362.9,138.157a.473.473,0,0,0,.217.26.447.447,0,0,0,.35.034.456.456,0,0,0,.261-.217.436.436,0,0,0,.032-.349l-.015-.038c-.333-.032-.668-.067-1-.1a4.019,4.019,0,0,0,.157.412" fill="#9bbce7"/>
    <path id="Path_504" data-name="Path 504" d="M362.885,137.194l-.007-.023c-.045-.007-.091-.012-.136-.018l-.339-.019c.161.022.322.041.482.06" fill="#9bbce7"/>
    <path id="Path_505" data-name="Path 505" d="M362.638,138.487a.38.38,0,0,0,.641-.409c-.062-.1-.119-.2-.172-.295-.3-.032-.6-.063-.892-.1a3.76,3.76,0,0,0,.423.8" fill="#9bbce7"/>
    <path id="Path_506" data-name="Path 506" d="M362.471,137.143l0-.005-.072,0,.068.008" fill="#9bbce7"/>
    <path id="Path_507" data-name="Path 507" d="M419.033,136.485h.02l-.021,0h0" fill="#9bbce7"/>
    <path id="Path_508" data-name="Path 508" d="M419.3,136.74c.375.373.716.774,1.087,1.155a1.122,1.122,0,0,0,1.887-.892c-1.07-.224-2.149-.4-3.239-.518.09.083.178.168.265.255" fill="#9bbce7"/>
    <path id="Path_509" data-name="Path 509" d="M403.077,140.463c-.44.285-.874.576-1.307.872-.167.141-.335.28-.5.42-.23.177-.454.355-.677.537-.044.024-.085.044-.129.066.2-.185.41-.364.621-.542l-.018.011.045-.036c-.558.387-1.112.778-1.669,1.168-.1.068-.194.137-.293.205a.263.263,0,0,0,.3.142c.228-.068.448-.143.669-.23l.011.023a.376.376,0,0,0,.519.113c.549-.371,1.062-.79,1.582-1.2s1.043-.82,1.559-1.236c.954-.767,1.89-1.563,2.84-2.337a31.161,31.161,0,0,0-3.555,2.019" fill="#9bbce7"/>
    <path id="Path_510" data-name="Path 510" d="M401.084,141.817l.012-.011Z" fill="#9bbce7"/>
    <path id="Path_511" data-name="Path 511" d="M420.247,137.26l-.025.153a.694.694,0,0,0,1.351.318,5.731,5.731,0,0,0,.075-.854c-.469-.089-.941-.17-1.414-.239a3.8,3.8,0,0,1,.013.622m.014-.12c0,.029,0,.058-.01.088a.646.646,0,0,1,.01-.088" fill="#9bbce7"/>
    <path id="Path_512" data-name="Path 512" d="M406.821,138.351c.019-.007.037-.018.058-.024a28.163,28.163,0,0,0-2.534,1.347c-.063.105-.122.212-.181.319a.971.971,0,0,0,.9,1.425.933.933,0,0,0,.674-.309c.7-.919,1.377-1.85,2.134-2.723q.321-.374.658-.733c-.579.208-1.146.441-1.7.7" fill="#9bbce7"/>
    <path id="Path_513" data-name="Path 513" d="M367.412,140.56a.238.238,0,0,0,.125.306c.426.21.845.434,1.255.677l-.054-.034a33.59,33.59,0,0,1,4.488,3.362c1.558,1.334,3.064,2.728,4.589,4.1.77.695,1.543,1.388,2.334,2.062.774.656,1.574,1.287,2.393,1.885a28.649,28.649,0,0,0,2.555,1.662,17.11,17.11,0,0,0,2.539,1.228,14.39,14.39,0,0,0,2.433.7,11.736,11.736,0,0,0,2.5.2,10.584,10.584,0,0,0,2.519-.376,11.191,11.191,0,0,0,2.423-.953c.067-.035.133-.07.2-.109a.831.831,0,0,0,.274-.341.841.841,0,0,0-1.074-1.115,13.182,13.182,0,0,1-1.9.653,12.229,12.229,0,0,1-2.821.311,13.859,13.859,0,0,1-3.1-.491A22.663,22.663,0,0,1,384.055,152c.061.035.123.073.184.107a78.609,78.609,0,0,1-8.567-6.229c-1.335-1.063-2.673-2.114-4.068-3.094a28.324,28.324,0,0,0-3.882-2.349.2.2,0,0,0-.082-.018.25.25,0,0,0-.228.143m21.579,13.7.078.022-.078-.022m.113.032q.061.017.123.036l-.123-.036" fill="#90afd7"/>
    <path id="Path_514" data-name="Path 514" d="M415.841,138.184a36.1,36.1,0,0,0-4.2,1.9c-1.359.722-2.666,1.532-3.954,2.376-1.248.819-2.475,1.672-3.716,2.506s-2.491,1.659-3.773,2.436l-.011.007.011-.007-.144.087c.027-.018.057-.035.085-.052-.753.444-1.519.871-2.3,1.267a.875.875,0,0,0-.447.463.839.839,0,0,0,.011.625.825.825,0,0,0,.465.448.794.794,0,0,0,.625-.011,36.866,36.866,0,0,0,3.677-2.251c1.146-.793,2.248-1.648,3.351-2.5a71.758,71.758,0,0,1,6.74-4.871,24.7,24.7,0,0,1,3.821-1.852.315.315,0,0,0,.166-.413.3.3,0,0,0-.278-.186.348.348,0,0,0-.134.024m-15.7,9.257.048-.028-.048.028" fill="#90afd7"/>
    <path id="Path_515" data-name="Path 515" d="M404.46,152.144a37.483,37.483,0,0,1-6.1,4.8c.041-.025.082-.046.122-.07a16.371,16.371,0,0,1-3.772,1.7,11.235,11.235,0,0,1-2.49.365,8.664,8.664,0,0,1-1.787-.2,9.369,9.369,0,0,1-1.995-.79q-.285-.157-.56-.332a.983.983,0,0,0-.68-.165.924.924,0,0,0-.412,1.663,7.872,7.872,0,0,0,2.473,1.247,8.645,8.645,0,0,0,1.253.265,8.475,8.475,0,0,0,1.378.056,8.9,8.9,0,0,0,2.463-.453,12.875,12.875,0,0,0,2.432-1.059A41.013,41.013,0,0,0,404.9,152.7a.359.359,0,0,0,.055-.5.377.377,0,0,0-.282-.138.307.307,0,0,0-.217.079" fill="#90afd7"/>
    <path id="Path_516" data-name="Path 516" d="M417.4,134.373a21.063,21.063,0,0,0-2.357.09,19.7,19.7,0,0,0-4.118.947,25.526,25.526,0,0,0-3.712,1.59c-1.106.564-2.262,1.231-3.641,2.1-.974.608-2,1.261-2.965,1.986-.557.423-1.1.86-1.638,1.3l-.268.217a40.655,40.655,0,0,1-3.466,2.625c-.233.151-.47.291-.707.429a11.753,11.753,0,0,1-2.293.959,7.585,7.585,0,0,1-1.388.173,8.67,8.67,0,0,1-1.808-.258,21.086,21.086,0,0,1-4.631-2.109l.251.229c-.766-.532-1.555-1.028-2.347-1.523l-.142-.089c-.748-.466-1.494-.931-2.253-1.374a26.7,26.7,0,0,0-2.425-1.3,20.841,20.841,0,0,0-2.1-.836l-.431-.155c-3.676-1.347-7.293-2.563-11.128-2.652-.434-.009-.873,0-1.311.019a.384.384,0,0,0-.247.125.45.45,0,0,0-.1.3.4.4,0,0,0,.4.342c.314-.012.592-.02.865-.017a16.171,16.171,0,0,1,3.774.553,33.448,33.448,0,0,1,4.8,1.785c.773.345,1.539.708,2.3,1.079l.187.092c.618.3,1.209.589,1.786.911,1.366.81,2.655,1.748,3.9,2.655.642.471,1.234.9,1.835,1.319a37.977,37.977,0,0,0,3.241,2.057,13.6,13.6,0,0,0,3.1,1.332,9.94,9.94,0,0,0,1.717.348c.185.019.375.027.564.031a8.512,8.512,0,0,0,1.3-.074,9.893,9.893,0,0,0,3.246-1.108,30.63,30.63,0,0,0,5.4-3.921l.3-.25c.466-.391.93-.783,1.406-1.163.52-.408,1.056-.789,1.6-1.164,1.486-1.023,2.73-1.816,3.916-2.5a23.7,23.7,0,0,1,5.258-2.2,35.669,35.669,0,0,1,3.938-.69c.546-.071,1.072-.13,1.587-.173l.236.005a17.4,17.4,0,0,1,1.77.134,12.5,12.5,0,0,1,1.765.345h.02a.265.265,0,0,0,.167-.042.292.292,0,0,0,.107-.167.253.253,0,0,0-.209-.286c-.141-.04-.288-.077-.429-.109l.122.022a6.768,6.768,0,0,1,1.048.1.49.49,0,0,0,.494-.291.5.5,0,0,0-.014-.394.387.387,0,0,0-.242-.218l-.224-.078-.112-.039-.145-.047-.126-.046c-.161-.055-.24-.082-.316-.1-.312-.1-.631-.185-.947-.269a16.478,16.478,0,0,0-2.175-.421c-.735-.081-1.385-.128-1.987-.142" fill="#637894"/>
    <path id="Path_517" data-name="Path 517" d="M360.053,136.972a.347.347,0,0,0,.314.379,24.694,24.694,0,0,1,4.421.587l-.1-.025a31.8,31.8,0,0,1,5.051,1.664c1.606.669,3.158,1.46,4.7,2.271-.051-.024-.1-.05-.145-.072,2.151,1.138,4.263,2.353,6.427,3.466,1.087.561,2.189,1.092,3.31,1.577.6.257,1.2.508,1.8.744a14.3,14.3,0,0,0,2.027.647.524.524,0,0,0,.364-.014.48.48,0,0,0,.259-.275.486.486,0,0,0-.289-.623c-.667-.249-1.325-.508-1.976-.785s-1.283-.565-1.919-.867c-1.231-.59-2.451-1.218-3.66-1.858l.152.08c-3.139-1.661-6.235-3.427-9.522-4.784a32.926,32.926,0,0,0-5.162-1.661,31.061,31.061,0,0,0-5.677-.764h-.014a.348.348,0,0,0-.365.313" fill="#637894"/>
    <path id="Path_518" data-name="Path 518" d="M389.124,147.163c-.082.039-.163.073-.248.111a1.086,1.086,0,0,0-.362.376,30.35,30.35,0,0,0-3.661,7.277,41.041,41.041,0,0,0-1.888,7.689,71.705,71.705,0,0,0-.693,7.952c-.1,2.666-.045,5.335.1,8q.1,1.835.237,3.666a.394.394,0,0,0,.788-.019c-.162-2.234-.229-4.466-.22-6.706a62.334,62.334,0,0,1,.365-6.694c.123-1.056.27-2.113.454-3.162.2-1.141.459-2.278.736-3.4a52.1,52.1,0,0,1,2.143-6.647c-.031.087-.066.175-.1.261.495-1.234,1.036-2.452,1.625-3.643.6-1.21,1.26-2.389,1.924-3.564a1.028,1.028,0,0,0-.881-1.531,1.023,1.023,0,0,0-.315.041" fill="#637894"/>
    <path id="Path_519" data-name="Path 519" d="M393.73,146.647a1.131,1.131,0,0,0-.5.68c-.013.1-.022.2-.035.3a1.123,1.123,0,0,0,.16.548,27.512,27.512,0,0,1,1.885,6.364,39.371,39.371,0,0,1,.02,10.052c-.281,2.445-.683,4.869-1.093,7.293-.419,2.472-.824,4.945-1.149,7.427a55.78,55.78,0,0,0-.528,7.394,31.565,31.565,0,0,0,.833,7.22c.058.235.118.473.182.708a.637.637,0,0,0,1.22-.364,24.819,24.819,0,0,1-.549-2.566c.006.035.01.069.015.1a30.673,30.673,0,0,1-.337-4.549,41.649,41.649,0,0,1,.288-4.658c.571-4.894,1.819-9.674,2.686-14.519a62.42,62.42,0,0,0,.93-7.447,31.76,31.76,0,0,0-.4-7.353,23.111,23.111,0,0,0-.772-3.1,22.757,22.757,0,0,0-1.324-3.16,1.089,1.089,0,0,0-.679-.5,1.128,1.128,0,0,0-.245-.033,1.152,1.152,0,0,0-.612.163m.4,36.04c0,.03-.006.059-.011.089l.011-.089" fill="#637894"/>
    <path id="Path_520" data-name="Path 520" d="M381.118,182.745a1.715,1.715,0,1,0,1.753-1.677,1.732,1.732,0,0,0-1.753,1.677" fill="#4a477c"/>
    <path id="Path_521" data-name="Path 521" d="M392.248,194.306a2.565,2.565,0,1,0,2.621-2.508,2.59,2.59,0,0,0-2.621,2.508" fill="#4a477c"/>
    <path id="Path_522" data-name="Path 522" d="M380.035,183.618a2.8,2.8,0,1,0,2.864-2.74,2.827,2.827,0,0,0-2.864,2.74" fill="#4a477c"/>
    <path id="Path_523" data-name="Path 523" d="M382.047,186.023c.022.343.043.683.076,1.026a2.749,2.749,0,0,0,.174.858.677.677,0,0,0,.416.338.708.708,0,0,0,.658-.153,1.028,1.028,0,0,0,.221-.291,1.643,1.643,0,0,0,.146-.347c.047-.141.08-.291.12-.435a.751.751,0,0,0-.5-.92.573.573,0,0,0-.084-.02l0-.029a.65.65,0,0,0-.169-.439.623.623,0,0,0-.43-.188.612.612,0,0,0-.627.6m.313,1.184c-.006.042-.013.084-.02.126h0c.006-.042.012-.085.02-.127" fill="#4a477c"/>
    <path id="Path_524" data-name="Path 524" d="M382.021,185.079c-.009.387-.025.769-.022,1.156a11.233,11.233,0,0,0,.123,1.347.794.794,0,0,0,.376.508.83.83,0,0,0,.842.018,1.768,1.768,0,0,0,.364-.277,1.716,1.716,0,0,0,.364-.6c.112-.3.174-.613.279-.913a1.025,1.025,0,0,0-.683-1.271.942.942,0,0,0-.172-.036.738.738,0,0,0-1.471.069" fill="#4a477c"/>
    <path id="Path_525" data-name="Path 525" d="M381.828,185.419c.014.525-.023,1.047-.005,1.569a4.7,4.7,0,0,0,.113.846,4.085,4.085,0,0,0,.32.835.838.838,0,0,0,1.306.2,2.945,2.945,0,0,0,.467-.639,3.8,3.8,0,0,0,.279-.738c.127-.468.171-.956.28-1.428a1.07,1.07,0,0,0-.089-.8,1.031,1.031,0,0,0-1.406-.4l-.032.019a.711.711,0,0,0-.472-.187.748.748,0,0,0-.761.728" fill="#4a477c"/>
    <path id="Path_526" data-name="Path 526" d="M394.942,195.3a.926.926,0,0,0-1.51.921c.12.521.174,1.052.312,1.565a3.045,3.045,0,0,0,1,1.54,1.075,1.075,0,0,0,.712.316,1.024,1.024,0,0,0,.887-.484,3.818,3.818,0,0,0,.493-1.519c.063-.524.056-1.053.108-1.577a1.137,1.137,0,0,0-2.005-.762" fill="#4a477c"/>
    <g id="Group_3134" data-name="Group 3134">
      <path id="Path_527" data-name="Path 527" d="M388.074,109.213a8.617,8.617,0,0,1,1.859-.221,5.2,5.2,0,0,1,2.375.464.448.448,0,0,1,.155.121.422.422,0,0,1,.344.165.433.433,0,0,1-.079.6,14.36,14.36,0,0,1-2.5,1.83,9.827,9.827,0,0,1-1.372.646,8.342,8.342,0,0,1-1.026.306c-.193.045-.387.084-.58.118-.31.055-.621.081-.932.107l-.3.026a4.135,4.135,0,0,1-1.12-.012,1.029,1.029,0,0,1-.765-.523,1.084,1.084,0,0,1,.019-.891,1.969,1.969,0,0,1,.21-.37,3.083,3.083,0,0,1,.349-.425,7.17,7.17,0,0,1,.859-.774,6.188,6.188,0,0,1,.651-.451,5.522,5.522,0,0,1,1.118-.506,7.624,7.624,0,0,1,.741-.21" fill="#ff9c94"/>
      <path id="Path_528" data-name="Path 528" d="M380.4,105.029a2.573,2.573,0,0,0-.813.331,2.268,2.268,0,0,0-.721.725,2.445,2.445,0,0,0-.33.929,3.678,3.678,0,0,0-.033.668,4.594,4.594,0,0,0,.08.634,5.635,5.635,0,0,0,.433,1.379,6.5,6.5,0,0,0,.775,1.31,7.265,7.265,0,0,0,.955,1.008A8.6,8.6,0,0,0,386.122,114a6.735,6.735,0,0,0,1.16-.075c.171-.027.342-.059.51-.1.134-.032.267-.067.4-.107a10.729,10.729,0,0,0,1.969-.828,11.322,11.322,0,0,0,1.883-1.252,8.338,8.338,0,0,0,1.53-1.587,5.035,5.035,0,0,0,.884-1.824,3.485,3.485,0,0,0-.065-1.934,3.868,3.868,0,0,0-.5-1,4.926,4.926,0,0,0-.8-.908,3.47,3.47,0,0,0-1.139-.681,2.8,2.8,0,0,0-1.071-.159,4.107,4.107,0,0,0-.685.1,6.778,6.778,0,0,0-1.564.611c-.342.174-.677.361-1.011.549-.383.213-.764.428-1.216.648a5.9,5.9,0,0,1-1.126.4c-.075.017-.15.032-.225.046a4.508,4.508,0,0,1-.5.028l-.391-.194a9.9,9.9,0,0,0-1.063-.482,5.376,5.376,0,0,0-1.358-.3,4.184,4.184,0,0,0-1.23.047c-.036,0-.071.013-.11.022m9.866,4.371a5.858,5.858,0,0,1,1.3.289,7.978,7.978,0,0,1,.87.408,8.011,8.011,0,0,1-.811.787,11.477,11.477,0,0,1-2.414,1.535,9.1,9.1,0,0,1-1.693.6c-.1.023-.2.043-.3.062a7.2,7.2,0,0,1-1.6.046,11.138,11.138,0,0,1-1.167-.18.5.5,0,0,0,.047-.108c.027-.1.055-.194.09-.289a4.948,4.948,0,0,1,.462-.895,5.479,5.479,0,0,1,.823-.9,6.522,6.522,0,0,1,1.235-.789l0-.011,0,.007h.005v0h0l.02-.01a7.415,7.415,0,0,1,1.26-.418l.267-.058a6.925,6.925,0,0,1,1.617-.068Z" fill="#2e2e2e"/>
    </g>
    <path id="Path_529" data-name="Path 529" d="M383.977,85.539c-.795,1.835-1.672,3.636-2.393,5.5a31.424,31.424,0,0,0-1.063,3.183,12.037,12.037,0,0,0-.462,3.076,6.836,6.836,0,0,0,.079,1.089,5.405,5.405,0,0,0,.267,1,4.142,4.142,0,0,0,.464.878,3.533,3.533,0,0,0,.669.728,3.906,3.906,0,0,0,.879.555,4.862,4.862,0,0,0,1.093.347,5.653,5.653,0,0,0,1.188.125,9.238,9.238,0,0,0,1.618-.121.674.674,0,0,0,.268-1.214l-.153-.081a.661.661,0,0,0-.349-.032l-.175.008.182-.009a9.459,9.459,0,0,1-2.291-.144,4.609,4.609,0,0,1-.907-.325,3.333,3.333,0,0,1-.537-.375,3.483,3.483,0,0,1-.385-.455,3.9,3.9,0,0,1-.346-.747,6.243,6.243,0,0,1-.215-1.319,13.805,13.805,0,0,1,.387-3.441l-.005.023c.005-.023.01-.046.016-.069l.015-.07-.008.036a31.253,31.253,0,0,1,1.377-4.264c.476-1.218.992-2.418,1.516-3.616a.391.391,0,0,0-.231-.5.376.376,0,0,0-.2-.02.414.414,0,0,0-.3.249m-2.171,8.184c0,.016-.008.031-.011.046l.018-.08Z" fill="#5a342f"/>
    <path id="Path_530" data-name="Path 530" d="M367.5,75.309c-.263.047-.531.105-.8.166a10.849,10.849,0,0,0-4.629,2.262c-1.145,1.016-1.644,2.123-1.4,3.115.456,1.89,3.475,2.844,7.02,2.219.263-.047.528-.1.8-.165a10.851,10.851,0,0,0,4.629-2.264c1.142-1.016,1.639-2.123,1.4-3.116-.456-1.888-3.471-2.841-7.013-2.217" fill="#212226"/>
    <path id="Path_531" data-name="Path 531" d="M398.707,73.006c-2.869.506-4.78,1.9-4.868,3.555-.059,1.107.689,2.19,2.109,3.051a11.8,11.8,0,0,0,5.392,1.5,13.456,13.456,0,0,0,3.077-.171c2.871-.506,4.781-1.9,4.867-3.555.06-1.106-.689-2.19-2.109-3.052a11.813,11.813,0,0,0-5.392-1.5,13.451,13.451,0,0,0-3.076.172" fill="#212226"/>
    <path id="Path_532" data-name="Path 532" d="M395.431,92.152c.17,2.6,1.764,4.612,3.557,4.5s3.112-2.322,2.942-4.92-1.764-4.613-3.556-4.495-3.113,2.321-2.943,4.92" fill="#2e2e2e"/>
    <path id="Path_533" data-name="Path 533" d="M367.822,94.1c.163,2.489,1.69,4.419,3.408,4.306s2.982-2.224,2.819-4.714-1.69-4.419-3.408-4.306S367.66,91.6,367.822,94.1" fill="#2e2e2e"/>
  </g>
</svg>
