<svg xmlns="http://www.w3.org/2000/svg" xmlns:xlink="http://www.w3.org/1999/xlink" width="2884.252" height="6223.599" viewBox="0 0 2884.252 6223.599">
  <defs>
    <linearGradient id="linear-gradient" x1="1.674" y1="-0.034" x2="-0.42" y2="0.869" gradientUnits="objectBoundingBox">
      <stop offset="0" stop-color="red"/>
      <stop offset="1" stop-color="#ffb300"/>
    </linearGradient>
  </defs>
  <path id="Контур_30" data-name="Контур 30" d="M1995.027,794.92C2330.992,1013.326,571.6,719.583,409.118,1137.4s-244.176,442.82,262.7,717.35,1369.806-177.5,1687.135,153.112,641.242,1024.243-182.8,1207.041S118.963,2582.372,235.025,3278.742s-142.175,1015.092,879.168,835.2S2907.346,4326.2,2901.543,4506.1,2489.525,5054.491,1883.1,5176.356,397.512,4981.95,240.828,5585.471s11.606,768.906,435.231,916.885,1729.319,208.911,1729.319,208.911l11.607,185.7s-1244.762,107.357-1679.994-78.342S11.606,5977.179,17.409,5849.511s14.508-893.675,176.994-940.1,1142.484,290.883,1616.161,208.914,932.336-244.477,803.726-638.342S1436.268,4120.483,1076.473,4230-26.114,4546.718,46.425,4027.342,98.652,2959.572,362.693,2945.065s1303.518,187.15,1793.153-40.621,499.066-719.582,104.456-896.576S1174.232,2182.713,589.236,2070s-423.848-76.64-438.356-320.37S40.622,739.893,499.065,783.417,1659.064,576.514,1995.027,794.92Z" transform="translate(-17.324 -704.239)" fill="url(#linear-gradient)"/>
</svg>
