<svg xmlns="http://www.w3.org/2000/svg" width="62" height="62"><defs><linearGradient id="linear-gradient" x1="-.128" y1="-.014" x2="1.484" y2="1.283" gradientUnits="objectBoundingBox"><stop offset="0" stop-color="#00fff7"/><stop offset="1" stop-color="#003cff"/></linearGradient></defs><path id="Path_29" data-name="Path 29" d="M-7986.539-3522a3.824 3.824 0 01-3.779-3.308l-.474-3.564-1.254-.718a9.846 9.846 0 01-4.955-8.535 9.872 9.872 0 01.191-1.929l1.389-6.947H-7997v-8h6v.557a9.792 9.792 0 012.279-1.138 16.072 16.072 0 01-1.248-5.419H-7994v1.667a2.337 2.337 0 01-2.333 2.333 2.343 2.343 0 01-1.867-.935l-2.3-3.065h-6.5a2 2 0 01-2-2v-12a2 2 0 012-2h18.106a12 12 0 0110.894-7 11.978 11.978 0 019.672 4.928A15.9 15.9 0 01-7963-3580a16.018 16.018 0 0116 16 16.012 16.012 0 01-13.812 15.839l1.622 8.108a9.872 9.872 0 01.191 1.929 9.848 9.848 0 01-4.957 8.535l-1.254.718-.474 3.564a3.824 3.824 0 01-3.779 3.308zm-1.795-3.574a1.817 1.817 0 001.8 1.574h17.073a1.817 1.817 0 001.8-1.574l.058-.426h-20.783zm-1.666-12.613a1.87 1.87 0 00.014.239l1.326 9.948h21.318l1.324-9.948a1.872 1.872 0 00.016-.239 1.815 1.815 0 00-1.813-1.813h-20.373a1.813 1.813 0 00-1.812 1.813zm23.895-8.367l-.894 1.789v2.856a3.82 3.82 0 013 3.722 3.828 3.828 0 01-.032.5l-.842 6.309a7.846 7.846 0 003.875-6.752 7.748 7.748 0 00-.155-1.538l-1.634-8.177a7.787 7.787 0 00-5.4-5.926 16.125 16.125 0 01-6.818 6.388v.376a3 3 0 01-3 3 3 3 0 01-3-3v-.376a16.136 16.136 0 01-6.818-6.388 7.791 7.791 0 00-5.395 5.926l-1.634 8.177a7.894 7.894 0 00-.153 1.538 7.842 7.842 0 003.875 6.752l-.842-6.309a3.786 3.786 0 01-.032-.5 3.816 3.816 0 013-3.72v-2.856l-.893-1.789 1.789-.895 1.1 2.211v3.236h18v-3.236l1.105-2.213zM-7979-3549v2a1 1 0 001 1 1 1 0 001-1v-2a.987.987 0 00-.86-.971l-.139.058-.139-.058a.987.987 0 00-.862.971zm-16 0h.04a9.76 9.76 0 011.96-3.66v-.34h-2zm25-21v8.384a12.53 12.53 0 01-5.809 10.583 2.966 2.966 0 01.746 1.425 14.165 14.165 0 007.063-12.242V-3572a10.012 10.012 0 00-10-10 10.012 10.012 0 00-10 10v10.15a14.164 14.164 0 007.063 12.241 2.975 2.975 0 01.746-1.425 12.531 12.531 0 01-5.809-10.583V-3570a8.009 8.009 0 018-8 8.009 8.009 0 018 8zm9.481 19.772a13.963 13.963 0 008.219-4.772h-5.449a20.846 20.846 0 01-2.77 4.772zm-1.592-1.21a18.484 18.484 0 002.177-3.562h-5.982a9.753 9.753 0 013.805 3.562zm-18.659-2.607a10.5 10.5 0 002.77 1.948 10.513 10.513 0 002.772-1.948l-.46-2.3a7.909 7.909 0 01-2.312.345 7.914 7.914 0 01-2.312-.346zm6.952-3.147l.228 1.142a10.634 10.634 0 00.958-2.034 8.121 8.121 0 01-1.185.891zm-8.592 1.142l.229-1.142a7.917 7.917 0 01-1.186-.893 10.628 10.628 0 00.957 2.034zm25.378-.949h6.137a13.915 13.915 0 001.847-6h-6.981a23.511 23.511 0 01-1.003 5.999zm-8.969-4.85a16.142 16.142 0 01-.751 4.85h7.622a21.37 21.37 0 001.1-6h-7.97zm-12.719-5.927l-5.28.661v3.115a6.005 6.005 0 006 6 6.005 6.005 0 006-6v-2.671a8.286 8.286 0 00-4.207-3.071 3.112 3.112 0 01-2.513 1.964zM-8007-3563h7.5l2.9 3.867a.348.348 0 00.6-.2V-3563h6v-3.586l-2.293 2.293-1.413-1.415 3.292-3.292-3.292-3.292 1.413-1.415 2.293 2.293v-.586a11.9 11.9 0 01.394-3H-8007zm50.963-2h6.987a13.876 13.876 0 00-1.843-6h-6.13a23.687 23.687 0 01.986 6zm-9.964 0h7.964a21.309 21.309 0 00-1.105-6H-7966zm-18-5v.868l5.031-.629a1.106 1.106 0 00.969-1.1 1.144 1.144 0 00-1.144-1.144.859.859 0 00-.856.858v.143h-2v-.143a2.861 2.861 0 012.856-2.858 3.134 3.134 0 012.977 2.183 10.3 10.3 0 014.167 2.187v-.37a6.007 6.007 0 00-6-6A6.007 6.007 0 00-7984-3570zm26.251-3h5.457a13.989 13.989 0 00-8.217-4.766 20.6 20.6 0 012.761 4.766zm-8.3 0h6.1a17.91 17.91 0 00-3.053-4.6 17.725 17.725 0 00-3.048 4.6zm-1.214-4.33a11.823 11.823 0 01.563 1.327 19.663 19.663 0 011.226-1.771 13.737 13.737 0 00-1.79.445zM-8005-3537v-8h6v8zm2-2h2v-4h-2zm-6 2v-8h2v8zm8-10v-8h2v8zm-8 0v-8h6v8zm2-2h2v-4h-2zm25.211-13.34l-.1-.211 1.789-.895.1.209a2.22 2.22 0 002 1.236 2.22 2.22 0 002-1.236l.1-.211 1.789.894-.1.211A4.21 4.21 0 01-7978-3560a4.21 4.21 0 01-3.789-2.341zm-24.625-6.659l4.705-4.707 1.415 1.415-3.292 3.292 3.292 3.292-1.415 1.415zm7.439 3.755l2-8 1.938.482-2 8zM-7976-3566a1 1 0 011-1 1 1 0 011 1 1 1 0 01-1 1 1 1 0 01-1-1zm-6 0a1 1 0 011-1 1 1 0 011 1 1 1 0 01-1 1 1 1 0 01-1-1z" transform="translate(8009 3584)" fill="url(#linear-gradient)"/></svg>