<svg xmlns="http://www.w3.org/2000/svg" width="406.776" height="512"><path id="Path_4" data-name="Path 4" d="M369.214 159.814c-91.389-55.6-48.533-134.078-46.693-137.34A15 15 0 00309.515 0c-47.043 0-83.881 13.366-109.49 39.729-43.759 45.044-41.725 115.151-40.862 145.088.1 3.317 4.414 43.131 7.561 61.237 2.028 11.668 3.779 21.744 4.091 29.664.333 8.482-2.932 11-8.317 11.744a16.823 16.823 0 01-13.563-6.009c-14.476-16.233-16.146-52.626-13.378-76.739a15 15 0 00-14.9-16.732c-38.945 0-68.047 63.688-68.047 120.632a197.991 197.991 0 0016 77.94 206.852 206.852 0 0043.512 64.7C150.877 490.425 201.97 512 255.993 512a203.921 203.921 0 00203.395-203.388c0-68.921-53.927-126.746-90.174-148.798z" transform="translate(-52.612)" fill="#fc3b3b"/></svg>