<svg xmlns="http://www.w3.org/2000/svg" width="84" height="84"><defs><filter id="Ellipse_12" x="0" y="0" width="84" height="84" filterUnits="userSpaceOnUse"><feOffset dy="4"/><feGaussianBlur stdDeviation="6" result="blur"/><feFlood flood-color="#0019ff" flood-opacity=".141"/><feComposite operator="in" in2="blur"/><feComposite in="SourceGraphic"/></filter></defs><g id="Group_50" data-name="Group 50" transform="translate(-558 -3767)"><g transform="translate(558 3767)" filter="url(#Ellipse_12)"><g id="Ellipse_12-2" data-name="Ellipse 12" transform="translate(18 14)" stroke="#fff" stroke-width="3"><circle cx="24" cy="24" r="24" stroke="none"/><circle cx="24" cy="24" r="22.5" fill="none"/></g></g><path id="Shape" d="M18.333 16H1.666A1.636 1.636 0 010 14.4l.013-9.6c.006 0 2.11 1.079 4.384 2.139C8.188 8.706 9.536 9.077 10 9.077c1.762 0 9.905-4.235 9.987-4.277L20 14.4a1.636 1.636 0 01-1.667 1.6zM10 6.878c-1.607 0-9.916-4.519-10-4.565V1.6A1.636 1.636 0 011.666 0h16.667A1.636 1.636 0 0120 1.6l-.013.8-.01.006c-.852.458-8.366 4.472-9.977 4.472z" transform="translate(590 3797)" fill="#fff"/></g></svg>