<svg xmlns="http://www.w3.org/2000/svg" width="121.187" height="43.518"><g id="Group_30" data-name="Group 30" transform="translate(-464.932 -754)"><path id="Path_4" data-name="Path 4" d="M74.9 11.273c-6.434-3.922-3.417-9.458-3.287-9.688A1.058 1.058 0 0070.7 0c-3.312 0-5.905.943-7.708 2.8-3.081 3.177-2.938 8.123-2.877 10.235.007.234.311 3.042.532 4.32a17.626 17.626 0 01.288 2.093c.023.6-.206.776-.586.828a1.183 1.183 0 01-.955-.424c-1.019-1.145-1.137-3.712-.942-5.413A1.057 1.057 0 0057.4 13.26c-2.742 0-4.79 4.493-4.79 8.509a13.99 13.99 0 001.127 5.5 14.593 14.593 0 003.063 4.562A14.29 14.29 0 0081.249 21.77c0-4.862-3.797-8.941-6.349-10.497z" transform="translate(504.87 754)" fill="#fc3b3b"/><path id="Path_12" data-name="Path 12" d="M44.7-119.02l-.044-18.31-8.981 15.084H32.5l-8.937-14.692v17.918h-6.631v-30.517h5.842L34.2-130.573l11.248-18.964h5.8l.087 30.517zm22.844-23.8q5.45 0 8.371 2.594t2.921 7.826v13.384h-6.362v-2.921q-1.918 3.27-7.15 3.27a11.1 11.1 0 01-4.687-.916 6.988 6.988 0 01-3.03-2.529 6.581 6.581 0 01-1.046-3.662 6.111 6.111 0 012.463-5.144q2.463-1.875 7.608-1.875h5.406a4.334 4.334 0 00-1.351-3.422 5.953 5.953 0 00-4.054-1.2 11.838 11.838 0 00-3.684.589 9.746 9.746 0 00-3.074 1.591l-2.441-4.752a14.731 14.731 0 014.6-2.093 20.6 20.6 0 015.513-.743zm-.523 19.575a5.923 5.923 0 003.1-.807 4.413 4.413 0 001.918-2.376v-2.4h-4.666q-4.185 0-4.185 2.747a2.446 2.446 0 001.025 2.071 4.615 4.615 0 002.811.762zm42.114-28.12v32.349h-6.5v-2.7q-2.529 3.052-7.324 3.052a12.18 12.18 0 01-5.995-1.482 10.613 10.613 0 01-4.207-4.229 12.891 12.891 0 01-1.526-6.365 12.891 12.891 0 011.526-6.365 10.613 10.613 0 014.207-4.229 12.18 12.18 0 015.995-1.482 8.922 8.922 0 017.019 2.834v-11.379zM96.5-124.251a5.683 5.683 0 004.272-1.766 6.532 6.532 0 001.7-4.73 6.532 6.532 0 00-1.7-4.73 5.683 5.683 0 00-4.272-1.766 5.735 5.735 0 00-4.316 1.766 6.532 6.532 0 00-1.7 4.73 6.532 6.532 0 001.7 4.73 5.735 5.735 0 004.316 1.766zm26.812 5.58a22.784 22.784 0 01-5.711-.719 14.921 14.921 0 01-4.447-1.809l2.267-4.883a14.268 14.268 0 003.793 1.635 15.9 15.9 0 004.36.632q4.316 0 4.316-2.136a1.512 1.512 0 00-1.177-1.439 17.435 17.435 0 00-3.618-.741 34.906 34.906 0 01-4.752-1 7.372 7.372 0 01-3.248-2.005 5.7 5.7 0 01-1.373-4.1 6.42 6.42 0 011.278-3.947 8.277 8.277 0 013.749-2.681 16.013 16.013 0 015.82-.959 22.841 22.841 0 014.948.545 13.831 13.831 0 014.076 1.5l-2.267 4.839a13.534 13.534 0 00-6.757-1.744 6.875 6.875 0 00-3.27.61 1.794 1.794 0 00-1.09 1.569 1.558 1.558 0 001.177 1.526 20.838 20.838 0 003.749.828 40.136 40.136 0 014.708 1.025 7.073 7.073 0 013.183 1.984 5.629 5.629 0 011.352 4.011 6.194 6.194 0 01-1.308 3.88 8.349 8.349 0 01-3.815 2.638 17 17 0 01-5.948.941z" transform="translate(448 916.188)"/><path id="Intersection_1" data-name="Intersection 1" d="M12.992 15.433a17.434 17.434 0 00-3.618-.741 34.9 34.9 0 01-4.752-1 7.373 7.373 0 01-3.248-2.005A5.7 5.7 0 010 7.586 6.42 6.42 0 011.286 3.64 8.278 8.278 0 015.035.959 16.012 16.012 0 0110.856 0 22.839 22.839 0 0115.8.545a13.832 13.832 0 014.076 1.5l-2.263 4.843a13.534 13.534 0 00-6.757-1.744 6.875 6.875 0 00-3.27.61A1.794 1.794 0 006.5 7.324 1.558 1.558 0 007.673 8.85a20.841 20.841 0 003.749.828 40.146 40.146 0 014.709 1.022 7.074 7.074 0 013.183 1.984 4.407 4.407 0 01.323.386 14.222 14.222 0 01-5.63 3.133 1.811 1.811 0 00-1.015-.77z" transform="translate(561.716 773.365)" fill="#fff"/></g></svg>