<svg xmlns="http://www.w3.org/2000/svg" width="84" height="84"><defs><filter id="Ellipse_12" x="0" y="0" width="84" height="84" filterUnits="userSpaceOnUse"><feOffset dy="4"/><feGaussianBlur stdDeviation="6" result="blur"/><feFlood flood-color="#0019ff" flood-opacity=".141"/><feComposite operator="in" in2="blur"/><feComposite in="SourceGraphic"/></filter></defs><g id="Group_46" data-name="Group 46" transform="translate(-558 -3767)"><g transform="translate(558 3767)" filter="url(#Ellipse_12)"><g id="Ellipse_12-2" data-name="Ellipse 12" transform="translate(18 14)" stroke="#fff" stroke-width="3"><circle cx="24" cy="24" r="24" stroke="none"/><circle cx="24" cy="24" r="22.5" fill="none"/></g></g><path id="Shape" d="M13.177 13.941a1.2 1.2 0 00.655-.293 1.091 1.091 0 00.2-.645s-.027-1.967.866-2.258 2.011 1.9 3.21 2.744a2.234 2.234 0 001.594.5l3.206-.046s1.676-.106.882-1.453a10.933 10.933 0 00-2.39-2.821c-2.011-1.907-1.741-1.6.68-4.9 1.474-2.009 2.064-3.236 1.879-3.76C23.787.508 22.7.642 22.7.642l-3.606.022a.8.8 0 00-.466.084 1.037 1.037 0 00-.319.4 21.566 21.566 0 01-1.332 2.877c-1.607 2.789-2.249 2.937-2.512 2.764-.612-.4-.459-1.623-.459-2.488 0-2.7.4-3.831-.781-4.123A6.035 6.035 0 0011.541 0a7.638 7.638 0 00-2.995.316c-.411.205-.728.664-.534.69a1.605 1.605 0 011.065.547 3.631 3.631 0 01.357 1.67s.212 3.183-.5 3.578c-.486.271-1.153-.282-2.586-2.813a23.778 23.778 0 01-1.285-2.73 1.1 1.1 0 00-.3-.412 1.457 1.457 0 00-.552-.227L.782.642S.267.656.078.885c-.168.2-.013.624-.013.624s2.685 6.423 5.725 9.66a8.14 8.14 0 005.953 2.773z" transform="translate(588 3798)" fill="#fff"/></g></svg>