<svg xmlns="http://www.w3.org/2000/svg" width="18" height="16" viewBox="0 0 18 16">
  <path id="vk" d="M36.19,97.085c.124-.625,0-1.085-.595-1.085H33.627c-.5,0-.732.395-.855.835a29.419,29.419,0,0,1-2.419,6.025c-.458.685-.668.9-.919.9-.124,0-.314-.22-.314-.845V97.085c0-.75-.14-1.085-.555-1.085H25.47c-.314,0-.5.35-.5.675,0,.71.708.875.782,2.875v4.34c0,.95-.114,1.125-.364,1.125-.668,0-2.292-3.67-3.255-7.87C21.938,96.33,21.748,96,21.243,96H19.275c-.561,0-.675.395-.675.835a30.516,30.516,0,0,0,3.111,9.775c1.627,3.495,3.92,5.39,6,5.39,1.253,0,1.407-.42,1.407-1.145,0-3.34-.114-3.655.515-3.655.291,0,.792.22,1.961,1.9,1.337,2,1.557,2.9,2.306,2.9h1.968c.561,0,.845-.42.682-1.25-.374-1.745-2.9-5.335-3.017-5.575a1.241,1.241,0,0,1,0-1.31S35.942,98.8,36.19,97.085Z" transform="translate(-18.6 -96)" fill="#ffce00"/>
</svg>
