<svg xmlns="http://www.w3.org/2000/svg" width="14" height="16" viewBox="0 0 14 16">
  <path id="instagram" d="M6.927,35.724c-1.87-.137-3.474,1.7-3.589,4.1.114,2.4,1.719,4.237,3.589,4.1,1.87.137,3.474-1.7,3.589-4.1C10.4,37.42,8.8,35.587,6.927,35.724Zm0,6.77a1.97,1.97,0,0,1-2.008-1.236,3.348,3.348,0,0,1,0-2.863,1.97,1.97,0,0,1,2.008-1.236,1.97,1.97,0,0,1,2.008,1.236,3.348,3.348,0,0,1,0,2.863,1.97,1.97,0,0,1-2.008,1.236ZM11.5,35.556a1.186,1.186,0,0,1-.446,1.09.7.7,0,0,1-.951-.15,1.3,1.3,0,0,1-.228-1.2.879.879,0,0,1,.788-.7c.436-.032.81.395.837.955Zm2.377.971a5.127,5.127,0,0,0-1.131-3.353,3.891,3.891,0,0,0-2.933-1.292c-1.156-.075-4.619-.075-5.775,0A3.885,3.885,0,0,0,1.1,33.17,5.144,5.144,0,0,0-.026,36.524c-.065,1.321-.065,5.281,0,6.6A5.127,5.127,0,0,0,1.1,46.477a3.9,3.9,0,0,0,2.933,1.292c1.156.075,4.619.075,5.775,0a3.867,3.867,0,0,0,2.933-1.292,5.162,5.162,0,0,0,1.131-3.353C13.941,41.8,13.941,37.848,13.876,36.527Zm-1.493,8.016a2.55,2.55,0,0,1-1.331,1.521c-.922.418-3.111.321-4.122.321s-3.208.093-4.122-.321a2.55,2.55,0,0,1-1.331-1.521A20.1,20.1,0,0,1,1.2,39.826a20.467,20.467,0,0,1,.281-4.717,2.55,2.55,0,0,1,1.331-1.521c.922-.418,3.111-.321,4.122-.321s3.208-.093,4.122.321a2.55,2.55,0,0,1,1.331,1.521,20.1,20.1,0,0,1,.281,4.717,20.085,20.085,0,0,1-.282,4.717Z" transform="translate(0.075 -31.826)" fill="#ffce00"/>
</svg>
