<svg xmlns="http://www.w3.org/2000/svg" width="14" height="14" viewBox="0 0 14 14">
  <path id="mail" d="M13.735,68.623c.107-.113.265-.007.265.171V76.25c0,.966-.588,1.75-1.312,1.75H1.313C.588,78,0,77.216,0,76.25V68.8c0-.182.156-.284.265-.171.612.634,1.425,1.44,4.214,4.142C5.056,73.33,6.029,74.511,7,74.5c.976.011,1.969-1.2,2.524-1.735C12.313,70.067,13.122,69.257,13.735,68.623ZM7,73.333c.634.015,1.548-1.065,2.007-1.509,3.629-3.511,3.9-3.817,4.741-4.692A1,1,0,0,0,14,66.443V65.75c0-.966-.588-1.75-1.312-1.75H1.313C.588,64,0,64.784,0,65.75v.693a1.008,1.008,0,0,0,.252.689c.837.871,1.113,1.181,4.741,4.692C5.452,72.269,6.366,73.348,7,73.333Z" transform="translate(0 -64)" fill="#ffce00"/>
</svg>
