<svg xmlns="http://www.w3.org/2000/svg" width="754" height="448"><defs><radialGradient id="radial-gradient" cx=".5" cy=".5" r=".557" gradientTransform="matrix(1 0 0 1.32 0 -.16)" gradientUnits="objectBoundingBox"><stop offset="0" stop-color="#ffa5a5"/><stop offset="1" stop-color="#e81e1e"/></radialGradient><linearGradient id="linear-gradient" x1=".5" x2=".5" y2="1" gradientUnits="objectBoundingBox"><stop offset="0" stop-color="#fff" stop-opacity="0"/><stop offset=".669" stop-color="#fff" stop-opacity=".769"/><stop offset="1" stop-color="#fff"/></linearGradient></defs><g id="Group_3141" data-name="Group 3141" transform="translate(-960 -191)"><g id="Group_3139" data-name="Group 3139" transform="translate(-53 -159)"><path id="Union_2" data-name="Union 2" d="M-8026.411 524.294a80.182 80.182 0 01-56.41-56.4C-8096 418.355-8096 314-8096 314s0-103.833 13.18-153.9c7.375-27.407 29.521-49.547 56.408-56.919C-7976.333 90-7776.008 90-7776.008 90s200.332 0 250.415 13.7a80.172 80.172 0 0156.406 56.4c13.71 50.065 13.184 154.424 13.184 154.424s0 103.829-13.176 153.9a80.178 80.178 0 01-56.414 56.393C-7575.676 538-7776 538-7776 538s-199.8 0-250.411-13.706z" transform="translate(9171.001 260)" fill="url(#radial-gradient)"/><path id="Polygon_2" data-name="Polygon 2" d="M100.666 30.113a20 20 0 0134.667 0l83.411 144.909A20 20 0 01201.411 205H34.589a20 20 0 01-17.334-29.977z" transform="rotate(90 534.5 990.5)" fill="#fff"/></g><path id="Path_835" data-name="Path 835" d="M0 0h754v236H0z" transform="translate(960 403)" fill="url(#linear-gradient)"/></g></svg>