<svg xmlns="http://www.w3.org/2000/svg" width="187.452" height="423.979"><g id="Group_3137" data-name="Group 3137" transform="translate(-491.957 -51.029)"><path id="Path_71" data-name="Path 71" d="M594.053 52.144a34.934 34.934 0 00-7.838.869 26.071 26.071 0 00-10.669 5.1c-2.775 2.277-4.674 5.384-6.511 8.388l-.475.773a32.884 32.884 0 01-4.818 6.461l.14-.114a15.77 15.77 0 01-2.783 2.1 27.011 27.011 0 01-3.37 1.448l-.589.224c-.42.16-.832.327-1.237.507.458-.331.935-.654 1.427-.944a11.146 11.146 0 012.258-.922v-.009l.071-.009c-.005 0-.044.007-.043.012l.058-.016a.911.911 0 01.106-.026.785.785 0 00.469-.263.712.712 0 00.151-.528.722.722 0 00-.69-.629.479.479 0 00-.1.011 11.99 11.99 0 00-2.213.759 12.64 12.64 0 00-2.168 1.316 17.469 17.469 0 00-3.55 3.665 29.373 29.373 0 00-2.744 4.585 42.3 42.3 0 00-1.993 4.843 41.577 41.577 0 00-1.5 5.4 37.2 37.2 0 00-.65 7.373c0 2.441.194 4.909.383 7.295.191 2.413.387 4.91.427 7.377.008.5.008 1 0 1.492-.021.963-.063 2.1-.2 3.269a20.291 20.291 0 01-.591 3 22.887 22.887 0 01-2.261 5.154l-.049.08a56.16 56.16 0 01-6.038 7.651l-.961 1.086c-1.587 1.8-2.756 3.224-3.8 4.616a23.889 23.889 0 00-2.771 4.9 28 28 0 00-1.671 5.567 29.375 29.375 0 00-.5 5.865 24.638 24.638 0 002.714 11.21 18.378 18.378 0 002.2 3.305 15.334 15.334 0 003.377 2.913 37.058 37.058 0 007.683 3.455l.7.254 1.232.444c2.93 1.058 5.959 2.151 8.894 3.346a69.023 69.023 0 019.548 4.707l.11.058v.008h.009v-.013l.04.022v-.009a98.9 98.9 0 0111.073 8.483 99.013 99.013 0 0010.763 8.264 53.611 53.611 0 0012.9 5.817 72.059 72.059 0 0013.882 2.719 100.93 100.93 0 0010.273.5q1.11 0 2.219-.019c2.69-.05 5.5-.216 8.364-.494a93.113 93.113 0 0017.908-3.477 54.3 54.3 0 0016.17-7.715 34.064 34.064 0 006.224-5.8 27.761 27.761 0 004.332-7.272 28.642 28.642 0 001.964-8.873 24.336 24.336 0 00-.124-5.089 18.428 18.428 0 00-1.4-4.749 25.6 25.6 0 00-2.406-4.22c-.944-1.38-2-2.693-2.992-3.9l-1.016-1.23A55 55 0 01666.5 156a18.86 18.86 0 01-.329-.557 19.211 19.211 0 01-1.751-4.278 18.285 18.285 0 01-.339-1.813 16.741 16.741 0 01-.128-2.4 25.2 25.2 0 01.379-3.708 37.736 37.736 0 01.942-3.915l-.006.008c.339-1.142.708-2.277 1.077-3.412a59.976 59.976 0 002.118-7.665 21.471 21.471 0 00.285-5.76 18.029 18.029 0 00-1.7-6.027 25.647 25.647 0 00-3.354-5.242 36.876 36.876 0 00-4.136-4.208c-1.154-1.027-2.372-2.02-3.549-2.98l-1.02-.834c-1.394-1.142-3.026-2.51-4.56-4.009-.266-.259-.53-.525-.785-.793l-.073-.062.008-.005a32.245 32.245 0 01-2.656-3.238 40.072 40.072 0 01-2.364-3.768c-1.136-2.055-2.165-4.208-3.159-6.291-.9-1.882-1.829-3.828-2.836-5.7A47.141 47.141 0 00635.191 74a46.46 46.46 0 00-4.084-4.84 58.814 58.814 0 00-21.077-13.77 54.269 54.269 0 00-5.791-1.909 40.277 40.277 0 00-5.913-1.091 38.918 38.918 0 00-4.273-.241" fill="#e24555"/><path id="Path_72" data-name="Path 72" d="M599.764 52.911a.713.713 0 00.569.814 34.346 34.346 0 016.062 1.357l-.056-.018a48.09 48.09 0 0111.08 5.44 107.614 107.614 0 0111.545 8.944.7.7 0 10.915-1.058 105.556 105.556 0 00-12.322-9.451 44.254 44.254 0 00-14.209-6.123c-.917-.2-1.843-.353-2.77-.474a.835.835 0 00-.1-.006.707.707 0 00-.715.575" fill="#e24555"/><path id="Path_73" data-name="Path 73" d="M612.35 57.262a.706.706 0 00.331.934 60.8 60.8 0 017.058 3.676 19.236 19.236 0 013.791 3.192.669.669 0 00.518.167.7.7 0 00.635-.759.746.746 0 00-.237-.47 21.565 21.565 0 00-5.229-4.083c-1.912-1.124-3.93-2.048-5.933-2.989a.7.7 0 00-.3-.067.7.7 0 00-.638.4" fill="#e24555"/><path id="Path_74" data-name="Path 74" d="M611.568 56.43a.694.694 0 00-.4.357.7.7 0 00-.029.537.666.666 0 00.361.4 33.652 33.652 0 017.688 3.659 28.994 28.994 0 013.346 2.547.7.7 0 10.917-1.058 30.682 30.682 0 00-5.285-3.736 33.175 33.175 0 00-6.068-2.679 1.075 1.075 0 00-.323-.064.592.592 0 00-.209.039" fill="#e24555"/><path id="Path_75" data-name="Path 75" d="M609.744 55.452a.7.7 0 00-.065 1.292 52.478 52.478 0 019.557 4.794l-.03-.022c.027.019.055.038.084.056l.073.047-.05-.032q1.672 1.1 3.247 2.341a.7.7 0 00.915-1.061 47.991 47.991 0 00-6.327-4.207 53.269 53.269 0 00-6.867-3.179.893.893 0 00-.319-.066.657.657 0 00-.218.037m9.569 6.135a.184.184 0 01-.023-.015l-.054-.034c.025.017.051.034.077.049" fill="#e24555"/><path id="Path_76" data-name="Path 76" d="M610.406 55.655a.7.7 0 00-.423.9.683.683 0 00.362.4 35.452 35.452 0 017.507 3.721q1.5.991 2.918 2.1a.7.7 0 00.915-1.062 37.493 37.493 0 00-10.742-6.028.952.952 0 00-.323-.067.645.645 0 00-.214.038" fill="#e24555"/><path id="Path_77" data-name="Path 77" d="M609.781 55.523a.7.7 0 00-.182.974.783.783 0 00.456.3c.054.014.1.032.154.047a32.662 32.662 0 017.453 3.68 56.366 56.366 0 013.275 2.334.7.7 0 00.915-1.062 51.014 51.014 0 00-5.5-3.707 30.29 30.29 0 00-6.052-2.679.429.429 0 00-.12-.017.772.772 0 00-.4.13m.252 1.259l.175.057c-.058-.018-.115-.035-.175-.057" fill="#e24555"/><path id="Path_78" data-name="Path 78" d="M609.684 55.962a.705.705 0 00.332.934 50.3 50.3 0 018.617 4.383q.793.519 1.571 1.076a.757.757 0 00.518.167.723.723 0 00.467-.24.7.7 0 00-.073-.989 46.443 46.443 0 00-5.079-3.164 53.515 53.515 0 00-5.419-2.5.814.814 0 00-.3-.06.68.68 0 00-.631.392" fill="#e24555"/><path id="Path_79" data-name="Path 79" d="M556.95 87.443a.049.049 0 00-.014.017c-.008.008-.012.019-.019.023-.942 1.222-1.857 2.477-2.682 3.787-.394.627-.773 1.266-1.124 1.923s-.664 1.31-.955 1.989l.021-.055a20.406 20.406 0 00-.846 2.4 18.9 18.9 0 00-.5 2.345c0-.021.006-.04.01-.061-.021.149-.04.3-.058.452.39 2.477.719 4.963 1.029 7.45.3 1.7.594 3.4.872 5.106.255 1.55.495 3.1.708 4.661.517 1.81 1.032 3.619 1.459 5.454.249 1.084.479 2.175.65 3.277.146.942.27 1.893.332 2.846a25.222 25.222 0 01.019 3.31 22.226 22.226 0 01-.373 2.885 22.934 22.934 0 01-.814 3c-.285.829-.6 1.642-.97 2.438a40.155 40.155 0 01-2.81 5.065c-1.055 1.641-2.178 3.233-3.3 4.831s-2.252 3.211-3.277 4.879a41.205 41.205 0 00-1.522 2.652c-.438.84-.846 1.694-1.215 2.566-.3.723-.566 1.452-.8 2.193a29.376 29.376 0 00-.576 2.146 57.018 57.018 0 00-.89 4.908v-.012a47.113 47.113 0 00-.424 6.061c0 1.011.022 2.021.091 3.032.011.121.019.241.029.362 1.227.514 2.475.963 3.7 1.4l.7.255 1.23.441c2.97 1.073 5.988 2.164 8.9 3.35a68.762 68.762 0 019.546 4.7l.113.058a76.086 76.086 0 018.166 6.028c.668-.887 1.328-1.777 1.992-2.667q1.648-2.194 3.317-4.382c2.171-2.858 4.342-5.718 6.451-8.62s4.164-5.827 6.1-8.841c.514-.806 1.021-1.613 1.518-2.43.415-.683.831-1.361 1.218-2.058a38.7 38.7 0 001.81-3.686 43.052 43.052 0 001.985-5.82c.256-.97.485-1.948.676-2.934s.36-1.973.5-2.966v-.007a52.567 52.567 0 00.452-7.149c0-1.171-.044-2.339-.128-3.507s-.2-2.324-.353-3.48l.01.061a51.872 51.872 0 00-1.324-6.585q-.417-1.549-.935-3.066-.513-1.5-1.127-2.959c.007.018.019.036.026.055a40.7 40.7 0 00-2.474-4.937q-.756-1.275-1.591-2.5-.826-1.194-1.708-2.343l-.011-.015a.141.141 0 01-.021-.025v-.008c-.551-.7-1.106-1.4-1.683-2.077-2.467-2.919-5.134-5.655-7.75-8.44a88.562 88.562 0 01-7.345-8.608c-.628-.867-1.23-1.754-1.817-2.649s-1.157-1.784-1.719-2.688a295.973 295.973 0 01-3.434-5.689c-.675-1.142-1.346-2.285-2.025-3.423-1.631 2.116-3.361 4.153-5 6.269m-15.343 73.176l-.011.022zm-.011.022a.029.029 0 01-.012.025.117.117 0 00.012-.025" fill="#cc3e4c"/><path id="Path_81" data-name="Path 81" d="M587.746 114.773l-.017-.022.017.022" fill="#cc3e4c"/><path id="Path_82" data-name="Path 82" d="M587.749 114.779l.012.011-.015-.017v.006" fill="#cc3e4c"/><path id="Path_83" data-name="Path 83" d="M563.726 73.721l.168-.084a18.71 18.71 0 01-2.807 2.077c-.482.258-.979.489-1.483.7q1.223 1.948 2.4 3.927A31 31 0 00565.86 74l-.022.054a16.934 16.934 0 00.726-2.054 16.018 16.018 0 00.409-1.945v-.029c.018-.12.033-.245.043-.365a25.678 25.678 0 01-3.29 4.061" fill="#cc3e4c"/><path id="Path_84" data-name="Path 84" d="M559.591 74.568q-.512.123-.985.278.406.63.807 1.264c.06-.018.12-.036.182-.053a1.032 1.032 0 01.178-.044.81.81 0 00.482-.27.752.752 0 00.157-.54.763.763 0 00-.27-.485.785.785 0 00-.442-.169.4.4 0 00-.109.019" fill="#cc3e4c"/><path id="Path_86" data-name="Path 86" d="M556.942 87.455l.009-.011-.009.011" fill="#cc3e4c"/><path id="Path_88" data-name="Path 88" d="M617.333 59.55a40.636 40.636 0 015.386 8.45 61.02 61.02 0 013.623 9.538 72.268 72.268 0 012.091 9.484c.109.718.212 1.441.3 2.163.12 1.007.219 2.014.307 3.026.2 2.215.365 4.433.65 6.641v-.025a35.986 35.986 0 00.708 3.915c.163.685.346 1.364.568 2.032q.285.876.639 1.722c-.007-.018-.018-.037-.026-.054a18.3 18.3 0 001.055 2.116c.172.3.35.591.544.876.179.258.365.511.554.766a.06.06 0 01.018.023l.012.015-.007-.008a17.226 17.226 0 001.6 1.749c.572.536 1.171 1.04 1.788 1.518a51.92 51.92 0 002.514 1.78c.8.537 1.6 1.065 2.394 1.62a34.476 34.476 0 012.2 1.639 30.553 30.553 0 012.566 2.343 23.384 23.384 0 011.966 2.287 16.138 16.138 0 011.514 2.391 13.335 13.335 0 01.9 2.211 11.4 11.4 0 01.442 2.186 11.562 11.562 0 01-.011 2.481 13.924 13.924 0 01-.42 2.149 19.991 19.991 0 01-1.9 4.415 41.254 41.254 0 01-3.128 4.6 82.323 82.323 0 01-2.762 3.386c-.295.345-.6.688-.876 1.04l-.019.024a10.422 10.422 0 00-.825 1.211 12.144 12.144 0 00-.617 1.222l-.005.014-.005.016.005-.016a9.741 9.741 0 00-.429 1.289 12.56 12.56 0 00-.226 1.153c0-.022.007-.044.011-.062a11.36 11.36 0 00-.092 1.671 14.576 14.576 0 00.125 1.529c0-.022-.008-.043-.011-.062a19.007 19.007 0 00.679 2.945 35.992 35.992 0 001.123 3.014l-.021-.054c1.408 3.308 3.159 6.461 4.579 9.768a34.937 34.937 0 011.792 5 23.87 23.87 0 01.507 2.5 15.839 15.839 0 01.171 2.382 15.661 15.661 0 01-.2 2.4 29.672 29.672 0 01-.545 2.568 28.553 28.553 0 01-1.721 4.821 28.061 28.061 0 01-2.555 4.408 30.241 30.241 0 01-3.146 3.744 33.842 33.842 0 01-8 5.918 40.273 40.273 0 01-9.5 3.62 43.784 43.784 0 01-10.187 1.258 42.349 42.349 0 01-5.174-.287c-1.019-.125-2.033-.27-3.044-.424q-1.57-.24-3.131-.51c-4.284-.745-8.539-1.639-12.8-2.5a326.672 326.672 0 00-5.46-1.064q.618.414 1.249.812a53.668 53.668 0 0012.9 5.82 71.937 71.937 0 0013.888 2.722 102.056 102.056 0 0010.271.5c.741 0 1.482-.008 2.223-.019a109 109 0 008.363-.492 93.073 93.073 0 0017.913-3.481 54.256 54.256 0 0016.179-7.717 34.083 34.083 0 006.225-5.8 27.731 27.731 0 004.335-7.276 28.679 28.679 0 001.967-8.882 24.44 24.44 0 00-.124-5.09 18.546 18.546 0 00-1.4-4.755 25.983 25.983 0 00-2.408-4.222c-.956-1.4-2-2.7-2.992-3.907l-1.018-1.231a56.163 56.163 0 01-4.886-6.516 27.122 27.122 0 01-.329-.559 19.251 19.251 0 01-1.747-4.276 18.719 18.719 0 01-.336-1.81 16.879 16.879 0 01-.128-2.4 24.684 24.684 0 01.379-3.707 37.692 37.692 0 01.938-3.908c.333-1.135.7-2.27 1.07-3.4a59.6 59.6 0 002.123-7.67 21.542 21.542 0 00.285-5.761 17.967 17.967 0 00-1.7-6.036 25.7 25.7 0 00-3.357-5.247 37.162 37.162 0 00-4.138-4.213 109.988 109.988 0 00-3.54-2.97l-1.026-.839c-1.3-1.058-2.986-2.47-4.561-4.01-.267-.259-.53-.525-.785-.792l-.073-.062a34.692 34.692 0 01-2.645-3.236 40.63 40.63 0 01-2.365-3.766c-1.135-2.058-2.182-4.248-3.106-6.178l-.05-.113-.092-.193-.131-.27c-.828-1.73-1.689-3.522-2.616-5.233a45.337 45.337 0 00-7.455-10.2 54.8 54.8 0 00-10.071-8.2 33.05 33.05 0 00-2.872-1.816 24.118 24.118 0 00-.773-.427c-.34-.212-.687-.421-1.045-.621q-.4-.235-.808-.454.934.927 1.783 1.932m12.352 39.259a.028.028 0 000 .019.028.028 0 010-.019" fill="#cc3e4c"/><path id="Path_89" data-name="Path 89" d="M642.541 148.028a.087.087 0 01.016-.022.072.072 0 00-.018.024" fill="#cc3e4c"/><path id="Path_90" data-name="Path 90" d="M625.911 83.838a.233.233 0 00-.128.3c.172.555.332 1.118.474 1.679-.007-.021-.011-.04-.017-.062.484 1.97.838 3.974 1.149 5.977l.229 1.489c.084.54.186 1.08.282 1.62.185 1.037.394 2.073.616 3.1.88 4.076 2.164 8.2 4.682 11.578a17.633 17.633 0 002.2 2.408 15.615 15.615 0 001.23 1.029c.475.358.971.672 1.47.992a.828.828 0 00.566.165.792.792 0 00.7-.865.75.75 0 00-.3-.533 13.874 13.874 0 01-1.3-1c-.359-.306-.7-.628-1.042-.959a22.752 22.752 0 01-3.315-4.507 47.685 47.685 0 01-4.09-10.977c-.263-.974-.511-1.952-.773-2.923s-.508-1.922-.767-2.879c-.493-1.842-.989-3.685-1.555-5.5a.224.224 0 00-.22-.146.229.229 0 00-.086.015m10.669 26.783c.037.035.072.07.107.106l-.107-.106" fill="#cc3e4c"/><path id="Path_91" data-name="Path 91" d="M627.372 82.391a.5.5 0 00-.437.548v.06a2.107 2.107 0 00-.207.625 4.353 4.353 0 00-.047.694c0 .263.011.529.032.792.052.645.154 1.288.263 1.927.132.758.285 1.51.445 2.261l.074.34.068.511q.247 1.79.643 3.561c.138.609.295 1.216.467 1.817s.372 1.2.558 1.807a.632.632 0 00.6.4 43.827 43.827 0 004.919 9.255.285.285 0 00.4.054.288.288 0 00.059-.4c-.7-1-1.344-2.044-1.945-3.105l.036.069a45.7 45.7 0 01-2.9-6.231.686.686 0 00.067-.352 8.148 8.148 0 00-.172-1.054 70.49 70.49 0 00-.318-1.474c-.28-1.231-.572-2.46-.853-3.693a80.999 80.999 0 01-.788-3.824q-.051-.284-.1-.569l-.08-.851c-.048-.522-.089-1.045-.132-1.568a2.272 2.272 0 01.049-.326l.006-.017a.651.651 0 00.088-.877.642.642 0 00-.4-.247.5.5 0 00-.341-.139.578.578 0 00-.058 0m.642 1.771zm1.354 9.435c.008.026.014.051.02.075l-.02-.075" fill="#cc3e4c"/><path id="Path_92" data-name="Path 92" d="M625.6 82.851a.272.272 0 00-.241.3c.237 1.435.489 2.865.773 4.288q.45 2.222 1.005 4.419a57.082 57.082 0 002.809 8.509.351.351 0 10.653-.259q-.975-2.322-1.751-4.718a71.707 71.707 0 01-1.409-4.933c.008.025.014.054.022.084q-.919-3.695-1.566-7.448a.269.269 0 00-.262-.239h-.033" fill="#cc3e4c"/><path id="Path_93" data-name="Path 93" d="M626.02 84.481a.327.327 0 00-.285.354 63.925 63.925 0 004.04 16.387.379.379 0 10.7-.281 78.642 78.642 0 01-1.478-4.123q-.669-2.06-1.2-4.158a.245.245 0 00.012.038 60.089 60.089 0 01-1.441-7.932.333.333 0 00-.323-.287h-.031" fill="#cc3e4c"/><path id="Path_94" data-name="Path 94" d="M626.813 79.519a.731.731 0 00-.626.574.444.444 0 00-.191.422q.342 2.008.748 4.006l.021.136q.34 2.151.8 4.276a54.816 54.816 0 002.425 8.29l.023.089a.387.387 0 00.063.131c.005.015.012.029.018.043a.746.746 0 101.386-.554q-.581-1.562-1.079-3.148c-.071-.314-.145-.63-.217-.946-.32-1.4-.649-2.795-.963-4.2s-.624-2.806-.9-4.219a82.363 82.363 0 01-.465-2.515c-.081-.583-.158-1.166-.243-1.747a.732.732 0 00-.726-.646h-.073" fill="#cc3e4c"/><path id="Path_95" data-name="Path 95" d="M624.922 81.453a.236.236 0 00-.208.255 95.369 95.369 0 002.229 10.323 50.876 50.876 0 003.919 10.068.366.366 0 00.18.182.332.332 0 00.44-.176.314.314 0 000-.258 49.988 49.988 0 01-2.762-6.2 65.627 65.627 0 01-2.047-6.739c0 .026.012.047.015.069-.6-2.415-1.1-4.86-1.511-7.316a.238.238 0 00-.233-.2h-.026" fill="#cc3e4c"/><path id="Path_96" data-name="Path 96" d="M552.342 125.68a.384.384 0 00-.362.4 14 14 0 01.08 2.865v-.071a14.681 14.681 0 01-.8 3.66l.031-.091a19.484 19.484 0 01-2.318 4.4l.107-.15a32.2 32.2 0 01-2.6 3.245c-.967 1.068-2 2.075-3.028 3.086-2.087 2.055-4.306 3.974-6.379 6.047a36.6 36.6 0 00-5.44 6.652 19.38 19.38 0 00-1.788 3.8 15.261 15.261 0 00-.773 4.108 15.638 15.638 0 00.66 5.2 18.641 18.641 0 001 2.632c.248.54.511 1.068.8 1.587.266.5.58.959.871 1.438a1.034 1.034 0 001.872-.343 1.1 1.1 0 00-.145-.792c-.056-.1-.106-.2-.156-.305s-.1-.209-.151-.312l.121.248a28.855 28.855 0 01-1.252-2.915 19.464 19.464 0 01-.736-2.663 15.5 15.5 0 01-.185-3.663 15.059 15.059 0 01.782-3.493 21.229 21.229 0 012.334-4.42 56.328 56.328 0 015.427-6.422c1.007-1.065 2-2.142 3.007-3.2s2.011-2.113 2.952-3.226A34.1 34.1 0 00551.05 136a18.932 18.932 0 001.386-3.813 16.6 16.6 0 00.449-4.076 17.062 17.062 0 00-.145-2.069.39.39 0 00-.379-.362h-.019m-18.375 47.367c.04.078.075.158.115.241-.038-.081-.076-.162-.115-.241" fill="#cc3e4c"/><path id="Path_97" data-name="Path 97" d="M541.238 151.776a27.512 27.512 0 00-1.4 2.508 21.571 21.571 0 00-1.113 2.725 20.941 20.941 0 00-1.065 5.77 19 19 0 00.587 5.648 17.449 17.449 0 002.481 5.4.563.563 0 00.763.161.556.556 0 00.157-.763 19.88 19.88 0 01-1.248-2.125.125.125 0 01.012.026l-.032-.07c-.011-.019-.02-.039-.03-.058l.013.024a19.157 19.157 0 01-1.46-4.429l.009.063c-.006-.041-.014-.081-.021-.122v-.017.01a19.7 19.7 0 01-.26-4.88v.024a21.826 21.826 0 011.211-5.565c.256-.7.541-1.387.861-2.057a20.586 20.586 0 011.106-1.985.322.322 0 00-.138-.431.307.307 0 00-.14-.034.354.354 0 00-.291.172m-.857 19.285l.02.044a.8.8 0 00-.037-.078zm-1.489-4.522c0 .02.008.04.012.059 0-.021-.009-.044-.014-.066v.007" fill="#cc3e4c"/><path id="Path_98" data-name="Path 98" d="M632.882 112.557a.628.628 0 00-.588.653 12.516 12.516 0 00.475 2.785 11.815 11.815 0 001.091 2.473 29.024 29.024 0 003.328 4.317l-.04-.049a23.3 23.3 0 013.231 4.586 11.8 11.8 0 01.882 2.652 9.784 9.784 0 01.1 2.21 13.373 13.373 0 01-.717 3.061 31.55 31.55 0 01-1.685 3.646c-.62 1.19-1.262 2.369-1.882 3.558a69.656 69.656 0 00-2.9 6.226 51.1 51.1 0 00-2.274 6.787 34 34 0 00-.988 6.933 21.883 21.883 0 001.675 9.552 21.192 21.192 0 006.783 8.467 1.367 1.367 0 00.927.327 1.283 1.283 0 00.791-2.236 25.084 25.084 0 01-2.928-2.81 19.134 19.134 0 01-2.476-3.778 20.177 20.177 0 01-1.465-4.546 25.118 25.118 0 01-.284-5.993 44.849 44.849 0 012.568-11.122c.778-2.135 1.674-4.225 2.608-6.3.536-1.185 1.127-2.349 1.69-3.52a39.2 39.2 0 001.667-3.945 17.7 17.7 0 00.532-1.77 13.255 13.255 0 00.3-2.036 10.862 10.862 0 00-.435-3.842 11.586 11.586 0 00-.788-1.927 15.765 15.765 0 00-1.193-1.989 27.267 27.267 0 00-2.249-2.74c-.678-.755-1.376-1.491-2.042-2.256a15.5 15.5 0 01-2.09-3.009l.024.054c-.013-.026-.024-.053-.036-.079s-.025-.046-.037-.071a.5.5 0 01.026.052 10.62 10.62 0 01-.818-2.525l.033.164a11.805 11.805 0 01-.157-1.372.625.625 0 00-.62-.589h-.033m7.425 14.615l.061.127-.061-.127m-3.71 22.82l-.081.228.081-.228m-2.652 11.239v.041zm4.249 14.51l.063.076zm-3.71-58.843l.012.025-.023-.044.011.019" fill="#cc3e4c"/><path id="Path_99" data-name="Path 99" d="M624.417 127.069a.45.45 0 00-.127.616 16.573 16.573 0 011.244 2.139v-.006a16 16 0 011.167 3.623 19.594 19.594 0 01.254 5.043 32.055 32.055 0 01-1.014 5.3c-.471 1.814-1.061 3.591-1.671 5.364a75.321 75.321 0 00-3.127 10.579 26.309 26.309 0 00-.442 4.246 18.141 18.141 0 00.405 4.11 15.516 15.516 0 004.167 7.534 1.226 1.226 0 001.73-.09 1.209 1.209 0 00.314-.884c-.019-.109-.04-.215-.062-.324a1.17 1.17 0 00-.343-.522c-.1-.112-.2-.224-.294-.337a15.822 15.822 0 01-1.929-2.886 14.436 14.436 0 01-1.079-3.247 18.777 18.777 0 01-.189-4.524c-.006.058-.012.115-.016.171 0-.063.011-.125.017-.188s.008-.113.013-.17l-.012.154a56.969 56.969 0 012.27-10.319c.514-1.8 1-3.613 1.431-5.438a44.059 44.059 0 001-5.451 34.788 34.788 0 00.216-3.751 20.554 20.554 0 00-.337-3.6 18.366 18.366 0 00-2.966-7.017.464.464 0 00-.379-.2.427.427 0 00-.242.074m2.295 6.438l.015.075-.015-.075m.235 5.058c0 .025 0 .048-.005.071 0-.023 0-.046.005-.071M624.6 170.4l.077.154c-.027-.052-.052-.1-.077-.154m-1.177-7.607v-.016.016" fill="#cc3e4c"/><path id="Path_100" data-name="Path 100" d="M606.046 129.468a10.607 10.607 0 00-2.75.4 20.123 20.123 0 00-4.651 2 32.6 32.6 0 00-4.26 2.9 26.393 26.393 0 00-2.41 2.139c-.178.178-.353.365-.525.555a21.252 21.252 0 00-.308-1.828.7.7 0 00-.691-.522.611.611 0 00-.182.026.719.719 0 00-.5.872c.113.544.212 1.087.289 1.635a14.223 14.223 0 01.094 3.332 6.551 6.551 0 01-.357 1.443 3.991 3.991 0 01-.4.7 3.179 3.179 0 01-.423.43 3.388 3.388 0 01-.511.294 3.831 3.831 0 01-.717.189 4.947 4.947 0 01-.529.027c-.2 0-.4-.011-.607-.031a12.873 12.873 0 01-2.953-.919l.161.091q-.673-.315-1.355-.618a28 28 0 00-3.317-1.326 10.889 10.889 0 00-2.395-.4 13.88 13.88 0 00-1.115-.049c-.138 0-.277 0-.416.009a7.088 7.088 0 00-1.56.251.713.713 0 00-.5.526.515.515 0 00-.117.241 25.381 25.381 0 00-.26 6.34 21.854 21.854 0 001.325 5.8 20.506 20.506 0 002.8 5.053 20.913 20.913 0 001.935 2.211 21.278 21.278 0 002.27 1.932 22.816 22.816 0 005.4 2.942 25.323 25.323 0 005.814 1.494 34.256 34.256 0 004.589.3 42.386 42.386 0 006.5-.526 35.027 35.027 0 0011.214-3.617 18.414 18.414 0 007.842-7.462c.065-.124.128-.249.189-.376s.119-.238.181-.356.124-.235.181-.356a.84.84 0 00.091-.425.656.656 0 00-.048-.606 7.324 7.324 0 00-.845-1.077 10.775 10.775 0 00-.893-.821l-.18-.154a23.2 23.2 0 00-2.362-1.77c-.573-.377-1.16-.734-1.745-1.09a35.05 35.05 0 01-2.95-1.931 11.935 11.935 0 01-1.9-1.849 9.279 9.279 0 01-.981-1.666 11.128 11.128 0 01-.689-2.613l-.007.1.011.093a22.321 22.321 0 01.161-5.6c.127-.915.28-1.828.434-2.739.122-.721.242-1.44.351-2.161a.743.743 0 00-.071-.547.709.709 0 00-.426-.325.662.662 0 00-.547.07.68.68 0 00-.325.426c-.02.139-.042.273-.064.41-.165-.119-.349-.277-.546-.423a5.154 5.154 0 00-1.809-.848 6.557 6.557 0 00-1.637-.2" fill="#f9c29d"/><path id="Path_101" data-name="Path 101" d="M603.288 129.857a19.748 19.748 0 00-4.649 2 32.569 32.569 0 00-4.269 2.893 26.877 26.877 0 00-2.408 2.138c-.178.18-.354.366-.526.555a13.775 13.775 0 00-.276-1.82.721.721 0 00-.708-.537.66.66 0 00-.19.033.738.738 0 00-.511.886c.113.544.211 1.088.288 1.635a13.843 13.843 0 01.095 3.335 7.43 7.43 0 01-.163.832q1.1.147 2.206.223c-.018 0-.04 0-.062-.008a34.417 34.417 0 008.976-.536l-.061.011a24.32 24.32 0 005.859-1.93 17.911 17.911 0 001.871-1.062 16.76 16.76 0 001.609-1.2l-.007.006c.063-.053.125-.107.187-.162.045-.478.1-.931.156-1.348.113-.788.241-1.572.369-2.361l.061-.375.063-.354.073-.431c.076-.459.149-.916.218-1.38a.715.715 0 00-.073-.551.707.707 0 00-.434-.335.628.628 0 00-.193-.037.686.686 0 00-.368.11.7.7 0 00-.34.442l-.051.35a.954.954 0 01-.256-.168l-.27-.212a5.1 5.1 0 00-1.817-.85 6.582 6.582 0 00-1.638-.2 10.62 10.62 0 00-2.759.412" fill="#dead8b"/><path id="Path_102" data-name="Path 102" d="M610.378 137.3l.026-.021a.149.149 0 00-.026.021" fill="#dead8b"/><path id="Path_103" data-name="Path 103" d="M590.265 65.5a48.382 48.382 0 00-5.96.369A44.447 44.447 0 00573.1 68.7a38.935 38.935 0 00-4.416 2.111 32.432 32.432 0 00-4.053 2.719 25.63 25.63 0 00-6.156 6.891.911.911 0 00-.074.786 65.463 65.463 0 00-2.924 14.406 62.758 62.758 0 00.488 15.532 49.635 49.635 0 001.753 7.354 37.188 37.188 0 002.865 6.744 27.449 27.449 0 003.928 5.389 26.979 26.979 0 004.906 4.11 31.448 31.448 0 0011.92 4.577 42.285 42.285 0 006.756.628h.463a41.145 41.145 0 006.388-.521 42.2 42.2 0 0013.124-4.386 37.459 37.459 0 0010.789-8.447 32.19 32.19 0 003.234-4.445c.472-.783.96-1.646 1.537-2.719a19.17 19.17 0 001.019-2.184 9.113 9.113 0 002.752.583c.2.011.393.018.588.018a12.143 12.143 0 002.83-.358 12.578 12.578 0 003.211-1.292 11.087 11.087 0 005.244-6.954 9.273 9.273 0 00-.23-4.839 10.506 10.506 0 00-2.454-4.054 10.253 10.253 0 00-3.781-2.524 9.331 9.331 0 00-3.349-.636 7.958 7.958 0 00-1.282.1 9.191 9.191 0 00-4.617 2.189c-.168.15-.332.3-.494.456.054-1.957.081-3.878.013-5.784a45.1 45.1 0 00-.744-6.891 27.853 27.853 0 00-2.063-6.435 22.264 22.264 0 00-3.88-5.739 27.722 27.722 0 00-9.681-6.485 40.9 40.9 0 00-10.864-2.763 47.29 47.29 0 00-5.581-.331" fill="#f9c29d"/><path id="Path_104" data-name="Path 104" d="M584.3 65.851a44.507 44.507 0 00-11.2 2.832 38.352 38.352 0 00-4.419 2.109 32.214 32.214 0 00-4.054 2.718 25.509 25.509 0 00-6.159 6.9.9.9 0 00-.077.8 65.5 65.5 0 00-2.927 14.4q-.158 1.69-.224 3.39a19.234 19.234 0 013.056-3.423c2.435-2.2 5.178-4.014 7.722-6.076-.015.01-.033.025-.048.037a22.69 22.69 0 003.939-3.926l-.005.006.005-.006.008-.01.009-.013-.009.013.011-.014c.234-.321.46-.645.675-.985.135-.208.262-.42.409-.621a1.351 1.351 0 01.715-.6 1.648 1.648 0 01.4-.048h.15c.252.015.5.048.752.084.383.055.769.113 1.156.164.58.077 1.164.142 1.748.2-.022 0-.044 0-.066-.007 1.453.142 2.908.241 4.361.4.712.08 1.426.168 2.135.288q1.023.176 2.028.427a31.766 31.766 0 016.963 2.638 37.9 37.9 0 016.119 4.018q1.488 1.188 2.883 2.481c.854.8 1.678 1.617 2.5 2.445a45.6 45.6 0 005.134 4.689l-.008-.006-.011-.009.011.009a17.571 17.571 0 001.683 1.089 14.656 14.656 0 001.849.884l-.058-.026a12.059 12.059 0 002.9.719 9.314 9.314 0 001.305.043 10 10 0 001.131-.109.326.326 0 00-.062.007 8.989 8.989 0 001.2-.281 9.82 9.82 0 001.1-.413h-.013l.039-.017.013-.008-.013.008a9.676 9.676 0 001.027-.563 11.254 11.254 0 00.949-.675h-.011a10.371 10.371 0 00.989-.92 12.7 12.7 0 00.875-1.047l-.036.048c.077-.106.152-.213.226-.321.085-2.04.092-3.822.033-5.431a45.346 45.346 0 00-.744-6.889 27.757 27.757 0 00-2.065-6.443 22.288 22.288 0 00-3.883-5.748 27.8 27.8 0 00-9.692-6.48 40.882 40.882 0 00-10.87-2.77 47.122 47.122 0 00-5.583-.332 48.835 48.835 0 00-5.962.368m23.634 35.271a.274.274 0 01.029.022.274.274 0 00-.029-.022" fill="#e8b592"/><path id="Path_105" data-name="Path 105" d="M636.922 113.635a8.476 8.476 0 01-2.069 1.259 11.294 11.294 0 01-2.583.744 14.89 14.89 0 01-3.413.179 13.987 13.987 0 01-3.419-.613 11.771 11.771 0 01-2.891-1.336 10.1 10.1 0 01-.5 1.748 19.008 19.008 0 01-.8 1.763 41.746 41.746 0 01-1.675 3 34.953 34.953 0 01-3.689 4.908 38.624 38.624 0 01-9.6 7.67 43.884 43.884 0 01-11.563 4.543 44.455 44.455 0 01-12.4 1.168 41.225 41.225 0 01-6.124-.749c-.262-.055-.528-.109-.792-.168a35.127 35.127 0 005.934 1.588 42.936 42.936 0 006.757.627h.464a41.839 41.839 0 006.389-.517 42.378 42.378 0 0013.129-4.4 37.494 37.494 0 0010.8-8.444 31.822 31.822 0 003.233-4.456c.433-.708.908-1.547 1.539-2.718a18.421 18.421 0 001.019-2.182 8.791 8.791 0 002.736.6c.2.011.394.014.587.014a12.334 12.334 0 002.836-.36 12.472 12.472 0 003.215-1.3 10.7 10.7 0 002.6-2.054 11.456 11.456 0 00.866-1.053c-.186.188-.38.366-.584.535" fill="#e8b592"/><path id="Path_107" data-name="Path 107" d="M625.355 102.03a.534.534 0 00.149.723c.116.085.231.172.341.265a6.54 6.54 0 01.964 1.078 8.96 8.96 0 01.949 1.847 9.15 9.15 0 01.386 4.731 7.194 7.194 0 01-.564 1.734 5.745 5.745 0 01-.73 1.109.543.543 0 00.037-.047c-.069.08-.142.157-.215.233a.234.234 0 10.314.348 8 8 0 001.945-6.2 10.267 10.267 0 00-.807-3.34 7.329 7.329 0 00-.843-1.43 5.756 5.756 0 00-1.2-1.2.451.451 0 00-.273-.089.554.554 0 00-.449.234m2.913 6.317v.029-.029m-.126 2.337v.02-.02" fill="#c79b7d"/><path id="Path_108" data-name="Path 108" d="M630.274 101.256a5.547 5.547 0 00-.88.153 4.835 4.835 0 00-1.477.657 4.333 4.333 0 00-.668.547 3.442 3.442 0 00-.507.7.429.429 0 00-.055.3.406.406 0 00.169.247.4.4 0 00.3.055.412.412 0 00.248-.168c.039-.05.081-.1.123-.152a6.313 6.313 0 01.971-.883 6.014 6.014 0 011.112-.577c.183-.062.37-.118.556-.168a4.668 4.668 0 01.686-.111 5.176 5.176 0 011.113.055h-.005c.14.027.273.059.411.1a.3.3 0 00.368-.186.29.29 0 00-.183-.369 6.153 6.153 0 00-1.561-.238h-.063c-.221 0-.44.017-.66.037m.65.6h-.028.028" fill="#c79b7d"/><path id="Path_109" data-name="Path 109" d="M586.046 432.456a.715.715 0 00-.5.207.681.681 0 00-.207.5l.152 1.165.137 1.027a116.132 116.132 0 00-18.3 2.089c-.2-.669-.4-1.352-.6-2.034a.715.715 0 00-.683-.521.64.64 0 00-.189.026.71.71 0 00-.429.337.692.692 0 00-.066.536c.942 3.29 2.083 6.575 3.186 9.753.8 2.3 1.626 4.682 2.371 7.047a.752.752 0 00.314.41.576.576 0 00.22.158 16.986 16.986 0 004.01.752c.638.05 1.3.076 1.958.076.892 0 1.818-.046 2.754-.139a24.134 24.134 0 004.629-.908 13.074 13.074 0 003.776-1.789.686.686 0 00.232-.293.7.7 0 00.273-.261.754.754 0 00.071-.547 611.376 611.376 0 01-1.554-10.643q-.181-1.287-.354-2.573l-.037-.275-.036-.275-.015-.109-.014-.108a1.062 1.062 0 00-.023-.149l-.182-1.377-.182-1.377a.805.805 0 00-.207-.5.715.715 0 00-.5-.207" fill="#f9c29d"/><path id="Path_110" data-name="Path 110" d="M585.528 432.648a.73.73 0 00-.215.518l.153 1.168.135 1.024c-.527.025-1.065.051-1.611.08q1.605 8.262 3.354 16.494a10.865 10.865 0 001.239-.766.66.66 0 00.24-.3.592.592 0 00.273-.263.726.726 0 00.077-.551 561.027 561.027 0 01-1.554-10.644q-.182-1.287-.355-2.573l-.036-.277-.036-.273-.014-.11-.015-.106c0-.047-.012-.1-.022-.157l-.183-1.372-.182-1.375a.822.822 0 00-.212-.518.736.736 0 00-1.036 0" fill="#e8b592"/><path id="Path_111" data-name="Path 111" d="M588.411 448.516a21.17 21.17 0 01-2.565 1.1 25.681 25.681 0 01-5.733 1.265 28.5 28.5 0 01-5.977.027 25.565 25.565 0 01-4.186-.785c-.641.467-1.338.875-2.01 1.269l-.27.157c-.587.343-1.175.687-1.766 1.026s-1.178.678-1.766 1.025a84.7 84.7 0 00-8.225 5.335 27.293 27.293 0 00-3.375 2.937 15.7 15.7 0 00-1.318 1.574 7.965 7.965 0 00-.85 1.466 6.872 6.872 0 00-.295.806 5.168 5.168 0 00-.157.865 3.782 3.782 0 00.142 1.514 5.744 5.744 0 002.653 3.062 11 11 0 002.821 1.15 20.1 20.1 0 003.218.551 37.8 37.8 0 003.89.171c.813 0 1.623-.014 2.434-.029l.6-.012c1.007-.017 2.014-.032 3.021-.086a70.371 70.371 0 004.5-.421c3.084-.379 6.109-.938 8.94-1.478l.61-.116c.894-.168 1.821-.339 2.722-.554a12.064 12.064 0 002.755-.99 6.87 6.87 0 001.149-.766 6.3 6.3 0 001.04-1.1 7.68 7.68 0 001.314-3.028 18.757 18.757 0 00.438-3.836 34.274 34.274 0 00-.151-3.9 25.3 25.3 0 00-.609-3.94 22.716 22.716 0 00-1.405-4l-.141-.3a.616.616 0 00-.369-.318.5.5 0 00-.063-.052c-.081 0-.163-.008-.243-.011-.252.145-.512.285-.774.421" fill="#38365e"/><path id="Path_112" data-name="Path 112" d="M555.9 458.914a28.281 28.281 0 00-3.375 2.938 16.021 16.021 0 00-1.318 1.572 8.134 8.134 0 00-.851 1.475 6.274 6.274 0 00-.3.807 5.545 5.545 0 00-.161.871 3.918 3.918 0 00.146 1.522 5.725 5.725 0 002.664 3.068 10.913 10.913 0 002.821 1.15 19.951 19.951 0 003.225.558 37.5 37.5 0 003.89.172c.814 0 1.624-.015 2.43-.029l.606-.011.251-.008a75.261 75.261 0 002.77-.08 75.79 75.79 0 004.5-.42c3.079-.382 6.1-.941 8.939-1.477l.609-.117.136-.025.127-.026c.811-.154 1.65-.311 2.463-.511a11.894 11.894 0 002.759-.989 6.928 6.928 0 001.153-.767 6.279 6.279 0 001.044-1.1 7.465 7.465 0 001.272-2.864q-1.011.538-2.057 1.006a45.086 45.086 0 01-6.656 2.371 58.406 58.406 0 01-21.156 1.7.263.263 0 01-.165-.068h-.01a.234.234 0 01-.245-.222 16.609 16.609 0 00-.014-1.919 18.6 18.6 0 00-.23-1.9l.01.048a15.931 15.931 0 00-.5-2 14.784 14.784 0 00-.685-1.721 12.414 12.414 0 00-.792-1.409 12.634 12.634 0 00-.858-1.16.145.145 0 00-.021-.026l-.008-.008.008.008a11.032 11.032 0 00-1.011-1.04 8.093 8.093 0 00-.26-.226c-.386.277-.773.558-1.152.846" fill="#f6ddc0"/><path id="Path_113" data-name="Path 113" d="M562.142 453.878a.705.705 0 00-.4.358.7.7 0 00-.029.532.751.751 0 00.354.4c.04.025.081.05.121.08-.052-.032-.1-.066-.15-.1a5.187 5.187 0 011.777 2 7.412 7.412 0 01.325.8.7.7 0 001.325-.459 7.279 7.279 0 00-1.066-2.026 6.691 6.691 0 00-.789-.853 6.573 6.573 0 00-.93-.7.535.535 0 00-.29-.073.793.793 0 00-.246.04" fill="#f6ddc0"/><path id="Path_114" data-name="Path 114" d="M564.463 452.368a.707.707 0 00.077.989 8.634 8.634 0 011.166 1.045 8.049 8.049 0 011.012 1.472c.071.153.139.3.2.461a.7.7 0 001.324-.456 8.459 8.459 0 00-1.1-1.934 8.6 8.6 0 00-1.69-1.653.788.788 0 00-.47-.163.681.681 0 00-.519.239m2.219 3.43l.026.055a.702.702 0 01-.026-.055m.056.113l.028.056-.028-.056" fill="#f6ddc0"/><path id="Path_115" data-name="Path 115" d="M567.471 450.708a.708.708 0 00.076.989 8.065 8.065 0 011.05.962 10.234 10.234 0 011.283 1.9l-.044-.09.06.119a.49.49 0 01.023.046l-.02-.041.072.15a.756.756 0 00.357.4.718.718 0 00.533.033.7.7 0 00.4-.358.668.668 0 00.033-.536 12 12 0 00-1.2-2 8.588 8.588 0 00-1.635-1.653.778.778 0 00-.468-.161.681.681 0 00-.521.238m2.43 3.894l-.016-.029.019.034" fill="#f6ddc0"/><path id="Path_116" data-name="Path 116" d="M617.858 431.85a15.368 15.368 0 00-4.533 1.438 8.135 8.135 0 00-3.138 2.653.57.57 0 00-.2-.033.788.788 0 00-.182.022.728.728 0 00-.5.872l.029.113.138.58a.761.761 0 00.205.8 87.458 87.458 0 002.131 6.925c.653 1.872 1.372 3.77 2.2 5.806a.622.622 0 00-.375.288l.419 1.069.23.11.408.19c.1.244.2.492.306.741a.806.806 0 00.329.423.705.705 0 00.354.094.641.641 0 00.19-.025.7.7 0 00.423-.325.685.685 0 00.059-.134c.394.189.8.371 1.2.551a38.381 38.381 0 005.126 1.882 19.054 19.054 0 002.613.551 13.024 13.024 0 001.748.132c.255 0 .515-.011.77-.033a7.443 7.443 0 001.16-.187 5.826 5.826 0 001.127-.4 4.641 4.641 0 001.7-1.391l.127.855.124.737a.719.719 0 00.69.521.713.713 0 00.187-.025.735.735 0 00.423-.325.758.758 0 00.069-.548l-.661-3.919c-1-5.943-2.044-12.088-2.963-18.15a.662.662 0 00-.328-.419.7.7 0 00-.361-.1.9.9 0 00-.186.025.721.721 0 00-.42.329.7.7 0 00-.077.182 6.475 6.475 0 00-1.254-.836 12.454 12.454 0 00-4.395-1.208 16.282 16.282 0 00-1.761-.094 19.927 19.927 0 00-3.164.266" fill="#f9c29d"/><path id="Path_117" data-name="Path 117" d="M627.566 436.237c.244 1.409.511 2.817.748 4.225.463 2.722.871 5.452 1.328 8.174.384 2.275.8 4.555 1.316 6.811a5 5 0 00.863-.874l.094.843.124.737a.743.743 0 00.708.54.605.605 0 00.194-.029.722.722 0 00.43-.332.763.763 0 00.077-.555l-.66-3.918-.073-.431c-1.07-6.328-2.029-12.031-2.891-17.72a.767.767 0 00-.711-.543c-.044 0-.095.011-.15.017a.775.775 0 00-.471.351.562.562 0 00-.076.183 5.153 5.153 0 00-1.233-.844l-.181-.09q.27 1.729.564 3.455" fill="#e8b592"/><path id="Path_118" data-name="Path 118" d="M614.721 450.476a20.788 20.788 0 002.565 1.1 25.663 25.663 0 005.732 1.266 28.5 28.5 0 005.977.026 25.564 25.564 0 004.186-.785c.642.467 1.338.875 2.01 1.27l.27.157c.588.342 1.175.686 1.766 1.025s1.178.679 1.766 1.025a84.881 84.881 0 018.225 5.335 27.213 27.213 0 013.375 2.938 15.58 15.58 0 011.318 1.573 8.032 8.032 0 01.85 1.466 6.811 6.811 0 01.3.807 5.18 5.18 0 01.157.865 3.783 3.783 0 01-.142 1.514 5.746 5.746 0 01-2.653 3.061 10.965 10.965 0 01-2.821 1.15 19.982 19.982 0 01-3.218.551 37.516 37.516 0 01-3.89.171c-.813 0-1.623-.014-2.434-.029l-.6-.011c-1.007-.018-2.014-.033-3.021-.087a70.169 70.169 0 01-4.5-.42c-3.084-.38-6.108-.938-8.94-1.478l-.61-.117c-.894-.167-1.82-.339-2.722-.554a12.113 12.113 0 01-2.755-.989 7 7 0 01-1.149-.766 6.341 6.341 0 01-1.04-1.1 7.7 7.7 0 01-1.323-3.04 18.8 18.8 0 01-.438-3.835 34.254 34.254 0 01.151-3.9 25.407 25.407 0 01.609-3.94 22.8 22.8 0 011.405-4l.142-.3a.61.61 0 01.369-.318.429.429 0 01.061-.052l.244-.01c.251.145.512.284.775.42" fill="#38365e"/><path id="Path_119" data-name="Path 119" d="M647.233 460.876a28.254 28.254 0 013.375 2.938 15.78 15.78 0 011.317 1.572 8.094 8.094 0 01.851 1.474 6.287 6.287 0 01.3.807 5.7 5.7 0 01.16.871 3.918 3.918 0 01-.145 1.522 5.74 5.74 0 01-2.664 3.069 10.972 10.972 0 01-2.822 1.15 19.942 19.942 0 01-3.225.557 37.489 37.489 0 01-3.89.172c-.813 0-1.623-.015-2.429-.029l-.607-.011-.251-.007a75.263 75.263 0 01-2.77-.081 75.731 75.731 0 01-4.5-.419c-3.079-.383-6.1-.942-8.94-1.478l-.609-.117-.136-.025-.127-.026c-.81-.153-1.649-.31-2.463-.511a11.869 11.869 0 01-2.758-.988 6.953 6.953 0 01-1.154-.767 6.321 6.321 0 01-1.044-1.1 7.484 7.484 0 01-1.271-2.865q1.011.539 2.056 1.007a45.013 45.013 0 006.656 2.376 58.406 58.406 0 0021.156 1.7.271.271 0 00.165-.067h.011a.236.236 0 00.244-.223 17.054 17.054 0 01.014-1.918 18.67 18.67 0 01.23-1.9c0 .019-.006.033-.01.048a16.143 16.143 0 01.5-2 14.8 14.8 0 01.685-1.722 12.73 12.73 0 01.792-1.409 13.012 13.012 0 01.858-1.16.326.326 0 01.021-.026l.008-.007-.008.007a11.288 11.288 0 011.011-1.04c.084-.076.172-.153.26-.226.387.278.773.558 1.153.847" fill="#f6ddc0"/><path id="Path_120" data-name="Path 120" d="M640.989 455.839a.705.705 0 01.4.358.694.694 0 01.029.533.745.745 0 01-.354.4c-.04.025-.08.051-.121.081.052-.033.1-.067.15-.1a5.166 5.166 0 00-1.778 2 7.478 7.478 0 00-.324.8.7.7 0 01-1.325-.459 7.257 7.257 0 011.066-2.025 6.4 6.4 0 011.719-1.551.534.534 0 01.289-.073.771.771 0 01.247.04" fill="#f6ddc0"/><path id="Path_121" data-name="Path 121" d="M638.667 454.329a.708.708 0 01-.076.99 8.686 8.686 0 00-1.166 1.043 7.991 7.991 0 00-1.012 1.473c-.072.153-.14.3-.205.461a.7.7 0 01-1.325-.456 8.519 8.519 0 011.1-1.934 8.624 8.624 0 011.69-1.653.783.783 0 01.471-.164.679.679 0 01.518.24m-2.218 3.431l-.027.055.027-.055m-.056.113" fill="#f6ddc0"/><path id="Path_122" data-name="Path 122" d="M635.659 452.669a.707.707 0 01-.076.989 7.992 7.992 0 00-1.05.963 10.241 10.241 0 00-1.283 1.9l.044-.089-.06.117-.023.047.022-.041c-.025.051-.05.1-.073.151a.759.759 0 01-.358.4.7.7 0 01-.934-.325.671.671 0 01-.033-.536 12.035 12.035 0 011.2-2 8.587 8.587 0 011.635-1.652.775.775 0 01.468-.162.678.678 0 01.521.238m-2.426 3.889v-.006l.016-.028-.017.034" fill="#f6ddc0"/><path id="Path_123" data-name="Path 123" d="M531.947 288.23a.729.729 0 00-.519.225.665.665 0 00-.191.486c.206 5.727.566 11.551 1.069 17.31a4.255 4.255 0 00-.2.511.712.712 0 00.326.85c1.086 11.967 2.843 24.335 5.217 36.754a469.219 469.219 0 0013.905 54.134 614.99 614.99 0 006.532 19.4c1.2 3.375 2.4 6.659 3.576 9.762q1.022 2.694 2.061 5.384.921 2.4 1.836 4.8a.786.786 0 00.326.421.718.718 0 00.4.333 20.4 20.4 0 004.921.788c.5.027.993.038 1.49.038a36.035 36.035 0 004.332-.276 33.885 33.885 0 005.559-1.137 20.686 20.686 0 004.781-2.013.739.739 0 00.351-.4.684.684 0 00.029-.347.769.769 0 00.023-.417 286.636 286.636 0 01-2.529-12.516c-.733-4.074-1.367-8.236-1.979-12.26l-.058-.375c-1.212-7.986-2.5-16.589-3.711-25.4l-.207-1.525-.056-.4-.051-.36-.013-.141a2.244 2.244 0 00-.048-.345c-.026-.2-.056-.4-.084-.6q-.219-1.648-.435-3.3a784.625 784.625 0 01-1.554-12.718c-1.027-9.043-1.794-17.382-2.343-25.491-.823-12.2-1.106-23.514-.864-34.591a.671.671 0 00-.2-.489.709.709 0 00-1.224.489c-.11 5.041-.107 10.266.007 15.526a147.027 147.027 0 01-6.112-4.4l-1.215-.929c-1.6-1.226-3.252-2.492-4.933-3.661a40.986 40.986 0 00-6.545-3.781 28.9 28.9 0 00-3.664-1.359c-.383-.113-.769-.216-1.155-.321a42.218 42.218 0 01-1.056-.291l-.676-.2a41.955 41.955 0 00-8.028-1.8 15.099 15.099 0 00-2.309-.011 7.409 7.409 0 00-2.016.439 4.522 4.522 0 00-1.145.624 360.067 360.067 0 01-.915-15.708.714.714 0 00-.71-.71" fill="#7196c3"/><path id="Path_124" data-name="Path 124" d="M618.076 297.731a.72.72 0 00-.505.214.692.692 0 00-.2.5c.05 3.391.13 6.9.237 10.44a9 9 0 00-1.368-1.3 9.174 9.174 0 00-3.145-1.585 11.543 11.543 0 00-1.661-.3c-.517-.063-1.086-.1-1.741-.117-.212-.007-.421-.007-.632-.007a35.254 35.254 0 00-3.577.2 53.534 53.534 0 00-4.92.756 50.6 50.6 0 00-10.025 3.1 30.39 30.39 0 00-4.339 2.268 17.75 17.75 0 00-3.454 2.8 10.894 10.894 0 00-1.443 1.881c-.282-2.723-.537-5.4-.741-7.962a.745.745 0 00-.207-.5.707.707 0 00-.5-.207.744.744 0 00-.535.243.622.622 0 00-.175.467c.282 3.53.649 7.161 1.088 10.794a7.8 7.8 0 00-.106 1.017.683.683 0 00.307.581c1.406 11.157 3.564 23.013 6.59 36.239 3.164 13.829 6.959 27.746 10.63 41.205l1.78 6.534q.762 2.8 1.507 5.6c.966 3.6 1.963 7.318 3 10.963 1.789 6.277 3.537 11.733 5.346 16.683a.742.742 0 00.325.425.707.707 0 00.361.1 15.8 15.8 0 004.586 1.161 23.428 23.428 0 002.775.162 27.531 27.531 0 002.872-.155 21.894 21.894 0 005.557-1.271 11.388 11.388 0 004.269-2.654c.1-.088.147-.125.185-.165a.7.7 0 00.208-.5q-.691-6.1-1.37-12.2-.83-7.421-1.669-14.84l-.138-1.206c-.952-8.37-1.938-17.024-2.837-25.544-2.185-20.692-3.629-37.79-4.546-53.811-.58-10.129-.942-19.982-1.072-29.289a.717.717 0 00-.711-.71" fill="#7196c3"/><path id="Path_125" data-name="Path 125" d="M617.557 297.93a.754.754 0 00-.212.51c.051 3.325.131 6.835.237 10.44a7.069 7.069 0 00-1.331-1.317 9.173 9.173 0 00-3.153-1.587 11.818 11.818 0 00-1.668-.306 22.204 22.204 0 00-1.741-.117c-.211-.008-.419-.008-.63-.008-1.048 0-2.186.066-3.581.2a55.207 55.207 0 00-4.922.755 50.448 50.448 0 00-10.027 3.1 30.469 30.469 0 00-4.339 2.273 18.249 18.249 0 00-3.459 2.8 11.107 11.107 0 00-1.445 1.887c-.245-2.657-.511-5.463-.708-7.955a.766.766 0 00-.207-.515.737.737 0 00-.519-.214.774.774 0 00-.551.251.662.662 0 00-.182.482c.28 3.484.645 7.115 1.087 10.794a8.309 8.309 0 00-.106 1.014.716.716 0 00.317.6c.245 1.96.515 3.937.807 5.944a51.217 51.217 0 007.732.413h-.061a53.8 53.8 0 0013.515-2.041c-.018.008-.037.011-.055.019a48.677 48.677 0 005.558-1.96 44.578 44.578 0 005.185-2.609h-.011q.578-.345 1.146-.707c0-.047-.006-.093-.008-.139a.238.238 0 01.234-.234.228.228 0 01.19.1l.386-.257a.283.283 0 01.15-.048.23.23 0 01.179.088.235.235 0 01-.04.328c-.2.136-.406.27-.612.4.677 12.453 1.049 24.925 1.782 37.375.245 4.167.526 8.331.877 12.49q.261 3.131.576 6.258c.208 2.054.442 4.1.679 6.156.89 7.747 1.693 15.5 2.663 23.237.128 1.014.256 2.028.391 3.039.029.237.062.471.091.7l.066.468v.006c.029.212.059.42.084.632.065.467.128.938.193 1.4.544 3.89 1.146 7.776 1.839 11.644.868 4.821 1.879 9.618 3.1 14.361a10.349 10.349 0 002.993-2.1l.084-.076c.044-.037.073-.062.1-.088a.724.724 0 00.211-.518q-.688-6.092-1.368-12.2l-.31-2.755-.34-3.025q-.5-4.531-1.021-9.06l-.135-1.2-.022-.171-.037-.333c-.93-8.206-1.9-16.694-2.78-25.043-2.186-20.7-3.631-37.8-4.546-53.811a681.65 681.65 0 01-1.07-29.287.739.739 0 00-.729-.733.747.747 0 00-.522.223m-4.47 22.868a.2.2 0 01-.04.025c.014-.006.025-.018.04-.025" fill="#6b8eb8"/><path id="Path_126" data-name="Path 126" d="M531.412 288.439a.689.689 0 00-.2.5c.2 5.67.566 11.494 1.07 17.31a4.562 4.562 0 00-.194.5.721.721 0 00.332.872q.273 3.037.605 6.1a110.758 110.758 0 008.181 5.131l-.01-.007c.007 0 .01.007.018.01a.033.033 0 01.022.011 77.552 77.552 0 008.009 3.923 60.043 60.043 0 008.414 2.806c.011 0 .026 0 .037.007h-.03a.1.1 0 00.034.008.017.017 0 01.014 0 53.355 53.355 0 005.744 1.087 51.174 51.174 0 006.035.423.233.233 0 01.207.256.241.241 0 01-.016.064.327.327 0 01.009.063l.006.139a.25.25 0 01.137.211q.355 8.807.825 17.614c.827 15.158 2.031 30.3 4.05 45.346l-.011-.063q.732 5.415 1.606 10.809a334.993 334.993 0 004.418 22.437q.657 2.8 1.365 5.6c.463 1.81.923 3.623 1.409 5.433.222.824.448 1.649.685 2.474a18.208 18.208 0 003.193-1.493.752.752 0 00.358-.408.717.717 0 00.036-.354.83.83 0 00.022-.427 272.565 272.565 0 01-2.529-12.505c-.747-4.134-1.375-8.268-1.981-12.264l-.054-.372c-1.143-7.484-2.475-16.351-3.712-25.4l-.208-1.525-.058-.4-.05-.355-.014-.142a4.447 4.447 0 00-.051-.354l-.08-.588q-.219-1.647-.435-3.3a726.139 726.139 0 01-1.554-12.716c-1.03-9.05-1.8-17.392-2.343-25.492-.828-12.2-1.109-23.514-.865-34.593a.711.711 0 00-.2-.5.78.78 0 00-.529-.23.743.743 0 00-.73.733c-.109 5.073-.1 10.295.008 15.527a187.191 187.191 0 01-6.076-4.415l-1.215-.93c-1.656-1.267-3.3-2.522-4.941-3.66a40.718 40.718 0 00-6.546-3.781 27.487 27.487 0 00-3.664-1.357 22.057 22.057 0 00-.879-.252l-.208-.054c-.42-.111-.774-.205-1.124-.307l-.674-.2a41.532 41.532 0 00-8.04-1.81 15.035 15.035 0 00-2.306-.011 7.515 7.515 0 00-2.025.449 4.416 4.416 0 00-1.149.624c-.413-5.579-.712-10.859-.88-15.694a.737.737 0 00-.733-.733.766.766 0 00-.533.233" fill="#6b8eb8"/><path id="Path_127" data-name="Path 127" d="M541.235 318.87l-.019-.011h-.006c.009 0 .016.01.025.014" fill="#6b8eb8"/><path id="Path_128" data-name="Path 128" d="M557.668 325.6h-.016.016" fill="#6b8eb8"/><path id="Path_130" data-name="Path 130" d="M557.715 325.616h-.011z" fill="#6b8eb8"/><path id="Path_131" data-name="Path 131" d="M587.231 430.3a.55.55 0 00-.263.063 33.116 33.116 0 01-6.523 2.558 41.146 41.146 0 01-10.535 1.445 34.311 34.311 0 01-5.917-.5.564.564 0 00-.107-.009.725.725 0 00-.689.593.7.7 0 00-.057.088.778.778 0 00-.052.551 20.07 20.07 0 001.84 5.257.652.652 0 00.347.286.927.927 0 00.254.086 38.829 38.829 0 007.942.817 39.4 39.4 0 004.157-.221 29.054 29.054 0 006.124-1.325 18.52 18.52 0 005.276-2.731.684.684 0 00.2-.24.71.71 0 00.288-.589 13.778 13.778 0 00-1.595-5.732.594.594 0 00-.248-.246.751.751 0 00-.439-.154" fill="#9bbce7"/><path id="Path_132" data-name="Path 132" d="M630.182 429.575a.54.54 0 00-.26.062 32.609 32.609 0 01-6.422 2.519 40.565 40.565 0 01-10.374 1.422 33.8 33.8 0 01-5.826-.489.631.631 0 00-.1-.009.714.714 0 00-.678.585.619.619 0 00-.057.087.772.772 0 00-.052.541 19.78 19.78 0 001.812 5.176.652.652 0 00.343.282.871.871 0 00.249.085 38.292 38.292 0 0011.914.586 28.618 28.618 0 006.031-1.3 18.275 18.275 0 005.2-2.688.678.678 0 00.193-.238.705.705 0 00.285-.579 13.568 13.568 0 00-1.572-5.645.579.579 0 00-.244-.241.745.745 0 00-.432-.152" fill="#9bbce7"/><path id="Path_133" data-name="Path 133" d="M565.78 439.516a.238.238 0 00.186.273c.325.048.653.092.982.125a.246.246 0 00.174-.037.236.236 0 00-.09-.423 25.322 25.322 0 01-.982-.124.19.19 0 00-.041 0 .23.23 0 00-.229.19" fill="#88a5cb"/><path id="Path_134" data-name="Path 134" d="M568.634 439.911a.23.23 0 00.185.273c.234.037.471.066.708.088.259.025.519.033.778.033a.233.233 0 00.211-.252.232.232 0 00-.252-.211c-.1 0-.212 0-.315-.007h.019a10.925 10.925 0 01-1.065-.113.18.18 0 00-.04 0 .231.231 0 00-.229.19m1.315-.076" fill="#88a5cb"/><path id="Path_135" data-name="Path 135" d="M572.27 440.105a.235.235 0 00.19.27 11.349 11.349 0 001.313.077.236.236 0 00.216-.252.259.259 0 00-.08-.157.249.249 0 00-.172-.055 10.005 10.005 0 01-1.193-.073h-.026a.241.241 0 00-.248.191" fill="#88a5cb"/><path id="Path_136" data-name="Path 136" d="M577.155 439.884a7.402 7.402 0 01-.522.04 6.054 6.054 0 01-.7 0H576c-.059 0-.117 0-.176-.007a.234.234 0 00-.273.185.229.229 0 00.04.176.221.221 0 00.149.1c.194.011.391.019.584.019a6.867 6.867 0 00.873-.052.232.232 0 00-.016-.464h-.025" fill="#88a5cb"/><path id="Path_137" data-name="Path 137" d="M580.449 439.489l-.13.029c-.165.035-.33.067-.5.1-.23.037-.463.055-.7.073a.233.233 0 10.04.464c.234-.015.467-.04.7-.073a7.444 7.444 0 00.745-.15.213.213 0 00.131-.116.229.229 0 00.011-.183.253.253 0 00-.117-.131.2.2 0 00-.089-.021.433.433 0 00-.093.013" fill="#88a5cb"/><path id="Path_138" data-name="Path 138" d="M583.651 438.341c-.351.113-.705.218-1.059.317a.234.234 0 00-.142.3.238.238 0 00.121.132.233.233 0 00.178.007q.537-.143 1.062-.313a.234.234 0 00-.083-.454.226.226 0 00-.077.012" fill="#88a5cb"/><path id="Path_139" data-name="Path 139" d="M586.641 437.132l-.236.127c-.239.119-.481.231-.73.333a.238.238 0 00-.139.3.233.233 0 00.3.139 9.962 9.962 0 001.073-.515.236.236 0 00.059-.325.232.232 0 00-.15-.094.216.216 0 00-.042-.005.3.3 0 00-.134.041m-.261.141l-.022.012.022-.012" fill="#88a5cb"/><path id="Path_140" data-name="Path 140" d="M588.427 435.887l-.383.273a.238.238 0 00-.059.326.235.235 0 00.325.061c.128-.091.255-.182.383-.277a.233.233 0 00-.136-.425.213.213 0 00-.13.042" fill="#88a5cb"/><path id="Path_141" data-name="Path 141" d="M564.253 434.91a.235.235 0 00.186.273l.587.125a.232.232 0 10.084-.456c-.2-.044-.39-.088-.587-.128a.188.188 0 00-.046-.006.236.236 0 00-.224.192" fill="#88a5cb"/><path id="Path_142" data-name="Path 142" d="M567.563 435.351a.236.236 0 00.186.274q.264.049.534.088c.236.033.473.05.714.061a.246.246 0 00.176-.036.23.23 0 00.1-.149.237.237 0 00-.04-.176.221.221 0 00-.15-.094 16.124 16.124 0 01-.536-.044 7.962 7.962 0 01-.712-.11h-.039a.236.236 0 00-.231.189" fill="#88a5cb"/><path id="Path_143" data-name="Path 143" d="M571.206 435.4a.234.234 0 00.189.27 5.926 5.926 0 00.607.052c.244 0 .488 0 .733-.019a.239.239 0 00.211-.255.235.235 0 00-.251-.212 8.134 8.134 0 01-.733.022h.065c-.186-.007-.365-.026-.547-.044h-.034a.233.233 0 00-.24.188" fill="#88a5cb"/><path id="Path_144" data-name="Path 144" d="M576.46 434.7c-.113.029-.222.058-.335.08l.058-.011a8.633 8.633 0 01-1.029.145.233.233 0 00.041.465c.233-.019.459-.044.689-.081.247-.036.492-.1.733-.157a.235.235 0 00.142-.3.223.223 0 00-.117-.131.22.22 0 00-.1-.023.354.354 0 00-.084.012" fill="#88a5cb"/><path id="Path_145" data-name="Path 145" d="M580.34 433.832c-.172.047-.343.087-.518.127l.062-.011a11.32 11.32 0 01-.7.113.24.24 0 00-.212.256.232.232 0 00.252.211 9.2 9.2 0 001.281-.258.236.236 0 00.138-.3.24.24 0 00-.117-.131.192.192 0 00-.092-.022.278.278 0 00-.09.015" fill="#88a5cb"/><path id="Path_146" data-name="Path 146" d="M583.33 432.991c-.326.125-.653.241-.986.354a.239.239 0 00-.142.3.233.233 0 00.3.139c.332-.113.66-.229.989-.354a.235.235 0 00-.08-.454.208.208 0 00-.08.016" fill="#88a5cb"/><path id="Path_147" data-name="Path 147" d="M586.322 431.646c-.259.124-.523.248-.781.369a.238.238 0 00-.142.3.234.234 0 00.3.138c.262-.121.522-.241.78-.368a.27.27 0 00.132-.117.243.243 0 00.01-.183.234.234 0 00-.12-.131.229.229 0 00-.1-.025.134.134 0 00-.073.018" fill="#88a5cb"/><path id="Path_148" data-name="Path 148" d="M607.639 434.239a.231.231 0 00.186.27 11.8 11.8 0 001.427.238.24.24 0 00.274-.186.233.233 0 00-.187-.27 12.889 12.889 0 01-1.43-.241.21.21 0 00-.042 0 .236.236 0 00-.228.194" fill="#88a5cb"/><path id="Path_149" data-name="Path 149" d="M610.906 434.707a.237.237 0 00.189.274 8.677 8.677 0 00.88.1 7.7 7.7 0 00.774 0 .232.232 0 00-.041-.463q-.345.017-.691 0a7.423 7.423 0 01-.838-.1h-.035a.24.24 0 00-.238.187" fill="#88a5cb"/><path id="Path_150" data-name="Path 150" d="M616.763 434.414c-.226.032-.452.055-.679.072a7.217 7.217 0 01-.858 0 .246.246 0 00-.156.081.228.228 0 00-.055.172.217.217 0 00.081.157.245.245 0 00.17.057c.231.012.457.012.687.008a7.554 7.554 0 00.85-.084.233.233 0 00-.012-.465h-.028" fill="#88a5cb"/><path id="Path_151" data-name="Path 151" d="M620.633 433.885a9.277 9.277 0 01-.657.11 6.442 6.442 0 01-.832.044.232.232 0 00-.211.252.218.218 0 00.08.157.238.238 0 00.171.054c.223 0 .445-.008.668-.025a6.111 6.111 0 00.821-.125.282.282 0 00.157-.08.239.239 0 00.058-.175.258.258 0 00-.081-.156.243.243 0 00-.148-.058h-.026" fill="#88a5cb"/><path id="Path_152" data-name="Path 152" d="M624.143 433.188c-.109.029-.216.054-.321.08a.184.184 0 01.042-.012c-.264.053-.529.1-.8.129a.232.232 0 00.04.463 6.38 6.38 0 00.654-.1c.182-.033.361-.08.54-.124a.233.233 0 00.138-.3.216.216 0 00-.116-.132.21.21 0 00-.1-.022.3.3 0 00-.083.012m-.279.068h.017z" fill="#88a5cb"/><path id="Path_153" data-name="Path 153" d="M627.189 432.049c-.241.113-.482.222-.726.325a.239.239 0 00-.143.3.235.235 0 00.3.138c.244-.1.489-.207.726-.32a.278.278 0 00.132-.121.219.219 0 00.01-.179.247.247 0 00-.221-.159.18.18 0 00-.078.017" fill="#88a5cb"/><path id="Path_154" data-name="Path 154" d="M630.019 430.556a57.63 57.63 0 01-.792.365.232.232 0 00.157.437c.266-.117.533-.237.8-.361a.238.238 0 00.128-.116.23.23 0 00.011-.183.253.253 0 00-.224-.158.175.175 0 00-.075.016" fill="#88a5cb"/><path id="Path_155" data-name="Path 155" d="M609.244 438.724a.232.232 0 00.186.27 12.08 12.08 0 001.529.248.244.244 0 00.175-.04.227.227 0 00.1-.149.233.233 0 00-.19-.271 11.935 11.935 0 01-1.525-.248.161.161 0 00-.043 0 .241.241 0 00-.231.194" fill="#88a5cb"/><path id="Path_156" data-name="Path 156" d="M612.665 439.039a.238.238 0 00.186.274c.27.058.536.106.81.146s.544.063.817.076a.251.251 0 00.176-.04.214.214 0 00.094-.149.217.217 0 00-.036-.175.22.22 0 00-.15-.1c-.273-.015-.543-.04-.817-.077s-.54-.087-.806-.145a.19.19 0 00-.047-.006.241.241 0 00-.227.191" fill="#88a5cb"/><path id="Path_157" data-name="Path 157" d="M616.758 439.258a.232.232 0 00.088.42 14.93 14.93 0 001.891.055.231.231 0 00.211-.252.236.236 0 00-.252-.211q-.63.02-1.26-.011h-.009a35.628 35.628 0 01-.493-.036.444.444 0 00-.049 0 .206.206 0 00-.127.04m.676 0z" fill="#88a5cb"/><path id="Path_158" data-name="Path 158" d="M622.625 438.819c-.055.011-.109.025-.168.036l.059-.011c-.226.048-.453.084-.679.117s-.46.044-.69.055a.234.234 0 00.04.467c.289-.015.573-.04.862-.08.247-.037.492-.088.737-.146a.217.217 0 00.13-.117.236.236 0 00.008-.183.221.221 0 00-.117-.127.181.181 0 00-.092-.024.356.356 0 00-.09.013" fill="#88a5cb"/><path id="Path_159" data-name="Path 159" d="M626 437.952a19.02 19.02 0 01-.849.226l.024-.007c-.11.023-.222.049-.332.068a.281.281 0 00-.157.081.258.258 0 00-.059.175.266.266 0 00.081.157.229.229 0 00.175.054c.43-.087.854-.189 1.274-.317a.231.231 0 00-.08-.449.252.252 0 00-.077.012m-.825.219l.018-.005-.018.005" fill="#88a5cb"/><path id="Path_160" data-name="Path 160" d="M628.879 436.814c-.322.138-.642.281-.96.426a.233.233 0 10.157.439c.32-.143.638-.285.959-.424a.24.24 0 00.142-.3.253.253 0 00-.223-.158.181.181 0 00-.075.016" fill="#88a5cb"/><path id="Path_161" data-name="Path 161" d="M631.1 435.488a8.296 8.296 0 01-.796.4.236.236 0 00-.142.3.23.23 0 00.3.139 8.681 8.681 0 00.9-.459.231.231 0 00.061-.326.222.222 0 00-.149-.094.177.177 0 00-.045-.005.24.24 0 00-.13.041m-.4.217l-.023.013.023-.013" fill="#88a5cb"/><path id="Path_162" data-name="Path 162" d="M502.866 106.958a2.82 2.82 0 00-.557.055c-1.384.274-1.989 1.8-2.226 2.688a12.909 12.909 0 00-.365 2.505 25.689 25.689 0 00-.032 2.282 2.834 2.834 0 00-.39-.474 2.514 2.514 0 00-1.674-.824 2.123 2.123 0 00-1.671.879 5.448 5.448 0 00-.951 2.291 19.986 19.986 0 00-.339 4.075 80.359 80.359 0 00.7 9.507l.043.374c.191 1.653.38 3.305.53 4.963s0-.038.005-.038 0-.016 0-.031a55.121 55.121 0 01.192 6.315 68.352 68.352 0 01-.322 4.48c-.316 3.209-.78 6.458-1.226 9.6l-.1.66-.072.5a166.507 166.507 0 00-2.146 22.175 53.5 53.5 0 00.9 10.758 27.788 27.788 0 003.435 9.177 20.485 20.485 0 002.958 3.767 20.16 20.16 0 003.924 3.041 22.411 22.411 0 002.387 1.226 20.525 20.525 0 002.574.961 22.172 22.172 0 005.928.818h.433a36.825 36.825 0 006.177-.562 48.813 48.813 0 006.785-1.686 51.681 51.681 0 0012.415-5.81 29.2 29.2 0 005.662-4.654.751.751 0 00.232-.491.715.715 0 00-.185-.511.757.757 0 00-.549-.234.609.609 0 00-.454.187 23.028 23.028 0 01-2.344 2.221 9.713 9.713 0 00.037-1.5 15.149 15.149 0 00-.467-2.976 21.917 21.917 0 00-2.534-5.852 30.868 30.868 0 00-4.034-5.275 27.445 27.445 0 00-4.767-4.032 18.159 18.159 0 00-2.091-1.19c.3-.167.595-.349.891-.539a.735.735 0 00.343-.41.722.722 0 00-.044-.551.756.756 0 00-.65-.386.565.565 0 00-.309.087 28.477 28.477 0 01-5.373 2.776 13.928 13.928 0 01-3.337.795c-.3.022-.529.031-.757.031a8.936 8.936 0 01-1.4-.108 7.338 7.338 0 01-1.719-.55 7.6 7.6 0 01-1.4-.911 9.712 9.712 0 01-1.495-1.659 15.012 15.012 0 01-1.641-3.23l-.036-.1a34.631 34.631 0 01-1.732-8.786v.093h-.008a83.75 83.75 0 01-.23-7.523q.023-1.833.106-3.667a40.647 40.647 0 01.518-5.252 27.513 27.513 0 012.174-6.749l-.093.156a39.7 39.7 0 013.818-6.129c.327-.441.679-.869 1.029-1.295l.358-.416a34.843 34.843 0 001.565-2.022 11.764 11.764 0 001.246-2.15 5.035 5.035 0 00.3-.936 4.669 4.669 0 00.081-.553 3.147 3.147 0 00-.025-.605 2.531 2.531 0 00-1.1-1.731 4.142 4.142 0 00-1.094-.534 7.332 7.332 0 00-1.673-.347c-.118-.007-.235-.015-.351-.015a5.278 5.278 0 00-1.339.19 5.568 5.568 0 00-1.538.7 5.822 5.822 0 00-.684.5l.113-.425c.085-.38.17-.758.249-1.14.43-2.066.707-3.753.873-5.31a18.127 18.127 0 00-.059-5.064 4.589 4.589 0 00-2.011-3.316 3.838 3.838 0 00-1.577-.479h-.154a2.8 2.8 0 00-1.3.336 4.973 4.973 0 00-1.963 2.424 11.381 11.381 0 00-.651 1.808 19.5 19.5 0 00-.346-2.175 10.239 10.239 0 00-.757-2.286 3.708 3.708 0 00-1.295-1.547 2.548 2.548 0 00-1.347-.366" fill="#f9c29d"/><path id="Path_163" data-name="Path 163" d="M495.751 115.916c-1.113 5.832-1.011 11.78-.872 17.687.073 2.971.146 5.944.073 8.914q-.049 2.213-.238 4.416c-.13 1.484-.31 2.97-.481 4.451-.7 6.007-1.554 12-2 18.034-.219 3-.325 6.006-.263 9.012a56.923 56.923 0 00.734 8.265 30.175 30.175 0 001.923 6.762.675.675 0 00.42.325.721.721 0 00.54-.073.709.709 0 00.321-.42.772.772 0 00-.069-.537v-.01a31.731 31.731 0 01-1.982-7.742 80.9 80.9 0 01-.077-17.386c.515-6.024 1.391-12.008 2.059-18.015.138-1.236.27-2.477.361-3.718.091-1.3.142-2.6.168-3.893.051-2.616-.012-5.229-.073-7.846a100.372 100.372 0 01.414-15.45l-.006.033.015-.1.011-.084v.038c.108-.764.232-1.528.376-2.285a.735.735 0 00-.069-.54.7.7 0 00-.42-.321.668.668 0 00-.173-.023.69.69 0 00-.688.511m.967 2.7c0 .023-.007.045-.009.069l.016-.115-.007.046" fill="#f9c29d"/><path id="Path_164" data-name="Path 164" d="M495.71 116.365a.658.658 0 00-.32.419 61.77 61.77 0 00-.639 7.247 41.73 41.73 0 00.452 7.254.674.674 0 00.322.419.705.705 0 00.96-.251.774.774 0 00.069-.54c-.029-.185-.054-.369-.079-.552a48.57 48.57 0 01.192-12.672l.074-.536a.775.775 0 00-.069-.54.7.7 0 00-.609-.346.684.684 0 00-.352.1m.756 13.937c0 .019.006.036.008.055 0-.019-.005-.036-.008-.055" fill="#f9c29d"/><path id="Path_165" data-name="Path 165" d="M495.476 117.61a.763.763 0 00-.2.5 71.3 71.3 0 00-.2 9.662c.143 3.285.478 6.558.876 9.816a.753.753 0 00.209.5.7.7 0 00.988 0 .665.665 0 00.2-.5c-.39-3.2-.715-6.411-.868-9.634a70.785 70.785 0 01.193-9.844.7.7 0 00-1.2-.5" fill="#f9c29d"/><path id="Path_166" data-name="Path 166" d="M496.386 112.018a2.583 2.583 0 00-1.537 1.438 7.859 7.859 0 00-.664 2.3 18.9 18.9 0 00-.171 2.751c0 1.515.069 3.033.168 4.544.3 4.6.894 9.191.78 13.811a.7.7 0 101.4 0 103.168 103.168 0 00-.577-11.085c-.153-1.876-.291-3.752-.346-5.635a26.457 26.457 0 01.082-3.911c0 .03-.008.059-.013.088l.017-.117.009-.074c0 .022-.006.044-.008.066A8.672 8.672 0 01496 114.3a3.516 3.516 0 01.333-.6 2.41 2.41 0 01.217-.223 1.426 1.426 0 01.162-.094c.046-.015.094-.026.141-.037a1.606 1.606 0 01.2 0 2.068 2.068 0 01.3.089 4.337 4.337 0 01.645.387 3.983 3.983 0 01.535.528 5.63 5.63 0 01.559 1.008 15.82 15.82 0 01.76 2.8c.178.9.3 1.817.54 2.7a.7.7 0 001.353-.373c-.229-.85-.354-1.721-.517-2.582a16.251 16.251 0 00-.785-2.923 6.884 6.884 0 00-.628-1.241 4.374 4.374 0 00-1.054-1.087 3.166 3.166 0 00-1.84-.71 2.126 2.126 0 00-.532.067m-.859 4.186v.029l.005-.037v.008" fill="#f9c29d"/><path id="Path_167" data-name="Path 167" d="M549.317 194.608a34.028 34.028 0 01-5.7 4.448l.153-.1a54.61 54.61 0 01-12.68 5.817l.175-.055a48.757 48.757 0 01-12.416 2.317h.032-.187.051a29.352 29.352 0 01-7.484-.633 20.931 20.931 0 01-2.6-.808.7.7 0 10-.5 1.309 27.685 27.685 0 0011.794 1.459 50.59 50.59 0 0013.012-2.743 55.248 55.248 0 009.7-4.372 36.511 36.511 0 007.547-5.564.748.748 0 00.248-.475.709.709 0 00-.157-.511.755.755 0 00-.567-.255.584.584 0 00-.418.161m-30.575 12.437h.104-.1" fill="#f9c29d"/><path id="Path_168" data-name="Path 168" d="M546.987 196.875a35.185 35.185 0 01-4.138 3.025c.051-.032.1-.065.149-.1a55.234 55.234 0 01-12.708 5.835l.174-.055a44.285 44.285 0 01-11.292 2.131h.025-.064l-.123.005h.057a25.651 25.651 0 01-6.483-.552 17.409 17.409 0 01-3.539-1.262.7.7 0 00-.883.949.738.738 0 00.387.361 23.056 23.056 0 0011.724 1.831 47.518 47.518 0 0013.049-2.969 56.238 56.238 0 008.082-3.7 39.3 39.3 0 006.477-4.42.7.7 0 00-.456-1.238.667.667 0 00-.438.158M512.6 207.17c.051.011.1.023.151.036-.05-.013-.1-.024-.151-.036m6.466.547h.105-.1" fill="#f9c29d"/><path id="Path_169" data-name="Path 169" d="M543.926 198.164l-.4.225a.712.712 0 00-.655-.035 63.51 63.51 0 00-9.2 4.26l-.078.025a26.082 26.082 0 01-4.126.929.7.7 0 00-.569.81.714.714 0 00.813.57 25.216 25.216 0 003.392-.712.638.638 0 00.37.033 27 27 0 005.7-1.993c1.825-.857 3.58-1.857 5.343-2.843a.714.714 0 00.339-.93.747.747 0 00-.651-.411.57.57 0 00-.28.072" fill="#f9c29d"/><path id="Path_170" data-name="Path 170" d="M509.03 206.644a.715.715 0 00.406.9 13.449 13.449 0 004.684.988 24.383 24.383 0 004.971-.387.7.7 0 00-.245-1.382 27.678 27.678 0 01-3.359.374 15.456 15.456 0 01-3.782-.316 12.2 12.2 0 01-1.769-.591.634.634 0 00-.241-.047.726.726 0 00-.665.456" fill="#f9c29d"/><path id="Path_171" data-name="Path 171" d="M508.893 206.677a.712.712 0 00.406.9 18.039 18.039 0 005.4 1.2 15.466 15.466 0 002.788-.1 13.181 13.181 0 002.69-.646.689.689 0 00.357-.387.7.7 0 00-.405-.9.733.733 0 00-.543.022l-.228.077a13.373 13.373 0 01-3.172.554h.111l-.137.005h-.049.043a16.432 16.432 0 01-4.064-.406 18.454 18.454 0 01-2.288-.72.671.671 0 00-.244-.045.714.714 0 00-.661.451m3.2.315l.174.042-.174-.042m4.059.4h.032-.032" fill="#f9c29d"/><path id="Path_172" data-name="Path 172" d="M528.912 174.519a28.3 28.3 0 01-5.371 2.773c-.058.022-.117.04-.172.062q.054 1.072.2 2.134l-.011-.061a31.056 31.056 0 00.858 4.119 35.817 35.817 0 001.415 4.051.743.743 0 00-.021-.058 38.028 38.028 0 004.835 8.3 33.443 33.443 0 004.987 5.222.4.4 0 00.059.375.233.233 0 01-.136.3 47.324 47.324 0 01-8.213 3.159 44 44 0 01-8.728 1.555 36.812 36.812 0 01-7.71-.226 30.253 30.253 0 01-7.4-1.97c-.6-.245-1.187-.508-1.759-.8a19.33 19.33 0 01-1.442-.821 16.805 16.805 0 01-2.238-1.653 19.871 19.871 0 001.487 1.671 20.333 20.333 0 003.93 3.044 22.786 22.786 0 002.39 1.225 19.151 19.151 0 006.8 1.7 25.061 25.061 0 005.247.513c.723 0 1.518-.025 2.361-.08a46.982 46.982 0 0013.056-2.973 56.517 56.517 0 008.082-3.7 39.2 39.2 0 006.484-4.423.738.738 0 00.234-.4c.744-.6 1.452-1.234 2.1-1.868a.745.745 0 00.252-.486.706.706 0 00-.161-.525.769.769 0 00-.583-.263.6.6 0 00-.431.168 31.858 31.858 0 01-4.579 3.711.693.693 0 00-.519-.233.583.583 0 00-.284.073l-.4.226-.1-.054a26.954 26.954 0 002.442-2.325.723.723 0 00.046-1.025.769.769 0 00-.565-.241.63.63 0 00-.467.193 22.385 22.385 0 01-2.347 2.222 6.507 6.507 0 00.073-1.485 14.846 14.846 0 00-.474-2.981 21.793 21.793 0 00-2.532-5.857 30.626 30.626 0 00-4.032-5.276 27.472 27.472 0 00-4.777-4.036 18.2 18.2 0 00-2.09-1.193 6.824 6.824 0 00.89-.5.726.726 0 00.35-.42.716.716 0 00-.043-.566.781.781 0 00-.665-.4.568.568 0 00-.317.092" fill="#e8b592"/><path id="Path_173" data-name="Path 173" d="M506.727 113.974c-.073 1.529-.164 3.057-.215 4.586s-.128 3.08-.223 4.617a.507.507 0 00.084.35.473.473 0 00.85-.205 32.755 32.755 0 00.172-4.192c-.008-.734-.022-1.468-.048-2.2s-.047-1.466-.04-2.2v.084c0-.245.015-.493.023-.737a.327.327 0 00-.056-.231.3.3 0 00-.2-.12.326.326 0 00-.044 0 .3.3 0 00-.3.259" fill="#e8b592"/><path id="Path_174" data-name="Path 174" d="M499.835 113.922a.3.3 0 00-.208.113.308.308 0 00-.069.234 27.176 27.176 0 01.62 4.229c.12 1.485.153 2.974.281 4.456a.433.433 0 00.766.226.454.454 0 00.1-.324q-.1-2.142-.361-4.267a37.486 37.486 0 00-.781-4.393.355.355 0 00-.113-.207.317.317 0 00-.2-.068h-.039" fill="#e8b592"/><path id="Path_175" data-name="Path 175" d="M505.138 125.855a.4.4 0 00-.219.5c.051.169.1.343.141.515a10.6 10.6 0 01.22 2.364v-.146a15.309 15.309 0 01-.593 3.858c-.079.257-.16.515-.242.769-.019.065-.04.132-.059.2a.729.729 0 00.044.394.764.764 0 001.4.037 10.419 10.419 0 00.635-4.2 11.968 11.968 0 00-.3-2.072 31.998 31.998 0 00-.533-2 .369.369 0 00-.363-.242.376.376 0 00-.133.023" fill="#e8b592"/><path id="Path_176" data-name="Path 176" d="M571.48 140.021h.007a25.45 25.45 0 00-2.025.178c-.6.1-1.2.216-1.788.354a31.062 31.062 0 00-6.646 2.423 56.931 56.931 0 00-11.92 8.237c-2.5 2.145-4.948 4.433-7.312 6.648-1.015.948-2.029 1.9-3.047 2.835a80.555 80.555 0 01-12.626 9.99c-.358.213-.719.42-1.08.621a.973.973 0 00-.222.157.678.678 0 00-.387.653 38.4 38.4 0 003.335 11.775 45.214 45.214 0 007.134 11.191 31.991 31.991 0 005.962 5.358 21.806 21.806 0 006.892 3.2c.034.006.067.014.1.018a.8.8 0 00.215.087.625.625 0 00.151.014.708.708 0 00.7-.55 9.026 9.026 0 01.307-1.084 24.417 24.417 0 011.715-3.375c.324-.562.649-1.124.948-1.7a23.319 23.319 0 001.073-2.525l.154-.4c.415-1.083.831-2.174 1.244-3.262q1.209-3.186 2.368-6.385.6-1.643 1.175-3.3l.4-1.168c.229-.667.456-1.338.7-2a75.861 75.861 0 015.973-11.7c.463-.788.927-1.58 1.384-2.372a99.419 99.419 0 001.926-3.5 60.764 60.764 0 001.73-3.63c.328-.756.667-1.512 1-2.266.814-1.825 1.656-3.715 2.4-5.609.555-1.409 1-2.678 1.373-3.882a14.568 14.568 0 00.788-4.24.645.645 0 00-.23-.492 19.593 19.593 0 00-2-.275 45.083 45.083 0 00-.518-.038h-.442c-.3 0-.606 0-.912.015m0 0z" fill="#4a477c"/><path id="Path_177" data-name="Path 177" d="M570.985 150.543a87.281 87.281 0 01-9.437 7.243 111.838 111.838 0 00-9.637 7.19.038.038 0 01-.014.014l.014-.014v-.005a39.449 39.449 0 00-3.193 3.1 28.719 28.719 0 00-2.7 3.444l.033-.05a22.976 22.976 0 00-1.639 2.9 28.641 28.641 0 00-1.237 3.131l.022-.062a75.54 75.54 0 00-2.3 10.206c-.354 1.985-.715 3.974-1.186 5.936a38.517 38.517 0 01-1.46 4.863 28.519 28.519 0 002.606 2 21.748 21.748 0 006.893 3.2.7.7 0 00.109.022.541.541 0 00.205.084.783.783 0 00.16.017.727.727 0 00.711-.565 10.454 10.454 0 01.3-1.083 24.262 24.262 0 011.642-3.237l.077-.135c.325-.566.646-1.128.945-1.7a23.309 23.309 0 001.066-2.481l.16-.442c.416-1.083.832-2.174 1.244-3.261q1.211-3.186 2.369-6.386.6-1.642 1.174-3.295l.4-1.168.062-.171c.208-.613.42-1.226.639-1.832a75.12 75.12 0 015.922-11.6l.291-.5c.384-.653.767-1.31 1.143-1.966a81.815 81.815 0 001.927-3.507c.59-1.128 1.17-2.35 1.729-3.631l1-2.266c.84-1.88 1.669-3.741 2.406-5.609q.327-.829.6-1.586a34.306 34.306 0 01-3.055 3.188M551.9 164.99a.2.2 0 01-.026.021.2.2 0 00.026-.021" fill="#444173"/><path id="Path_178" data-name="Path 178" d="M572.147 140.214a11.106 11.106 0 00-2.415 1.153 18.43 18.43 0 00-4.353 3.96 30.113 30.113 0 00-3.346 4.984 33.8 33.8 0 00-2.219 4.937.675.675 0 00-.023.358c-1.378 2.218-2.907 4.414-4.385 6.539-3.266 4.692-6.645 9.545-8.641 15.051a28.354 28.354 0 00-1.453 6.109 33.133 33.133 0 00-.2 3.572 70.722 70.722 0 00.065 3.7c.036.88.084 1.755.128 2.632.08 1.491.163 3.032.19 4.553a36.847 36.847 0 01-.6 7.56c-.248 1.187-.577 2.362-.89 3.467-.336 1.171-.69 2.343-1.055 3.507a190.608 190.608 0 01-2.274 6.776c-1.7 4.791-3.576 9.546-5.2 13.629q-.87 2.178-1.744 4.349c-3.043 7.579-6.192 15.413-8.794 23.3a114.277 114.277 0 00-5.951 28.221 76.885 76.885 0 00-.124 7.2c.032 1.048.095 2.145.185 3.364a17.5 17.5 0 00.38 2.722 5.792 5.792 0 00.624 1.61 3.762 3.762 0 001.1 1.16 5.225 5.225 0 001.38.628 16.82 16.82 0 001.711.412l.251.051c.8.165 1.6.332 2.4.525 1.153.281 2.353.639 3.667 1.091a57.15 57.15 0 016.835 2.934c1.864.927 3.729 1.93 5.532 2.9l.926.5c2.083 1.12 4.306 2.3 6.587 3.32a61.768 61.768 0 0014.169 4.3 60.971 60.971 0 007.418.843c.905.048 1.839.069 2.781.069 1.451 0 2.98-.054 4.55-.167 1.065-.077 2.226-.2 3.547-.379.685-.1 1.371-.209 2.054-.318l1.12-.179 1.715-.266c1.361-.215 2.726-.427 4.091-.646 4.911-.792 8.633-1.548 12.059-2.448a53.6 53.6 0 0011.345-4.259 34.956 34.956 0 004.947-3.156 28.321 28.321 0 004.244-4.036 14.631 14.631 0 002.836-5.222 18.422 18.422 0 00.617-2.747 22.81 22.81 0 00.243-3.168 35.745 35.745 0 00-.383-5.466c-.255-1.945-.645-3.886-.992-5.528-.182-.864-.372-1.726-.562-2.591q-.3-1.323-.576-2.649c-.157-.737-.3-1.474-.445-2.215l-.143-.715c-.241-1.208-.492-2.408-.741-3.613l-.047-.218-.69-3.281c-1.74-8.265-3.543-16.81-4.178-25.39a76.62 76.62 0 010-11.391 95.312 95.312 0 011.678-10.951c.748-3.762 1.594-7.575 2.412-11.26 1.408-6.328 2.861-12.871 3.861-19.387a99.19 99.19 0 001.259-15.589 68.993 68.993 0 00-.46-7.6c-.128-1.131-.306-2.229-.507-3.445-.069-.43-.136-.865-.2-1.295s-.135-.887-.208-1.328a25.5 25.5 0 00-1.555-5.897 10.423 10.423 0 00-1.485-2.452 6.93 6.93 0 00-2.125-1.729 65.076 65.076 0 00-.79-.127l-.147-.005a.607.607 0 00-.255.259 11.423 11.423 0 01-1.211 1.985 14.3 14.3 0 01-2.438 2.393 22.312 22.312 0 01-4.813 2.712 36.968 36.968 0 01-8.882 2.347.6.6 0 00-.128.014.093.093 0 00-.028 0h-.008a36.7 36.7 0 01-3.919.3h-.492a30.652 30.652 0 01-3.977-.266 29.659 29.659 0 01-7.339-2l.095.058a25.365 25.365 0 01-5.327-3.127 19.919 19.919 0 01-3.328-3.328 16.261 16.261 0 01-3.266-7.8 19.849 19.849 0 01-.088-4.068.7.7 0 00-.01-.172 19.968 19.968 0 00-2.391-.35 24.994 24.994 0 00-.5-.036 9.95 9.95 0 00-.708.2" fill="#4a477c"/><path id="Path_179" data-name="Path 179" d="M613.652 312.226a24.166 24.166 0 01-5.3 2.992c.058-.025.113-.046.167-.072a62.857 62.857 0 01-10.5 3.108 120.7 120.7 0 01-10.373 1.88l.186-.022a80.458 80.458 0 01-21.3.3 47.818 47.818 0 01-11.871-3.134l.02.007a37.066 37.066 0 01-5-2.58.7.7 0 00-.708 1.212c8.276 5.1 18.234 6.6 27.809 6.459a99.3 99.3 0 0014.691-1.412q3.481-.58 6.926-1.361c2.393-.537 4.784-1.127 7.123-1.872a39.052 39.052 0 004.677-1.81 22.4 22.4 0 004.167-2.485.771.771 0 00.321-.42.69.69 0 00-.069-.539.7.7 0 00-.419-.322.8.8 0 00-.2-.024.584.584 0 00-.339.093m-59.143 4.992l.051.021-.051-.021" fill="#4a477c"/><path id="Path_180" data-name="Path 180" d="M625.781 162.07c-.894 2.324-1.9 4.609-2.926 6.875-.993 2.178-2 4.345-2.929 6.548-.3.712-.59 1.42-.864 2.138a187.366 187.366 0 00-2.346 6.503c-1.019 3.007-1.964 6.039-2.807 9.1s-1.6 6.123-2.24 9.224q-.963 4.675-1.617 9.412l.012-.063c-.391 2.908-.7 5.831-.877 8.761s-.255 5.868-.214 8.806q.06 4.338.4 8.673c.223 2.857.537 5.707.916 8.549v-.01a216.995 216.995 0 002.292 13.53q.668 3.327 1.4 6.644c.249 1.114.5 2.226.748 3.339.205.9.412 1.8.606 2.7a101.35 101.35 0 011 5.222c.273 1.708.51 3.419.657 5.142a47.735 47.735 0 01.182 5.348 35.5 35.5 0 01-.478 5.044 26.4 26.4 0 01-1.77 6.043 22.73 22.73 0 01-1.584 3.036 23.163 23.163 0 01-1.78 2.469 32.369 32.369 0 01-2.255 2.431c-.7.678-1.413 1.331-2.16 1.949a35.733 35.733 0 01-4.682 3.291 37.918 37.918 0 01-5.057 2.477 42.008 42.008 0 01-5.529 1.785 55.043 55.043 0 01-11.571 1.532 81.155 81.155 0 01-12.2-.6c-4-.486-7.977-1.2-11.91-2.081a178.124 178.124 0 01-11.414-2.981q-1.4-.41-2.788-.839c-.42-.128-.839-.255-1.255-.387-.489-.153-.978-.31-1.467-.456l-.109-.033c1.269.659 2.533 1.336 3.743 1.989l.927.5c2.084 1.124 4.309 2.306 6.587 3.317.729.328 1.474.638 2.226.934 6.309 2.97 14.015 4.477 22.9 4.477.4 0 .807 0 1.207-.007a99.2 99.2 0 0014.7-1.413c2.265-.379 4.6-.838 6.933-1.364 2.916-.657 5.112-1.233 7.123-1.876a39.189 39.189 0 004.677-1.809c.377-.176.748-.358 1.117-.552a44.736 44.736 0 003.977-1.839 35.813 35.813 0 004.955-3.156 28.75 28.75 0 004.244-4.039 14.678 14.678 0 002.835-5.23 18.357 18.357 0 00.624-2.754 23.361 23.361 0 00.245-3.164 36.818 36.818 0 00-.383-5.47c-.256-1.923-.646-3.875-.993-5.535l-.419-1.923-.092-.434-.05-.234q-.3-1.32-.577-2.649c-.157-.737-.3-1.467-.445-2.207l-.142-.72c-.18-.894-.362-1.78-.548-2.667l-.193-.949-.048-.218-.689-3.281c-1.745-8.261-3.547-16.81-4.178-25.382a75.386 75.386 0 010-11.388 95.113 95.113 0 011.678-10.955c.73-3.685 1.559-7.421 2.361-11.037l.026-.107.022-.109.032-.138c1.394-6.3 2.835-12.791 3.832-19.257a99.057 99.057 0 001.258-15.587 69.6 69.6 0 00-.459-7.6c-.127-1.105-.3-2.171-.507-3.444-.07-.431-.135-.858-.2-1.285l-.066-.43-.051-.307-.091-.6a40.33 40.33 0 00-.423-2.251 57.744 57.744 0 01-1.066 3.035" fill="#444173"/><path id="Path_181" data-name="Path 181" d="M643.222 211.96a.777.777 0 00-.181.022.716.716 0 00-.5.873c.4 1.5.779 3.049 1.161 4.74a8.252 8.252 0 00-1.057-1.162 10 10 0 00-3.207-1.987 12.4 12.4 0 00-3.791-.815 14.483 14.483 0 00-.861-.025 15.24 15.24 0 00-7.011 1.73 14.332 14.332 0 00-3.362 2.41 13.355 13.355 0 00-2.564 3.458 11.35 11.35 0 00-.65 1.523c-.25-2.088-.47-4.185-.635-6.231a.739.739 0 00-.207-.5.7.7 0 00-.5-.207.763.763 0 00-.54.247.6.6 0 00-.169.463c.287 3.544.729 7.161 1.313 10.751 0 .283.008.568.022.853a.625.625 0 00.185.378 160.291 160.291 0 005.515 22.152 178.812 178.812 0 006.192 16.284c1.23 2.815 2.447 5.4 3.723 7.893 1.4 2.745 2.924 5.5 4.24 7.864l1.286 2.3c1.237 2.209 2.517 4.494 3.739 6.763 1.343 2.493 3.075 5.787 4.552 9.162a16.95 16.95 0 01.665 2.05l.036.13.2.74c.178.667.357 1.334.557 2a19.758 19.758 0 001.015 2.732 6.979 6.979 0 001.44 2.1 4.295 4.295 0 002.86 1.126 2.456 2.456 0 001.479-.435c.956-.694 1.362-2 1.2-3.88l-.01-.108-.008-.1c.221.328.462.646.709.959a28.352 28.352 0 004.026 4.3 8 8 0 004.592 2.174c.068 0 .135.005.2.005a4.488 4.488 0 002.087-.546 2.268 2.268 0 001.14-1.492 3.634 3.634 0 00-.494-2.3 9 9 0 00-.764-1.195 4.1 4.1 0 00.475.248 10.527 10.527 0 002.385.822 5.5 5.5 0 001.025.107 3.319 3.319 0 001.11-.177 2.594 2.594 0 001.52-1.4 2.428 2.428 0 00.2-.99 2.6 2.6 0 00-.27-1.076 5.561 5.561 0 00-1.319-1.7 14.333 14.333 0 00-1.376-1.084 6.835 6.835 0 00.964.062 8.678 8.678 0 00.994-.056 4.033 4.033 0 001.782-.545 1.559 1.559 0 00.755-1.414 2.908 2.908 0 00-1.024-1.739 9.974 9.974 0 00-1.122-.876 15.652 15.652 0 00-1.642-.994 23.106 23.106 0 00-3.4-1.4c-.443-.152-.889-.3-1.335-.444-.913-.3-1.857-.608-2.766-.967a13.926 13.926 0 01-3.012-1.62 13.54 13.54 0 01-2.217-2.188 19.761 19.761 0 01-2.538-4.439 58.5 58.5 0 01-2.8-10.01c-.186-.863-.374-1.724-.57-2.584q-1.036-4.532-2.094-9.059t-2.095-9.058l-.185-.808c-.611-2.668-1.243-5.425-1.807-8.153-.652-3.168-1.192-6.317-1.591-8.706q-.453-2.717-.883-5.436c-.635-3.963-1.292-8.062-2.069-12.073-.635-3.251-1.3-6.17-2.036-8.922a.717.717 0 00-.691-.521" fill="#f9c29d"/><path id="Path_182" data-name="Path 182" d="M618.908 222.669a.716.716 0 00-.42.322.763.763 0 00-.069.54 148.263 148.263 0 008.8 31.7 135.42 135.42 0 0010.121 20.38.7.7 0 101.208-.708 134.038 134.038 0 01-8.972-17.6c.021.055.047.109.069.168a149.494 149.494 0 01-9.418-31.63q-.241-1.341-.456-2.689a.674.674 0 00-.321-.419.69.69 0 00-.352-.1.7.7 0 00-.188.026" fill="#f9c29d"/><path id="Path_183" data-name="Path 183" d="M643.034 211.959a.741.741 0 00-.5.9c.4 1.514.781 3.064 1.16 4.739a5.848 5.848 0 00-1.028-1.181 10.037 10.037 0 00-3.212-1.989 12.45 12.45 0 00-3.8-.821 12.966 12.966 0 00-.861-.025 15.216 15.216 0 00-7.021 1.736 14.389 14.389 0 00-3.368 2.412 13.237 13.237 0 00-2.565 3.467 11 11 0 00-.649 1.521 247.47 247.47 0 01-.6-6.221.775.775 0 00-.216-.518.712.712 0 00-.514-.215.789.789 0 00-.555.255.628.628 0 00-.175.478 130.12 130.12 0 001.077 9.224c-.136-.853-.281-1.711-.417-2.565a.694.694 0 00-.331-.434.722.722 0 00-.362-.1.587.587 0 00-.193.034.713.713 0 00-.431.328.781.781 0 00-.073.547q.75 4.746 1.836 9.473a46.857 46.857 0 007.251.642h-.063a36.4 36.4 0 009.341-1.076 27.089 27.089 0 003.069-1 23.636 23.636 0 002.736-1.315l-.04.023a20.084 20.084 0 002.175-1.442.244.244 0 01.139-.047.237.237 0 01.19.091.235.235 0 01.044.121.2.2 0 01.076.13 273.67 273.67 0 003.281 20.423 348.738 348.738 0 004.013 17.706q.461 1.812.912 3.631c.289 1.175.573 2.349.873 3.521.613 2.411 1.269 4.809 2.072 7.166-.007-.017-.011-.032-.018-.047a37.389 37.389 0 004.2 8.827l-.033-.051a22.205 22.205 0 001.339 1.792 11.62 11.62 0 001.059 1.081l.007.006-.007-.006h-.005a16.678 16.678 0 003.46 2.234c-.018-.008-.037-.019-.055-.026 1.369.683 2.788 1.251 4.208 1.818s2.831 1.112 4.2 1.784a15.957 15.957 0 013.55 2.233 11.168 11.168 0 01.924.9v-.156a2.913 2.913 0 00-1.033-1.755 9.191 9.191 0 00-1.124-.876 16.1 16.1 0 00-1.645-1 22.955 22.955 0 00-3.4-1.4c-.441-.15-.887-.3-1.332-.442-.861-.284-1.835-.6-2.766-.966a14.018 14.018 0 01-3.006-1.621 13.466 13.466 0 01-2.215-2.189 19.917 19.917 0 01-2.54-4.43 57.892 57.892 0 01-2.785-9.984l-.2-.886-.19-.861-.19-.865q-1.045-4.531-2.1-9.057t-2.094-9.06l-.186-.807c-.632-2.747-1.245-5.44-1.8-8.156-.649-3.137-1.189-6.3-1.591-8.7q-.455-2.716-.883-5.434l-.047-.295c-.621-3.857-1.26-7.845-2.022-11.779a134.71 134.71 0 00-2.04-8.929.736.736 0 00-.708-.536.992.992 0 00-.19.021m19.822 81.223a.235.235 0 01.036.033c-.011-.012-.025-.022-.036-.033" fill="#e8b592"/><path id="Path_184" data-name="Path 184" d="M667.94 300.245a.27.27 0 00.021.2.311.311 0 00.161.124c.051.022.1.041.153.062-.022-.008-.044-.018-.066-.025.453.193.9.4 1.34.616.485.245.963.511 1.434.781.9.519 1.784 1.062 2.689 1.572a.254.254 0 00.347-.09.26.26 0 00-.092-.351c-.952-.54-1.849-1.164-2.78-1.737a16.387 16.387 0 00-1.431-.784 8.5 8.5 0 00-1.455-.547.216.216 0 00-.07-.01.259.259 0 00-.251.188" fill="#e8b592"/><path id="Path_185" data-name="Path 185" d="M664.311 304.076a.271.271 0 00-.029.193.268.268 0 00.124.161c.55.4 1.109.784 1.664 1.179s1.108.806 1.652 1.225l-.054-.044c.448.351.9.708 1.332 1.08.474.4.93.829 1.371 1.267a.233.233 0 00.329-.329 35.958 35.958 0 00-2.905-2.627 36.884 36.884 0 00-1.426-1.083c-.552-.4-1.117-.77-1.7-1.118a.261.261 0 00-.357.1" fill="#e8b592"/><path id="Path_186" data-name="Path 186" d="M621.348 151.488a.709.709 0 00-.237.241.783.783 0 00-.073.548l.021.161.023.159.007-.094-.011-.1a61.333 61.333 0 01-.533 15.6l-.014.1c-.2 1.47-.409 2.875-.613 4.284-.18 1.212-.358 2.426-.526 3.641a223.533 223.533 0 00-.565 4.46c-.154 1.244-.3 2.485-.467 3.729-.27 2.014-.567 4.035-.858 6.061-1.409 9.684-2.865 19.7-1.985 29.626a43.54 43.54 0 001.752 9.385.8.8 0 00.2.325.635.635 0 00.46.4 44.807 44.807 0 006.867.686c.292.008.584.011.872.011a44.545 44.545 0 006.127-.441 36.121 36.121 0 0013.125-4.416 30.567 30.567 0 003.784-2.6 28.053 28.053 0 003.474-3.328.661.661 0 00.117-.163.728.728 0 00.011-.734 36.921 36.921 0 01-2.113-4.237v.011a67.544 67.544 0 01-3.832-14.186c-.478-2.708-.879-5.478-1.266-8.156-.329-2.255-.668-4.591-1.047-6.878-.449-2.69-.916-5.025-1.438-7.149a71.468 71.468 0 00-1.605-5.495 52.582 52.582 0 00-5.021-11.035 28.306 28.306 0 00-5.85-6.958 19.328 19.328 0 00-3.7-2.448 19.628 19.628 0 00-1.468-.645c-.672-.174-1.347-.333-2.022-.494-.44-.079-.88-.152-1.323-.226a.7.7 0 00-.277.346" fill="#4a477c"/><path id="Path_187" data-name="Path 187" d="M626.8 152.763a28.7 28.7 0 013.025 3.419 31.48 31.48 0 012.81 4.466 39.514 39.514 0 012.1 4.839 62.676 62.676 0 012.695 10.713c.645 3.795 1.076 7.623 1.478 11.451.4 3.88.778 7.772 1.3 11.641v.039a69.581 69.581 0 004.339 17.691c0-.011-.011-.019-.015-.029a39.182 39.182 0 002.1 4.258c.485.838 1 1.651 1.546 2.444.178-.135.357-.273.534-.415a28.106 28.106 0 003.474-3.328.938.938 0 00.117-.172.742.742 0 00.014-.748 37.507 37.507 0 01-2.116-4.236 67.39 67.39 0 01-3.82-14.173c-.475-2.678-.883-5.473-1.241-7.936l-.029-.215c-.34-2.332-.671-4.613-1.044-6.879-.452-2.686-.923-5.024-1.442-7.155-.444-1.8-.974-3.6-1.608-5.5A52.217 52.217 0 00636 161.907a28.419 28.419 0 00-5.85-6.966 19.529 19.529 0 00-3.537-2.361c.063.061.128.121.191.183m17.749 64.258l.011.029-.011-.029" fill="#444173"/><path id="Path_188" data-name="Path 188" d="M574.852 140.268a18.265 18.265 0 00-.007 3.372 17.974 17.974 0 00.627 3.225 18.828 18.828 0 002.858 5.769 22.029 22.029 0 0010.421 7.74 28.079 28.079 0 007.678 1.489 34.009 34.009 0 008.359-.5 35.425 35.425 0 007.768-2.387 27.4 27.4 0 003.241-1.648 18.567 18.567 0 002.9-2.146 13.641 13.641 0 002.754-3.47l.022-.033a.736.736 0 00.172-.507v-.019l-.371-.059c-.351-.01-.7-.022-1.056-.035-.157.248-.3.507-.46.762a14.175 14.175 0 01-2.2 2.515 20.6 20.6 0 01-4.317 2.795 35.15 35.15 0 01-8.393 2.806l.176-.033a34.33 34.33 0 01-8.422.58 28.6 28.6 0 01-6.878-1.244c-.008 0-.019 0-.026-.008l-.018-.007a22.325 22.325 0 01-4.893-2.368 21.461 21.461 0 01-4.236-3.675 19.8 19.8 0 01-2.715-4.072 17.722 17.722 0 01-1.394-4.171 17.052 17.052 0 01-.249-3.966l.034-.442v-.031c-.04-.008-.084-.019-.128-.029a19.462 19.462 0 00-1.248-.237v.032" fill="#444173"/><path id="Path_189" data-name="Path 189" d="M589.7 159.228l.023.007a.353.353 0 00-.039-.012h.016" fill="#444173"/><path id="Path_190" data-name="Path 190" d="M589.679 159.221l-.02-.007.02.007" fill="#444173"/><path id="Path_191" data-name="Path 191" d="M593 51.029h-.408a57.029 57.029 0 00-6.836.386 35.833 35.833 0 00-13.078 4.023A30.253 30.253 0 00567.2 59.3a34.382 34.382 0 00-4.606 5.048 24.368 24.368 0 00-1.9 2.917 15.317 15.317 0 00-1.373 3.221 11.606 11.606 0 00-.358 1.687 9.452 9.452 0 00-.054 1.694 7.567 7.567 0 00.138 1.111 11.321 11.321 0 00-1.736.881 14.083 14.083 0 00-2.012 1.533 18.071 18.071 0 00-3.268 4.053 25.427 25.427 0 00-2.314 5.044 30.8 30.8 0 00-1.314 5.5 29.782 29.782 0 00-.146 7.764 18.932 18.932 0 001.972 6.681.724.724 0 00.983.259.879.879 0 00.5-.376.792.792 0 00.074-.553l-.037-.136a10.894 10.894 0 01-.026-2.435 10.277 10.277 0 01.624-2.387 13.88 13.88 0 011.75-2.964 42.486 42.486 0 015.456-5.457c.506-.447 1.01-.892 1.506-1.34a38.261 38.261 0 003.416-3.435 15.136 15.136 0 002.49-3.862 10.785 10.785 0 00.61-1.856 10.047 10.047 0 00.218-1.4 13.746 13.746 0 001.377.191 28.85 28.85 0 002.891.127c.613 0 1.222-.014 1.832-.033.856-.025 1.708-.064 2.564-.1.826-.038 1.628-.074 2.431-.1a49.833 49.833 0 013.908.029 24.915 24.915 0 013.9.532 21.6 21.6 0 015.004 1.822 20.755 20.755 0 014.337 3.152 52.112 52.112 0 015.914 7.194l.172.236c.464.641.93 1.282 1.4 1.913 2.355 3.158 5.023 6.381 8.569 8.556a15.631 15.631 0 002.03 1.062 11.427 11.427 0 002.067.654 7.2 7.2 0 001.593.179 6.718 6.718 0 002.489-.468 7.608 7.608 0 003.453-3.1 12.894 12.894 0 001.307-2.838 20.681 20.681 0 00.737-3.261.592.592 0 00.289-.348 41.822 41.822 0 001.846-8.515 37.321 37.321 0 00-.106-6.636 35.882 35.882 0 00-3.793-12.859A26.349 26.349 0 00615.287 58c-.913-.605-1.969-1.217-3.321-1.931a42.358 42.358 0 00-3.585-1.69 45.755 45.755 0 00-7.66-2.449 36.438 36.438 0 00-7.72-.9" fill="#e24555"/><path id="Path_192" data-name="Path 192" d="M597.729 51.413a40.575 40.575 0 016.16 1.715 30.618 30.618 0 015.721 2.82 31.425 31.425 0 015.382 4.368q1.336 1.359 2.536 2.839t2.278 3.022a48.273 48.273 0 013.977 6.863 41.891 41.891 0 012.686 7.339 34.81 34.81 0 01.726 3.515q.225.837.419 1.68.178.774.333 1.55a37.53 37.53 0 00-.125-6.377 35.887 35.887 0 00-3.8-12.866 26.31 26.31 0 00-8.731-9.889 37.749 37.749 0 00-3.321-1.93 42.85 42.85 0 00-3.587-1.689 45.546 45.546 0 00-7.659-2.453 37.274 37.274 0 00-3.724-.649c.243.044.484.091.729.142" fill="#cc3e4c"/><path id="Path_193" data-name="Path 193" d="M627.57 88.118c.026.507.048 1.018.069 1.529.053-.3.1-.605.141-.908a76.32 76.32 0 00-.243-1.282c.012.22.022.441.033.661" fill="#cc3e4c"/><path id="Path_195" data-name="Path 195" d="M628.767 91.872c.043.278.084.558.126.837.176 1.182.346 2.364.526 3.545a9.8 9.8 0 001.073-2.688 1.4 1.4 0 00-1.358-1.744 1.382 1.382 0 00-.367.05" fill="#cc3e4c"/><path id="Path_196" data-name="Path 196" d="M627.78 92.873c0 .015-.011.025-.015.04.026.577.051 1.157.08 1.733.326.836.654 1.668 1 2.5l.2-.288-.046-.3c-.23-1.492-.441-2.986-.667-4.48a1.465 1.465 0 00-.548.795" fill="#cc3e4c"/><path id="Path_197" data-name="Path 197" d="M629.294 92.764c-.116.087-.235.173-.354.257.135.916.268 1.831.406 2.746a11.314 11.314 0 001.3-.861 1.345 1.345 0 00.563-.807 1.268 1.268 0 00-.975-1.5 1.383 1.383 0 00-.277-.029 1.139 1.139 0 00-.661.194" fill="#cc3e4c"/><path id="Path_198" data-name="Path 198" d="M627.8 93.73l.044.916c.2.522.408 1.044.616 1.562.151-.066.3-.138.448-.211-.137-.9-.267-1.794-.4-2.69-.232.149-.469.29-.709.423" fill="#cc3e4c"/><path id="Path_200" data-name="Path 200" d="M599.035 66.354a.244.244 0 00.182.278c.117.036.234.076.351.117l-.056-.023a20.308 20.308 0 014.556 2.3 39.121 39.121 0 017.473 6.921l-.016-.019.04.047.029.034-.005-.009c1.5 1.74 2.893 3.557 4.26 5.4q1.012 1.362 2 2.737c.628.876 1.233 1.766 1.861 2.641.6.84 1.223 1.661 1.832 2.493.635.872 1.248 1.759 1.894 2.62a25.292 25.292 0 002.065 2.459 10.65 10.65 0 002.43 1.869 8.019 8.019 0 003.394.951 10.642 10.642 0 004.094-.623.868.868 0 00.31-1.482.812.812 0 00-.62-.215 13.992 13.992 0 01-3.19.24 9.141 9.141 0 01-1.954-.387 9.536 9.536 0 01-1.83-.921A17.014 17.014 0 01625.149 91l.038.045c-.019-.02-.036-.042-.055-.063a7.01 7.01 0 01-.113-.13l.088.1c-.677-.789-1.333-1.6-2-2.392s-1.354-1.583-2.025-2.382a165.374 165.374 0 01-2.066-2.492c-.712-.876-1.4-1.77-2.116-2.645a72.678 72.678 0 00-9.44-10.112 24.527 24.527 0 00-8.148-4.755.165.165 0 00-.054-.008.248.248 0 00-.223.187m5.053 2.685l.022.016-.022-.016m24.091 24.77l.084.058a1.249 1.249 0 01-.084-.058m1.645.847l.078.024-.078-.024m.2.065l.07.025a.978.978 0 01-.07-.025m1.719.358l.141.008-.141-.008m-6.608-4.1l.017.018q-.023-.024-.042-.048c.007.01.016.019.025.03M611.589 76a.311.311 0 01-.024-.027l-.024-.028a.609.609 0 00.048.055" fill="#cc3e4c"/><path id="Path_201" data-name="Path 201" d="M612.259 66.295a.394.394 0 00.143.519c.084.06.171.125.253.185l-.011-.009.02.017.012.007-.011-.007a27.18 27.18 0 013.017 2.711 43.986 43.986 0 013.03 3.49 53.526 53.526 0 013.523 5.22 44.321 44.321 0 012.8 5.509 35.487 35.487 0 012.364 8.718l-.023-.193.023.2c.007.067.017.114.025.171l-.024-.167a17.287 17.287 0 01.165 2.068 1.371 1.371 0 002.741 0c0-.475.014-.945-.007-1.42a18.877 18.877 0 00-.205-1.824 19.387 19.387 0 00-.755-3.1 37.7 37.7 0 00-2.857-6.455c-.569-1.047-1.2-2.066-1.847-3.069s-1.335-2-2.062-2.959-1.488-1.887-2.28-2.8a49.097 49.097 0 00-2.331-2.517 43.16 43.16 0 00-5.186-4.434.289.289 0 00-.173-.055.413.413 0 00-.345.2m6.4 6.849l.026.036-.026-.036m-5.993-6.143l-.01-.007.01.008" fill="#cc3e4c"/><path id="Path_202" data-name="Path 202" d="M582.233 76.465q1.166.048 2.325.193l-.07-.01a22.559 22.559 0 015.459 1.408h-.008a22.29 22.29 0 014.8 2.728l-.016-.01a45.236 45.236 0 017.619 7.87 100.6 100.6 0 007.5 8.707 22.151 22.151 0 004.313 3.471 9.985 9.985 0 005.587 1.349 11.45 11.45 0 005.3-1.861 21 21 0 002.528-1.9 23.022 23.022 0 002.42-2.41 1.483 1.483 0 00.4-.974 1.4 1.4 0 00-1.4-1.4 1.34 1.34 0 00-1 .421 24.823 24.823 0 01-3.61 3.586 14.207 14.207 0 01-2.9 1.743 9.97 9.97 0 01-2.178.6 8.209 8.209 0 01-1.731 0 9.765 9.765 0 01-2.1-.576 14.984 14.984 0 01-3.045-1.807 54.888 54.888 0 01-8.133-8.059 68.829 68.829 0 00-7.593-8.004 24.348 24.348 0 00-6.222-3.875 24.043 24.043 0 00-8.246-1.738h-.013c-.341 0-.333.534.013.548m42.128 21.186l-.183.146.183-.146" fill="#cc3e4c"/><path id="Path_203" data-name="Path 203" d="M579.611 70.475a21.147 21.147 0 00-4.638.573.247.247 0 10.128.478 19.83 19.83 0 011.748-.322h-.022a20.784 20.784 0 015.251.016 27.612 27.612 0 016.513 1.773l-.033-.015a34.4 34.4 0 017.762 4.407l-.069-.051a50.852 50.852 0 015.561 4.828 69.228 69.228 0 012.429 2.6 55.42 55.42 0 012.092 2.533l.069.094.164.208a.971.971 0 00.438.249 1 1 0 00.752-.1.98.98 0 00.455-.6.928.928 0 00-.1-.748c-.7-.945-1.413-1.872-2.186-2.754a35.077 35.077 0 00-2.465-2.544q-1.341-1.247-2.783-2.379a40.721 40.721 0 00-3.062-2.211 45.475 45.475 0 00-6.542-3.532 30.754 30.754 0 00-6.893-2.113 25.043 25.043 0 00-4.345-.388h-.224m9.06 2.551l-.08-.032a.952.952 0 00.08.032M576.849 71.2c.015 0 .029 0 .044-.006l-.044.006" fill="#cc3e4c"/><path id="Path_204" data-name="Path 204" d="M583.364 53.8a23.343 23.343 0 00-3.244.65 25.3 25.3 0 00-2.985 1.007 29.608 29.608 0 00-5.732 3.1 26.309 26.309 0 00-6.6 6.7 22.274 22.274 0 00-1.493 2.609 21.086 21.086 0 00-1.8 5.514.479.479 0 10.949.124c.065-.358.146-.712.237-1.062l-.033.12a17.685 17.685 0 011.716-4.107l-.012.021a22.63 22.63 0 013.491-4.541 29.056 29.056 0 015.9-4.455 24.319 24.319 0 0111.932-3.2q.852.009 1.7.076c.321.025.646.054.967.087s.642.054.96.11a1.234 1.234 0 001.142-1.964 1.288 1.288 0 00-.829-.477 1.619 1.619 0 00-.116-.027l.1.027a13.745 13.745 0 00-1.408-.3 14.2 14.2 0 00-1.572-.135 20.177 20.177 0 00-.852-.016 20.629 20.629 0 00-2.425.14m-18.905 14.541a2.35 2.35 0 01-.049.085l.049-.085" fill="#cc3e4c"/><path id="Path_205" data-name="Path 205" d="M580.225 59.171a16.763 16.763 0 00-4.119 1.036 18.172 18.172 0 00-3.741 1.989 22.258 22.258 0 00-5.787 6.207.472.472 0 00.087.65.464.464 0 00.65-.085 20.358 20.358 0 012.482-3.044 21.2 21.2 0 014.164-3.215 17.174 17.174 0 013.836-1.593 21.473 21.473 0 012.618-.488.733.733 0 00-.107-1.461.769.769 0 00-.083 0" fill="#cc3e4c"/><path id="Path_206" data-name="Path 206" d="M563.294 81.355a12.381 12.381 0 01-.693 1.423l.03-.051a15.573 15.573 0 01-2.457 3.113c.025-.026.051-.055.077-.08-1.562 1.539-3.346 2.823-5.029 4.225a31.494 31.494 0 00-2.462 2.258 17.464 17.464 0 00-2.138 2.73 20.036 20.036 0 00-1.884 3.685 19.519 19.519 0 00-1.036 3.9 19.82 19.82 0 00-.193 4.007 25.229 25.229 0 00.5 3.989 27 27 0 00.773 2.89.649.649 0 00.69.4.66.66 0 00.434-.247.652.652 0 00.132-.486 33.212 33.212 0 01-.607-3.233 25.659 25.659 0 01-.232-3.159 24.648 24.648 0 01.755-5.934c-.023.077-.041.153-.063.23a22.308 22.308 0 012.19-5.393l-.051.082a17.788 17.788 0 011.521-2.187 24.191 24.191 0 011.657-1.807c1.6-1.58 3.318-3.025 4.9-4.623a22.812 22.812 0 002.2-2.536 13.6 13.6 0 001.635-2.931.354.354 0 00-.193-.459.327.327 0 00-.129-.026.351.351 0 00-.327.219" fill="#cc3e4c"/><path id="Path_207" data-name="Path 207" d="M600.384 54.3a29.2 29.2 0 013.065 1.276l-.014-.007a38.689 38.689 0 018.1 5.343c-.024-.02-.05-.04-.074-.062a52.841 52.841 0 019.127 10.305 3.46 3.46 0 00-.082-.117c.061.086.119.173.179.259v-.006l.011.017-.012-.018-.011-.015q.041.057.078.114c.035.052.07.1.105.156l-.018-.027a47.2 47.2 0 015.378 10.417l-.016-.035a32.614 32.614 0 01.909 3.153c.124.54.234 1.088.328 1.635.1.532.2 1.076.249 1.616a1.351 1.351 0 00.605.9 1.391 1.391 0 001.927-.4c.051-.106.1-.211.157-.317a1.4 1.4 0 00.044-.712c-.048-.5-.084-1.006-.153-1.506-.077-.551-.184-1.1-.3-1.639a31.187 31.187 0 00-.971-3.393 35.31 35.31 0 00-2.846-6.211 42.412 42.412 0 00-4.2-6.01c-.774-.926-1.583-1.824-2.433-2.682s-1.712-1.719-2.624-2.518c-1.306-1.145-2.638-2.263-4.025-3.306q-1.955-1.467-4.029-2.77a40.383 40.383 0 00-8.254-4.028.31.31 0 10-.2.588m3.079 1.283l.049.023-.049-.023m22.773 26.427l.089.255-.089-.255m-5.406-10.5l-.087-.129-.063-.092c.049.074.1.149.15.221" fill="#cc3e4c"/><path id="Path_208" data-name="Path 208" d="M610.4 92.517a.518.518 0 00-.072.73 19.971 19.971 0 003.863 3.474 19.279 19.279 0 002.263 1.332 13.636 13.636 0 002.467.977 11.162 11.162 0 005.272.249A9.433 9.433 0 00629.1 96.6l.241-.255a1.431 1.431 0 00.251-.654 1.378 1.378 0 00-1.218-1.518 1.405 1.405 0 00-.72.117 1.381 1.381 0 00-.533.432 11.1 11.1 0 01-1.779 1.482 9.021 9.021 0 01-1.8.81 10.386 10.386 0 01-2.243.336 13.438 13.438 0 01-3.131-.366 14.251 14.251 0 01-3.141-1.219 14.841 14.841 0 01-2.888-2.092c-.355-.345-.7-.705-1.018-1.083a.523.523 0 00-.4-.187.505.505 0 00-.325.117m1.8 1.2l.042.042-.042-.042m2.862 2.058l.1.053-.1-.053" fill="#cc3e4c"/><path id="Path_209" data-name="Path 209" d="M624.574 98.74a14.516 14.516 0 01-.941 2.259 9.959 9.959 0 01-1.329 1.835 8.326 8.326 0 01-1.375 1.11 7.953 7.953 0 01-1.638.737 8.165 8.165 0 01-1.8.3 9.882 9.882 0 01-2.467-.259 9.987 9.987 0 01-1.584-.559 14.628 14.628 0 01-.718-.222 9.6 9.6 0 01-1.456-.632 15.25 15.25 0 01-.322-.182.417.417 0 00-.037.12l.153.136.012.01-.012-.01h-.006q.719.617 1.483 1.175l.1.059c.31.19.624.372.938.551a11.644 11.644 0 001.828.719 9.122 9.122 0 004.451.19 8.01 8.01 0 003.927-2.131 9.069 9.069 0 00.824-.931 8.42 8.42 0 00.756-1.2 10.072 10.072 0 00.519-1.127 10.967 10.967 0 00.437-1.508.884.884 0 00-.077-.467.918.918 0 00-.492-.471.92.92 0 00-1.172.511m-13.5 4.649a.151.151 0 01.029.026.151.151 0 00-.029-.026m6.342 1.591h-.073a.43.43 0 01.073 0" fill="#cc3e4c"/><path id="Path_210" data-name="Path 210" d="M579.124 92.917a58.305 58.305 0 011.021 6.882c.071.9.115 1.8.131 2.712.008.462.005.929-.006 1.39l-.006.217a5.983 5.983 0 00-.981-.561 3.768 3.768 0 00-.951-.286 3.424 3.424 0 00-.97-.016 3.2 3.2 0 00-1.6.692 3.737 3.737 0 00-.6.62 3.438 3.438 0 00-.427.675 5.125 5.125 0 00-.34.858 5.928 5.928 0 00-.185 1 4.67 4.67 0 000 .819 5.821 5.821 0 00.166 1.053 5.066 5.066 0 002.56 3.2 6.606 6.606 0 002.946.7.728.728 0 00.75-.675.707.707 0 00-.188-.52.748.748 0 00-.484-.23 12.37 12.37 0 01-.47-.069 6.789 6.789 0 01-1.394-.428 5.119 5.119 0 01-.884-.552 4.657 4.657 0 01-.628-.674 4.725 4.725 0 01-.449-.857 5.012 5.012 0 01-.209-.958 5.127 5.127 0 01.053-1.065 4.552 4.552 0 01.274-.85 3.829 3.829 0 01.358-.571 2.983 2.983 0 01.372-.347 2.863 2.863 0 01.383-.2 2.506 2.506 0 01.411-.088 3.084 3.084 0 01.508.028 4.292 4.292 0 01.734.242 5.858 5.858 0 01.625.363c.284.191.546.414.822.62a.648.648 0 00.656.028.638.638 0 00.349-.543c-.027-.517-.018-1.042-.026-1.559s-.031-1.05-.058-1.57c-.058-1.1-.162-2.2-.285-3.3-.246-2.142-.631-4.269-1.066-6.382a.468.468 0 00-.551-.354.473.473 0 00-.358.552m-1.832 11.987l-.053.018.053-.018m1.777.184l.044.02-.044-.02m-2.928 3.825l.038.109-.038-.109m1.793 1.975l.1.045-.1-.045" fill="#c79b7d"/><path id="Path_211" data-name="Path 211" d="M592.963 85.138c-2.23.486-3.629 1.522-3.649 2.7a1.866 1.866 0 00.6 1.335c1.047 1.089 3.323 1.823 5.8 1.868a12.335 12.335 0 002.865-.265c2.229-.486 3.627-1.521 3.647-2.7.015-.83-.644-1.619-1.857-2.223a10.855 10.855 0 00-4.542-.981 12.329 12.329 0 00-2.865.266" fill="#cc3e4c"/><path id="Path_212" data-name="Path 212" d="M563.694 87.8a11.9 11.9 0 00-1.835.565c-2.968 1.188-4.923 3.309-4.36 4.729.441 1.092 2.279 1.491 4.573.991a12.029 12.029 0 001.842-.57 9.774 9.774 0 003.5-2.269 2.453 2.453 0 00.855-2.455c-.441-1.093-2.279-1.491-4.577-.991" fill="#cc3e4c"/><path id="Path_213" data-name="Path 213" d="M592.905 102.465c.134 2.571 1.685 4.584 3.46 4.491s3.106-2.256 2.972-4.828-1.684-4.584-3.459-4.491-3.107 2.255-2.973 4.828" fill="#2e2e2e"/><path id="Path_214" data-name="Path 214" d="M565.579 104.029c.128 2.464 1.614 4.393 3.314 4.3s2.977-2.161 2.848-4.625-1.613-4.391-3.314-4.3-2.976 2.161-2.848 4.624" fill="#2e2e2e"/><g id="Group_3130" data-name="Group 3130"><path id="Path_215" data-name="Path 215" d="M589.352 115.738a3.58 3.58 0 00-.786.3 7.409 7.409 0 00-.952.6c-.327.232-.635.487-.937.747-.208.179-.409.369-.606.561a8.091 8.091 0 00-.794.924 5.992 5.992 0 00-.746 1.311 3.1 3.1 0 00-.211.77c-.017.13-.029.26-.034.392a2.723 2.723 0 00.019.314.969.969 0 00-.125.366.481.481 0 00.448.5 6.369 6.369 0 001.411-.046c.107-.015.213-.035.319-.058a6.5 6.5 0 001.03-.325 5.308 5.308 0 001.213-.684 5.626 5.626 0 001.08-1.05 4.981 4.981 0 00.7-1.208 5.952 5.952 0 00.317-1.138 5.594 5.594 0 00.126-1.188 1.621 1.621 0 00-.109-.57.956.956 0 00-.315-.372.982.982 0 00-.334-.15 1.4 1.4 0 00-.514-.027 1.758 1.758 0 00-.2.032" fill="#ff9c94"/><path id="Path_216" data-name="Path 216" d="M587.052 112.252a4.387 4.387 0 00-1 .353 6.049 6.049 0 00-1 .61 10.253 10.253 0 00-1.077.948l-.1.1a6.3 6.3 0 01-.954.775c-.133.07-.229.12-.328.164a6.473 6.473 0 01-1.039.081h-.354a7.109 7.109 0 00-1.569.1l-.122.03a2.251 2.251 0 00-.857.407 1.807 1.807 0 00-.571.879 3.6 3.6 0 00-.1 1.3 5.264 5.264 0 00.32 1.471 4.905 4.905 0 001.513 2.051 6.359 6.359 0 001.043.685 6.725 6.725 0 001.274.523 8.981 8.981 0 004.474.185 8.353 8.353 0 00.836-.228 6.126 6.126 0 002.095-1.216 5.972 5.972 0 001.978-3.744 6.332 6.332 0 00-.06-1.98 5.354 5.354 0 00-.649-1.737 4.07 4.07 0 00-1.183-1.289 3.193 3.193 0 00-1.625-.548 3.49 3.49 0 00-.941.078m.68 4.97a6.351 6.351 0 011.325-.574q.129-.035.261-.063a5.133 5.133 0 01.92-.119h.033l-.033-.008v.009s-.037 0-.037-.009-.017 0-.031-.007l.179.016a.809.809 0 00.2-.011 1.243 1.243 0 01.058.414 5.948 5.948 0 01-.165 1.367 5.622 5.622 0 01-.48 1.2 5.791 5.791 0 01-.759 1.031 6.08 6.08 0 01-1.112.875l.015-.006a6.289 6.289 0 01-1.318.555 7.403 7.403 0 01-.35.084 8.4 8.4 0 01-1.579.187l-.127.011h.009a5.338 5.338 0 01.138-1.27 6.374 6.374 0 01.535-1.32 7.244 7.244 0 01.98-1.31 7.477 7.477 0 011.343-1.057z" fill="#2e2e2e"/></g></g></svg>