<svg xmlns="http://www.w3.org/2000/svg" width="533.966" height="73.005" viewBox="0 0 533.966 73.005">
  <g id="crunchyroll-case" transform="translate(-1.263 -1.082)">
    <path id="Path_32" data-name="Path 32" d="M542.349,81.627V19.573h10.914V81.718H542.349Z" transform="translate(-18.034 -13.64)" fill="#f47521"/>
    <path id="Path_33" data-name="Path 33" d="M518.808,81.627V19.573h10.914V81.718H518.808Z" transform="translate(-18.034 -13.64)" fill="#f47521"/>
    <path id="Path_34" data-name="Path 34" d="M509.608,59.259c0,14.973-7.486,23-21.286,23s-21.286-8.027-21.286-23,7.486-23,21.286-23S509.608,44.286,509.608,59.259Zm-10.373,0c0-12.086-4.059-14.341-10.373-14.341S478.49,47.173,478.49,59.259,482.549,73.6,488.863,73.6C494.635,73.6,499.235,71.345,499.235,59.259Z" transform="translate(-18.034 -18.669)" fill="#f47521"/>
    <path id="Path_35" data-name="Path 35" d="M462.435,36.259v9.2c-5.773,0-12.627,0-12.627,2.886V81.718H438.894V42.031C439.435,35.086,462.435,36.259,462.435,36.259Z" transform="translate(-14.935 -18.48)" fill="#f47521"/>
    <path id="Path_36" data-name="Path 36" d="M396.863,99.486c8.118-20.114,7.486-18.4,8.118-20.114L388.835,36.8H400.38l10.373,31.027L420.494,36.8h11.545l-17.227,46L408.5,99.486H396.863Z" transform="translate(-13.737 -30.541)" fill="#f47521"/>
    <path id="Path_37" data-name="Path 37" d="M382.522,54.659V81.718H371.608V54.027c0-4.059-1.173-8.027-10.914-8.027a30.132,30.132,0,0,0-7.486,1.173V81.718H342.294V19.573h10.914V37.431a21.418,21.418,0,0,1,9.2-1.714C375.577,36.259,382.522,43.114,382.522,54.659Z" transform="translate(-12.017 -13.64)" fill="#f47521"/>
    <path id="Path_38" data-name="Path 38" d="M322.18,73.059a36.068,36.068,0,0,0,11.545-2.345v9.2a31.637,31.637,0,0,1-13.259,2.255c-13.8,0-21.286-8.027-21.286-23s7.486-23.541,21.286-23.541a47.642,47.642,0,0,1,13.259,2.345v9.2a33.689,33.689,0,0,0-11.545-2.255c-7.486,0-12.086,2.255-12.086,13.8C310.094,70.714,314.694,73.059,322.18,73.059Z" transform="translate(-10.383 -18.517)" fill="#f47521"/>
    <path id="Path_39" data-name="Path 39" d="M292.235,53.486V81.627H281.863V53.486c0-4.059,0-8.027-9.2-8.027-2.886,0-8.659.541-8.659,2.255V81.627H253.631V44.286c0-7.486,9.2-8.659,20.655-8.659C285.922,36.259,292.235,40.859,292.235,53.486Z" transform="translate(-8.865 -18.334)" fill="#f47521"/>
    <path id="Path_40" data-name="Path 40" d="M243.349,36.8V61.514c0,13.259-4.6,21.286-20.114,21.286s-19.573-8.027-19.573-21.286V36.8h10.373V62.686c0,7.486,2.886,9.741,9.2,9.741s9.2-2.255,9.2-9.741V36.8Z" transform="translate(-7.125 -18.956)" fill="#f47521"/>
    <path id="Path_41" data-name="Path 41" d="M195.094,36.259v9.2c-5.773,0-12.627,0-12.627,2.886V81.718H171.553V42.031C172.094,35.086,195.094,36.259,195.094,36.259Z" transform="translate(-5.811 -18.48)" fill="#f47521"/>
    <path id="Path_42" data-name="Path 42" d="M150.176,73.059a29.961,29.961,0,0,0,10.914-2.345v9.2a31.637,31.637,0,0,1-13.259,2.255c-13.8,0-21.286-8.027-21.286-23s7.486-23.541,21.286-23.541a47.641,47.641,0,0,1,13.259,2.345v9.2a32.755,32.755,0,0,0-10.914-2.255c-7.486,0-12.086,2.255-12.086,13.8C137.549,70.714,142.78,73.059,150.176,73.059Z" transform="translate(-4.366 -18.517)" fill="#f47521"/>
    <path id="Path_43" data-name="Path 43" d="M13.98,42.1c0-17.742,20.384-32.051,45.549-32.051,23.722.064,43.384,12.909,45.278,29.571V37.585c0-20.159-23.18-36.5-51.773-36.5S1.263,17.489,1.263,37.648s23.18,36.439,51.773,36.439h3.427C32.651,72.942,14.071,58.952,13.98,42.1Z" fill="#f47521"/>
    <path id="Path_44" data-name="Path 44" d="M84.063,61.514a16.6,16.6,0,0,1-5.773-32.2A34.586,34.586,0,0,0,61.6,25.255,36.259,36.259,0,1,0,97.863,61.514h0a30.081,30.081,0,0,0-.541-6.945A14.64,14.64,0,0,1,84.063,61.514Z" transform="translate(0 -24.169)" fill="#f47521"/>
  </g>
</svg>
