<svg width="396" height="140" viewBox="0 0 396 140" fill="none" xmlns="http://www.w3.org/2000/svg">
<path d="M131.563 67.6909C131.163 67.9971 130.795 68.32 130.463 68.6569C130.13 68.9946 129.8 69.3087 129.475 69.6001C129.15 69.8906 128.817 70.1304 128.475 70.3185C128.13 70.5077 127.736 70.6053 127.337 70.6011H126.686C126.252 70.6011 125.877 70.5154 125.561 70.3421C125.276 70.2004 125.018 69.9729 124.784 69.6587C124.55 69.3446 124.434 68.8887 124.434 68.292V62.6587H127.735C128.302 62.6587 128.777 62.7497 129.16 62.93C129.544 63.1102 129.899 63.315 130.224 63.5425C130.549 63.7709 130.874 63.987 131.198 64.1909C131.523 64.3947 131.912 64.5207 132.362 64.568C132.241 64.2064 132.153 63.8358 132.099 63.4602C131.982 62.6745 131.982 61.8773 132.099 61.0916C132.158 60.7066 132.245 60.3487 132.362 60.0189C131.912 60.0661 131.523 60.1921 131.198 60.396C130.873 60.6007 130.548 60.8169 130.224 61.0444C129.899 61.2727 129.544 61.4766 129.16 61.6569C128.777 61.838 128.302 61.9281 127.735 61.9281H124.434V57.5925C124.434 56.9957 124.55 56.5434 124.784 56.2371C125.018 55.9309 125.276 55.7069 125.561 55.5651C125.877 55.3919 126.251 55.2982 126.686 55.2825H127.461C127.878 55.2825 128.233 55.3612 128.524 55.5179C128.816 55.6754 129.087 55.8792 129.337 56.1304C129.588 56.3815 129.842 56.6571 130.1 56.9555C130.359 57.2547 130.654 57.5444 130.989 57.8279C131.348 58.1271 131.747 58.3807 132.176 58.5821C132.635 58.8026 133.197 58.9592 133.864 59.0537V58.9129C133.631 58.5679 133.438 58.2003 133.288 57.8165C133.015 57.0931 132.863 56.3337 132.838 55.566C132.821 55.1185 132.813 54.6707 132.814 54.2229H132.714C132.495 54.3652 132.254 54.4763 132.001 54.5527C131.709 54.6472 131.346 54.6945 130.913 54.6945H118.434V54.8599C118.901 54.9071 119.317 55.0174 119.685 55.1897C120.001 55.3472 120.29 55.587 120.548 55.909C120.807 56.231 120.936 56.6904 120.936 57.288V68.6009C120.936 69.1985 120.807 69.6579 120.548 69.9799C120.29 70.3019 120.002 70.5416 119.685 70.6991C119.293 70.879 118.869 70.9907 118.434 71.029V71.1944H130.788C131.222 71.1944 131.584 71.2416 131.876 71.3352C132.168 71.4297 132.405 71.5391 132.588 71.6651H132.689C132.872 70.6755 133.102 69.7795 133.377 68.978C133.652 68.1765 134.065 67.3916 134.614 66.6216V66.4799C133.964 66.5429 133.393 66.6846 132.901 66.9042C132.409 67.1221 131.964 67.3846 131.563 67.6909ZM149.169 71.3799C149.711 71.4953 150.265 71.5505 150.819 71.5444C151.687 71.5444 152.479 71.4184 153.195 71.1672C153.872 70.9386 154.496 70.5906 155.034 70.1417C155.542 69.7104 155.943 69.1794 156.209 68.586C156.488 67.9633 156.628 67.2937 156.622 66.6181C156.622 65.4867 156.275 64.4936 155.584 63.637C154.892 62.7804 153.896 62.0699 152.595 61.5037L148.118 59.5472C147.368 59.2174 146.793 58.8481 146.392 58.4395C146.001 58.0523 145.786 57.5364 145.793 57.0019C145.793 56.4051 146.014 55.9221 146.455 55.5529C146.897 55.1836 147.518 54.999 148.318 54.999C148.919 54.999 149.423 55.1014 149.832 55.3052C150.24 55.5091 150.611 55.769 150.945 56.0831C151.278 56.3972 151.596 56.7394 151.895 57.1086C152.195 57.4779 152.528 57.8357 152.896 58.1814C153.278 58.5378 153.706 58.8469 154.171 59.101C154.655 59.3679 155.255 59.549 155.972 59.6426V59.5009C155.508 58.7452 155.147 57.9377 154.896 57.0972C154.662 56.2957 154.546 55.4164 154.546 54.4574H154.446C154.129 54.7872 153.67 54.9526 153.07 54.9526C152.803 54.9526 152.511 54.9211 152.195 54.8581C151.852 54.7904 151.51 54.7198 151.169 54.6464C150.802 54.5676 150.41 54.4976 149.994 54.4346C149.564 54.3711 149.129 54.3395 148.693 54.3401C147.926 54.3401 147.23 54.446 146.605 54.6586C146.015 54.8509 145.471 55.1512 145.004 55.5424C144.565 55.9163 144.215 56.3742 143.978 56.8855C143.732 57.4288 143.608 58.0148 143.616 58.6057C143.61 59.5773 143.939 60.5244 144.554 61.3042C145.179 62.1136 146.092 62.7699 147.293 63.2721L150.845 64.7806C152.011 65.2837 152.857 65.8017 153.383 66.3364C153.909 66.871 154.171 67.515 154.171 68.2692C154.171 69.0235 153.912 69.6482 153.396 70.1426C152.878 70.6379 152.104 70.8855 151.07 70.8855C150.336 70.8855 149.715 70.7595 149.207 70.5084C148.704 70.2614 148.244 69.9436 147.844 69.566C147.438 69.1827 147.065 68.7689 146.73 68.3287C146.389 67.8807 146.021 67.4572 145.63 67.0565C145.239 66.6557 144.793 66.3136 144.292 66.031C143.793 65.7484 143.192 65.583 142.492 65.5357V65.6775C143.258 66.8876 143.592 68.8047 143.492 71.428H143.592C143.859 71.1414 144.182 70.9053 144.543 70.7324C144.893 70.567 145.276 70.4847 145.693 70.4847C146.043 70.4847 146.39 70.5399 146.731 70.6501C147.072 70.7604 147.443 70.882 147.845 71.015C148.245 71.148 148.687 71.2696 149.169 71.3799ZM174.767 61.5046L170.291 59.5481C169.541 59.2182 168.965 58.849 168.565 58.4404C168.174 58.0532 167.958 57.5373 167.965 57.0027C167.965 56.406 168.186 55.923 168.628 55.5537C169.069 55.1845 169.69 54.9999 170.491 54.9999C171.091 54.9999 171.595 55.1022 172.004 55.3061C172.413 55.51 172.783 55.7699 173.117 56.084C173.451 56.3981 173.768 56.7402 174.067 57.1095C174.368 57.4787 174.7 57.8366 175.068 58.1822C175.45 58.5387 175.879 58.8477 176.344 59.1019C176.828 59.3687 177.427 59.5499 178.144 59.6435V59.5017C177.68 58.7461 177.319 57.9386 177.069 57.0981C176.835 56.2966 176.719 55.4172 176.719 54.4582H176.619C176.301 54.7881 175.842 54.9535 175.243 54.9535C174.975 54.9535 174.685 54.922 174.367 54.859C174.024 54.7913 173.682 54.7207 173.341 54.6472C172.974 54.5685 172.582 54.4985 172.166 54.4355C171.736 54.372 171.301 54.3404 170.866 54.341C170.099 54.341 169.402 54.4469 168.777 54.6595C168.187 54.8518 167.643 55.1521 167.177 55.5432C166.737 55.9172 166.388 56.3751 166.151 56.8864C165.904 57.4297 165.781 58.0157 165.789 58.6066C165.782 59.5781 166.112 60.5252 166.726 61.3051C167.351 62.1145 168.264 62.7707 169.465 63.273L173.016 64.7815C174.182 65.2846 175.029 65.8026 175.555 66.3372C176.08 66.8719 176.343 67.5159 176.343 68.2701C176.343 69.0244 176.084 69.6491 175.568 70.1435C175.049 70.6387 174.275 70.8864 173.242 70.8864C172.507 70.8864 171.886 70.7604 171.378 70.5092C170.876 70.2623 170.416 69.9445 170.015 69.5669C169.609 69.1835 169.237 68.7698 168.902 68.3296C168.56 67.8816 168.193 67.4581 167.802 67.0574C167.411 66.6566 166.964 66.3145 166.464 66.0319C165.964 65.7492 165.363 65.5839 164.663 65.5366V65.6784C165.429 66.8885 165.764 68.8056 165.663 71.4289H165.764C166.031 71.1423 166.354 70.9062 166.714 70.7332C167.064 70.5679 167.448 70.4856 167.865 70.4856C168.215 70.4856 168.561 70.5407 168.903 70.651C169.244 70.7612 169.615 70.8829 170.016 71.0159C170.416 71.1497 170.858 71.2714 171.341 71.3816C171.882 71.4971 172.436 71.5523 172.991 71.5461C173.858 71.5461 174.65 71.4201 175.367 71.169C176.043 70.9404 176.667 70.5923 177.205 70.1435C177.713 69.7122 178.115 69.1811 178.381 68.5877C178.659 67.9651 178.799 67.2954 178.793 66.6199C178.793 65.4885 178.447 64.4954 177.756 63.6387C177.064 62.7812 176.068 62.0699 174.767 61.5046ZM199.922 71.3326C200.214 71.4271 200.45 71.5365 200.634 71.6625H200.734C200.917 70.6729 201.148 69.7769 201.423 68.9754C201.697 68.1739 202.111 67.389 202.66 66.619V66.4772C202.01 66.5402 201.439 66.682 200.947 66.9016C200.455 67.1221 200.009 67.3846 199.609 67.6909C199.209 67.9971 198.841 68.32 198.509 68.6569C198.176 68.9946 197.846 69.3087 197.521 69.6001C197.196 69.8906 196.863 70.1304 196.521 70.3185C196.175 70.5077 195.782 70.6053 195.383 70.6011H194.732C194.298 70.6011 193.923 70.5154 193.606 70.3421C193.322 70.2004 193.064 69.9729 192.83 69.6587C192.596 69.3446 192.48 68.8887 192.48 68.292V62.6587H195.781C196.347 62.6587 196.823 62.7497 197.206 62.93C197.59 63.1102 197.944 63.315 198.269 63.5425C198.594 63.7709 198.92 63.987 199.244 64.1909C199.569 64.3947 199.957 64.5207 200.408 64.568C200.287 64.2064 200.199 63.8358 200.145 63.4602C200.028 62.6745 200.028 61.8773 200.145 61.0916C200.203 60.7066 200.291 60.3487 200.408 60.0189C199.957 60.0661 199.569 60.1921 199.244 60.396C198.919 60.6007 198.593 60.8169 198.269 61.0444C197.944 61.2727 197.59 61.4766 197.206 61.6569C196.823 61.838 196.347 61.9281 195.781 61.9281H192.48V57.5925C192.48 56.9957 192.596 56.5434 192.83 56.2371C193.064 55.9309 193.322 55.7069 193.606 55.5651C193.923 55.3919 194.297 55.2982 194.732 55.2825H195.507C195.924 55.2825 196.279 55.3612 196.57 55.5179C196.862 55.6754 197.133 55.8792 197.383 56.1304C197.633 56.3815 197.888 56.6571 198.146 56.9555C198.405 57.2547 198.7 57.5444 199.034 57.8279C199.394 58.1271 199.793 58.3807 200.222 58.5821C200.681 58.8026 201.242 58.9592 201.91 59.0537V58.9129C201.677 58.5679 201.484 58.2003 201.334 57.8165C201.06 57.0931 200.908 56.3337 200.884 55.566C200.867 55.1185 200.859 54.6707 200.86 54.2229H200.76C200.54 54.3652 200.3 54.4763 200.046 54.5527C199.755 54.6472 199.392 54.6945 198.959 54.6945H186.48V54.8599C186.946 54.9071 187.363 55.0174 187.731 55.1897C188.047 55.3472 188.335 55.587 188.593 55.909C188.852 56.231 188.981 56.6904 188.981 57.288V68.6009C188.981 69.1985 188.852 69.6579 188.593 69.9799C188.334 70.3019 188.047 70.5416 187.731 70.6991C187.338 70.879 186.915 70.9907 186.48 71.029V71.1944H198.834C199.267 71.1909 199.63 71.2381 199.922 71.3326ZM224.221 64.9924L215.192 54.6927H209.69V54.8581C210.256 54.9526 210.757 55.1329 211.191 55.3997C211.575 55.6351 211.92 55.9737 212.229 56.413C212.537 56.8531 212.692 57.4577 212.692 58.2277V65.534C212.692 66.8062 212.537 67.8081 212.229 68.5387C211.92 69.2694 211.575 69.8154 211.191 70.1767C210.784 70.5857 210.264 70.8796 209.69 71.0255V71.1909H216.567V71.0255C215.984 70.8842 215.455 70.5899 215.043 70.1767C214.658 69.8154 214.313 69.2694 214.005 68.5387C213.695 67.8081 213.541 66.8062 213.541 65.534V58.1332H213.642L225.496 71.6625H225.621C225.484 70.7477 225.388 69.8278 225.333 68.9054C225.274 67.9357 225.232 66.9652 225.208 65.9942C225.183 65.0125 225.171 64.0465 225.171 63.0954V60.3496C225.171 59.0931 225.325 58.0956 225.633 57.3562C225.941 56.6177 226.288 56.0682 226.671 55.7069C227.084 55.2938 227.613 54.9995 228.197 54.8581V54.6927H221.319V54.8581C221.886 54.999 222.386 55.2825 222.82 55.7069C223.004 55.895 223.186 56.1234 223.37 56.3902C223.553 56.658 223.717 56.9791 223.858 57.3562C224 57.7334 224.117 58.1691 224.208 58.6644C224.3 59.1596 224.345 59.7214 224.345 60.3496V64.9924H224.221ZM249.062 65.912C248.799 66.4559 248.435 66.9509 247.987 67.3732C247.603 67.7346 247.098 68.0689 246.473 68.3751C245.848 68.6814 245.077 68.8345 244.16 68.8345C243.193 68.8345 242.313 68.642 241.521 68.257C240.726 67.8696 240.03 67.3228 239.483 66.6549C238.917 65.9715 238.475 65.1507 238.158 64.1917C237.842 63.2336 237.683 62.188 237.683 61.0575C237.683 60.1466 237.783 59.3171 237.983 58.5707C238.184 57.8244 238.467 57.1882 238.833 56.6615C239.199 56.1356 239.637 55.727 240.145 55.4365C240.654 55.146 241.239 54.9951 241.833 55.0007C242.366 55.0007 242.825 55.1031 243.209 55.307C243.592 55.5109 243.942 55.7707 244.26 56.0849C244.576 56.399 244.88 56.7411 245.172 57.1104C245.464 57.4796 245.797 57.8375 246.173 58.1831C246.564 58.5396 247.001 58.8486 247.473 59.1027C247.965 59.3696 248.57 59.5507 249.286 59.6444V59.5026C248.821 58.7563 248.459 57.9564 248.211 57.1226C247.977 56.3211 247.861 55.4339 247.861 54.4591H247.762C247.444 54.789 246.986 54.9544 246.386 54.9544C246.118 54.9544 245.844 54.9229 245.56 54.8599C245.255 54.7925 244.951 54.722 244.648 54.6481C244.323 54.5694 243.963 54.4994 243.573 54.4364C243.147 54.3713 242.716 54.3397 242.285 54.3419C241.084 54.3419 239.992 54.5737 239.009 55.0375C238.032 55.4964 237.167 56.1425 236.47 56.9345C235.761 57.736 235.211 58.6784 234.82 59.7625C234.427 60.8466 234.232 62.0174 234.232 63.2739C234.232 64.5155 234.423 65.6425 234.808 66.6557C235.19 67.669 235.729 68.5379 236.42 69.2597C237.112 69.9826 237.961 70.5572 238.909 70.945C239.875 71.3457 240.95 71.5461 242.135 71.5461C242.901 71.5461 243.589 71.4674 244.198 71.3107C244.77 71.1681 245.32 70.9582 245.836 70.686C246.296 70.4438 246.72 70.1467 247.099 69.8022C247.441 69.4902 247.755 69.1512 248.037 68.789C248.664 67.9511 249.115 67.0069 249.363 66.0082L249.062 65.912ZM269.59 71.3326C269.881 71.4271 270.118 71.5365 270.302 71.6625H270.402C270.585 70.6729 270.816 69.7769 271.09 68.9754C271.365 68.1739 271.778 67.389 272.328 66.619V66.4772C271.678 66.5402 271.107 66.682 270.615 66.9016C270.123 67.1221 269.677 67.3846 269.277 67.6909C268.877 67.9971 268.509 68.32 268.177 68.6569C267.843 68.9946 267.514 69.3087 267.189 69.6001C266.864 69.8906 266.531 70.1304 266.189 70.3185C265.843 70.5077 265.45 70.6053 265.051 70.6011H264.4C263.966 70.6011 263.591 70.5154 263.274 70.3421C262.99 70.2004 262.732 69.9729 262.498 69.6587C262.264 69.3446 262.148 68.8887 262.148 68.292V62.6587H265.449C266.015 62.6587 266.491 62.7497 266.874 62.93C267.258 63.1102 267.612 63.315 267.937 63.5425C268.262 63.7709 268.588 63.987 268.912 64.1909C269.237 64.3947 269.625 64.5207 270.076 64.568C269.955 64.2064 269.867 63.8358 269.813 63.4602C269.696 62.6745 269.696 61.8773 269.813 61.0916C269.871 60.7066 269.959 60.3487 270.076 60.0189C269.625 60.0661 269.237 60.1921 268.912 60.396C268.587 60.6007 268.261 60.8169 267.937 61.0444C267.612 61.2727 267.258 61.4766 266.874 61.6569C266.491 61.838 266.015 61.9281 265.449 61.9281H262.148V57.5925C262.148 56.9957 262.264 56.5434 262.498 56.2371C262.732 55.9309 262.99 55.7069 263.274 55.5651C263.591 55.3919 263.965 55.2982 264.4 55.2825H265.175C265.592 55.2825 265.947 55.3612 266.238 55.5179C266.53 55.6754 266.801 55.8792 267.05 56.1304C267.301 56.3815 267.556 56.6571 267.814 56.9555C268.073 57.2547 268.368 57.5444 268.702 57.8279C269.061 58.1271 269.461 58.3807 269.89 58.5821C270.349 58.8026 270.91 58.9592 271.578 59.0537V58.9129C271.345 58.5679 271.152 58.2003 271.002 57.8165C270.728 57.0931 270.576 56.3337 270.552 55.566C270.535 55.1185 270.527 54.6707 270.528 54.2229H270.427C270.208 54.3652 269.968 54.4763 269.714 54.5527C269.423 54.6472 269.06 54.6945 268.627 54.6945H256.148V54.8599C256.614 54.9071 257.031 55.0174 257.399 55.1897C257.714 55.3472 258.003 55.587 258.261 55.909C258.52 56.231 258.649 56.6904 258.649 57.288V68.6009C258.649 69.1985 258.52 69.6579 258.261 69.9799C258.003 70.3019 257.715 70.5416 257.399 70.6991C257.006 70.879 256.583 70.9907 256.148 71.029V71.1944H268.502C268.935 71.1909 269.298 71.2381 269.59 71.3326ZM76.2008 36.8252L77.886 42.6597L76.328 45.8614C83.5434 52.4169 94.0688 58.1525 99.1068 60.2945C91.2536 51.8691 74.2101 30.835 80.8628 3.36523C80.3243 3.85348 69.9474 19.145 73.6159 35.4007C73.6456 35.518 76.2008 36.8252 76.2008 36.8252Z" fill="white"/>
<path d="M67.6753 49.7026L71.8758 54.2736L71.9427 57.7955C81.4579 60.76 93.5813 61.6341 99.1068 61.509C88.1561 57.12 63.1285 45.1159 56.5027 17.6409C56.2418 18.3015 53.915 36.3195 64.692 49.4734C64.771 49.5679 67.6753 49.7026 67.6753 49.7026ZM99.1068 63.9896C88.481 69.0392 62.5983 79.3074 36.0516 66.3442C36.4184 66.9585 49.5213 80.262 67.1386 80.9944C67.2668 80.9979 69.25 78.995 69.25 78.995L75.6659 78.9215L78.5638 81.1457C87.1087 76.2099 95.6425 68.0479 99.1068 63.9896Z" fill="white"/>
<path d="M62.523 65.5821C62.6382 65.6355 65.328 64.5977 65.328 64.5977L71.1887 67.0591L72.834 70.2222C82.7856 69.104 94.1588 65.0519 99.1058 62.7296C87.2136 63.1304 59.1452 62.2606 40.7814 40.026C40.8427 40.7277 46.8435 57.9749 62.523 65.5821ZM314.434 45.8614L312.876 42.6597L314.562 36.8252C314.562 36.8252 317.117 35.5189 317.146 35.4007C320.815 19.1459 310.438 3.85436 309.899 3.36523C316.551 30.835 299.508 51.8691 291.655 60.2945C296.694 58.1525 307.219 52.416 314.434 45.8614Z" fill="white"/>
<path d="M318.82 57.7963L318.887 54.2745L323.087 49.7035C323.087 49.7035 325.99 49.5687 326.07 49.4742C336.847 36.3195 334.521 18.3015 334.26 17.6417C327.634 45.1167 302.605 57.1217 291.656 61.5107C297.181 61.635 309.304 60.76 318.82 57.7963ZM315.095 78.9215L321.511 78.995C321.511 78.995 323.495 80.9978 323.623 80.9943C341.24 80.262 354.343 66.9585 354.71 66.3442C328.163 79.3073 302.28 69.0392 291.655 63.9896C295.119 68.0478 303.653 76.2098 312.197 81.1466L315.095 78.9215Z" fill="white"/>
<path d="M319.573 67.0591L325.433 64.5978C325.433 64.5978 328.124 65.6355 328.238 65.5821C343.917 57.9758 349.918 40.7278 349.979 40.026C331.615 62.2606 303.547 63.1304 291.655 62.7296C296.603 65.051 307.976 69.104 317.927 70.2223L319.573 67.0591ZM187.491 36.7071L189.422 37.5086C189.414 37.4728 189.818 38.4886 189.818 38.4886L194.629 40.1153C194.752 36.9775 195.373 30.0484 195.381 29.9688C195.388 30.0493 196.008 36.9784 196.133 40.1153L200.943 38.4886C200.943 38.4886 201.347 37.4728 201.34 37.5086L203.27 36.7071C203.27 36.7071 204.141 37.0729 204.179 37.0563C210.07 34.5214 211.355 28.2905 211.382 28.0613C206.097 33.7426 199.811 36.778 199.313 37.0134L199.279 36.7561L200.341 35.5985C200.341 35.5985 201.041 35.4585 201.06 35.4323C203.692 31.8159 202.891 28.0376 202.842 27.6903C201.77 31.5044 200.237 33.3043 198.15 35.2564L197.868 35.182C197.164 30.128 196.443 27.79 195.38 22.9233V22.9215V22.9233C194.318 27.7909 193.595 30.128 192.891 35.182L192.61 35.2564C190.523 33.3034 188.99 31.5044 187.918 27.6903C187.868 28.0376 187.068 31.8159 189.699 35.4323C189.719 35.4585 190.419 35.5985 190.419 35.5985L191.481 36.7561L191.448 37.0134C190.95 36.778 184.664 33.7426 179.378 28.0613C179.406 28.2905 180.69 34.5214 186.581 37.0563C186.621 37.0729 187.491 36.7071 187.491 36.7071ZM352.762 85.4271C352.762 85.4271 358.848 87.4956 358.848 91.0928C358.848 94.6899 358.836 128.79 358.836 132.19C358.836 136.537 352.677 137.919 352.677 137.919C352.677 137.919 364.144 136.493 364.144 132.196V91.0858C364.144 87.5866 352.762 85.4271 352.762 85.4271ZM376.793 132.19C376.793 128.79 376.78 87.8509 376.78 84.2581C376.78 80.6549 382.869 78.5881 382.869 78.5881C382.869 78.5881 371.484 80.7503 371.484 84.2494V132.196C371.484 136.493 382.947 137.919 382.947 137.919C382.947 137.919 376.793 136.537 376.793 132.19ZM62.6931 99.3344C62.7673 98.7131 63.1824 98.2914 63.9465 98.063C64.7098 97.8399 65.239 97.6238 65.5389 97.4146L64.4349 96.5326C63.3904 96.6289 62.3415 96.6774 61.292 96.6779H59.4145C58.8593 96.7146 58.2762 96.7418 57.6504 96.7549C57.0237 96.7741 56.5455 96.8021 56.2159 96.8345C56.2864 97.2886 56.5074 97.5835 56.8723 97.7209C57.2015 97.8409 57.514 97.9984 57.8027 98.1899C58.2762 102.172 58.577 105.472 58.7024 108.086C58.8305 110.698 58.9215 113.895 58.9791 117.672C59.0292 121.449 59.0589 125.643 59.0589 130.245C59.1313 130.904 58.8871 131.322 58.3096 131.495C57.7791 131.656 57.2437 131.802 56.7043 131.934C56.2029 132.057 55.9355 132.258 55.8974 132.532L64.0663 133.599C64.2901 133.397 64.5092 133.2 64.733 133.016C64.9474 132.829 65.0644 132.633 65.0644 132.43C65.0644 132.227 64.9864 131.971 64.8444 131.665C64.1926 131.716 63.5621 131.767 62.9428 131.813C62.6188 131.813 62.4581 131.697 62.4581 131.453C62.4581 130.204 62.4953 125.781 62.577 118.174C62.6531 110.558 62.6931 104.284 62.6931 99.3344ZM126.482 96.754H122.736L121.195 98.7341C121.342 98.6081 121.495 98.5416 121.662 98.5416H122.289C122.69 98.5416 123.174 98.5933 123.741 98.6982C124.308 98.805 124.716 100.067 124.97 102.501C125.224 104.926 125.437 108.053 125.599 111.89C125.761 115.725 125.845 120.194 125.845 125.291V127.946C122.622 124.722 119.312 121.375 115.902 117.915C112.626 114.584 109.384 111.224 106.176 107.834C103.352 104.85 100.587 101.816 97.8831 98.7341L98.7521 97.062C98.0025 96.8801 97.2392 96.7526 96.469 96.6805C95.5819 96.6267 94.6931 96.6025 93.8042 96.6079C93.105 96.7059 92.3994 96.7531 91.6844 96.7531H89.5108V98.3911C89.8005 98.3911 90.1069 98.4043 90.4142 98.4191C90.7271 98.434 91.0614 98.5049 91.4272 98.6265C91.7931 98.7446 92.1134 99.05 92.3892 99.5304C92.6631 100.01 92.833 100.528 92.9072 101.081C92.9072 103.185 92.7671 106.14 92.4959 109.947C92.2257 113.754 91.963 117.463 91.7095 121.066C91.4542 124.667 91.3251 127.911 91.3251 130.808C91.288 131.119 90.8878 131.513 90.1301 132.001C89.366 132.479 88.8154 133.016 88.483 133.599H98.7512C98.1226 133.115 97.3575 132.628 96.4504 132.147C95.546 131.659 95.0781 131.207 95.0391 130.79V102.071C99.3213 106.345 102.659 109.688 105.032 112.079C107.492 114.563 110.758 117.877 114.836 122.022C118.913 126.17 122.713 130.028 126.238 133.599H127.422C127.422 127.174 127.538 121.127 127.779 115.466C128.018 109.803 128.41 104.103 128.957 98.3754C128.957 98.1995 129.193 98.0245 129.675 97.8513C130.148 97.678 130.351 97.3114 130.276 96.7549L126.482 96.754ZM168.052 130.972C164.671 131.481 161.039 131.741 157.154 131.741L156.998 131.482L158.009 115.866C159.513 116.31 161.06 116.842 163.259 116.488C166.654 115.94 170.485 112.737 170.485 112.737C170.485 112.737 166.981 113.756 163.562 114.203C161.35 114.496 159.965 113.586 158.069 113.199L157.866 99.2189L158.035 99.0666C160.007 99.1463 162.478 99.2276 165.457 99.3108C168.431 99.3939 171.335 99.4368 174.161 99.4368V98.3491C173.771 98.0173 173.377 97.6904 172.978 97.3683C172.592 97.062 172.286 96.9036 172.067 96.9036C170.528 96.9036 168.174 96.9675 165.022 97.09C161.864 97.2143 159.494 97.2746 157.917 97.2746C155.858 97.2746 154.043 97.2186 152.465 97.0944L150.756 98.0429C152.561 98.4944 153.548 99.4796 153.724 101.007C153.905 102.533 154.047 104.661 154.152 107.4C154.227 109.315 154.265 111.311 154.286 113.342C151.124 114.227 147.79 116.789 147.79 116.789C147.79 116.789 151.382 115.674 154.304 115.42C154.304 115.609 154.309 115.789 154.309 115.98V130.223C154.309 130.989 153.863 131.655 152.973 132.225C152.079 132.796 151.671 133.255 151.744 133.599C152.48 133.599 154.404 133.55 157.527 133.454C160.648 133.355 163.108 133.305 164.906 133.305C165.128 133.305 166.046 133.322 167.656 133.362C169.273 133.392 170.615 133.46 171.68 133.565C171.68 133.565 171.519 135.616 171.324 136.572L178.733 129.181L177.677 128.241C174.614 129.555 171.376 130.474 168.052 130.972ZM232.749 127.466C231.648 125.383 230.033 122.567 227.9 119.016C225.773 115.468 223.608 111.942 221.404 108.436C219.196 104.937 217.74 102.51 217.051 101.159C216.349 99.8051 215.84 98.0928 215.505 96.0111C213.854 97.643 212.474 99.3895 211.373 101.244C210.019 103.544 208.697 105.86 207.409 108.194C205.712 111.253 204.04 114.323 202.391 117.405C200.595 120.775 198.759 123.756 196.887 126.361C194.994 128.981 192.712 131.33 190.111 133.337C190.659 133.371 191.46 133.438 192.524 133.544H198.833C199.126 133.371 199.268 133.182 199.268 132.97C199.268 132.833 199.059 132.587 198.639 132.244C198.216 131.898 198.007 131.548 198.007 131.201C198.007 131.062 198.286 130.3 198.838 128.915C199.388 127.529 200.133 125.949 201.072 124.183C202.011 122.416 203.733 119.256 206.234 114.713H220.423C222.412 117.824 224.133 120.677 225.586 123.275C227.005 125.798 228.268 128.395 229.37 131.054C229.37 131.467 229.024 131.825 228.337 132.118C227.651 132.414 227.362 132.886 227.472 133.544H236.557C236.48 132.85 236.106 132.183 235.424 131.547C234.742 130.904 233.853 129.544 232.749 127.466ZM207.343 112.48C208.294 110.772 209.296 109.088 210.346 107.432C211.358 105.847 212.373 104.496 213.401 103.383C214.319 104.738 215.228 106.098 216.128 107.464C217.287 109.204 218.29 110.875 219.129 112.48H207.343ZM279.759 112.871L278.381 113.652C279.132 113.99 279.934 114.218 280.758 114.328C281.567 114.431 282.249 114.607 282.801 114.845C283.356 115.084 283.781 115.53 284.075 116.17C284.369 116.811 284.514 117.616 284.514 118.585C284.481 119.14 284.444 119.683 284.41 120.221C284.372 120.757 284.359 121.288 284.359 121.803C284.359 123.431 283.592 124.925 282.069 126.296C280.544 127.666 278.881 128.692 277.079 129.385C274.906 130.112 272.718 130.476 270.517 130.476C265.444 130.476 261.125 129.03 257.559 126.144C253.992 123.256 252.211 119.578 252.211 115.118C252.211 113.454 252.533 111.534 253.171 109.356C253.818 107.174 254.937 105.179 256.532 103.363C258.129 101.545 260.062 100.325 262.325 99.6993C264.577 99.078 266.756 98.77 268.854 98.77C270.943 98.77 272.936 99.078 274.825 99.6993C276.718 100.325 278.344 101.275 279.702 102.554L283.559 100.531C281.505 99.1497 279.471 98.1514 277.448 97.5345C275.429 96.9176 273.263 96.6096 270.952 96.6096C269.993 96.6096 267.047 96.8581 262.111 97.3569C257.176 97.86 253.63 100.498 251.484 105.26C249.334 110.03 248.263 113.641 248.263 116.094C248.263 117.645 248.482 119.179 248.925 120.681C249.364 122.184 250.297 123.997 251.731 126.122C253.168 128.244 255.35 130 258.288 131.385C261.231 132.764 264.48 133.455 268.044 133.455C270.505 133.455 272.719 133.031 274.684 132.185C276.647 131.338 279.189 130.288 281.737 128.319C282.833 127.473 283.074 127.064 283.802 126.404C284.285 125.965 284.518 132.526 283.556 135.374C286.317 133.795 287.028 124.094 287.475 123.904C287.475 123.313 287.847 123.122 287.555 121.531C287.268 119.938 287.122 118.748 287.122 117.956C287.122 116.988 287.306 116.166 287.676 115.494C288.048 114.822 288.676 114.31 289.564 113.961L289.345 112.98L279.759 112.871ZM322.639 131.938C319.255 132.456 315.623 132.709 311.737 132.709L311.58 132.445L312.589 116.834C314.095 117.278 315.642 117.81 317.841 117.456C321.237 116.908 325.065 113.709 325.065 113.709C325.065 113.709 321.563 114.726 318.143 115.171C315.931 115.461 314.548 114.55 312.649 114.165L312.447 100.188L312.618 100.031C314.591 100.114 317.062 100.2 320.039 100.281C323.017 100.364 325.915 100.405 328.746 100.405L329.465 98.1549C327.11 96.635 327.597 90.23 330.313 87.5569C329.941 87.9393 326.477 91.4401 326.351 91.5924C324.033 94.5621 324.87 97.8784 321.715 98.0009C318.56 98.1234 314.075 98.245 312.501 98.245C310.438 98.245 308.625 98.189 307.046 98.063L305.34 99.0115C307.144 99.463 308.13 100.45 308.308 101.973C308.485 103.504 308.628 105.627 308.733 108.368C308.809 110.284 308.849 112.279 308.872 114.311C305.71 115.195 302.371 117.758 302.371 117.758C302.371 117.758 305.967 116.64 308.891 116.388C308.891 116.576 308.897 116.756 308.897 116.945V131.191C308.897 131.953 308.448 132.619 307.555 133.193C306.667 133.765 306.255 134.223 306.327 134.57C307.063 134.57 308.987 134.518 312.11 134.422C315.231 134.321 317.695 134.27 319.488 134.27C319.715 134.27 320.63 134.287 322.244 134.325C323.863 134.357 325.2 134.428 326.268 134.53C326.268 134.53 326.102 136.586 325.912 137.539L333.317 130.145L332.259 129.207C329.199 130.525 325.962 131.443 322.639 131.938ZM330.337 87.5324L330.315 87.5569C330.322 87.549 330.33 87.5408 330.337 87.5324ZM40.6301 128.557C37.8505 129.913 34.8296 130.776 31.7184 131.102C28.608 131.426 24.4622 131.592 19.2729 131.592C19.2729 131.592 18.9052 131.561 18.388 131.531C18.6972 129.768 19.2933 126.074 19.5765 122.289C19.816 119.112 19.3917 111.159 18.5839 107.841C18.4316 107.227 19.4279 104.411 19.7018 103.895C18.8736 103.856 18.3035 104.595 18.0844 104.169C17.7863 103.593 19.1215 100.026 19.5774 99.4411C18.9971 99.3659 17.3054 100.906 17.2562 100.653C17.0816 99.7343 21.232 95.4205 21.8569 94.5613C21.024 94.2104 17.8021 96.2421 17.6703 95.4993C17.5524 94.8229 20.2357 93.275 25.2115 91.0455C23.8448 90.9685 15.5561 89.7155 15.1011 89.2491C14.7362 88.8764 10.2117 83.5861 8.38716 83.0401C10.3351 85.344 12.3648 92.2968 12.2841 95.0285C12.2841 98.2529 12.4066 103.544 13.7762 108.231C14.6322 111.162 17.1113 116.924 17.1113 122.469C17.1113 128.012 16.3481 129.788 16.3481 129.788C16.3481 129.788 16.3481 127.912 14.3555 126.157C15.102 128.03 15.4326 129.015 14.4809 129.552C13.531 130.09 12.7409 129.987 12.3853 130.253C12.0352 130.522 12.0445 130.702 12.0445 130.702C12.0445 130.702 11.4243 131.051 11.0724 131.281C10.0557 131.933 8.64714 131.981 8.32681 132.285C7.29154 133.283 8.1179 133.396 8.32681 133.694C8.57565 134.043 9.1151 134.355 9.1151 134.355C9.1151 134.355 8.81427 133.78 9.57192 133.262C10.0557 132.934 11.7966 132.787 12.7604 133.636C13.6917 134.447 10.9498 134.67 10.3946 134.73C9.84304 134.792 9.36394 133.85 9.36394 133.85C9.36394 133.85 9.48743 135.057 9.38808 135.377C10.454 135.171 13.9108 135.306 13.9108 135.306C13.9108 135.306 13.8337 134.884 14.2107 134.758C14.5849 134.632 15.1652 134.64 15.5384 134.576C15.8876 134.518 16.2432 133.639 16.2868 133.527C20.5774 133.529 24.2375 133.573 27.257 133.655C30.3405 133.742 33.3145 133.922 36.178 134.199L36.2699 137.92C38.4769 134.64 40.6905 131.387 42.8966 128.146C42.6782 128.109 42.4564 128.092 42.2346 128.096C41.4936 128.096 40.9588 128.251 40.6301 128.557Z" fill="white"/>
</svg>
