<svg width="199" height="40" viewBox="0 0 199 40" fill="none" xmlns="http://www.w3.org/2000/svg">
<path fill-rule="evenodd" clip-rule="evenodd" d="M28.4454 28.5096C28.4454 34.7915 22.9532 39.3472 14.2289 39.3472C9.17014 39.2195 4.37616 37.2597 0.908936 33.9021L3.82664 30.9629C6.55755 33.3312 9.77077 35.6331 14.1711 35.6331C19.0589 35.6331 24.3287 33.1363 24.3287 28.6534C24.3287 24.9299 21.0799 22.5013 14.2526 20.5862C6.47264 18.4206 2.52064 15.4815 2.52064 9.9559C2.52064 4.48758 7.60201 0 14.8419 0C20.2494 0 23.6324 2.09915 26.9254 4.7815L24.057 7.68195C21.1699 5.3523 18.4186 3.77291 15.0424 3.77291C10.8543 3.77291 6.72059 6.2325 6.72059 9.77338C6.72059 12.9817 8.74499 15.0251 15.8915 17.0176C22.4368 18.8538 28.4454 21.6986 28.4454 28.508V28.5096ZM63.7431 3.61637C63.7431 5.33923 65.2759 6.73587 67.1669 6.73587C68.0751 6.73629 68.9461 6.40776 69.5884 5.82266C70.2305 5.23754 70.5911 4.44384 70.5906 3.61637C70.5906 1.89352 69.0578 0.496875 67.1669 0.496875C65.2759 0.496875 63.7431 1.89352 63.7431 3.61637ZM106.511 37.479C106.511 37.479 109.052 39.3586 117.516 39.3586L117.511 39.357C125.866 39.357 132.648 33.7912 132.648 26.1867C132.648 18.5821 125.872 13.0379 117.516 13.0379C115.146 12.9801 112.793 13.4183 110.638 14.3188V1.14219H106.511V37.479ZM137.481 26.223C137.48 33.8309 144.251 39.9989 152.604 39.9997C160.958 39.9997 167.73 33.8325 167.731 26.2242C167.731 18.6162 160.96 12.4487 152.606 12.4484C144.253 12.4482 137.481 18.6152 137.481 26.223ZM192.761 38.7366H198.148L186.238 25.8154L197.345 13.6969H191.987L183.552 22.901L175.075 13.6969H169.688L180.875 25.8323L169.047 38.7366H174.402L183.557 28.7467L192.761 38.7366ZM152.644 16.1702C148.19 16.1698 144.173 18.6136 142.468 22.3624C140.763 26.111 141.705 30.4262 144.855 33.2955C148.005 36.1648 152.743 37.0229 156.858 35.4698C160.974 33.9166 163.657 30.2582 163.656 26.2005C163.655 20.6613 158.726 16.1712 152.644 16.1702ZM117.539 16.8038C115.074 16.8355 112.677 17.5427 110.661 18.8336V34.348C112.798 35.2941 115.166 35.7256 117.539 35.6011C123.615 35.6011 128.544 31.7333 128.544 26.2026C128.544 20.6717 123.61 16.8024 117.534 16.8024L117.539 16.8038ZM96.9002 1.14258H92.7731V38.7307H96.9002V1.14258ZM79.0286 1.14258H83.1554V38.7307H79.0286V1.14258ZM39.1169 25.6021L39.1019 25.5885L39.1169 25.575V25.6021ZM39.1169 38.7307V25.6021L53.5377 38.7373H59.3732L44.9374 25.5885L58.0059 13.6773H52.1706L39.1169 25.575V1.14258H34.99V38.7307H39.1169ZM65.2565 38.7373H69.3834V13.6773H65.2565V38.7373Z" fill="white"/>
<mask id="mask0" mask-type="alpha" maskUnits="userSpaceOnUse" x="136" y="10" width="34" height="30">
<path d="M152.834 39.9998C161.849 39.9998 169.157 33.3601 169.157 25.1694C169.157 16.9788 161.849 10.3391 152.834 10.3391C143.819 10.3391 136.511 16.9788 136.511 25.1694C136.511 33.3601 143.819 39.9998 152.834 39.9998Z" fill="#3F2AFF"/>
</mask>
<g mask="url(#mask0)">
</g>
</svg>
